<svg version="1.1" viewBox="0 -5 83.252 43.867" xmlns="http://www.w3.org/2000/svg">
            <g transform="translate(45.918 -94.737)">
                <path id="arrows" d="m-8.8158 101.29v1.1648h3.8789c-0.3224-0.12117-0.64559-0.24293-0.97433-0.37074h-0.00991c-0.47666-0.19063-0.92628-0.42455-1.343-0.70246l-0.01982-0.02c-0.031705-0.0218-0.060437-0.0486-0.091151-0.0723zm14.053 0c-0.47854 0-0.75349 0.54433-0.46854 0.92875l4.6464 6.3068-3.8302 5.2004c0.12038-0.0357 0.24135-0.0565 0.35678-0.0565h1.1335l3.5318-4.7969c0.15129-0.20539 0.15129-0.48529 0-0.69067l-4.2163-5.7262h8.5335l4.4724 6.0708-3.9358 5.3442c0.0109 0.01 0.02378 0.01 0.03468 0.0139 0.33241 0.19063 0.57406 0.53453 0.67541 0.8381v0.0159l0.02774 0.0912 4.3878-5.9576c0.15129-0.20539 0.15129-0.48528 0-0.69067l-4.8999-6.6529c-0.10928-0.14921-0.28297-0.23759-0.46794-0.23808zm16.634 0c-0.47854 0-0.75339 0.54433-0.46844 0.92875l4.6463 6.3068-3.8067 5.1687c0.19112 0.0238 0.37798 0.0674 0.54423 0.14128 0.18706 0.0832 0.36797 0.20747 0.53294 0.35896l3.9194-5.3228c0.15129-0.20538 0.15129-0.48538 0-0.69067l-4.2163-5.7262h8.5335l4.4724 6.0707-4.4724 6.0724h-7.9283c0.11929 0.21688 0.19974 0.46061 0.19974 0.68711 0 0.20182-0.02576 0.32041-0.05647 0.40185-0.0099 0.0327-0.02081 0.0495-0.0317 0.0733h8.1116c0.18458 0 0.35816-0.0872 0.46794-0.236l4.9019-6.6529c0.15129-0.20539 0.15129-0.48538 0-0.69067l-4.9019-6.653c-0.10928-0.14921-0.28306-0.23749-0.46794-0.23809zm-21.668 1.8243c0.054493 0.33488 0.082234 0.68442 0.082234 1.0526 0 0.31982-0.027742 0.62676-0.070345 0.92677l2.5278 3.4318-3.8077 5.1707c0.36619 0.0634 0.76934 0.28792 1.005 0.59962l3.9946-5.4241c0.15139-0.20538 0.15139-0.48538 0-0.69067zm-7.4403 5.4112-3.9127 5.3125c0.19687 0.0426 0.38878 0.0911 0.57396 0.1505 0.20281 0.0654 0.39354 0.15099 0.57752 0.24937l3.9532-5.3662c0.029723-0.0416 0.053502-0.0872 0.071336-0.13514-0.43911-0.10165-0.76854-0.20004-1.1497-0.37491z" color="#000000" fill="#3ded92" stroke-linecap="round" stroke-linejoin="round" stroke-width=".99078" style="
                        -inkscape-stroke: none;
                        paint-order: fill markers stroke;
                    "></path>
                <path id="text" transform="matrix(.26458 0 0 .26458 -45.918 94.737)" d="m86.059 0c-0.57416 0-1.104 0.13344-1.5898 0.39844-0.48584 0.22083-0.81749 0.61725-0.99414 1.1914l-13.846 44.918c-0.04417 0.13254-0.066406 0.28626-0.066406 0.46289 0 0.35334 0.13149 0.68498 0.39648 0.99414 0.265 0.26502 0.59665 0.48548 0.99414 0.66211 0.3975 0.13254 0.77362 0.19922 1.127 0.19922 0.44166 0 0.81584-0.088995 1.125-0.26562 0.30915-0.17666 0.5296-0.46382 0.66211-0.86133l3.0488-10.201h18.285l3.0469 10.201c0.1325 0.39753 0.35295 0.6847 0.66211 0.86133s0.64081 0.26562 0.99414 0.26562c0.44166 0 0.86031-0.088995 1.2578-0.26562 0.39749-0.17666 0.72914-0.39711 0.99414-0.66211 0.265-0.30917 0.39844-0.64081 0.39844-0.99414 0-0.13246-0.02224-0.26395-0.06641-0.39648l-13.781-44.918c-0.1325-0.53-0.46219-0.92641-0.99219-1.1914-0.48583-0.265-1.0379-0.39844-1.6562-0.39844zm72.078 0.26562c-1.5458 0-3.1354 0.19821-4.7695 0.5957-1.6342 0.35333-3.157 0.97214-4.5703 1.8555-1.3692 0.88333-2.4956 2.119-3.3789 3.709-0.88333 1.5458-1.3262 3.5115-1.3262 5.8965 0 2.2966 0.39836 4.1956 1.1934 5.6973 0.79499 1.4575 1.8547 2.6507 3.1797 3.5781 1.325 0.88333 2.7608 1.6336 4.3066 2.252 1.59 0.61833 3.1573 1.2149 4.7031 1.7891s2.9594 1.28 4.2402 2.1191c1.325 0.83918 2.3847 1.9008 3.1797 3.1816 0.79499 1.2808 1.1934 2.9796 1.1934 5.0996 0 2.0316-0.39837 3.7324-1.1934 5.1016-0.79499 1.325-1.9214 2.3402-3.3789 3.0469-1.4575 0.6625-3.223 0.99414-5.2988 0.99414-2.0758 0-3.7543-0.26493-5.0352-0.79492-1.2808-0.57416-2.3183-1.2133-3.1133-1.9199-0.75083-0.75082-1.3696-1.3919-1.8555-1.9219-0.44166-0.57416-0.88451-0.86133-1.3262-0.86133-0.30917 0-0.61662 0.13146-0.92578 0.39648-0.30917 0.22082-0.57604 0.53025-0.79688 0.92773-0.17666 0.39751-0.26367 0.77362-0.26367 1.127 0 0.79498 0.52985 1.7657 1.5898 2.9141 1.1042 1.1042 2.6715 2.0991 4.7031 2.9824 2.0316 0.83916 4.4605 1.2578 7.2871 1.2578 2.7383 1e-6 5.1468-0.48536 7.2226-1.457 2.12-0.97167 3.7763-2.452 4.9688-4.4395 1.1925-2.0316 1.7871-4.6142 1.7871-7.75 0-2.65-0.39641-4.8138-1.1914-6.4922-0.795-1.6783-1.8547-3.0252-3.1797-4.041-1.2808-1.06-2.7166-1.9215-4.3066-2.584-1.5458-0.70665-3.0909-1.3255-4.6367-1.8555-1.5458-0.57416-2.9816-1.193-4.3066-1.8555-1.2808-0.6625-2.3405-1.524-3.1797-2.584-0.79499-1.1042-1.1934-2.538-1.1934-4.3047 0-1.9433 0.46314-3.4681 1.3906-4.5723 0.92749-1.1483 2.1206-1.9431 3.5781-2.3848 1.5017-0.44166 3.0467-0.66211 4.6367-0.66211 1.9433 0 3.5126 0.22045 4.7051 0.66211 1.2367 0.3975 2.2074 0.81615 2.9141 1.2578 0.70666 0.3975 1.2588 0.59766 1.6562 0.59766 0.44167 0 0.79555-0.15568 1.0606-0.46484 0.265-0.30916 0.46321-0.63886 0.5957-0.99219 0.17667-0.3975 0.26563-0.72914 0.26563-0.99414 0-0.61833-0.35389-1.1704-1.0606-1.6562-0.66249-0.53-1.5462-0.97284-2.6504-1.3262-1.1042-0.35334-2.3176-0.61827-3.6426-0.79492-1.2808-0.22083-2.5407-0.33008-3.7773-0.33008zm-144.22 0.13281c-2.5175 0-4.8351 0.46313-6.9551 1.3906-2.0758 0.92749-3.7543 2.4281-5.0352 4.5039-1.2808 2.0758-1.9219 4.8363-1.9219 8.2813v20.473c0 3.445 0.61881 6.2054 1.8555 8.2812 1.2367 2.0758 2.9152 3.5764 5.0352 4.5039s4.4154 1.3906 6.8887 1.3906c2.915 0 5.3883-0.5076 7.4199-1.5234 2.0758-1.06 3.6673-2.4291 4.7715-4.1074 1.1042-1.7225 1.6562-3.577 1.6562-5.5645 0-1.06-0.20016-1.7658-0.59766-2.1191-0.35333-0.3975-0.90542-0.59766-1.6562-0.59766-0.70666 0-1.2365 0.15568-1.5898 0.46484-0.30916 0.265-0.50736 0.68365-0.5957 1.2578-0.088333 0.79501-0.2643 1.6788-0.5293 2.6504-0.22083 0.9275-0.6192 1.8112-1.1934 2.6504-0.57416 0.79501-1.4357 1.4786-2.584 2.0527-1.1483 0.52999-2.7156 0.79492-4.7031 0.79492-3.18 0-5.6088-0.81703-7.2871-2.4512-1.6342-1.6342-2.4512-4.1945-2.4512-7.6836v-20.473c0-3.445 0.81702-5.983 2.4512-7.6172 1.6342-1.6783 3.9962-2.5176 7.0879-2.5176 1.9433 0 3.5106 0.28717 4.7031 0.86133 1.2367 0.53 2.1649 1.2358 2.7832 2.1191 0.6625 0.83916 1.1034 1.7229 1.3242 2.6504 0.265 0.88333 0.39844 1.6781 0.39844 2.3848 0.044168 0.44166 0.22013 0.83808 0.5293 1.1914 0.35333 0.30916 0.92766 0.46484 1.7227 0.46484 0.70666 0 1.2365-0.15568 1.5898-0.46484 0.3975-0.35333 0.59766-1.0591 0.59766-2.1191 0-2.0316-0.55209-3.8861-1.6562-5.5645-1.06-1.6783-2.607-3.0252-4.6387-4.041-2.0316-1.0158-4.5049-1.5234-7.4199-1.5234zm23.586 0c-0.57416 0-1.0837 0.13149-1.5254 0.39648-0.44166 0.265-0.66211 0.6856-0.66211 1.2598v45.049c0 0.57416 0.22045 1.0151 0.66211 1.3242 0.44166 0.265 0.95123 0.39844 1.5254 0.39844 0.53 0 1.0154-0.13344 1.457-0.39844 0.48583-0.30916 0.72852-0.75006 0.72852-1.3242v-21.465h19.146v21.465c0 0.57416 0.22045 1.0151 0.66211 1.3242 0.44166 0.265 0.94927 0.39844 1.5234 0.39844 0.53 0 1.0154-0.13344 1.457-0.39844 0.48583-0.30916 0.72852-0.75006 0.72852-1.3242v-45.049c0-0.57416-0.24269-0.99477-0.72852-1.2598-0.44166-0.265-0.92704-0.39648-1.457-0.39648-0.57416 0-1.0818 0.13149-1.5234 0.39648-0.44166 0.265-0.66211 0.6856-0.66211 1.2598v19.742h-19.146v-19.742c0-0.57416-0.24268-0.99477-0.72852-1.2598-0.44166-0.265-0.92704-0.39648-1.457-0.39648zm84.666 0c-2.6058 0-4.9476 0.46313-7.0234 1.3906-2.0316 0.92749-3.6657 2.4281-4.9023 4.5039-1.2367 2.0758-1.8535 4.8363-1.8535 8.2813v20.473c0 3.445 0.61685 6.2054 1.8535 8.2812s2.8929 3.5764 4.9688 4.5039c2.0758 0.9275 4.3954 1.3906 6.957 1.3906 2.6058 0 4.9457-0.46313 7.0215-1.3906 2.0758-0.9275 3.7321-2.4281 4.9688-4.5039 1.2366-2.0758 1.8555-4.8363 1.8555-8.2812v-20.473c0-3.445-0.61882-6.2054-1.8555-8.2813-1.2367-2.0758-2.8929-3.5764-4.9688-4.5039-2.0758-0.92749-4.4157-1.3906-7.0215-1.3906zm0 4.041c2.9591 0 5.2565 0.81702 6.8906 2.4512 1.6783 1.6342 2.5176 4.1945 2.5176 7.6836v20.473c0 3.4891-0.83926 6.0494-2.5176 7.6836-1.6342 1.6341-3.9315 2.4512-6.8906 2.4512s-5.2565-0.81703-6.8906-2.4512c-1.6342-1.6342-2.4512-4.1945-2.4512-7.6836v-20.473c0-3.4891 0.81701-6.0494 2.4512-7.6836 1.6342-1.6342 3.9315-2.4512 6.8906-2.4512zm-36.105 2.584 8.0156 26.697h-16.1l8.084-26.697zm38.826 68.572c-1.5458 0-3.1373 0.20015-4.7715 0.59766-1.6342 0.35334-3.157 0.97214-4.5703 1.8555-1.3692 0.88333-2.4956 2.119-3.3789 3.709-0.88332 1.5458-1.3242 3.5115-1.3242 5.8965 0 2.2966 0.39642 4.1956 1.1914 5.6973 0.79499 1.4575 1.8547 2.6506 3.1797 3.5781 1.325 0.88332 2.7608 1.6336 4.3066 2.252 1.59 0.61833 3.1573 1.2149 4.7031 1.7891s2.9594 1.28 4.2402 2.1191c1.325 0.83916 2.3847 1.8989 3.1797 3.1797 0.795 1.2808 1.1934 2.9816 1.1934 5.1016 0 2.0316-0.39836 3.7324-1.1934 5.1016-0.79499 1.325-1.9195 2.3402-3.377 3.0469-1.4575 0.6625-3.225 0.99414-5.3008 0.99414-2.0758 0-3.7543-0.2649-5.0352-0.79492-1.2808-0.57416-2.3183-1.2152-3.1133-1.9219-0.75083-0.75085-1.3696-1.3899-1.8555-1.9199-0.44166-0.57416-0.88255-0.86133-1.3242-0.86133-0.30917 0-0.61858 0.13149-0.92774 0.39649-0.30917 0.22082-0.5741 0.53023-0.79492 0.92773-0.17666 0.39751-0.26563 0.77365-0.26563 1.127 0 0.79501 0.52986 1.7657 1.5898 2.9141 1.1042 1.1042 2.6715 2.0991 4.7031 2.9824 2.0316 0.83916 4.4624 1.2578 7.2891 1.2578 2.7383 0 5.1449-0.48539 7.2207-1.457 2.12-0.97166 3.7763-2.452 4.9688-4.4394 1.1925-2.0317 1.7891-4.6142 1.7891-7.75 0-2.65-0.39836-4.8139-1.1934-6.4922-0.79499-1.6783-1.8547-3.0271-3.1797-4.043-1.2808-1.06-2.7166-1.9195-4.3066-2.582-1.5458-0.70667-3.0909-1.3255-4.6367-1.8555-1.5458-0.57416-2.9816-1.193-4.3066-1.8555-1.2808-0.66248-2.3405-1.524-3.1797-2.584-0.795-1.1042-1.1934-2.54-1.1934-4.3066 0-1.9433 0.46508-3.4662 1.3926-4.5703 0.92749-1.1483 2.1187-1.9431 3.5762-2.3848 1.5016-0.44168 3.0487-0.66211 4.6387-0.66211 1.9433 0 3.5106 0.22043 4.7031 0.66211 1.2367 0.39748 2.2074 0.81614 2.9141 1.2578 0.70666 0.39748 1.2588 0.59766 1.6562 0.59766 0.44166 0 0.79555-0.15568 1.0605-0.46484 0.26499-0.30914 0.4632-0.6408 0.59571-0.99414 0.17666-0.39751 0.26562-0.72719 0.26562-0.99219 0-0.61833-0.35388-1.1704-1.0606-1.6562-0.66249-0.52999-1.5443-0.97284-2.6484-1.3262-1.1042-0.35336-2.3195-0.61829-3.6445-0.79492-1.2808-0.22098-2.5387-0.33203-3.7754-0.33203zm-99.375 0.13281c-0.35333 0-0.72946 0.088995-1.127 0.26562-0.3975 0.13251-0.72719 0.33071-0.99219 0.5957-0.265 0.265-0.39844 0.59664-0.39844 0.99414-1e-6 0.17663 0.022236 0.33231 0.066406 0.46484l13.117 44.916c0.1325 0.52999 0.44191 0.92837 0.92774 1.1934 0.53 0.265 1.0821 0.39649 1.6562 0.39649 0.61833 0 1.1704-0.13149 1.6562-0.39649 0.52998-0.26499 0.86163-0.66337 0.99414-1.1934l6.293-23.387 6.2949 23.387c0.1325 0.52999 0.43995 0.92837 0.92578 1.1934 0.53 0.265 1.0821 0.39649 1.6562 0.39649 0.61833 0 1.1704-0.13149 1.6562-0.39649 0.48584-0.26499 0.81749-0.66337 0.99414-1.1934l12.984-44.916c0.04417-0.13254 0.066406-0.28821 0.066406-0.46484 0-0.3975-0.13149-0.72914-0.39648-0.99414-0.265-0.26497-0.5744-0.46317-0.92774-0.5957-0.35333-0.17663-0.7517-0.26562-1.1934-0.26562-0.3975 0-0.77167 0.11131-1.125 0.33203-0.30915 0.17668-0.5296 0.44161-0.66211 0.79492l-11.396 40.678-6.6895-24.711c-0.1325-0.57426-0.39938-0.97264-0.79688-1.1934-0.3975-0.22072-0.86063-0.33203-1.3906-0.33203s-1.0154 0.11131-1.457 0.33203c-0.44167 0.22082-0.75108 0.6192-0.92774 1.1934l-6.5586 24.711-11.461-40.678c-0.088332-0.35336-0.30878-0.61829-0.66211-0.79492-0.35333-0.22072-0.72946-0.33203-1.127-0.33203zm55.119 0c-0.48583 0-0.94896 0.15568-1.3906 0.46484-0.3975 0.265-0.5957 0.68365-0.5957 1.2578v44.984c0 0.57416 0.1982 1.015 0.5957 1.3242 0.44166 0.26499 0.9048 0.39843 1.3906 0.39843h23.586c0.57417 0 0.99282-0.20017 1.2578-0.59765 0.26499-0.44168 0.39843-0.90481 0.39843-1.3906 0-0.57416-0.15567-1.0595-0.46484-1.457-0.265-0.3975-0.66141-0.5957-1.1914-0.5957h-21.201v-18.285h10.402c0.57416 0 0.99281-0.20015 1.2578-0.59765 0.265-0.39749 0.39844-0.81614 0.39844-1.2578 0-0.52999-0.15568-0.99312-0.46484-1.3906-0.265-0.39748-0.66141-0.59766-1.1914-0.59766h-10.402v-18.219h21.201c0.53 0 0.92641-0.1982 1.1914-0.5957 0.30917-0.44165 0.46484-0.92702 0.46484-1.457 0-0.48582-0.13344-0.92671-0.39843-1.3242-0.265-0.44165-0.68365-0.66406-1.2578-0.66406h-23.586zm61.58 0c-0.52999 0-0.9506 0.22241-1.2598 0.66406-0.30917 0.39751-0.46289 0.86064-0.46289 1.3906 0 0.53002 0.15372 1.0154 0.46289 1.457 0.30916 0.39751 0.72977 0.5957 1.2598 0.5957h11.129v42.6c0 0.57416 0.22045 1.015 0.66211 1.3242 0.44166 0.26499 0.94928 0.39843 1.5234 0.39843 0.52999 0 1.0173-0.13344 1.459-0.39843 0.48583-0.30917 0.72852-0.75006 0.72852-1.3242v-42.6h11.062c0.57416 0 0.99477-0.22043 1.2598-0.66211 0.265-0.44165 0.39649-0.92702 0.39649-1.457 0-0.48582-0.13149-0.92671-0.39649-1.3242-0.26499-0.44165-0.6856-0.66406-1.2598-0.66406h-26.564zm53.793 0c-0.52999 0-0.94865 0.22241-1.2578 0.66406-0.30916 0.39751-0.46484 0.86064-0.46484 1.3906 0 0.53002 0.15568 1.0154 0.46484 1.457 0.30916 0.39751 0.72782 0.5957 1.2578 0.5957h11.131v42.6c0 0.57416 0.22045 1.015 0.66211 1.3242 0.44166 0.26499 0.94928 0.39843 1.5234 0.39843 0.52999 0 1.0154-0.13344 1.457-0.39843 0.48583-0.30917 0.73047-0.75006 0.73047-1.3242v-42.6h11.062c0.57416 0 0.99477-0.22043 1.2598-0.66211 0.265-0.44165 0.39649-0.92702 0.39649-1.457 0-0.48582-0.13149-0.92671-0.39649-1.3242-0.26499-0.44165-0.6856-0.66406-1.2598-0.66406h-26.566zm32.926 0c-0.39749 0-0.7939 0.088995-1.1914 0.26562-0.3975 0.13251-0.72914 0.35294-0.99414 0.66211-0.265 0.265-0.39649 0.5744-0.39649 0.92773 0 0.17663 0.02029 0.33231 0.06446 0.46484l13.914 44.916c0.1325 0.52999 0.43995 0.92837 0.92578 1.1934 0.53 0.265 1.0821 0.39649 1.6562 0.39649s1.106-0.13149 1.5918-0.39649c0.53-0.26499 0.88194-0.66337 1.0586-1.1934l13.715-44.916c0.04417-0.088441 0.06641-0.15512 0.06641-0.19922 0.04417-0.088441 0.06445-0.15512 0.06445-0.19922 0-0.39751-0.15372-0.72915-0.46289-0.99414-0.26499-0.26505-0.59664-0.48548-0.99414-0.66211s-0.79391-0.26562-1.1914-0.26562c-0.3975 0-0.75139 0.088995-1.0606 0.26562-0.30916 0.17668-0.50736 0.46385-0.5957 0.86133l-12.191 40.678-12.256-40.678c-0.1325-0.39753-0.35294-0.6847-0.66211-0.86133-0.30916-0.17663-0.66305-0.26562-1.0606-0.26562zm-57.105 48.43c-0.48583 0-0.8842 0.17596-1.1934 0.5293-0.30917 0.39751-0.46289 0.88287-0.46289 1.457 0 0.52999 0.15372 0.97284 0.46289 1.3262 0.30916 0.35334 0.70753 0.5293 1.1934 0.5293h21.199c0.44167 0 0.84003-0.17596 1.1934-0.5293 0.35333-0.35333 0.5293-0.79618 0.5293-1.3262 0-0.57416-0.17597-1.0595-0.5293-1.457-0.35333-0.35334-0.75169-0.5293-1.1934-0.5293h-21.199z" stroke-width="8.3812" style="paint-order: markers stroke fill"></path>
            </g>
        </svg>
