<?xml version="1.0" encoding="UTF-8" standalone="no"?>
<!-- Created with Inkscape (http://www.inkscape.org/) -->

<svg
   width="30mm"
   height="30mm"
   viewBox="0 0 30 30"
   version="1.1"
   id="svg1"
   xmlns="http://www.w3.org/2000/svg"
   xmlns:svg="http://www.w3.org/2000/svg">
  <defs
     id="defs1" />
  <g
     id="layer1">
    <rect
       style="opacity:1;fill:#eb1c14;fill-opacity:1;stroke:none;stroke-width:0.720544;stroke-opacity:1"
       id="rect1"
       width="30"
       height="30"
       x="0"
       y="0" />
    <path
       d="m 1.0202615,15.695836 c 0,5.178618 3.4935097,7.767916 7.1925191,7.767916 3.7812074,0 6.4527204,-2.71261 6.4527204,-6.16501 0,-3.534616 -2.507116,-5.754025 -6.4938199,-5.959517 C 8.5415813,9.3664177 9.8156877,6.3250147 13.268088,3.817898 l -1.3974,-2.3016 C 5.8700743,3.8590054 1.0202615,9.5719217 1.0202615,15.695836 Z M 16.514996,2.0505952 V 14.010727 h 5.343014 l -3.329099,9.000931 h 4.11001 l 6.082818,-10.68603 V 2.0505952 Z M 4.020569,27.244969 c 0,0.904199 0.6576024,1.2741 1.191904,1.2741 0.6165006,0 1.191903,-0.369901 1.191903,-1.2741 0,-0.863103 -0.5754024,-1.274113 -1.191903,-1.274113 -0.5343016,0 -1.191904,0.41101 -1.191904,1.274113 z m 9.083123,1.232992 h 1.068607 c 0.410998,0 0.863104,-0.164396 0.863104,-0.698695 0,-0.410997 -0.246601,-0.534297 -0.493203,-0.575405 0.246602,-0.04112 0.452094,-0.205493 0.452094,-0.575395 0,-0.534309 -0.452094,-0.616501 -0.863102,-0.616501 h -1.0275 z m -11.138128,0 H 2.6231664 V 27.573762 H 3.3629678 V 27.08056 H 2.6231664 V 26.587359 H 3.6506689 V 26.011965 H 1.965564 Z m 18.906043,0 h 1.80841 V 27.943663 H 21.570314 V 27.49157 h 0.739802 v -0.53431 h -0.739802 v -0.369901 h 1.068607 v -0.575394 h -1.767303 z m 5.836217,0.04112 c 0.739803,0 1.027511,-0.369902 1.027511,-1.027501 v -1.479605 h -0.616502 v 1.479605 c 0,0.328805 -0.123301,0.493202 -0.411009,0.493202 -0.246601,0 -0.369901,-0.164397 -0.369901,-0.493202 V 26.011971 H 25.72142 v 1.479605 c 0,0.657599 0.287709,1.027501 0.986404,1.027501 z m -16.316741,-0.04112 h 0.657609 v -1.890602 h 0.698695 V 26.011965 H 9.6923887 v 0.575394 h 0.6986943 z m 5.219714,-0.986391 c 0,0.657598 0.287709,1.027499 0.986403,1.027499 0.739803,0 1.0275,-0.369901 1.0275,-1.027499 v -1.479605 h -0.657599 v 1.479605 c 0,0.328792 -0.08224,0.493202 -0.369901,0.493202 -0.2466,0 -0.328805,-0.16441 -0.328805,-0.493202 V 26.011965 H 15.610797 Z M 5.212473,27.984772 c -0.3288006,0 -0.5343016,-0.287709 -0.5343016,-0.739803 0,-0.452106 0.205501,-0.698706 0.5343016,-0.698706 0.3699014,0 0.5343016,0.2466 0.5343016,0.698706 0,0.452094 -0.1644002,0.739803 -0.5343016,0.739803 z m 13.727435,-1.438509 h 0.287697 c 0.246602,0 0.369901,0.123299 0.369901,0.287696 0,0.246601 -0.123299,0.287709 -0.369901,0.287709 h -0.287697 z m -5.219714,0 h 0.369902 c 0.205504,0 0.328805,0.08224 0.328805,0.2466 0,0.123301 -0.123301,0.205505 -0.369901,0.205505 h -0.328806 z m 10.727126,0.986403 h -0.452106 l 0.205505,-0.657598 h 0.04111 z M 7.6373794,28.477961 V 27.08056 l 0.9453029,1.397401 H 9.158078 V 26.011965 H 8.5826823 v 1.3974 l -0.9453029,-1.3974 H 7.0208776 v 2.465996 z M 14.090096,27.984772 H 13.720194 V 27.49157 h 0.369902 c 0.2466,0 0.328805,0.04112 0.328805,0.2466 0,0.164397 -0.08224,0.246602 -0.328805,0.246602 z m 4.849812,0.493189 V 27.61487 h 0.164397 l 0.452105,0.863091 h 0.739803 l -0.534298,-0.945295 c 0.287697,-0.08224 0.452094,-0.328805 0.452094,-0.698707 0,-0.575394 -0.369901,-0.821994 -0.986404,-0.821994 h -0.945296 v 2.465996 z m 4.726512,0 0.164397,-0.452093 h 0.739803 l 0.164408,0.452093 h 0.657599 l -0.863103,-2.465996 h -0.575406 l -0.904199,2.465996 z"
       id="path38"
       style="font-size:35.3833px;line-height:1.2;font-family:'Font Bureau Logo';-inkscape-font-specification:'Font Bureau Logo';stroke:#000000;stroke-width:0.298523" />
  </g>
</svg>
