<?xml version="1.0" encoding="UTF-8" standalone="no"?>
<svg version="1.1" id="Ebene_1" x="0px" y="0px" width="512" height="512" viewBox="0 0 512 512" enable-background="new 0 0 270.138 270.124" xml:space="preserve" xmlns="http://www.w3.org/2000/svg" xmlns:svg="http://www.w3.org/2000/svg" xmlns:rdf="http://www.w3.org/1999/02/22-rdf-syntax-ns#" xmlns:cc="http://creativecommons.org/ns#" xmlns:dc="http://purl.org/dc/elements/1.1/"><metadata id="metadata42"><rdf:RDF><cc:Work rdf:about=""><dc:format>image/svg+xml</dc:format><dc:type rdf:resource="http://purl.org/dc/dcmitype/StillImage"/></cc:Work></rdf:RDF></metadata><defs id="defs40"/><g id="layer1" transform="translate(-60.496184,-2.0000007)"><g id="g351" transform="matrix(1.1904781,0,0,1.1904781,59.183784,0.68800841)"><path style="fill:#224779" d="m 4.0703125,5.2070312 v 129.4843788 34.54297 51.8125 129.43554 c 86.3196995,0 164.0253875,0.0488 164.0253875,0.0488 43.15907,0 43.12891,-43.17773 43.12891,-43.17773 V 177.86914 c 0,0 0.0255,-37.22193 -34.5293,-42.54102 0.007,-0.18797 0.0371,-0.63671 0.0371,-0.63671 V 48.384766 c 0,0 -0.0186,-43.1777348 -43.17773,-43.1777348 z M 47.248047,48.384766 H 116.2832 c 17.27116,0 17.27149,17.271484 17.27149,17.271484 0.006,23.7351 0.006,28.022061 0,51.76367 0,0 -3.3e-4,17.27149 -17.27149,17.27149 -25.136369,-3e-5 -41.162522,-2e-5 -69.035153,0 z m 0,129.484374 h 94.941403 c 25.89419,0 25.90625,25.90625 25.90625,25.90625 v 77.67188 c 0,-2e-4 -0.0121,25.90625 -25.90625,25.90625 H 47.248047 Z" id="path5"/><path style="fill:#f7b234;stroke:#1a171b;stroke-width:2.28403;stroke-linejoin:round" d="m 340.74112,57.009429 -138.12063,34.5298 h 138.12063" id="polyline13"/><path style="fill:#1a171b;stroke:#1a171b;stroke-width:2.28403;stroke-linecap:round;stroke-linejoin:round" d="m 340.74112,57.009429 -138.12063,34.5298 138.11435,-86.3182" id="polyline15"/><path style="fill:#1a171b;stroke:#1a171b;stroke-width:2.28403;stroke-linecap:round;stroke-linejoin:round" id="path17" d="M 340.74112,350.51714 V 5.221029 h 34.53604 c 0,0 51.80093,0 51.79465,51.7884 0,34.5298 0,293.509311 0,293.509311 h -86.33069 v 0 z"/><path style="fill:#ffffff;stroke:#1a171b;stroke-width:1.52269" d="m 340.74112,91.539229 v 258.977911 0 h 86.33069 l -51.79465,-138.1222 v -77.6904 z" id="polygon19"/><path style="fill:#1a171b" id="path21" d="m 6.4310714,419.24694 c 2.9926214,1.9014 7.2680186,3.3616 11.8684296,3.3616 6.814259,0 10.800757,-3.5202 10.800757,-8.8067 0,-4.7464 -2.760246,-7.5805 -9.733085,-10.1806 -8.414197,-3.0664 -13.6285182,-7.5067 -13.6285182,-14.6946 0,-8.0468 6.6541082,-14.021 16.6949342,-14.021 5.212751,0 9.114464,1.2137 11.340874,2.5263 l -1.840164,5.4467 c -1.595227,-1.0065 -5.041609,-2.4651 -9.720524,-2.4651 -7.052915,0 -9.726806,4.2204 -9.726806,7.7406 0,4.8202 3.146493,7.2005 10.248081,9.9608 8.739208,3.4354 13.100962,7.5679 13.100962,15.1609 0,7.9479 -5.814102,14.9286 -17.988701,14.9286 -4.980377,0 -10.427073,-1.5215 -13.1857488,-3.3726 z"/><path style="fill:#1a171b" id="path23" d="m 79.502221,427.35494 v -21.8951 l -16.382483,-29.7095 h 7.654266 l 7.268019,14.2408 c 1.92652,3.9002 3.526457,7.0404 5.134246,10.6344 h 0.15387 c 1.386403,-3.3616 3.220287,-6.7342 5.219031,-10.6344 l 7.439161,-14.2408 h 7.476839 l -17.235046,29.6357 v 21.9689 z"/><path style="fill:#1a171b" id="path25" d="m 130.61073,419.24694 c 2.98634,1.9014 7.28686,3.3616 11.87314,3.3616 6.8331,0 10.7882,-3.5202 10.7882,-8.8067 0,-4.7464 -2.75397,-7.5805 -9.70954,-10.1806 -8.43303,-3.0664 -13.64579,-7.5067 -13.64579,-14.6946 0,-8.0468 6.66039,-14.021 16.71378,-14.021 5.1892,0 9.12074,1.2137 11.31575,2.5263 l -1.83388,5.4467 c -1.60151,-1.0065 -5.04161,-2.4651 -9.70954,-2.4651 -7.05919,0 -9.74564,4.2204 -9.74564,7.7406 0,4.8202 3.14649,7.2005 10.26692,9.9608 8.73293,3.4354 13.08212,7.5679 13.08212,15.1609 0,7.9479 -5.82038,14.9286 -17.97614,14.9286 -4.98038,0 -10.42079,-1.5215 -13.16848,-3.3726 z"/><path style="fill:#1a171b" id="path27" d="m 202.01286,381.41684 h -15.70734 v -5.6665 h 38.22893 v 5.6665 h -15.78741 v 45.9381 h -6.73418 z"/><path style="fill:#1a171b" id="path29" d="m 279.91208,403.15334 h -19.98273 v 18.6199 h 22.34888 v 5.5817 H 253.1826 v -51.6046 h 27.95573 v 5.5817 h -21.20898 v 16.315 h 19.98273 z"/><path style="fill:#1a171b" id="path31" d="m 357.43605,404.68584 c -0.39881,-7.188 -0.85257,-15.9225 -0.85257,-22.2767 h -0.14759 c -1.84016,5.9742 -3.91898,12.4745 -6.50808,19.6012 l -9.10819,25.0353 h -5.06673 l -8.4142,-24.569 c -2.44779,-7.3606 -4.44025,-13.9472 -5.88789,-20.0675 h -0.15387 c -0.16015,6.428 -0.5464,15.0133 -1.00644,22.8152 l -1.38012,22.1291 h -6.34794 l 3.59397,-51.6047 h 8.50055 l 8.80045,24.9506 c 2.14005,6.3667 3.82163,12.0207 5.20019,17.3936 h 0.16015 c 1.36128,-5.2128 3.22028,-10.8683 5.52049,-17.3936 l 9.18198,-24.9506 h 8.50683 l 3.22029,51.6047 h -6.59288 z"/><path style="fill:#1a171b" id="path33" d="m 397.66373,419.24694 c 2.98634,1.9014 7.2743,3.3616 11.86215,3.3616 6.82054,0 10.80704,-3.5202 10.80704,-8.8067 0,-4.7464 -2.76025,-7.5805 -9.72053,-10.1806 -8.42676,-3.0664 -13.64579,-7.5067 -13.64579,-14.6946 0,-8.0468 6.67923,-14.021 16.71378,-14.021 5.19548,0 9.1019,1.2137 11.32831,2.5263 l -1.83388,5.4467 c -1.6125,-1.0065 -5.06673,-2.4651 -9.73937,-2.4651 -7.03407,0 -9.71581,4.2204 -9.71581,7.7406 0,4.8202 3.12765,7.2005 10.26064,9.9608 8.73293,3.4354 13.09468,7.5679 13.09468,15.1609 0,7.9479 -5.82666,14.9286 -18.00126,14.9286 -4.9741,0 -10.40823,-1.5215 -13.16848,-3.3726 z"/><path style="fill:#ffffff" id="path35" d="m 383.90018,39.750829 c 0,9.5305 -7.72178,17.2586 -17.2586,17.2586 -9.53682,0 -17.26488,-7.7281 -17.26488,-17.2586 0,-9.5368 7.72806,-17.2712 17.26488,-17.2712 9.53682,0 17.2586,7.7344 17.2586,17.2712 z"/><path style="fill:#1a171b" id="path37" d="m 375.27716,39.750829 c 0,4.759 -3.85775,8.6293 -8.63558,8.6293 -4.75899,0 -8.62302,-3.8703 -8.62302,-8.6293 0,-4.7716 3.86403,-8.6419 8.62302,-8.6419 4.77783,0 8.63558,3.8703 8.63558,8.6419 z"/></g></g></svg>