<?xml version="1.0" encoding="UTF-8" standalone="no"?>
<svg
   preserveAspectRatio="xMidYMid"
   viewBox="0 0 370.39954 72.375999"
   version="1.1"
   id="svg1"
   width="370.39954"
   height="72.375999"
   xmlns="http://www.w3.org/2000/svg"
   xmlns:svg="http://www.w3.org/2000/svg">
  <defs
     id="defs1" />
  <path
     d="m 267.67154,0 v 6.491 h -8.438 V 0 Z m -8.439,38.512 V 9.736 h 8.438 v 28.776 z m -8.208,-28.235 h 5.031 10e-4 v 5.193 h -5.031 v 14.116 c 0,2.272 1.135,2.867 2.651,2.867 0.919,0 2.108,-0.108 2.542,-0.162 v 6.653 c -1.082,0.109 -3.57,0.325 -5.409,0.325 -7.195,0 -8.223,-4.489 -8.223,-8.654 V 15.469 h -4.11 v -5.192 h 4.11 V 1.94699 h 8.438 z m -102.314,-1.298 c 5.463,0 10.169,2.002 12.928,7.032 l -6.492,3.408 c -1.514,-3.246 -4.111,-3.949 -5.409,-3.949 -4.814,0 -6.545,3.732 -6.545,8.654 0,4.923 2.055,8.655 6.545,8.655 2.596,0 4.651,-0.973 6.004,-4.219 l 6.058,3.083 c -2.596,4.598 -7.302,7.627 -12.819,7.627 -8.6,0 -14.55,-5.464 -14.55,-15.146 0,-9.52 6.329,-15.145 14.28,-15.145 z m 0,33.105 c 5.463,0 10.169,2.002 12.928,7.032 l -6.492,3.409 c -1.514,-3.246 -4.111,-3.949 -5.409,-3.949 -4.814,0 -6.545,3.732 -6.545,8.655 0,4.922 2.055,8.654 6.545,8.654 2.596,0 4.651,-0.974 6.004,-4.22 l 6.058,3.083 c -2.596,4.598 -7.302,7.627 -12.819,7.627 -8.6,0 -14.55,-5.463 -14.55,-15.145 0,-9.521 6.329,-15.146 14.28,-15.146 z m 28.392,0 c -8.979,0 -15.307,5.463 -15.307,15.146 0,9.682 6.328,15.145 15.307,15.145 8.979,0 15.308,-5.463 15.308,-15.145 0,-9.682 -6.329,-15.146 -15.308,-15.146 z m 0,6.491 c 4.814,0 6.87,3.732 6.87,8.33 0,5.247 -2.056,8.979 -6.87,8.979 -4.814,0 -6.869,-3.732 -6.869,-8.654 0,-4.922 2.055,-8.655 6.869,-8.655 z m 17.037,23.042 h 8.438 V 53.714 c 0,-2.596 1.082,-4.814 4.489,-4.814 3.246,0 4.111,1.893 4.111,4.706 v 18.012 h 8.438 V 53.93 c 0,-2.921 1.46,-5.03 4.273,-5.03 3.191,0 4.327,1.839 4.327,5.896 v 16.821 h 8.438 v -21.96 c 0,-6.599 -6.058,-7.573 -8.871,-7.573 -3.354,0 -6.491,1.028 -9.249,3.84 -1.894,-2.542 -4.327,-3.84 -7.627,-3.84 -2.596,0 -6.166,0.757 -8.33,3.3 v -2.542 h -8.438 v 28.775 z m 53.652,0 h -8.438 -0.001 V 42.842 h 8.438 v 2.542 c 2.164,-2.543 5.734,-3.3 8.33,-3.3 3.3,0 5.734,1.298 7.627,3.84 2.759,-2.812 5.895,-3.84 9.249,-3.84 2.812,0 8.871,0.974 8.871,7.573 v 21.96 h -8.438 V 54.796 c 0,-4.057 -1.137,-5.896 -4.328,-5.896 -2.812,0 -4.272,2.109 -4.272,5.03 v 17.688 h -8.438 V 53.606 c 0,-2.813 -0.865,-4.706 -4.111,-4.706 -3.407,0 -4.489,2.218 -4.489,4.814 z m 35.801,-14.387 c 0,-9.683 6.329,-15.146 15.308,-15.146 8.979,0 15.308,5.464 15.308,15.146 0,9.682 -6.329,15.145 -15.308,15.145 -8.98,0 -15.308,-5.463 -15.308,-15.145 z m 22.177,-0.325 c 0,-4.598 -2.056,-8.33 -6.869,-8.33 -4.814,0 -6.87,3.733 -6.87,8.655 0,4.922 2.056,8.654 6.87,8.654 4.813,0 6.869,-3.732 6.869,-8.979 z m 19.147,14.712 h -8.438 -0.001 V 42.842 h 8.438 v 2.542 c 2.164,-2.543 5.734,-3.3 8.33,-3.3 6.815,0 8.709,3.949 8.709,8.276 v 21.258 h -8.438 V 53.606 c 0,-2.813 -0.865,-4.706 -4.11,-4.706 -3.408,0 -4.49,2.218 -4.49,4.814 z m 45.214,-25.367 c -3.895,-2.596 -8.275,-4.165 -12.711,-4.165 -5.843,0 -12.171,2.813 -12.171,10.061 0,6.1483 6.163,7.3076 11.075,8.2318 3.256,0.6124 5.963,1.1216 5.963,2.9112 0,2.597 -3.19,2.921 -4.598,2.921 -3.84,0 -6.49,-1.568 -9.087,-4.057 l -5.247,4.543 c 4.22,3.895 7.789,5.68 14.064,5.68 6.273,0 12.981,-2.705 12.981,-10.277 0,-6.4216 -6.064,-7.5683 -10.957,-8.4935 -3.308,-0.6256 -6.081,-1.1499 -6.081,-3.1355 0,-1.46 1.514,-2.217 3.623,-2.217 2.651,0 6.275,1.082 7.951,3.083 z m -206.434,-7.738 h 8.438 v -16.66 c 0,-3.191 2.001,-4.057 7.032,-4.652 l 0.919,-0.108 -0.054,-7.46401 c -2.975,0.217 -6.058,1.29801 -7.897,3.02901 V 9.73599 h -8.438 z m 45.046,-12.657 c -0.054,-8.871 -3.624,-16.876 -14.118,-16.876 -8.763,0 -14.118,5.842 -14.118,16.011 0,8.113 5.193,14.28 14.118,14.28 6.437,0 11.034,-2.542 13.955,-7.951 l -6.329,-3.3 c -2.434,3.462 -3.895,5.084 -7.032,5.084 -2.704,0 -6.22,-1.731 -6.274,-7.248 z m -19.905,-5.192 c 0.378,-3.787 3.299,-5.517 5.733,-5.517 2.434,0 5.463,1.298 5.733,5.517 z m 34.555,-11.684 c 7.843,0 12.765,1.839 12.819,8.33 v 15.2 c 0,2.002 0.054,4.219 0.757,6.004 h -7.789 c -0.324,-0.974 -0.487,-2.001 -0.541,-2.975 h -0.108 c -1.406,2.272 -5.625,3.732 -8.654,3.732 -5.517,0 -9.628,-3.029 -9.628,-8.546 0,-6.924 5.572,-9.358 14.767,-10.656 l 3.083,-0.433 v -2.38 c 0,-2.164 -1.731,-3.083 -4.003,-3.083 -2.705,0 -4.002,0.973 -4.435,3.84 h -8.114 c 0.271,-8.276 7.951,-9.033 11.846,-9.033 z m -1.082,24.124 c 3.3,0 5.788,-2.218 5.788,-6.599 v -2.001 l -5.68,1.623 c -2.11,0.595 -4.057,1.406 -4.057,3.732 0,2.271 1.893,3.245 3.949,3.245 z m 65.208,5.409 h -8.492 l -9.736,-28.77601 h 9.032 l 4.978,20.33801 h 0.107 l 4.977,-20.33801 h 8.979 z m 22.977,-29.533 c 10.493,0 14.063,8.005 14.117,16.876 h -19.796 c 0.053,5.517 3.57,7.248 6.274,7.248 3.136,0 4.597,-1.622 7.031,-5.084 l 6.329,3.3 c -2.921,5.409 -7.518,7.951 -13.955,7.951 -8.926,0 -14.117,-6.167 -14.117,-14.28 0,-10.169 5.353,-16.011 14.117,-16.011 z m -0.055,6.167 c -2.434,0 -5.354,1.73 -5.733,5.517 h 11.467 c -0.27,-4.219 -3.3,-5.517 -5.734,-5.517 z"
     id="path1"
     style="fill:#000000" />
  <path
     d="m 98.958541,8.495 c -8.682,0 -16.322,3.213 -22.226,9.203 -6.077,6.165 -9.376,14.152 -9.376,22.487 0,8.421 3.212,16.235 9.29,22.313 6.077,6.077 13.978,9.376 22.312,9.376 8.333999,0 16.408999,-3.299 22.659999,-9.463 5.904,-5.817 9.029,-13.544 9.029,-22.226 0,-8.595 -3.125,-16.409 -9.116,-22.4 -6.077,-6.077 -13.891,-9.29 -22.572999,-9.29 z m 0.087,5.731 c 7.118999,0 13.456999,2.691 18.405999,7.64 4.861,4.862 7.466,11.287 7.466,18.319 0,7.119 -2.518,13.37 -7.38,18.146 -5.123,5.035 -11.721,7.727 -18.492999,7.727 -6.859,0 -13.284,-2.691 -18.232,-7.64 -4.949,-4.95 -7.727,-11.461 -7.727,-18.233 0,-6.859 2.778,-13.37 7.727,-18.406 4.862,-4.948 11.114,-7.553 18.233,-7.553 z m -0.409,20.693 c -1.79,-3.264 -4.844,-4.563 -8.389,-4.563 -5.16,0 -9.267,3.65 -9.267,9.829 0,6.283 3.861,9.829 9.443,9.829 3.581,0 6.634,-1.966 8.319,-4.949 l -3.932,-2.001 c -0.878,2.106 -2.211,2.738 -3.896,2.738 -2.914,0 -4.247,-2.422 -4.247,-5.616 0,-3.194 1.123,-5.617 4.247,-5.617 0.842,0 2.527,0.457 3.51,2.562 z m 9.892999,-4.563 c 3.545,0 6.598,1.299 8.389,4.563 l -4.212,2.212 c -0.984,-2.105 -2.669,-2.562 -3.511,-2.562 -3.124,0 -4.248,2.423 -4.248,5.617 0,3.194 1.335,5.616 4.248,5.616 1.685,0 3.019,-0.632 3.896,-2.738 l 3.932,2.001 c -1.685,2.983 -4.738,4.949 -8.319,4.949 -5.581,0 -9.442999,-3.546 -9.442999,-9.829 0,-6.179 4.107999,-9.829 9.267999,-9.829 z"
     style="fill:#000000"
     id="path1-3" />
  <g
     id="cc-by"
     style="display:inline;fill:#000000"
     transform="matrix(2.1126333,0,0,2.1126333,0,8.495)">
    <path
       d="m 14.973,0 c 4.213,0 7.768,1.446 10.66,4.34 C 28.544,7.25 30,10.803 30,15 30,19.215 28.57,22.723 25.713,25.526 22.678,28.51 19.098,30 14.973,30 10.919,30 7.402,28.526 4.42,25.58 1.474,22.633 0,19.107 0,15 0,10.893 1.474,7.34 4.42,4.34 7.313,1.446 10.83,0 14.973,0 Z m 0.054,2.706 c -3.41,0 -6.295,1.196 -8.652,3.589 -2.447,2.5 -3.67,5.402 -3.67,8.706 0,3.321 1.214,6.196 3.642,8.624 2.429,2.429 5.322,3.642 8.679,3.642 3.339,0 6.25,-1.222 8.732,-3.67 2.358,-2.267 3.536,-5.133 3.536,-8.598 0,-3.41 -1.197,-6.311 -3.589,-8.705 C 21.313,3.902 18.42,2.706 15.027,2.706 Z m 4.018,8.57 V 17.41 H 17.33 v 7.286 H 12.67 V 17.41 h -1.714 v -6.134 a 0.93,0.93 0 0 1 0.28,-0.683 0.933,0.933 0 0 1 0.684,-0.281 h 6.161 c 0.25,0 0.474,0.093 0.67,0.28 a 0.912,0.912 0 0 1 0.294,0.684 z M 12.91,7.42 c 0,-1.41 0.696,-2.116 2.09,-2.116 1.394,0 2.09,0.705 2.09,2.116 0,1.393 -0.697,2.09 -2.09,2.09 -1.393,0 -2.09,-0.697 -2.09,-2.09 z"
       fill="currentColor"
       id="path4"
       style="fill:#000000" />
  </g>
</svg>
