<svg version="1.1" id="logo_1_" xmlns="http://www.w3.org/2000/svg" xmlns:xlink="http://www.w3.org/1999/xlink" x="0px" y="0px" width="83px" height="83px" viewBox="0 0 83 83" style="enable-background:new 0 0 83 83;" xml:space="preserve" class="logo replaced-svg">
<style type="text/css">

	.st0{fill:#E84560;}
	.st1{fill:#000000;}

</style>
<g>
	<path class="st1" d="M26.229,42.13l-1.368,1.711v4.573h-2.503V35.271h2.503v5.293l4.249-5.293h3.043l-4.141,5.113l4.501,8.03   h-2.845L26.229,42.13z"></path>
</g>
<g>
	<path class="st0" d="M47.81,38.403h2.467v2.467H47.81V38.403z M47.81,44.939h2.467v2.467H47.81V44.939z"></path>
</g>
<g>
	<path class="st1" d="M37.063,35.271h4.105c2.917,0,4.609,1.296,4.609,3.69c0,1.099-0.486,1.98-1.423,2.539   c1.207,0.559,1.891,1.566,1.891,3.007c0,2.61-1.818,3.907-4.735,3.907h-4.447V35.271z M39.566,37.575v2.917h1.603   c1.548,0,2.089-0.612,2.089-1.531c0-0.954-0.595-1.386-2.071-1.386H39.566z M39.566,42.832v3.277h1.944   c1.458,0,2.215-0.594,2.215-1.656s-0.505-1.621-2.341-1.621H39.566z"></path>
</g>
<g>
	<path class="st0" d="M32.78,40.943h2.466v2.467H32.78V40.943z"></path>
</g>
<g>
	<path class="st1" d="M52.039,46.109l5.727-8.444h-5.528v-2.395h8.499v2.286l-5.744,8.463h5.744v2.395h-8.697V46.109z"></path>
</g>
<path id="circle" class="st1" d="M80,41.5C80,62.729,62.729,80,41.499,80C20.27,80,3,62.729,3,41.5C3,20.271,20.27,3,41.499,3  C62.729,3,80,20.271,80,41.5 M83,41.5C83,18.617,64.383,0,41.499,0C18.616,0,0,18.617,0,41.5S18.616,83,41.499,83  C64.383,83,83,64.383,83,41.5"></path>
</svg>
