<?xml version="1.0" encoding="UTF-8"?>
<svg id="Layer_1" data-name="Layer 1" xmlns="http://www.w3.org/2000/svg" version="1.1" viewBox="90 40 1575.215 419.48">
  <defs>
    <style>
      .cls-1 {
        fill: #30ba78;
      }

      .cls-1, .cls-2, .cls-3 {
        stroke-width: 0px;
      }

      .cls-2 {
        fill: #0c322c;
      }

      .cls-3 {
        fill: #90ebcd;
      }
    </style>
  </defs>
  <g>
    <path class="cls-2" d="M235.333,280.567h-9.949c0-2.325-1.891-4.216-4.216-4.216s-4.216,1.891-4.216,4.216h-9.949c0-7.811,6.355-14.165,14.165-14.165s14.165,6.355,14.165,14.165h0Z"/>
    <path class="cls-2" d="M209.466,304.425c-7.539-3.987-12.987-11.035-14.946-19.337l9.683-2.286c1.3,5.508,4.914,10.184,9.915,12.83l-4.652,8.794h0Z"/>
    <path class="cls-1" d="M194.52,285.108c-3.664-15.543,5.516-31.079,20.9-35.367l2.671,9.584c-10.221,2.849-16.322,13.172-13.888,23.502l-9.684,2.282h.001Z"/>
    <path class="cls-2" d="M232.483,260.881c-4.44-2.357-9.555-2.919-14.401-1.575l-2.652-9.59c7.308-2.02,15.02-1.176,21.718,2.377l-4.664,8.788h-.001Z"/>
    <path class="cls-2" d="M222.872,325.384c-10.755,0-21.234-3.771-29.525-10.625-19.689-16.28-22.463-45.543-6.183-65.233l7.667,6.34c-12.784,15.462-10.606,38.443,4.856,51.226,6.51,5.383,14.74,8.343,23.185,8.343h.117l.032,9.95h-.149Z"/>
    <path class="cls-3" d="M194.845,255.849l-7.695-6.307c8.836-10.781,21.897-16.963,35.834-16.963h.022l-.005,9.95h-.018c-10.946,0-21.201,4.854-28.139,13.32h.001Z"/>
    <path class="cls-1" d="M222.022,343.015c-14.656,0-29.226-5.056-40.857-14.903l6.429-7.593c16.939,14.342,41.291,16.621,60.597,5.673l4.907,8.655c-9.663,5.48-20.394,8.168-31.078,8.168h.002Z"/>
    <path class="cls-2" d="M181.162,328.108c-17.737-15.055-25.754-38.546-20.924-61.303l9.733,2.064c-4.07,19.175,2.686,38.967,17.63,51.653l-6.439,7.585h0Z"/>
    <path class="cls-2" d="M169.968,268.871l-9.732-2.067c3.75-17.649,14.906-32.87,30.608-41.76l4.902,8.658c-13.224,7.486-22.619,20.304-25.778,35.168h0Z"/>
    <path class="cls-3" d="M221.961,361.525c-5.214,0-10.475-.513-15.722-1.567l1.962-9.754c29.083,5.85,58.798-7.357,73.944-32.864l8.554,5.08c-14.567,24.532-40.94,39.105-68.738,39.105h0Z"/>
    <path class="cls-1" d="M206.234,359.956c-8.799-1.778-17.177-5.001-24.9-9.577-37.917-22.464-50.488-71.587-28.024-109.503l8.559,5.07c-19.668,33.196-8.66,76.204,24.536,95.873,6.762,4.006,14.097,6.826,21.8,8.384l-1.971,9.752h0Z"/>
    <path class="cls-1" d="M238.634,377.977l-1.662-9.809c47.57-8.062,79.757-53.329,71.75-100.907l9.811-1.65c8.917,52.982-26.927,103.39-79.899,112.366h0Z"/>
    <path class="cls-3" d="M222.285,379.25c-46.688,0-88.061-33.732-96.094-81.266l9.81-1.658c8.041,47.583,53.292,79.769,100.882,71.748l1.653,9.811c-5.457.92-10.893,1.365-16.252,1.365h0Z"/>
    <path class="cls-1" d="M322.865,251.542c-9.359-27.465-29.995-49.835-56.62-61.376l3.957-9.128c29.191,12.653,51.818,37.181,62.08,67.296l-9.417,3.209h0Z"/>
    <path class="cls-2" d="M328.915,330.259l-9.116-3.984c10.361-23.71,11.451-50.248,3.069-74.727l9.412-3.223c9.19,26.841,7.995,55.937-3.365,81.932h0v.002Z"/>
    <path class="cls-1" d="M224.728,398.392c-15.101,0-30.432-3.029-45.137-9.431l3.972-9.122c52.322,22.781,113.436-1.245,136.233-53.559l9.12,3.976c-18.582,42.64-60.393,68.138-104.189,68.138h0v-.002h0Z"/>
    <path class="cls-2" d="M304.845,193.197c-34.349-30.668-82.451-39.621-125.532-23.366l-3.512-9.308c46.561-17.567,98.547-7.891,135.67,25.254l-6.626,7.421h0Z"/>
    <path class="cls-3" d="M304.672,390.181l-6.123-7.842c53.598-41.855,63.153-119.511,21.299-173.109-4.503-5.766-9.552-11.162-15.004-16.037l6.631-7.417c5.893,5.269,11.349,11.1,16.215,17.332,45.23,57.922,34.904,141.843-23.017,187.074h-.001Z"/>
    <path class="cls-2" d="M269.723,409.758l-3.504-9.312c11.642-4.381,22.521-10.475,32.335-18.111l6.11,7.852c-10.605,8.252-22.361,14.837-34.941,19.572h0Z"/>
    <path class="cls-2" d="M108.557,201.764l-8.044-5.855c12.891-17.71,29.873-32.607,49.116-43.076l4.755,8.74c-17.953,9.768-33.799,23.666-45.827,40.192h0Z"/>
    <path class="cls-3" d="M154.408,161.559l-4.806-8.712c43.8-24.158,96.7-25.313,141.511-3.088l-4.42,8.913c-41.891-20.777-91.343-19.698-132.284,2.886h-.001,0Z"/>
    <path class="cls-1" d="M358.002,352.888l-8.882-4.482c17.001-33.683,19.867-71.969,8.071-107.808-11.785-35.806-36.862-64.919-70.497-81.926l-.206-.089.206.089,4.42-8.913-2.211,4.456,2.211-4.456.02.01c74.445,37.576,104.436,128.691,66.869,203.119h-.001Z"/>
    <path class="cls-1" d="M110.914,172.404l-7.013-7.058c16.516-16.409,35.876-29.048,57.544-37.566l3.64,9.259c-20.398,8.019-38.623,19.917-54.171,35.364h0,0Z"/>
    <path class="cls-3" d="M369.969,227.495c-31.542-81.431-123.454-122.017-204.881-90.473l-3.668-9.249.104-.04c86.515-33.512,184.198,9.623,217.722,96.168l-9.277,3.594h0Z"/>
    <path class="cls-3" d="M106.201,153.437l-6.594-7.449c36.189-32.032,82.704-48.37,130.971-46.003l-.487,9.937c-45.652-2.236-89.657,13.216-123.89,43.515Z"/>
    <path class="cls-1" d="M338.202,155.169c-29.592-27.177-67.987-43.245-108.115-45.247l.496-9.937c42.441,2.118,83.052,19.113,114.349,47.856l-6.73,7.328h.001-.001Z"/>
  </g>
  <g>
    <path class="cls-2" d="M444.244,211.87l11.968-11.832c7.48,7.48,13.872,10.472,21.488,10.472,9.656,0,15.232-4.896,15.232-11.696,0-20.128-46.513-8.704-46.513-41.889,0-18.088,13.464-29.376,33.864-29.376,12.784,0,23.393,4.896,30.192,12.512l-12.376,12.24c-5.576-5.848-10.88-8.704-17.816-8.704-8.84,0-14.688,4.624-14.688,11.561,0,19.04,47.057,6.528,47.057,40.8,0,18.496-14.417,30.6-35.632,30.6-14.688,0-25.161-5.848-32.776-14.688Z"/>
    <path class="cls-2" d="M526.93,191.334v-61.881h19.312v60.385c0,13.056,7.208,18.904,18.36,18.904,11.017,0,18.36-5.848,18.36-18.904v-60.385h19.312v61.881c0,23.936-15.097,35.224-37.673,35.224-22.848,0-37.672-11.288-37.672-35.224Z"/>
    <path class="cls-2" d="M616.826,211.87l11.968-11.832c7.48,7.48,13.872,10.472,21.488,10.472,9.656,0,15.232-4.896,15.232-11.696,0-20.128-46.513-8.704-46.513-41.889,0-18.088,13.464-29.376,33.864-29.376,12.784,0,23.393,4.896,30.192,12.512l-12.376,12.24c-5.576-5.848-10.88-8.704-17.816-8.704-8.84,0-14.688,4.624-14.688,11.561,0,19.04,47.057,6.528,47.057,40.8,0,18.496-14.416,30.6-35.632,30.6-14.688,0-25.16-5.848-32.776-14.688Z"/>
    <path class="cls-2" d="M698.424,208.47v-62.833c0-9.384,6.8-16.184,16.184-16.184h47.601v17.408h-40.937c-2.176,0-3.808,1.768-3.808,3.944v17.68h41.889v16.592h-41.889v18.225c0,2.176,1.632,3.944,3.808,3.944h40.937v17.408h-47.601c-9.384,0-16.184-6.8-16.184-16.184Z"/>
    <path class="cls-2" d="M809.533,177.325v-1.224c0-28.696,19.448-48.28,45.969-48.28,26.656,0,45.969,19.584,45.969,48.28v1.224c0,28.968-19.312,48.96-45.969,48.96-26.521,0-45.969-19.992-45.969-48.96ZM855.501,214.998c19.992,0,34.137-14.96,34.137-37.672v-1.224c0-22.304-14.145-36.992-34.137-36.992-19.856,0-34.136,14.688-34.136,36.992v1.224c0,22.712,14.279,37.672,34.136,37.672Z"/>
    <path class="cls-2" d="M919.694,159.237h10.336v11.289c5.168-7.752,13.464-12.648,23.393-12.648,17.68,0,30.736,13.6,30.736,33.185v1.224c0,20.128-12.784,33.728-30.736,33.728-9.656,0-17.681-4.624-22.713-11.968v37.808h-11.016v-92.617ZM951.926,216.222c12.24,0,21.216-9.384,21.216-23.936v-1.224c0-14.144-8.976-23.393-21.216-23.393-12.512,0-21.896,9.656-21.896,24.345s9.385,24.208,21.896,24.208Z"/>
    <path class="cls-2" d="M996.123,192.286v-1.36c0-18.904,12.24-33.048,30.6-33.048,18.769,0,30.329,14.824,27.745,37.4h-47.329c1.225,12.104,9.521,20.672,22.305,20.672,6.8,0,12.104-1.632,16.048-5.168l6.256,6.8c-5.032,5.44-13.328,8.432-22.848,8.432-19.448,0-32.776-13.736-32.776-33.728ZM1043.996,186.301c-.136-11.968-7.072-18.904-17.136-18.904-11.017,0-18.089,7.48-19.585,18.904h36.721Z"/>
    <path class="cls-2" d="M1068.747,159.237h10.608v10.336c5.304-8.976,14.688-11.696,21.624-11.696,14.688,0,24.752,9.52,24.752,28.289v38.488h-10.88v-36.856c0-14.008-7.072-19.856-16.592-19.856-10.064,0-18.497,6.937-18.497,19.993v36.72h-11.016v-65.417Z"/>
    <path class="cls-2" d="M1173.465,212.822l7.208-7.344c6.664,7.48,14.28,10.88,23.392,10.88,12.784,0,20.673-6.936,20.673-17.136,0-25.433-49.369-10.88-49.369-43.792,0-16.864,12.513-27.608,31.825-27.608,11.288,0,20.536,4.08,26.52,10.608l-7.479,7.48c-5.305-5.44-11.288-8.16-19.177-8.16-12.104,0-20.128,6.664-20.128,16.592,0,24.208,49.641,8.704,49.641,43.249,0,17.544-13.464,28.696-32.912,28.696-13.328,0-23.393-5.168-30.192-13.464Z"/>
    <path class="cls-2" d="M1248.401,192.286v-1.224c0-19.448,13.872-33.185,32.64-33.185,18.633,0,32.369,13.736,32.369,32.913v1.496c0,19.856-13.736,33.728-32.369,33.728-18.768,0-32.64-13.872-32.64-33.728ZM1281.04,216.222c12.648,0,21.488-9.792,21.488-23.936v-1.496c0-13.6-8.84-23.121-21.488-23.121-12.784,0-21.624,9.656-21.624,23.393v1.224c0,14.144,8.84,23.936,21.624,23.936Z"/>
    <path class="cls-2" d="M1329.592,199.086v-39.849h10.88v37.945c0,14.008,7.072,18.768,16.456,18.768,9.929,0,18.089-6.528,18.089-19.72v-36.993h10.88v65.417h-9.521v-10.2c-5.439,8.84-14.552,11.56-21.624,11.56-14.416,0-25.16-8.16-25.16-26.928Z"/>
    <path class="cls-2" d="M1407.518,159.237h10.744v10.472c3.128-8.296,10.064-10.744,18.088-10.744h5.576v10.88h-6.528c-10.607,0-16.864,5.168-16.864,16.048v38.76h-11.016v-65.417Z"/>
    <path class="cls-2" d="M1450.494,192.694v-1.632c0-19.584,14.28-33.185,33.592-33.185,9.385,0,17.681,3.672,22.984,10.064l-6.8,6.8c-4.08-4.352-9.521-6.664-16.185-6.664-13.056,0-22.712,9.112-22.712,22.984v1.632c0,13.872,9.656,23.12,22.849,23.12,6.527,0,11.968-2.04,16.456-6.528l6.664,6.664c-5.44,6.392-13.872,10.064-23.257,10.064-19.448,0-33.592-13.736-33.592-33.32Z"/>
    <path class="cls-2" d="M1518.357,192.286v-1.36c0-18.904,12.24-33.048,30.6-33.048,18.769,0,30.329,14.824,27.745,37.4h-47.329c1.225,12.104,9.521,20.672,22.305,20.672,6.8,0,12.104-1.632,16.048-5.168l6.256,6.8c-5.031,5.44-13.328,8.432-22.848,8.432-19.448,0-32.776-13.736-32.776-33.728ZM1566.229,186.301c-.136-11.968-7.072-18.904-17.136-18.904-11.017,0-18.089,7.48-19.585,18.904h36.721Z"/>
    <path class="cls-2" d="M447.644,332.141v-2.176c0-28.561,21.488-48.553,48.417-48.553,11.832,0,22.032,3.673,29.92,10.2l-7.344,8.704c-5.984-4.896-13.736-7.616-22.576-7.616-20.672,0-36.584,15.368-36.584,37.265v2.176c0,21.896,15.912,37.265,36.584,37.265,8.976,0,16.864-2.855,22.984-8.023l7.344,8.84c-8.024,6.664-18.496,10.472-30.328,10.472-26.928,0-48.417-19.992-48.417-48.553Z"/>
    <path class="cls-2" d="M538.627,346.285v-1.224c0-19.448,13.873-33.185,32.641-33.185,18.632,0,32.368,13.736,32.368,32.912v1.496c0,19.856-13.736,33.729-32.368,33.729-18.768,0-32.641-13.872-32.641-33.729ZM571.268,370.222c12.648,0,21.488-9.792,21.488-23.937v-1.496c0-13.6-8.84-23.12-21.488-23.12-12.784,0-21.625,9.656-21.625,23.393v1.224c0,14.145,8.84,23.937,21.625,23.937Z"/>
    <path class="cls-2" d="M620.363,313.236h10.608v10.2c5.032-8.704,13.464-11.56,20.672-11.56,9.521,0,16.864,4.216,20.672,12.784,5.44-9.792,15.232-12.784,22.44-12.784,14.28,0,24.072,9.112,24.072,27.88v38.896h-10.88v-37.536c0-13.464-6.256-19.177-15.776-19.177-9.656,0-17,6.801-17,19.177v37.536h-11.016v-37.536c0-13.464-6.257-19.177-15.641-19.177-9.792,0-17.136,6.801-17.136,19.177v37.536h-11.017v-65.417Z"/>
    <path class="cls-2" d="M739.77,313.236h10.608v10.2c5.032-8.704,13.464-11.56,20.672-11.56,9.521,0,16.864,4.216,20.672,12.784,5.44-9.792,15.232-12.784,22.44-12.784,14.28,0,24.072,9.112,24.072,27.88v38.896h-10.88v-37.536c0-13.464-6.256-19.177-15.776-19.177-9.656,0-17,6.801-17,19.177v37.536h-11.016v-37.536c0-13.464-6.257-19.177-15.641-19.177-9.792,0-17.137,6.801-17.137,19.177v37.536h-11.016v-65.417Z"/>
    <path class="cls-2" d="M858.632,353.085v-39.849h10.88v37.945c0,14.008,7.072,18.768,16.456,18.768,9.929,0,18.089-6.527,18.089-19.72v-36.993h10.88v65.417h-9.521v-10.2c-5.439,8.841-14.552,11.561-21.624,11.561-14.416,0-25.16-8.16-25.16-26.929Z"/>
    <path class="cls-2" d="M936.558,313.236h10.608v10.337c5.304-8.977,14.688-11.696,21.624-11.696,14.688,0,24.752,9.52,24.752,28.288v38.488h-10.88v-36.856c0-14.008-7.072-19.856-16.592-19.856-10.064,0-18.496,6.937-18.496,19.993v36.72h-11.017v-65.417Z"/>
    <path class="cls-2" d="M1018.022,322.757h-12.648v-9.521h23.528v65.417h-10.88v-55.896ZM1017.614,283.045h11.968v15.775h-11.968v-15.775Z"/>
    <path class="cls-2" d="M1053.11,361.245v-38.488h-11.832v-9.521h11.832v-16.184h11.017v16.184h17.136v9.521h-17.136v39.169c0,4.216,3.128,7.344,7.208,7.344h9.928v9.384h-10.064c-8.976,0-18.088-4.76-18.088-17.408Z"/>
    <path class="cls-2" d="M1088.47,396.47h12.92c3.944,0,5.984-2.992,7.48-6.664l4.76-10.472-27.064-66.098h12.104l20.672,52.633,19.721-52.633h12.104l-31.28,76.978c-2.992,7.479-7.344,15.64-19.04,15.64h-12.376v-9.384Z"/>
    <path class="cls-2" d="M1188.702,332.141v-2.176c0-28.561,21.488-48.553,48.417-48.553,11.832,0,22.032,3.673,29.92,10.2l-7.344,8.704c-5.984-4.896-13.736-7.616-22.576-7.616-20.672,0-36.584,15.368-36.584,37.265v2.176c0,21.896,15.912,37.265,36.584,37.265,8.976,0,16.864-2.855,22.984-8.023l7.344,8.84c-8.023,6.664-18.496,10.472-30.328,10.472-26.929,0-48.417-19.992-48.417-48.553Z"/>
    <path class="cls-2" d="M1287.982,322.757h-12.648v-9.521h23.528v65.417h-10.88v-55.896ZM1287.574,283.045h11.968v15.775h-11.968v-15.775Z"/>
    <path class="cls-2" d="M1323.07,361.245v-38.488h-11.832v-9.521h11.832v-16.184h11.017v16.184h17.136v9.521h-17.136v39.169c0,4.216,3.128,7.344,7.208,7.344h9.928v9.384h-10.064c-8.976,0-18.088-4.76-18.088-17.408Z"/>
    <path class="cls-2" d="M1369.718,322.757h-12.648v-9.521h23.528v65.417h-10.88v-55.896ZM1369.31,283.045h11.968v15.775h-11.968v-15.775Z"/>
    <path class="cls-2" d="M1395.422,370.086l35.632-47.057h-35.224v-9.793h48.688v8.841l-36.041,46.92h36.721v9.656h-49.776v-8.567Z"/>
    <path class="cls-2" d="M1453.631,346.285v-1.36c0-18.904,12.24-33.048,30.6-33.048,18.769,0,30.329,14.824,27.745,37.4h-47.329c1.225,12.104,9.521,20.672,22.305,20.672,6.8,0,12.104-1.632,16.048-5.168l6.256,6.8c-5.032,5.44-13.328,8.433-22.848,8.433-19.448,0-32.776-13.736-32.776-33.729ZM1501.503,340.301c-.136-11.968-7.072-18.904-17.136-18.904-11.017,0-18.089,7.48-19.585,18.904h36.721Z"/>
    <path class="cls-2" d="M1526.254,313.236h10.608v10.337c5.304-8.977,14.688-11.696,21.624-11.696,14.688,0,24.752,9.52,24.752,28.288v38.488h-10.88v-36.856c0-14.008-7.072-19.856-16.592-19.856-10.064,0-18.497,6.937-18.497,19.993v36.72h-11.016v-65.417Z"/>
    <path class="cls-2" d="M1597.789,371.854l4.896-7.616c4.896,4.216,11.968,6.937,19.04,6.937,8.024,0,13.601-4.08,13.601-10.064,0-15.504-35.089-5.304-35.089-29.648,0-11.424,9.385-19.584,23.801-19.584,8.296,0,15.776,2.72,21.216,6.664l-4.896,7.616c-4.624-3.536-10.337-5.576-16.456-5.576-7.889,0-13.192,4.08-13.192,10.063,0,15.232,35.496,5.44,35.496,29.921,0,11.424-10.064,19.312-24.48,19.312-9.656,0-18.632-3.265-23.937-8.024Z"/>
  </g>
</svg>
