<?xml version="1.0" encoding="UTF-8" standalone="no"?>
<!-- Created with Inkscape (http://www.inkscape.org/) -->

<svg
   xmlns:dc="http://purl.org/dc/elements/1.1/"
   xmlns:cc="http://creativecommons.org/ns#"
   xmlns:rdf="http://www.w3.org/1999/02/22-rdf-syntax-ns#"
   xmlns:svg="http://www.w3.org/2000/svg"
   xmlns="http://www.w3.org/2000/svg"
   xmlns:sodipodi="http://sodipodi.sourceforge.net/DTD/sodipodi-0.dtd"
   xmlns:inkscape="http://www.inkscape.org/namespaces/inkscape"
   id="svg3156"
   version="1.1"
   inkscape:version="0.47pre4 r22446"
   width="262.99999"
   height="372.99999"
   xml:space="preserve"
   sodipodi:docname="LGM_flyer03.svg"><metadata
     id="metadata3162"><rdf:RDF><cc:Work
         rdf:about=""><dc:format>image/svg+xml</dc:format><dc:type
           rdf:resource="http://purl.org/dc/dcmitype/StillImage" /><dc:title /></cc:Work></rdf:RDF></metadata><defs
     id="defs3160"><inkscape:perspective
       sodipodi:type="inkscape:persp3d"
       inkscape:vp_x="0 : 0.5 : 1"
       inkscape:vp_y="0 : 1000 : 0"
       inkscape:vp_z="1 : 0.5 : 1"
       inkscape:persp3d-origin="0.5 : 0.33333333 : 1"
       id="perspective3164" /><inkscape:perspective
       id="perspective2908"
       inkscape:persp3d-origin="0.5 : 0.33333333 : 1"
       inkscape:vp_z="1 : 0.5 : 1"
       inkscape:vp_y="0 : 1000 : 0"
       inkscape:vp_x="0 : 0.5 : 1"
       sodipodi:type="inkscape:persp3d" /></defs><sodipodi:namedview
     pagecolor="#ffffff"
     bordercolor="#666666"
     borderopacity="1"
     objecttolerance="10"
     gridtolerance="10"
     guidetolerance="10"
     inkscape:pageopacity="0"
     inkscape:pageshadow="2"
     inkscape:window-width="1280"
     inkscape:window-height="727"
     id="namedview3158"
     showgrid="false"
     inkscape:zoom="1.3672922"
     inkscape:cx="215.60784"
     inkscape:cy="267.68235"
     inkscape:window-x="0"
     inkscape:window-y="25"
     inkscape:window-maximized="1"
     inkscape:current-layer="g3166" /><g
     id="g3166"
     inkscape:groupmode="layer"
     inkscape:label="LGM_flyer03"
     transform="matrix(1.25,0,0,-1.25,0,372.99999)"><g
       id="g3168"><path
         d="M 82.809,243.482 27.117,227.611 39.715,183.42 c 0.035,-0.149 0.07,-0.293 0.105,-0.438 0.215,-0.895 0.403,-1.793 0.602,-2.691 0.781,-3.586 1.433,-7.192 1.844,-10.836 0.398,-3.559 0.566,-7.176 0.164,-10.735 -0.094,-0.847 -0.215,-1.726 0.019,-2.547 0.117,-0.41 0.332,-0.785 0.645,-1.078 0.312,-0.289 0.73,-0.488 1.16,-0.476 0.434,0.011 0.844,0.242 1.137,0.558 0.297,0.321 0.48,0.735 0.562,1.16 0.16,0.856 -0.07,1.727 -0.269,2.571 -0.442,1.844 -0.789,3.722 -0.809,5.613 -0.012,0.965 0.078,1.938 0.352,2.859 0.273,0.926 0.742,1.793 1.449,2.446 0.535,0.492 1.222,0.863 1.949,0.871 0.68,0.008 1.34,-0.313 1.824,-0.789 0.485,-0.473 0.789,-1.102 0.953,-1.758 0.328,-1.32 0.082,-2.695 -0.105,-4.043 -0.094,-0.672 -0.168,-1.387 0.062,-2.027 0.114,-0.325 0.313,-0.621 0.582,-0.832 0.266,-0.207 0.614,-0.309 0.954,-0.27 0.324,0.043 0.617,0.227 0.828,0.477 0.207,0.254 0.339,0.566 0.39,0.89 0.102,0.653 -0.07,1.317 -0.246,1.95 -0.375,1.359 -0.742,2.734 -0.726,4.144 0.015,1.313 0.367,2.633 1.058,3.75 1.078,1.746 2.906,2.918 4.828,3.645 1.918,0.726 3.969,1.054 5.985,1.429 8.347,1.559 16.48,4.184 24.16,7.813 l 3.519,-12.371 46.121,13.156 3.524,-12.367 38.969,11.105 -11.106,38.949 -37.851,-10.793 -5.883,20.657 -37.731,-10.754 -5.925,20.824 z"
         style="fill:#ff0d73;fill-opacity:1;fill-rule:nonzero;stroke:none"
         id="path3170" /><path
         d="m 27.828,203.095 -4.519,24.102 -2.59,-0.488 -0.465,2.48 5.617,1.055 1.887,-10.067 c 0.992,2.352 2.754,3.766 5.281,4.239 2.555,0.48 4.727,-0.043 6.523,-1.571 1.797,-1.523 2.989,-3.855 3.579,-6.992 0.582,-3.109 0.3,-5.766 -0.848,-7.969 -1.148,-2.179 -3.016,-3.511 -5.59,-3.996 -2.555,-0.476 -4.754,0.242 -6.598,2.16 l 0.461,-2.441 -2.738,-0.512 M 40,215.076 c -0.418,2.238 -1.266,3.941 -2.543,5.109 -1.25,1.176 -2.703,1.61 -4.355,1.297 -1.657,-0.309 -2.84,-1.234 -3.559,-2.781 -0.719,-1.52 -0.871,-3.395 -0.453,-5.633 0.422,-2.234 1.246,-3.941 2.472,-5.121 1.223,-1.156 2.649,-1.582 4.278,-1.274 1.629,0.305 2.828,1.223 3.598,2.75 0.792,1.559 0.98,3.442 0.562,5.653"
         style="fill:#000000;fill-opacity:1;fill-rule:nonzero;stroke:none"
         id="path3172" /><path
         d="m 63.238,218.568 -14.074,-2.641 c 0.352,-1.746 0.949,-3.043 1.785,-3.89 1.356,-1.457 3.043,-1.996 5.059,-1.621 2.48,0.468 3.906,2.054 4.277,4.765 l 3.067,0.578 c 0,-2.164 -0.606,-3.964 -1.821,-5.402 -1.215,-1.434 -2.918,-2.359 -5.105,-2.77 -2.672,-0.5 -4.957,0.004 -6.848,1.512 -1.898,1.531 -3.144,3.863 -3.73,7 -0.59,3.137 -0.27,5.785 0.961,7.957 1.25,2.196 3.199,3.543 5.847,4.039 1.797,0.336 3.465,0.184 4.992,-0.461 1.555,-0.636 2.782,-1.679 3.684,-3.121 0.758,-1.242 1.395,-3.222 1.906,-5.945 m -14.468,-0.148 10.722,2.011 c 0.016,0.055 0.012,0.129 -0.004,0.227 -0.297,1.578 -1.058,2.808 -2.277,3.687 -1.227,0.903 -2.582,1.215 -4.066,0.934 -1.532,-0.285 -2.696,-1.059 -3.489,-2.313 -0.801,-1.234 -1.097,-2.75 -0.886,-4.546"
         style="fill:#000000;fill-opacity:1;fill-rule:nonzero;stroke:none"
         id="path3174" /><path
         d="m 86.312,216.63 -2.246,11.957 c -0.293,1.583 -1.078,2.743 -2.351,3.489 -1.27,0.742 -2.832,0.937 -4.676,0.594 -1.41,-0.266 -2.559,-0.782 -3.449,-1.555 -0.86,-0.766 -1.594,-1.895 -2.192,-3.391 l -0.601,3.207 -5.399,-1.011 0.465,-2.481 2.59,0.484 2.652,-14.144 -2.589,-0.488 0.464,-2.477 8.243,1.543 -0.465,2.48 -2.59,-0.484 -1.512,8.059 c -0.363,1.941 -0.179,3.59 0.547,4.933 0.727,1.367 1.867,2.2 3.422,2.492 1.215,0.227 2.238,0.067 3.07,-0.484 0.836,-0.547 1.36,-1.391 1.571,-2.535 l 2.484,-13.234 5.617,1.05 -0.465,2.481 -2.59,-0.485"
         style="fill:#000000;fill-opacity:1;fill-rule:nonzero;stroke:none"
         id="path3176" /><path
         d="m 98.363,233.724 c 1.629,0.305 3.059,-0.133 4.285,-1.308 1.223,-1.157 2.051,-2.875 2.477,-5.161 0.418,-2.21 0.262,-4.078 -0.457,-5.597 -0.723,-1.52 -1.887,-2.43 -3.488,-2.731 -1.68,-0.316 -3.153,0.102 -4.426,1.246 -1.277,1.168 -2.125,2.872 -2.543,5.11 -0.414,2.211 -0.238,4.094 0.527,5.648 0.766,1.551 1.973,2.485 3.625,2.793 m 11.075,-12.758 -4.52,24.102 -5.613,-1.051 0.465,-2.48 2.625,0.492 1.351,-7.41 c -1.66,1.73 -3.801,2.347 -6.426,1.855 -2.48,-0.465 -4.3,-1.765 -5.461,-3.894 -1.14,-2.102 -1.425,-4.672 -0.855,-7.711 0.605,-3.231 1.828,-5.645 3.66,-7.239 1.828,-1.57 4.031,-2.113 6.609,-1.628 1.313,0.246 2.395,0.726 3.243,1.437 0.875,0.691 1.613,1.711 2.218,3.059 l 0.473,-2.516 5.285,0.992 -0.465,2.481 -2.589,-0.489"
         style="fill:#000000;fill-opacity:1;fill-rule:nonzero;stroke:none"
         id="path3178" /><path
         d="m 117.75,247.478 0.719,-3.828 -3.063,-0.578 -0.718,3.832 3.062,0.574 m -1.117,-10.742 2.656,-14.149 -2.59,-0.484 0.465,-2.48 8.203,1.539 -0.465,2.48 -2.59,-0.488 -3.117,16.629 -5.617,-1.055 0.465,-2.476 2.59,0.484"
         style="fill:#000000;fill-opacity:1;fill-rule:nonzero;stroke:none"
         id="path3180" /><path
         d="m 147.844,228.17 -2.242,11.96 c -0.297,1.582 -1.082,2.743 -2.352,3.485 -1.273,0.742 -2.832,0.941 -4.68,0.594 -1.41,-0.262 -2.558,-0.782 -3.445,-1.551 -0.863,-0.766 -1.594,-1.899 -2.195,-3.395 l -0.602,3.211 -5.398,-1.015 0.465,-2.477 2.589,0.484 2.653,-14.148 -2.586,-0.484 0.465,-2.481 8.238,1.547 -0.465,2.48 -2.586,-0.488 -1.512,8.059 c -0.367,1.945 -0.183,3.59 0.547,4.933 0.723,1.371 1.864,2.2 3.418,2.493 1.215,0.226 2.242,0.066 3.074,-0.481 0.832,-0.547 1.356,-1.394 1.571,-2.535 l 2.48,-13.238 5.617,1.054 -0.464,2.481 -2.59,-0.488"
         style="fill:#000000;fill-opacity:1;fill-rule:nonzero;stroke:none"
         id="path3182" /><path
         d="m 159.746,245.275 c -1.629,-0.305 -2.793,-1.215 -3.492,-2.73 -0.695,-1.516 -0.832,-3.415 -0.402,-5.7 0.433,-2.308 1.25,-4.043 2.449,-5.203 1.195,-1.137 2.617,-1.547 4.269,-1.238 1.606,0.301 2.75,1.183 3.43,2.644 0.68,1.485 0.805,3.372 0.375,5.657 -0.449,2.382 -1.258,4.144 -2.426,5.281 -1.148,1.168 -2.551,1.598 -4.203,1.289 m 8.352,1.34 2.531,-13.492 c 0.344,-1.821 0.519,-3.364 0.527,-4.618 0.016,-1.281 -0.172,-2.5 -0.558,-3.656 -0.391,-1.152 -1.118,-2.094 -2.192,-2.824 -1.043,-0.727 -2.457,-1.254 -4.23,-1.586 -2.235,-0.422 -4.117,-0.246 -5.649,0.527 -1.527,0.77 -2.547,2.036 -3.05,3.805 l 3.097,0.582 c 0.742,-2.078 2.485,-2.855 5.235,-2.34 2.039,0.383 3.328,1.227 3.863,2.535 0.539,1.286 0.586,3.106 0.144,5.461 l -0.183,0.985 c -0.621,-1.375 -1.348,-2.414 -2.168,-3.121 -0.801,-0.707 -1.797,-1.168 -2.988,-1.391 -2.235,-0.422 -4.278,0.141 -6.129,1.68 -1.852,1.566 -3.063,3.867 -3.633,6.906 -0.586,3.109 -0.317,5.766 0.808,7.965 1.145,2.203 2.934,3.531 5.368,3.988 2.382,0.445 4.535,-0.293 6.457,-2.223 l -0.52,2.77 5.395,1.012 0.465,-2.481 -2.59,-0.484"
         style="fill:#000000;fill-opacity:1;fill-rule:nonzero;stroke:none"
         id="path3184" /><path
         d="m 64.324,175.966 -4.519,24.102 -2.59,-0.484 -0.465,2.48 5.613,1.051 1.891,-10.063 c 0.992,2.352 2.754,3.762 5.281,4.239 2.551,0.476 4.727,-0.047 6.524,-1.571 1.793,-1.527 2.988,-3.855 3.574,-6.992 0.586,-3.113 0.301,-5.769 -0.844,-7.973 -1.152,-2.179 -3.016,-3.507 -5.594,-3.992 -2.55,-0.48 -4.75,0.242 -6.593,2.16 l 0.457,-2.445 -2.735,-0.512 m 12.172,11.985 c -0.422,2.234 -1.269,3.937 -2.543,5.109 -1.254,1.176 -2.707,1.606 -4.359,1.297 -1.653,-0.312 -2.836,-1.238 -3.555,-2.781 -0.723,-1.52 -0.871,-3.399 -0.453,-5.633 0.418,-2.238 1.242,-3.945 2.473,-5.125 1.222,-1.152 2.648,-1.578 4.277,-1.273 1.629,0.304 2.828,1.222 3.598,2.75 0.789,1.558 0.976,3.445 0.562,5.656"
         style="fill:#000000;fill-opacity:1;fill-rule:nonzero;stroke:none"
         id="path3186" /><path
         d="m 99.73,191.439 -14.074,-2.637 c 0.356,-1.746 0.949,-3.043 1.789,-3.894 1.356,-1.457 3.039,-1.996 5.059,-1.617 2.48,0.464 3.906,2.054 4.277,4.765 l 3.063,0.574 c 0.004,-2.164 -0.602,-3.96 -1.817,-5.398 -1.218,-1.437 -2.918,-2.359 -5.105,-2.77 -2.676,-0.5 -4.957,0 -6.852,1.508 -1.898,1.532 -3.14,3.867 -3.73,7 -0.586,3.137 -0.266,5.789 0.961,7.957 1.25,2.2 3.199,3.543 5.851,4.043 1.797,0.336 3.461,0.184 4.993,-0.461 1.554,-0.64 2.781,-1.679 3.679,-3.121 0.762,-1.242 1.399,-3.226 1.906,-5.949 m -14.464,-0.144 10.718,2.011 c 0.016,0.051 0.016,0.125 -0.004,0.223 -0.296,1.582 -1.054,2.812 -2.277,3.687 -1.226,0.903 -2.578,1.215 -4.062,0.938 -1.532,-0.285 -2.696,-1.059 -3.493,-2.317 -0.8,-1.23 -1.093,-2.746 -0.882,-4.542"
         style="fill:#000000;fill-opacity:1;fill-rule:nonzero;stroke:none"
         id="path3188" /><path
         d="m 116.5,188.509 -9.262,-1.738 8.762,15.875 -0.508,2.699 -14.254,-2.675 0.961,-5.141 2.59,0.484 -0.465,2.481 8.059,1.511 -8.84,-15.851 0.512,-2.734 15.535,2.914 -0.965,5.14 -2.59,-0.484 0.465,-2.481"
         style="fill:#000000;fill-opacity:1;fill-rule:nonzero;stroke:none"
         id="path3190" /><path
         d="m 124.191,214.712 0.719,-3.828 -3.062,-0.574 -0.719,3.828 3.062,0.574 m -1.117,-10.742 2.653,-14.144 -2.59,-0.489 0.465,-2.476 8.207,1.535 -0.465,2.481 -2.59,-0.485 -3.117,16.629 -5.617,-1.055 0.464,-2.48 2.59,0.484"
         style="fill:#000000;fill-opacity:1;fill-rule:nonzero;stroke:none"
         id="path3192" /><path
         d="m 151.508,201.154 -14.074,-2.641 c 0.351,-1.746 0.949,-3.043 1.785,-3.894 1.355,-1.457 3.043,-1.996 5.062,-1.617 2.477,0.464 3.903,2.054 4.278,4.765 l 3.062,0.574 c 0,-2.164 -0.605,-3.961 -1.82,-5.398 -1.215,-1.438 -2.918,-2.359 -5.106,-2.77 -2.672,-0.5 -4.957,0 -6.847,1.508 -1.899,1.531 -3.141,3.867 -3.731,7 -0.59,3.137 -0.269,5.789 0.961,7.957 1.25,2.199 3.199,3.543 5.848,4.043 1.801,0.336 3.465,0.184 4.992,-0.461 1.555,-0.64 2.781,-1.679 3.684,-3.121 0.757,-1.242 1.394,-3.222 1.906,-5.945 m -14.469,-0.149 10.723,2.012 c 0.015,0.051 0.011,0.129 -0.004,0.223 -0.297,1.582 -1.059,2.812 -2.278,3.687 -1.226,0.903 -2.582,1.215 -4.066,0.938 -1.531,-0.285 -2.695,-1.059 -3.488,-2.317 -0.801,-1.23 -1.098,-2.746 -0.887,-4.543"
         style="fill:#000000;fill-opacity:1;fill-rule:nonzero;stroke:none"
         id="path3194" /><path
         d="m 156.688,210.502 2.652,-14.145 -2.59,-0.488 0.465,-2.481 8.242,1.547 -0.465,2.481 -2.625,-0.493 -1.359,7.446 c -0.446,2.508 -0.254,4.304 0.574,5.39 0.852,1.094 2.293,1.852 4.328,2.286 l -0.582,3.097 c -0.523,-0.023 -0.922,-0.058 -1.187,-0.109 -0.973,-0.18 -1.813,-0.664 -2.52,-1.453 -0.691,-0.758 -1.336,-1.938 -1.941,-3.535 l -0.653,3.464 -5.394,-1.011 0.465,-2.481 2.59,0.485"
         style="fill:#000000;fill-opacity:1;fill-rule:nonzero;stroke:none"
         id="path3196" /><path
         d="m 172.965,202.232 c 0.359,-1.113 0.922,-1.953 1.68,-2.516 0.781,-0.531 2.007,-0.64 3.687,-0.328 1.336,0.25 2.356,0.719 3.059,1.407 0.718,0.71 0.996,1.519 0.828,2.417 -0.133,0.708 -0.469,1.223 -1.008,1.547 -0.539,0.328 -1.356,0.516 -2.445,0.563 l -2.973,0.16 c -2.363,0.109 -4.066,0.48 -5.117,1.113 -1.031,0.664 -1.688,1.75 -1.969,3.254 -0.336,1.778 0.07,3.313 1.211,4.61 1.137,1.32 2.812,2.187 5.023,2.601 2.211,0.414 4.008,0.223 5.391,-0.574 1.383,-0.797 2.262,-2.129 2.637,-3.996 l -3.207,-0.602 c -0.457,2.028 -1.926,2.809 -4.403,2.344 -1.242,-0.234 -2.175,-0.684 -2.804,-1.355 -0.633,-0.649 -0.867,-1.411 -0.703,-2.286 0.125,-0.679 0.511,-1.187 1.152,-1.519 0.637,-0.309 1.601,-0.492 2.898,-0.551 l 3.047,-0.144 c 1.981,-0.11 3.477,-0.508 4.489,-1.2 1.003,-0.664 1.64,-1.703 1.906,-3.113 0.344,-1.848 -0.094,-3.453 -1.324,-4.816 -1.208,-1.36 -3.012,-2.262 -5.418,-2.715 -4.934,-0.926 -7.883,0.773 -8.844,5.097 l 3.207,0.602"
         style="fill:#000000;fill-opacity:1;fill-rule:nonzero;stroke:none"
         id="path3198" /><path
         d="m 38.512,87.853 -0.016,14.734 2.106,0 0.011,-12.628 4.211,0.003 0,-2.105 -6.312,-0.004"
         style="fill:#ff0d73;fill-opacity:1;fill-rule:nonzero;stroke:none"
         id="path3200" /><path
         d="m 48.367,87.861 -2.105,0 -0.016,14.734 2.106,0 0.015,-14.734"
         style="fill:#ff0d73;fill-opacity:1;fill-rule:nonzero;stroke:none"
         id="path3202" /><path
         d="m 50.418,102.576 4.211,0.004 c 0.574,0 1.066,-0.203 1.473,-0.61 0.41,-0.406 0.613,-0.902 0.613,-1.492 l 0.004,-4.465 c 0,-0.211 -0.078,-0.39 -0.231,-0.547 -0.156,-0.152 -0.336,-0.23 -0.547,-0.23 l 0,-0.024 c 0.211,0 0.395,-0.074 0.547,-0.23 0.157,-0.152 0.231,-0.336 0.231,-0.547 l 0.008,-4.484 c 0,-0.574 -0.204,-1.067 -0.61,-1.473 -0.406,-0.406 -0.898,-0.609 -1.472,-0.613 l -4.211,-0.004 -0.016,14.715 m 2.086,-2.082 0.004,-4.231 1.328,0 c 0.223,0 0.414,0.078 0.566,0.235 0.157,0.152 0.231,0.343 0.231,0.566 l 0,2.633 c 0,0.223 -0.078,0.414 -0.235,0.566 -0.152,0.157 -0.343,0.231 -0.566,0.231 l -1.328,0 m 0.008,-6.317 0.004,-4.23 1.324,0 c 0.226,0 0.414,0.078 0.57,0.234 0.152,0.153 0.231,0.344 0.231,0.567 l -0.004,2.632 c 0,0.223 -0.078,0.415 -0.231,0.567 -0.156,0.156 -0.344,0.234 -0.57,0.234 l -1.324,-0.004"
         style="fill:#ff0d73;fill-opacity:1;fill-rule:nonzero;stroke:none"
         id="path3204" /><path
         d="m 58.723,102.584 4.211,-0.016 c 0.574,0 1.066,-0.203 1.476,-0.609 0.406,-0.407 0.61,-0.899 0.61,-1.473 l 0.003,-4.211 c 0,-0.801 -0.343,-1.402 -1.031,-1.813 l 0,0 1.039,-6.585 -2.082,-0.004 -1.058,6.316 -1.075,0 0.004,-6.316 -2.082,0 -0.015,14.711 m 2.086,-2.082 0.003,-4.25 1.329,0 c 0.222,0 0.414,0.078 0.566,0.234 0.156,0.168 0.231,0.355 0.231,0.566 l 0,2.633 c 0,0.223 -0.079,0.414 -0.235,0.567 -0.152,0.168 -0.344,0.253 -0.566,0.253 l -1.328,-0.003"
         style="fill:#ff0d73;fill-opacity:1;fill-rule:nonzero;stroke:none"
         id="path3206" /><path
         d="m 66.836,87.877 -0.012,14.734 6.313,0.008 0.004,-2.106 -4.211,-0.004 0.004,-4.211 3.156,0.004 0.004,-2.105 -3.156,-0.004 0.003,-4.211 4.207,0.008 0.004,-2.106 -6.316,-0.007"
         style="fill:#ff0d73;fill-opacity:1;fill-rule:nonzero;stroke:none"
         id="path3208" /><path
         d="m 79.219,101.697 c 0.617,0.617 1.359,0.93 2.23,0.93 0.871,0 1.613,-0.309 2.231,-0.926 0.617,-0.617 0.929,-1.36 0.929,-2.231 l -2.105,0 c 0,0.293 -0.106,0.539 -0.316,0.735 -0.196,0.211 -0.442,0.316 -0.739,0.316 -0.293,0 -0.547,-0.105 -0.758,-0.316 -0.195,-0.196 -0.293,-0.442 -0.293,-0.739 l 0.008,-8.418 c 0,-0.296 0.098,-0.546 0.297,-0.757 0.211,-0.196 0.461,-0.297 0.758,-0.293 0.293,0 0.539,0.097 0.734,0.293 0.211,0.211 0.317,0.464 0.317,0.757 l -0.004,3.161 -1.051,-0.004 -0.004,2.105 3.16,0.004 0.004,-5.262 c 0,-0.871 -0.308,-1.613 -0.926,-2.234 -0.617,-0.617 -1.359,-0.926 -2.23,-0.926 -0.867,0 -1.613,0.305 -2.231,0.922 -0.617,0.617 -0.929,1.363 -0.929,2.231 l -0.008,8.421 c 0,0.871 0.309,1.614 0.926,2.231"
         style="fill:#ff0d73;fill-opacity:1;fill-rule:nonzero;stroke:none"
         id="path3210" /><path
         d="m 86.516,102.611 4.211,-0.02 c 0.574,0 1.066,-0.203 1.472,-0.609 0.41,-0.406 0.613,-0.898 0.613,-1.473 l 0.004,-4.211 c 0,-0.796 -0.343,-1.402 -1.031,-1.808 l 0,0 1.039,-6.59 -2.086,0 -1.054,6.312 -1.075,0 0.004,-6.316 -2.082,0 -0.015,14.715 m 2.086,-2.082 0.003,-4.254 1.329,0 c 0.222,0 0.414,0.078 0.566,0.234 0.156,0.168 0.23,0.356 0.23,0.567 l 0,2.633 c 0,0.222 -0.078,0.414 -0.234,0.566 -0.152,0.168 -0.344,0.254 -0.566,0.254 l -1.328,0"
         style="fill:#ff0d73;fill-opacity:1;fill-rule:nonzero;stroke:none"
         id="path3212" /><path
         d="m 96.805,102.638 2.086,0.004 3.168,-14.734 -2.082,0 -0.637,3.156 -2.965,0.02 -0.629,-3.18 -2.086,-0.004 3.145,14.738 m 1.035,-4.207 -1.047,-5.285 2.125,0 -1.055,5.285 c 0,0 -0.008,0 -0.023,0"
         style="fill:#ff0d73;fill-opacity:1;fill-rule:nonzero;stroke:none"
         id="path3214" /><path
         d="m 103.086,102.623 4.211,0.004 c 0.574,0.003 1.066,-0.2 1.473,-0.61 0.406,-0.406 0.609,-0.902 0.613,-1.492 l 0.004,-4.211 c 0,-0.574 -0.203,-1.066 -0.61,-1.473 -0.406,-0.406 -0.898,-0.613 -1.472,-0.613 l -2.129,0 0.008,-6.316 -2.086,0 -0.012,14.715 m 2.086,-2.082 0.004,-4.235 1.324,0.004 c 0.227,0 0.414,0.074 0.57,0.231 0.153,0.156 0.231,0.343 0.231,0.57 l -0.004,2.629 c 0,0.226 -0.078,0.414 -0.231,0.57 -0.156,0.152 -0.343,0.231 -0.57,0.231 l -1.324,0"
         style="fill:#ff0d73;fill-opacity:1;fill-rule:nonzero;stroke:none"
         id="path3216" /><path
         d="m 110.98,102.654 2.102,0 0.008,-6.317 2.105,0.004 -0.007,6.313 2.105,0.004 0.016,-14.735 -2.106,-0.003 -0.008,6.316 -2.105,-0.004 0.008,-6.312 -2.106,-0.004 -0.012,14.738"
         style="fill:#ff0d73;fill-opacity:1;fill-rule:nonzero;stroke:none"
         id="path3218" /><path
         d="m 121.508,87.927 -2.106,-0.004 -0.015,14.739 2.105,0 0.016,-14.735"
         style="fill:#ff0d73;fill-opacity:1;fill-rule:nonzero;stroke:none"
         id="path3220" /><path
         d="m 124.359,101.74 c 0.618,0.617 1.36,0.926 2.231,0.926 0.871,0 1.613,-0.305 2.234,-0.922 0.617,-0.617 0.926,-1.364 0.926,-2.231 l 0,-1.054 -2.102,0 -0.003,1.05 c 0,0.297 -0.106,0.539 -0.317,0.739 -0.195,0.211 -0.441,0.312 -0.734,0.312 -0.297,0 -0.547,-0.105 -0.758,-0.316 -0.195,-0.196 -0.297,-0.442 -0.297,-0.735 l 0.012,-8.422 c 0,-0.292 0.097,-0.546 0.293,-0.757 0.211,-0.196 0.465,-0.293 0.758,-0.293 0.296,0 0.543,0.097 0.738,0.297 0.211,0.211 0.312,0.461 0.312,0.757 l 0,1.051 2.106,0.004 0,-1.055 c 0,-0.871 -0.305,-1.613 -0.922,-2.23 -0.617,-0.621 -1.363,-0.93 -2.231,-0.93 -0.871,0 -1.617,0.309 -2.234,0.926 -0.617,0.617 -0.926,1.359 -0.926,2.23 l -0.007,8.418 c -0.004,0.872 0.304,1.614 0.921,2.235"
         style="fill:#ff0d73;fill-opacity:1;fill-rule:nonzero;stroke:none"
         id="path3222" /><path
         d="m 130.961,92.146 0,-1.055 c 0,-0.867 0.309,-1.613 0.926,-2.23 0.621,-0.617 1.363,-0.922 2.234,-0.922 0.871,0 1.613,0.309 2.231,0.926 0.617,0.621 0.925,1.363 0.921,2.234 l 0,2.106 c 0,0.797 -0.269,1.5 -0.8,2.101 -0.633,0.703 -1.418,1.055 -2.36,1.051 -0.293,0 -0.547,0.098 -0.758,0.297 -0.195,0.207 -0.296,0.461 -0.296,0.754 l 0,2.105 c 0,0.297 0.097,0.543 0.293,0.739 0.21,0.21 0.464,0.316 0.757,0.316 0.297,0 0.539,-0.106 0.739,-0.316 0.211,-0.196 0.316,-0.442 0.316,-0.735 l 0,-1.055 1.914,0.004 0.192,0 0,1.051 c -0.004,0.871 -0.313,1.613 -0.93,2.231 -0.617,0.617 -1.363,0.925 -2.231,0.925 -0.871,0 -1.613,-0.312 -2.23,-0.929 -0.617,-0.617 -0.926,-1.36 -0.926,-2.231 l 0,-2.105 c 0.004,-0.801 0.27,-1.5 0.805,-2.106 0.633,-0.699 1.418,-1.05 2.355,-1.05 0.297,0 0.543,-0.102 0.739,-0.313 0.21,-0.199 0.316,-0.441 0.316,-0.738 l 0.004,-2.106 c 0,-0.293 -0.106,-0.547 -0.317,-0.758 -0.195,-0.195 -0.441,-0.292 -0.738,-0.292 -0.293,0 -0.547,0.097 -0.758,0.292 -0.195,0.211 -0.293,0.461 -0.293,0.758 l -0.004,1.051 -2.101,0"
         style="fill:#ff0d73;fill-opacity:1;fill-rule:nonzero;stroke:none"
         id="path3224" /><path
         d="m 42.211,69.962 -1.586,4.735 0.008,-7.895 -2.106,0 -0.011,14.735 2.105,0.004 2.637,-7.895 2.625,7.899 2.105,0 L 48,66.81 l -2.105,0 -0.004,7.891 -1.575,-4.735 -2.105,-0.004"
         style="fill:#000000;fill-opacity:1;fill-rule:nonzero;stroke:none"
         id="path3226" /><path
         d="m 50.039,66.814 -0.012,14.734 6.317,0.004 0,-2.105 -4.211,-0.004 0.004,-4.211 3.16,0.004 0,-2.106 -3.156,0 0.004,-4.21 4.21,0.003 0,-2.105 -6.316,-0.004"
         style="fill:#000000;fill-opacity:1;fill-rule:nonzero;stroke:none"
         id="path3228" /><path
         d="m 57.73,66.818 -0.015,14.734 6.316,0.008 0,-2.105 -4.207,-0.004 0.004,-4.211 3.156,0.004 0,-2.106 -3.156,-0.004 0.004,-4.207 4.211,0.004 0,-2.105 -6.313,-0.008"
         style="fill:#000000;fill-opacity:1;fill-rule:nonzero;stroke:none"
         id="path3230" /><path
         d="m 64.328,81.56 6.317,0.004 0.003,-2.102 -2.105,-0.003 0.012,-12.629 -2.106,-0.004 -0.011,12.633 -2.106,-0.004 -0.004,2.105"
         style="fill:#000000;fill-opacity:1;fill-rule:nonzero;stroke:none"
         id="path3232" /><path
         d="m 73.793,66.834 -2.105,0 -0.012,14.734 2.105,0 0.012,-14.734"
         style="fill:#000000;fill-opacity:1;fill-rule:nonzero;stroke:none"
         id="path3234" /><path
         d="m 75.762,81.572 2.105,0 2.113,-7.367 -0.007,7.371 2.105,0 0.012,-14.735 -2.106,-0.004 -2.109,7.368 0.004,-7.368 -2.102,0 -0.015,14.735"
         style="fill:#000000;fill-opacity:1;fill-rule:nonzero;stroke:none"
         id="path3236" /><path
         d="m 84.828,80.654 c 0.617,0.617 1.36,0.926 2.231,0.926 0.871,0 1.613,-0.305 2.234,-0.922 0.617,-0.617 0.926,-1.363 0.926,-2.231 l -2.106,-0.004 c 0,0.297 -0.105,0.543 -0.316,0.739 -0.195,0.211 -0.442,0.316 -0.735,0.312 -0.296,0 -0.546,-0.105 -0.757,-0.316 -0.2,-0.196 -0.297,-0.442 -0.297,-0.735 l 0.008,-8.421 c 0.004,-0.293 0.101,-0.547 0.296,-0.758 0.211,-0.196 0.465,-0.293 0.758,-0.293 0.297,0 0.539,0.097 0.739,0.297 0.207,0.211 0.312,0.461 0.312,0.757 l -0.004,3.157 -1.051,0 0,2.105 3.157,0.004 0.004,-5.266 c 0,-0.867 -0.305,-1.613 -0.922,-2.23 -0.617,-0.617 -1.364,-0.926 -2.231,-0.93 -0.871,0 -1.617,0.309 -2.234,0.926 -0.617,0.617 -0.926,1.359 -0.926,2.231 l -0.008,8.418 c -0.004,0.871 0.305,1.617 0.922,2.234"
         style="fill:#000000;fill-opacity:1;fill-rule:nonzero;stroke:none"
         id="path3238" /><path
         d="m 96.664,80.662 c 0.617,0.621 1.363,0.929 2.231,0.929 0.871,0 1.613,-0.308 2.234,-0.925 0.617,-0.618 0.926,-1.36 0.926,-2.231 0,-0.461 -0.09,-0.898 -0.27,-1.305 l -3.68,-8.168 3.961,0 0,-2.101 -6.316,-0.008 0,2.106 3.949,8.656 c 0.168,0.406 0.25,0.68 0.25,0.82 0,0.293 -0.105,0.539 -0.316,0.735 -0.195,0.21 -0.442,0.316 -0.735,0.316 -0.296,0 -0.546,-0.106 -0.757,-0.316 -0.196,-0.196 -0.297,-0.442 -0.293,-0.739 l -2.106,0 c -0.004,0.871 0.305,1.614 0.922,2.231"
         style="fill:#ff0d73;fill-opacity:1;fill-rule:nonzero;stroke:none"
         id="path3240" /><path
         d="m 104.395,80.67 c 0.617,0.617 1.359,0.929 2.23,0.929 0.871,0 1.613,-0.308 2.23,-0.926 0.622,-0.617 0.93,-1.359 0.93,-2.23 l 0.008,-8.418 c 0,-0.871 -0.309,-1.617 -0.926,-2.234 -0.613,-0.618 -1.359,-0.926 -2.23,-0.926 -0.867,-0.004 -1.614,0.305 -2.231,0.922 -0.617,0.617 -0.926,1.363 -0.929,2.23 l -0.008,8.422 c 0,0.867 0.308,1.613 0.926,2.231 m 2.968,-1.493 c -0.195,0.211 -0.441,0.317 -0.738,0.317 -0.293,0 -0.547,-0.106 -0.754,-0.317 -0.199,-0.195 -0.297,-0.441 -0.297,-0.738 l 0.008,-8.418 c 0,-0.297 0.102,-0.547 0.297,-0.758 0.211,-0.195 0.465,-0.297 0.758,-0.293 0.293,0 0.539,0.098 0.738,0.293 0.207,0.211 0.313,0.465 0.313,0.758 l -0.008,8.422 c 0,0.293 -0.106,0.539 -0.317,0.734"
         style="fill:#ff0d73;fill-opacity:1;fill-rule:nonzero;stroke:none"
         id="path3242" /><path
         d="m 113.703,81.603 2.102,0.004 0.015,-14.734 -2.105,-0.004 -0.012,12.633 -2.101,-2.11 -0.004,2.106 2.105,2.105"
         style="fill:#ff0d73;fill-opacity:1;fill-rule:nonzero;stroke:none"
         id="path3244" /><path
         d="m 119.852,80.685 c 0.617,0.617 1.363,0.926 2.23,0.926 0.871,0.004 1.617,-0.305 2.234,-0.922 0.618,-0.617 0.926,-1.359 0.926,-2.23 l 0.008,-8.422 c 0.004,-0.867 -0.305,-1.614 -0.922,-2.231 -0.617,-0.617 -1.359,-0.929 -2.23,-0.929 -0.871,0 -1.614,0.308 -2.235,0.925 -0.617,0.618 -0.925,1.36 -0.925,2.231 l -0.008,8.418 c 0,0.871 0.304,1.617 0.922,2.234 m 2.968,-1.492 c -0.195,0.211 -0.441,0.316 -0.734,0.312 -0.297,0 -0.547,-0.105 -0.758,-0.316 -0.195,-0.195 -0.293,-0.441 -0.293,-0.734 l 0.008,-8.422 c 0,-0.293 0.098,-0.547 0.293,-0.758 0.211,-0.195 0.465,-0.293 0.758,-0.293 0.297,0 0.543,0.098 0.738,0.297 0.211,0.211 0.316,0.461 0.316,0.758 l -0.011,8.418 c 0,0.297 -0.106,0.543 -0.317,0.738"
         style="fill:#ff0d73;fill-opacity:1;fill-rule:nonzero;stroke:none"
         id="path3246" /><path
         d="m 38.535,60.466 4.211,0.004 c 0.574,0 1.066,-0.203 1.473,-0.609 0.406,-0.406 0.609,-0.906 0.613,-1.496 l 0.004,-4.461 c 0,-0.211 -0.078,-0.395 -0.231,-0.547 -0.156,-0.156 -0.339,-0.23 -0.55,-0.23 l 0,-0.024 c 0.211,0 0.394,-0.078 0.55,-0.23 0.153,-0.157 0.231,-0.336 0.231,-0.547 l 0.004,-4.485 c 0,-0.574 -0.203,-1.066 -0.61,-1.472 -0.406,-0.41 -0.898,-0.614 -1.472,-0.614 l -4.211,-0.003 -0.012,14.714 m 2.086,-2.082 0.004,-4.23 1.324,0 c 0.227,0 0.414,0.078 0.571,0.23 0.152,0.157 0.23,0.344 0.23,0.571 l -0.004,2.629 c 0,0.226 -0.078,0.414 -0.23,0.57 -0.157,0.152 -0.344,0.23 -0.571,0.23 l -1.324,0 m 0.004,-6.316 0.004,-4.231 1.328,0.004 c 0.223,0 0.414,0.075 0.566,0.231 0.157,0.152 0.231,0.344 0.231,0.566 l 0,2.633 c 0,0.227 -0.078,0.414 -0.234,0.566 -0.153,0.157 -0.344,0.235 -0.567,0.235 l -1.328,-0.004"
         style="fill:#000000;fill-opacity:1;fill-rule:nonzero;stroke:none"
         id="path3248" /><path
         d="m 46.84,60.474 4.211,-0.019 c 0.574,0.004 1.066,-0.2 1.472,-0.61 0.407,-0.406 0.614,-0.894 0.614,-1.472 l 0.004,-4.207 c 0,-0.801 -0.344,-1.407 -1.032,-1.813 l 0,0 1.039,-6.586 -2.086,-0.004 -1.058,6.313 -1.074,0 0.008,-6.313 -2.086,-0.004 -0.012,14.715 m 2.086,-2.082 0.004,-4.254 1.324,0.004 c 0.226,0 0.414,0.078 0.57,0.231 0.153,0.168 0.231,0.359 0.231,0.57 l -0.004,2.629 c 0,0.226 -0.078,0.414 -0.231,0.57 -0.156,0.168 -0.343,0.25 -0.57,0.25 l -1.324,0"
         style="fill:#000000;fill-opacity:1;fill-rule:nonzero;stroke:none"
         id="path3250" /><path
         d="m 54.938,60.502 2.105,0 0.012,-11.575 c 0,-0.297 0.097,-0.547 0.297,-0.757 0.207,-0.2 0.46,-0.297 0.757,-0.297 0.293,0.004 0.539,0.101 0.735,0.297 0.211,0.21 0.316,0.464 0.316,0.757 l -0.012,11.578 2.106,0 0.012,-11.574 c 0,-0.871 -0.309,-1.617 -0.926,-2.234 -0.617,-0.617 -1.36,-0.926 -2.231,-0.93 -0.871,0 -1.613,0.309 -2.23,0.926 -0.621,0.617 -0.93,1.359 -0.93,2.23 l -0.011,11.579"
         style="fill:#000000;fill-opacity:1;fill-rule:nonzero;stroke:none"
         id="path3252" /><path
         d="m 62.875,49.986 0,-1.055 c 0,-0.871 0.309,-1.613 0.926,-2.23 0.621,-0.617 1.363,-0.926 2.234,-0.926 0.871,0.004 1.613,0.312 2.231,0.93 0.617,0.617 0.925,1.363 0.922,2.234 l 0,2.102 c 0,0.8 -0.27,1.504 -0.801,2.105 -0.633,0.703 -1.418,1.051 -2.36,1.051 -0.297,0 -0.547,0.098 -0.757,0.293 -0.2,0.211 -0.297,0.465 -0.297,0.758 l 0,2.105 c 0,0.297 0.097,0.539 0.293,0.738 0.211,0.211 0.461,0.317 0.757,0.317 0.293,0 0.539,-0.106 0.739,-0.317 0.211,-0.195 0.316,-0.441 0.316,-0.734 l 0,-1.055 1.914,0.004 0.192,0 -0.004,1.051 c 0,0.871 -0.309,1.613 -0.926,2.23 -0.617,0.618 -1.363,0.926 -2.234,0.926 -0.868,-0.004 -1.614,-0.312 -2.231,-0.929 -0.613,-0.618 -0.922,-1.364 -0.922,-2.231 l 0,-2.105 c 0.004,-0.801 0.27,-1.504 0.805,-2.106 0.629,-0.703 1.418,-1.051 2.355,-1.051 0.297,0 0.543,-0.105 0.739,-0.316 0.211,-0.195 0.316,-0.441 0.316,-0.734 l 0.004,-2.106 c 0,-0.293 -0.106,-0.547 -0.316,-0.758 -0.196,-0.195 -0.442,-0.297 -0.739,-0.297 -0.293,0 -0.547,0.098 -0.758,0.297 -0.195,0.207 -0.293,0.461 -0.293,0.758 l -0.003,1.051 -2.102,0"
         style="fill:#000000;fill-opacity:1;fill-rule:nonzero;stroke:none"
         id="path3254" /><path
         d="m 70.355,49.99 0,-1.051 c 0.004,-0.871 0.313,-1.613 0.93,-2.23 0.617,-0.618 1.363,-0.926 2.231,-0.926 0.871,0 1.613,0.312 2.23,0.929 0.617,0.618 0.926,1.364 0.926,2.231 l -0.004,2.105 c 0,0.801 -0.266,1.5 -0.801,2.106 -0.633,0.699 -1.418,1.051 -2.359,1.051 -0.293,0 -0.547,0.097 -0.758,0.293 -0.195,0.211 -0.293,0.461 -0.293,0.757 l -0.004,2.106 c 0,0.293 0.098,0.539 0.297,0.734 0.207,0.211 0.461,0.317 0.754,0.317 0.297,0.004 0.543,-0.102 0.738,-0.313 0.211,-0.195 0.317,-0.441 0.317,-0.738 l 0,-1.051 1.918,0 0.187,0 0,1.055 c 0,0.867 -0.309,1.613 -0.93,2.23 -0.617,0.617 -1.359,0.926 -2.23,0.922 -0.871,0 -1.613,-0.308 -2.231,-0.926 -0.617,-0.621 -0.925,-1.363 -0.925,-2.234 l 0.004,-2.105 c 0,-0.797 0.265,-1.5 0.8,-2.102 0.633,-0.703 1.418,-1.051 2.36,-1.051 0.293,0 0.539,-0.105 0.738,-0.316 0.211,-0.196 0.316,-0.442 0.316,-0.735 l 0,-2.105 c 0,-0.297 -0.105,-0.547 -0.316,-0.758 -0.195,-0.199 -0.441,-0.297 -0.734,-0.297 -0.297,0 -0.547,0.098 -0.758,0.293 -0.199,0.211 -0.297,0.465 -0.297,0.758 l 0,1.055 -2.106,-0.004"
         style="fill:#000000;fill-opacity:1;fill-rule:nonzero;stroke:none"
         id="path3256" /><path
         d="m 78.262,45.787 -0.012,14.734 6.316,0.008 0,-2.106 -4.211,-0.003 0.004,-4.211 3.161,0.003 0,-2.105 -3.157,-0.004 0.004,-4.207 4.207,0.004 0.004,-2.105 -6.316,-0.008"
         style="fill:#000000;fill-opacity:1;fill-rule:nonzero;stroke:none"
         id="path3258" /><path
         d="m 85.953,45.795 -0.015,14.734 2.105,0.004 0.012,-12.633 4.211,0.004 0,-2.102 -6.317,-0.007"
         style="fill:#000000;fill-opacity:1;fill-rule:nonzero;stroke:none"
         id="path3260" /><path
         d="m 93.215,50.013 0,-1.054 c 0,-0.872 0.312,-1.614 0.93,-2.231 0.617,-0.617 1.359,-0.926 2.23,-0.922 0.871,0 1.613,0.309 2.23,0.926 0.618,0.617 0.926,1.363 0.926,2.234 l -0.004,2.102 c 0,0.801 -0.265,1.504 -0.8,2.105 -0.633,0.704 -1.418,1.051 -2.36,1.051 -0.293,0 -0.547,0.098 -0.758,0.293 -0.195,0.211 -0.293,0.465 -0.293,0.758 l -0.004,2.105 c 0,0.297 0.098,0.54 0.297,0.739 0.207,0.211 0.461,0.316 0.754,0.316 0.297,0 0.543,-0.105 0.739,-0.316 0.21,-0.196 0.316,-0.442 0.316,-0.735 l 0,-1.054 1.918,0.004 0.187,0 0,1.05 c 0,0.871 -0.308,1.614 -0.929,2.231 -0.617,0.617 -1.36,0.926 -2.231,0.926 -0.871,-0.004 -1.613,-0.313 -2.23,-0.93 -0.617,-0.617 -0.926,-1.363 -0.926,-2.231 l 0.004,-2.105 c 0,-0.801 0.266,-1.504 0.801,-2.105 0.633,-0.7 1.418,-1.051 2.359,-1.051 0.293,0 0.539,-0.106 0.738,-0.317 0.207,-0.195 0.313,-0.441 0.317,-0.734 l 0,-2.106 c 0,-0.292 -0.106,-0.546 -0.317,-0.757 -0.195,-0.196 -0.441,-0.297 -0.734,-0.297 -0.297,0 -0.547,0.097 -0.758,0.297 -0.199,0.207 -0.297,0.461 -0.297,0.757 l 0,1.051 -2.105,0"
         style="fill:#000000;fill-opacity:1;fill-rule:nonzero;stroke:none"
         id="path3262" /><path
         d="m 105.648,59.623 c 0.618,0.617 1.36,0.925 2.231,0.925 0.867,0.004 1.613,-0.304 2.23,-0.921 0.618,-0.618 0.926,-1.364 0.93,-2.231 0,-0.465 -0.094,-0.898 -0.273,-1.305 l -3.676,-8.171 3.957,0.003 0,-2.105 -6.313,-0.008 -0.004,2.106 3.95,8.656 c 0.168,0.406 0.254,0.68 0.254,0.82 0,0.297 -0.106,0.539 -0.317,0.738 -0.199,0.211 -0.441,0.313 -0.738,0.313 -0.293,0 -0.547,-0.106 -0.758,-0.316 -0.195,-0.196 -0.293,-0.442 -0.293,-0.735 l -2.105,-0.004 c 0,0.871 0.308,1.614 0.925,2.235"
         style="fill:#ff0d73;fill-opacity:1;fill-rule:nonzero;stroke:none"
         id="path3264" /><path
         d="m 112.453,57.416 -0.004,3.136 6.293,0.008 0.004,-2.086 -4.199,-12.633 -2.086,0 4.199,12.633 -2.125,0 0,-1.054 -2.086,0"
         style="fill:#ff0d73;fill-opacity:1;fill-rule:nonzero;stroke:none"
         id="path3266" /><path
         d="m 120.395,53.318 5.05,0.008 0.004,-1.684 -5.051,-0.008 -0.003,1.684"
         style="fill:#ff0d73;fill-opacity:1;fill-rule:nonzero;stroke:none"
         id="path3268" /><path
         d="m 128.012,59.642 c 0.617,0.617 1.359,0.926 2.23,0.926 0.871,0.004 1.613,-0.305 2.235,-0.922 0.617,-0.617 0.925,-1.359 0.925,-2.23 l 0.004,-2.106 c 0,-0.801 -0.265,-1.5 -0.801,-2.105 0.536,-0.602 0.801,-1.305 0.805,-2.106 l 0,-2.105 c 0,-0.867 -0.308,-1.614 -0.926,-2.231 -0.617,-0.617 -1.359,-0.926 -2.23,-0.929 -0.867,0 -1.613,0.308 -2.231,0.925 -0.617,0.618 -0.925,1.36 -0.929,2.231 l 0,1.051 2.105,0.004 0,-1.055 c 0,-0.293 0.098,-0.547 0.297,-0.758 0.211,-0.195 0.461,-0.293 0.758,-0.293 0.293,0 0.539,0.098 0.734,0.297 0.211,0.211 0.317,0.461 0.317,0.758 l 0,2.105 c 0,0.293 -0.106,0.539 -0.317,0.735 -0.199,0.211 -0.445,0.316 -0.738,0.316 l 0,2.105 c 0.293,0 0.539,0.098 0.734,0.293 0.211,0.211 0.317,0.465 0.317,0.758 l -0.004,2.106 c 0,0.297 -0.106,0.543 -0.317,0.738 -0.195,0.211 -0.441,0.316 -0.734,0.316 -0.297,-0.004 -0.547,-0.109 -0.758,-0.316 -0.195,-0.199 -0.297,-0.445 -0.293,-0.738 l 0,-1.055 -2.105,0 0,1.051 c -0.004,0.871 0.305,1.617 0.922,2.234"
         style="fill:#ff0d73;fill-opacity:1;fill-rule:nonzero;stroke:none"
         id="path3270" /><path
         d="m 135.742,59.65 c 0.617,0.617 1.36,0.926 2.231,0.926 0.871,0 1.613,-0.305 2.23,-0.922 0.617,-0.617 0.93,-1.363 0.93,-2.231 l 0.008,-8.421 c 0,-0.872 -0.309,-1.614 -0.926,-2.231 -0.617,-0.617 -1.36,-0.93 -2.231,-0.93 -0.867,0 -1.613,0.309 -2.23,0.926 -0.617,0.617 -0.93,1.36 -0.93,2.231 l -0.008,8.418 c 0,0.871 0.309,1.613 0.926,2.234 m 2.969,-1.492 c -0.195,0.211 -0.441,0.312 -0.738,0.312 -0.293,0 -0.547,-0.105 -0.758,-0.316 -0.195,-0.195 -0.293,-0.442 -0.293,-0.734 l 0.008,-8.422 c 0,-0.293 0.097,-0.547 0.297,-0.758 0.211,-0.195 0.461,-0.293 0.757,-0.293 0.293,0 0.539,0.098 0.735,0.297 0.211,0.211 0.316,0.461 0.316,0.758 l -0.008,8.418 c 0,0.296 -0.105,0.542 -0.316,0.738"
         style="fill:#ff0d73;fill-opacity:1;fill-rule:nonzero;stroke:none"
         id="path3272" /><path
         d="m 150.438,49.009 -1.583,4.735 0.008,-7.891 -2.105,-0.004 -0.012,14.735 2.102,0.003 2.64,-7.89 2.625,7.894 2.102,0 0.015,-14.734 -2.105,0 -0.008,7.895 -1.574,-4.739 -2.105,-0.004"
         style="fill:#ff0d73;fill-opacity:1;fill-rule:nonzero;stroke:none"
         id="path3274" /><path
         d="m 160.445,60.595 2.082,0.004 3.172,-14.73 -2.082,-0.004 -0.637,3.156 -2.968,0.02 -0.625,-3.18 -2.086,0 3.144,14.738 m 1.035,-4.211 -1.046,-5.285 2.125,0.004 -1.059,5.281 c 0,0 -0.008,0 -0.02,0"
         style="fill:#ff0d73;fill-opacity:1;fill-rule:nonzero;stroke:none"
         id="path3276" /><path
         d="m 168.418,50.06 0.004,-4.211 2.125,0 -0.004,4.211 2.625,10.547 -2.129,0 -1.551,-6.297 -1.586,6.293 -2.125,0 2.641,-10.543"
         style="fill:#ff0d73;fill-opacity:1;fill-rule:nonzero;stroke:none"
         id="path3278" /><path
         d="m 37.75,40.388 1.637,-9.117 1.312,0 0.973,5.438 0.965,-5.438 1.316,0 1.617,9.109 -1.312,0 -0.961,-5.32 -0.981,5.332 -1.312,0 -0.973,-5.336 -0.965,5.332 -1.316,0"
         style="fill:#ff0d73;fill-opacity:1;fill-rule:nonzero;stroke:none"
         id="path3280" /><path
         d="m 45.984,40.396 1.633,-9.117 1.317,0 0.968,5.437 0.969,-5.437 1.313,0 1.621,9.109 -1.317,0 -0.957,-5.324 -0.98,5.336 -1.313,0 -0.972,-5.336 -0.969,5.332 -1.313,0"
         style="fill:#ff0d73;fill-opacity:1;fill-rule:nonzero;stroke:none"
         id="path3282" /><path
         d="m 54.219,40.404 1.633,-9.117 1.312,0 0.973,5.437 0.968,-5.437 1.313,0 1.617,9.109 -1.312,0 -0.957,-5.324 -0.981,5.336 -1.316,0 -0.969,-5.336 -0.969,5.332 -1.312,0"
         style="fill:#ff0d73;fill-opacity:1;fill-rule:nonzero;stroke:none"
         id="path3284" /><path
         d="m 62.797,32.591 1.301,0 0,-1.301 -1.301,0 0,1.301 z"
         style="fill:#ff0d73;fill-opacity:1;fill-rule:nonzero;stroke:none"
         id="path3286" /><path
         d="m 65.266,31.295 -0.012,9.105 1.305,0 0.003,-7.805 2.602,0 0.004,-1.3 -3.902,0"
         style="fill:#ff0d73;fill-opacity:1;fill-rule:nonzero;stroke:none"
         id="path3288" /><path
         d="m 71.355,31.298 -1.3,0 -0.008,9.11 1.301,0 0.007,-9.11"
         style="fill:#ff0d73;fill-opacity:1;fill-rule:nonzero;stroke:none"
         id="path3290" /><path
         d="m 72.625,40.396 2.602,0 c 0.355,0 0.66,-0.125 0.91,-0.379 0.254,-0.25 0.379,-0.558 0.379,-0.922 l 0.004,-2.758 c 0,-0.132 -0.047,-0.242 -0.145,-0.339 -0.094,-0.094 -0.207,-0.145 -0.336,-0.145 l 0,-0.012 c 0.129,0 0.242,-0.046 0.336,-0.14 0.098,-0.098 0.145,-0.211 0.145,-0.34 l 0.003,-2.774 c 0,-0.355 -0.125,-0.656 -0.378,-0.91 -0.25,-0.25 -0.555,-0.375 -0.911,-0.379 l -2.601,0 -0.008,9.098 m 1.289,-1.289 0.004,-2.613 0.816,0 c 0.141,0 0.258,0.047 0.352,0.144 0.098,0.094 0.144,0.211 0.144,0.352 l 0,1.625 c 0,0.137 -0.05,0.254 -0.144,0.351 -0.098,0.094 -0.215,0.141 -0.352,0.141 l -0.82,0 m 0.004,-3.902 0.004,-2.618 0.816,0.004 c 0.141,0 0.258,0.047 0.352,0.141 0.098,0.098 0.144,0.215 0.144,0.352 l -0.004,1.628 c 0,0.137 -0.046,0.254 -0.14,0.352 -0.098,0.094 -0.215,0.141 -0.352,0.141 l -0.82,0"
         style="fill:#ff0d73;fill-opacity:1;fill-rule:nonzero;stroke:none"
         id="path3292" /><path
         d="m 77.758,40.4 2.601,-0.012 c 0.356,0 0.661,-0.125 0.911,-0.375 0.253,-0.254 0.378,-0.554 0.378,-0.91 l 0.004,-2.601 c 0,-0.497 -0.211,-0.872 -0.636,-1.122 l 0,0 0.64,-4.07 -1.289,0 -0.652,3.902 -0.664,-0.003 0.004,-3.903 -1.289,0 -0.008,9.094 m 1.289,-1.285 0.004,-2.629 0.82,0 c 0.137,0 0.254,0.051 0.348,0.144 0.097,0.106 0.144,0.223 0.144,0.352 l 0,1.625 c 0,0.141 -0.051,0.258 -0.144,0.352 -0.098,0.105 -0.215,0.156 -0.352,0.156 l -0.82,0"
         style="fill:#ff0d73;fill-opacity:1;fill-rule:nonzero;stroke:none"
         id="path3294" /><path
         d="m 82.773,31.31 -0.007,9.106 3.902,0 0,-1.301 -2.602,0 0,-2.602 1.954,0 0,-1.301 -1.95,0 0,-2.601 2.602,0 0.004,-1.301 -3.906,0"
         style="fill:#ff0d73;fill-opacity:1;fill-rule:nonzero;stroke:none"
         id="path3296" /><path
         d="m 88.012,39.849 c 0.379,0.383 0.84,0.574 1.379,0.574 0.535,0 0.996,-0.191 1.379,-0.57 0.382,-0.383 0.574,-0.844 0.574,-1.379 l -1.301,0 c 0,0.18 -0.066,0.332 -0.195,0.453 -0.121,0.129 -0.274,0.196 -0.457,0.196 -0.184,0 -0.34,-0.067 -0.469,-0.196 -0.121,-0.121 -0.18,-0.273 -0.18,-0.457 l 0.004,-5.203 c 0,-0.183 0.059,-0.34 0.184,-0.469 0.129,-0.121 0.285,-0.179 0.468,-0.179 0.18,0 0.332,0.058 0.454,0.179 0.128,0.133 0.195,0.289 0.195,0.469 l 0,1.953 -0.652,0 0,1.301 1.949,0 0.004,-3.254 c 0,-0.535 -0.188,-0.996 -0.571,-1.379 -0.382,-0.383 -0.839,-0.574 -1.379,-0.574 -0.539,0 -0.996,0.191 -1.378,0.57 -0.383,0.383 -0.575,0.844 -0.575,1.379 l -0.004,5.207 c 0,0.535 0.188,0.996 0.571,1.379"
         style="fill:#ff0d73;fill-opacity:1;fill-rule:nonzero;stroke:none"
         id="path3298" /><path
         d="m 92.523,40.412 2.602,-0.008 c 0.355,0 0.66,-0.129 0.91,-0.379 0.25,-0.25 0.379,-0.555 0.379,-0.91 l 0,-2.602 c 0.004,-0.496 -0.211,-0.867 -0.637,-1.121 l 0,0 0.645,-4.07 -1.289,0 -0.656,3.902 -0.661,0 0,-3.902 -1.285,0 -0.008,9.094 m 1.289,-1.289 0,-2.625 0.821,0 c 0.14,0 0.258,0.046 0.351,0.144 0.094,0.102 0.145,0.219 0.145,0.348 l -0.004,1.629 c 0,0.136 -0.047,0.254 -0.145,0.351 -0.093,0.102 -0.21,0.156 -0.351,0.156 l -0.817,-0.003"
         style="fill:#ff0d73;fill-opacity:1;fill-rule:nonzero;stroke:none"
         id="path3300" /><path
         d="m 98.883,40.431 1.285,0 1.961,-9.105 -1.289,0 -0.391,1.949 -1.836,0.012 -0.386,-1.965 -1.289,0 1.945,9.109 m 0.637,-2.601 -0.645,-3.266 1.313,0 -0.653,3.266 -0.015,0"
         style="fill:#ff0d73;fill-opacity:1;fill-rule:nonzero;stroke:none"
         id="path3302" /><path
         d="m 102.762,40.423 2.601,0 c 0.356,0 0.66,-0.125 0.914,-0.378 0.25,-0.25 0.375,-0.559 0.375,-0.922 l 0.004,-2.602 c 0,-0.355 -0.125,-0.66 -0.375,-0.914 -0.254,-0.25 -0.554,-0.375 -0.91,-0.375 l -1.316,0 0.004,-3.906 -1.289,0 -0.008,9.097 m 1.289,-1.289 0.004,-2.613 0.82,0 c 0.137,0 0.254,0.047 0.352,0.145 0.093,0.093 0.14,0.211 0.14,0.351 l 0,1.625 c 0,0.137 -0.051,0.254 -0.144,0.352 -0.094,0.093 -0.211,0.14 -0.352,0.14 l -0.82,0"
         style="fill:#ff0d73;fill-opacity:1;fill-rule:nonzero;stroke:none"
         id="path3304" /><path
         d="m 107.641,40.439 1.3,0 0.004,-3.902 1.301,0 -0.004,3.902 1.305,0 0.008,-9.105 -1.301,0 -0.004,3.902 -1.301,0 0,-3.902 -1.301,0 -0.007,9.105"
         style="fill:#ff0d73;fill-opacity:1;fill-rule:nonzero;stroke:none"
         id="path3306" /><path
         d="m 114.148,31.337 -1.3,0 -0.008,9.11 1.301,0 0.007,-9.11"
         style="fill:#ff0d73;fill-opacity:1;fill-rule:nonzero;stroke:none"
         id="path3308" /><path
         d="m 115.914,39.873 c 0.379,0.382 0.84,0.574 1.379,0.574 0.535,0 0.996,-0.188 1.379,-0.57 0.383,-0.383 0.57,-0.84 0.574,-1.379 l 0,-0.649 -1.301,0 0,0.649 c -0.004,0.183 -0.066,0.336 -0.199,0.457 -0.121,0.129 -0.273,0.195 -0.453,0.191 -0.184,0 -0.34,-0.062 -0.469,-0.195 -0.121,-0.121 -0.183,-0.274 -0.183,-0.453 l 0.007,-5.203 c 0,-0.184 0.059,-0.34 0.18,-0.469 0.133,-0.121 0.289,-0.184 0.469,-0.184 0.183,0 0.336,0.063 0.457,0.184 0.129,0.129 0.195,0.285 0.195,0.469 l 0,0.648 1.301,0 0,-0.648 c 0,-0.54 -0.191,-1 -0.57,-1.379 -0.383,-0.383 -0.844,-0.575 -1.379,-0.575 -0.539,0 -1,0.188 -1.383,0.571 -0.379,0.383 -0.57,0.84 -0.57,1.379 l -0.008,5.203 c 0,0.539 0.191,1 0.574,1.379"
         style="fill:#ff0d73;fill-opacity:1;fill-rule:nonzero;stroke:none"
         id="path3310" /><path
         d="m 119.992,33.947 0,-0.652 c 0,-0.54 0.192,-0.997 0.574,-1.379 0.383,-0.383 0.84,-0.571 1.379,-0.571 0.539,0 0.996,0.192 1.379,0.575 0.383,0.378 0.571,0.839 0.571,1.378 l 0,1.301 c 0,0.496 -0.165,0.93 -0.497,1.301 -0.39,0.434 -0.875,0.648 -1.457,0.648 -0.183,0 -0.339,0.063 -0.468,0.184 -0.121,0.129 -0.184,0.285 -0.184,0.469 l 0,1.301 c 0,0.179 0.059,0.332 0.184,0.453 0.129,0.132 0.285,0.195 0.465,0.195 0.183,0 0.335,-0.063 0.457,-0.195 0.128,-0.121 0.195,-0.27 0.195,-0.453 l 0,-0.653 1.183,0 0.118,0 0,0.653 c 0,0.539 -0.192,0.996 -0.575,1.378 -0.378,0.379 -0.839,0.571 -1.378,0.571 -0.54,0 -0.997,-0.192 -1.379,-0.574 -0.379,-0.383 -0.571,-0.84 -0.571,-1.379 l 0,-1.301 c 0,-0.496 0.168,-0.93 0.496,-1.301 0.391,-0.434 0.875,-0.648 1.457,-0.648 0.184,0 0.336,-0.067 0.457,-0.196 0.129,-0.121 0.196,-0.273 0.196,-0.457 l 0,-1.3 c 0,-0.18 -0.063,-0.336 -0.196,-0.469 -0.121,-0.121 -0.273,-0.18 -0.453,-0.18 -0.183,0 -0.34,0.059 -0.468,0.18 -0.122,0.129 -0.184,0.285 -0.184,0.469 l 0,0.652 -1.301,0"
         style="fill:#ff0d73;fill-opacity:1;fill-rule:nonzero;stroke:none"
         id="path3312" /><path
         d="m 127.152,33.302 -0.976,2.926 0.004,-4.879 -1.301,0 -0.008,9.106 1.301,0 1.633,-4.875 1.621,4.879 1.301,0 0.007,-9.106 -1.3,0 -0.004,4.879 -0.973,-2.93 -1.305,0"
         style="fill:#ff0d73;fill-opacity:1;fill-rule:nonzero;stroke:none"
         id="path3314" /><path
         d="m 131.992,31.353 -0.008,9.109 3.907,0 0,-1.3 -2.602,0 0,-2.606 1.953,0 0,-1.301 -1.953,0 0.004,-2.601 2.602,0 0,-1.301 -3.903,0"
         style="fill:#ff0d73;fill-opacity:1;fill-rule:nonzero;stroke:none"
         id="path3316" /><path
         d="m 136.746,31.357 -0.008,9.109 3.903,0 0,-1.3 -2.602,0 0.004,-2.602 1.949,0 0.004,-1.305 -1.953,0 0.004,-2.601 2.601,0 0,-1.301 -3.902,0"
         style="fill:#ff0d73;fill-opacity:1;fill-rule:nonzero;stroke:none"
         id="path3318" /><path
         d="m 140.828,40.47 3.902,0 0,-1.3 -1.3,0 0.008,-7.809 -1.301,0 -0.008,7.809 -1.301,0 0,1.3"
         style="fill:#ff0d73;fill-opacity:1;fill-rule:nonzero;stroke:none"
         id="path3320" /><path
         d="m 146.676,31.369 -1.301,0 -0.008,9.105 1.301,0 0.008,-9.105"
         style="fill:#ff0d73;fill-opacity:1;fill-rule:nonzero;stroke:none"
         id="path3322" /><path
         d="m 147.891,40.474 1.3,0 1.309,-4.551 -0.004,4.555 1.301,0 0.008,-9.109 -1.301,0 -1.305,4.554 0.004,-4.554 -1.301,0 -0.011,9.105"
         style="fill:#ff0d73;fill-opacity:1;fill-rule:nonzero;stroke:none"
         id="path3324" /><path
         d="m 153.496,39.908 c 0.383,0.383 0.84,0.574 1.379,0.574 0.539,0 0.996,-0.191 1.379,-0.57 0.383,-0.383 0.574,-0.844 0.574,-1.379 l -1.301,0 c 0,0.179 -0.066,0.332 -0.195,0.453 -0.121,0.133 -0.273,0.195 -0.457,0.195 -0.18,0 -0.336,-0.062 -0.469,-0.195 -0.121,-0.121 -0.179,-0.274 -0.179,-0.453 l 0.003,-5.207 c 0,-0.18 0.063,-0.336 0.184,-0.469 0.129,-0.121 0.285,-0.18 0.469,-0.18 0.179,0 0.332,0.059 0.453,0.184 0.133,0.129 0.195,0.285 0.195,0.469 l 0,1.949 -0.652,0 0,1.301 1.953,0 0,-3.254 c 0.004,-0.535 -0.187,-0.996 -0.57,-1.379 -0.379,-0.383 -0.84,-0.574 -1.379,-0.574 -0.535,0 -0.996,0.191 -1.379,0.574 -0.383,0.379 -0.574,0.84 -0.574,1.375 l -0.004,5.207 c 0,0.535 0.191,0.996 0.57,1.379"
         style="fill:#ff0d73;fill-opacity:1;fill-rule:nonzero;stroke:none"
         id="path3326" /><path
         d="m 157.938,32.677 1.301,0 0,-1.301 -1.301,0 0,1.301 z"
         style="fill:#ff0d73;fill-opacity:1;fill-rule:nonzero;stroke:none"
         id="path3328" /><path
         d="m 160.891,39.916 c 0.382,0.382 0.839,0.574 1.379,0.574 0.539,0 0.996,-0.192 1.378,-0.574 0.383,-0.379 0.575,-0.84 0.575,-1.375 l 0.004,-5.207 c 0,-0.536 -0.188,-0.997 -0.571,-1.379 -0.383,-0.383 -0.84,-0.575 -1.379,-0.575 -0.539,0 -0.996,0.192 -1.379,0.571 -0.382,0.383 -0.574,0.844 -0.574,1.379 l -0.004,5.207 c 0,0.535 0.188,0.996 0.571,1.379 m 1.836,-0.922 c -0.122,0.129 -0.274,0.195 -0.457,0.195 -0.18,0 -0.336,-0.066 -0.469,-0.195 -0.121,-0.125 -0.18,-0.274 -0.18,-0.457 l 0,-1.848 0.004,-1.523 0,-1.832 c 0,-0.184 0.063,-0.34 0.184,-0.469 0.129,-0.121 0.285,-0.184 0.468,-0.184 0.18,0 0.332,0.063 0.453,0.184 0.133,0.129 0.196,0.285 0.196,0.469 l 0,1.836 -0.004,1.519 0,1.848 c 0,0.183 -0.067,0.336 -0.195,0.457"
         style="fill:#ff0d73;fill-opacity:1;fill-rule:nonzero;stroke:none"
         id="path3330" /><path
         d="m 165.402,40.478 2.602,-0.012 c 0.355,0.004 0.66,-0.125 0.91,-0.375 0.254,-0.25 0.379,-0.554 0.379,-0.91 l 0.004,-2.601 c 0,-0.496 -0.215,-0.868 -0.637,-1.121 l 0,0 0.641,-4.071 -1.289,0 -0.653,3.903 -0.664,0 0.004,-3.903 -1.289,0 -0.008,9.094 m 1.289,-1.289 0,-2.625 0.821,0 c 0.14,0 0.258,0.047 0.351,0.141 0.098,0.105 0.145,0.222 0.145,0.351 l -0.004,1.629 c 0,0.137 -0.047,0.254 -0.141,0.352 -0.097,0.101 -0.215,0.156 -0.351,0.152 l -0.821,0"
         style="fill:#ff0d73;fill-opacity:1;fill-rule:nonzero;stroke:none"
         id="path3332" /><path
         d="m 170.902,39.923 c 0.383,0.383 0.84,0.575 1.379,0.575 0.539,0 0.996,-0.192 1.379,-0.571 0.383,-0.382 0.574,-0.84 0.574,-1.379 l -1.3,0 c 0,0.18 -0.067,0.332 -0.196,0.454 -0.121,0.132 -0.273,0.195 -0.457,0.195 -0.179,0 -0.336,-0.063 -0.469,-0.195 -0.121,-0.122 -0.179,-0.274 -0.179,-0.454 l 0.004,-5.207 c 0,-0.179 0.062,-0.336 0.183,-0.468 0.129,-0.121 0.285,-0.18 0.469,-0.18 0.184,0 0.332,0.059 0.453,0.184 0.133,0.128 0.196,0.285 0.196,0.468 l 0,1.95 -0.653,0 0,1.3 1.953,0 0.004,-3.254 c 0,-0.535 -0.191,-0.996 -0.574,-1.379 -0.379,-0.382 -0.84,-0.574 -1.379,-0.574 -0.535,0 -0.996,0.192 -1.379,0.574 -0.383,0.379 -0.574,0.84 -0.574,1.379 l -0.004,5.204 c 0,0.535 0.191,0.996 0.57,1.378"
         style="fill:#ff0d73;fill-opacity:1;fill-rule:nonzero;stroke:none"
         id="path3334" /></g></g></svg>