<?xml version="1.0" encoding="UTF-8" standalone="no"?>
<!-- Created with Inkscape (http://www.inkscape.org/) -->

<svg
   xmlns:dc="http://purl.org/dc/elements/1.1/"
   xmlns:cc="http://creativecommons.org/ns#"
   xmlns:rdf="http://www.w3.org/1999/02/22-rdf-syntax-ns#"
   xmlns:svg="http://www.w3.org/2000/svg"
   xmlns="http://www.w3.org/2000/svg"
   xmlns:sodipodi="http://sodipodi.sourceforge.net/DTD/sodipodi-0.dtd"
   xmlns:inkscape="http://www.inkscape.org/namespaces/inkscape"
   id="svg2990"
   version="1.1"
   inkscape:version="0.47pre4 r22446"
   width="262.99999"
   height="372.99999"
   xml:space="preserve"
   sodipodi:docname="LGM_flyer02.svg"><metadata
     id="metadata2996"><rdf:RDF><cc:Work
         rdf:about=""><dc:format>image/svg+xml</dc:format><dc:type
           rdf:resource="http://purl.org/dc/dcmitype/StillImage" /><dc:title /></cc:Work></rdf:RDF></metadata><defs
     id="defs2994"><inkscape:perspective
       sodipodi:type="inkscape:persp3d"
       inkscape:vp_x="0 : 0.5 : 1"
       inkscape:vp_y="0 : 1000 : 0"
       inkscape:vp_z="1 : 0.5 : 1"
       inkscape:persp3d-origin="0.5 : 0.33333333 : 1"
       id="perspective2998" /><inkscape:perspective
       id="perspective2908"
       inkscape:persp3d-origin="0.5 : 0.33333333 : 1"
       inkscape:vp_z="1 : 0.5 : 1"
       inkscape:vp_y="0 : 1000 : 0"
       inkscape:vp_x="0 : 0.5 : 1"
       sodipodi:type="inkscape:persp3d" /></defs><sodipodi:namedview
     pagecolor="#ffffff"
     bordercolor="#666666"
     borderopacity="1"
     objecttolerance="10"
     gridtolerance="10"
     guidetolerance="10"
     inkscape:pageopacity="0"
     inkscape:pageshadow="2"
     inkscape:window-width="1280"
     inkscape:window-height="727"
     id="namedview2992"
     showgrid="false"
     inkscape:zoom="1.3672922"
     inkscape:cx="244.49706"
     inkscape:cy="205.51569"
     inkscape:window-x="0"
     inkscape:window-y="25"
     inkscape:window-maximized="1"
     inkscape:current-layer="g3000" /><g
     id="g3000"
     inkscape:groupmode="layer"
     inkscape:label="LGM_flyer02"
     transform="matrix(1.25,0,0,-1.25,0,372.99999)"><g
       id="g3002"><path
         d="m 83.949,245.787 -61,-17.383 13.797,-48.406 c 0.039,-0.157 0.074,-0.317 0.113,-0.477 0.235,-0.98 0.442,-1.965 0.661,-2.949 0.855,-3.922 1.57,-7.875 2.019,-11.867 0.438,-3.899 0.621,-7.856 0.18,-11.754 -0.106,-0.934 -0.235,-1.891 0.023,-2.793 0.129,-0.449 0.36,-0.86 0.703,-1.18 0.344,-0.32 0.805,-0.535 1.27,-0.523 0.476,0.015 0.926,0.265 1.25,0.613 0.324,0.352 0.523,0.805 0.613,1.273 0.176,0.934 -0.074,1.887 -0.297,2.813 -0.48,2.016 -0.863,4.074 -0.883,6.148 -0.011,1.055 0.086,2.121 0.383,3.133 0.301,1.012 0.817,1.965 1.59,2.676 0.586,0.539 1.34,0.945 2.133,0.953 0.746,0.012 1.469,-0.34 1.996,-0.859 0.531,-0.524 0.867,-1.207 1.047,-1.93 0.359,-1.441 0.09,-2.953 -0.113,-4.426 -0.106,-0.738 -0.188,-1.519 0.066,-2.222 0.125,-0.352 0.34,-0.68 0.637,-0.911 0.293,-0.226 0.672,-0.339 1.043,-0.293 0.355,0.043 0.675,0.247 0.906,0.52 0.23,0.277 0.375,0.621 0.434,0.977 0.109,0.71 -0.082,1.441 -0.274,2.132 -0.41,1.489 -0.812,2.996 -0.793,4.539 0.016,1.442 0.399,2.883 1.156,4.11 1.18,1.914 3.184,3.195 5.289,3.992 2.102,0.797 4.344,1.156 6.555,1.566 9.145,1.703 18.055,4.582 26.461,8.555 l 3.859,-13.547 50.512,14.41 3.86,-13.547 42.683,12.165 -12.16,42.66 -41.461,-11.825 -6.445,22.625 -41.324,-11.777 -6.489,22.809 z"
         style="fill:#ffcc00;fill-opacity:1;fill-rule:nonzero;stroke:none"
         id="path3004" /><path
         d="m 173.484,226.252 2.469,-13.426 c 0.317,-1.735 -0.027,-3.231 -1.035,-4.489 -1.035,-1.265 -2.563,-2.082 -4.59,-2.457 -1.543,-0.281 -2.902,-0.23 -4.078,0.161 -1.172,0.39 -2.379,1.187 -3.621,2.39 l 0.535,-2.918 -5.832,-1.07 -0.5,2.719 2.836,0.519 -3.352,18.223 6.157,1.133 0.5,-2.719 -2.84,-0.52 1.683,-9.152 c 0.395,-2.133 1.227,-3.754 2.508,-4.867 1.274,-1.09 2.778,-1.473 4.508,-1.156 1.332,0.246 2.316,0.812 2.953,1.699 0.637,0.89 0.836,1.957 0.606,3.211 l -2.723,14.828 6.152,1.129 0.5,-2.715 -2.836,-0.523"
         style="fill:#000000;fill-opacity:1;fill-rule:nonzero;stroke:none"
         id="path3006" /><path
         d="m 131.602,202.521 -2.411,13.109 c -0.316,1.731 0.028,3.227 1.036,4.489 1.007,1.258 2.523,2.074 4.55,2.445 1.543,0.285 2.922,0.207 4.133,-0.23 1.184,-0.446 2.375,-1.313 3.578,-2.606 l -0.648,3.516 5.914,1.086 0.5,-2.715 -2.836,-0.524 2.852,-15.507 2.835,0.523 0.5,-2.719 -9.031,-1.66 -0.5,2.719 2.836,0.519 -1.621,8.836 c -0.394,2.129 -1.227,3.739 -2.5,4.828 -1.281,1.114 -2.773,1.516 -4.477,1.2 -1.332,-0.243 -2.316,-0.809 -2.953,-1.7 -0.636,-0.886 -0.836,-1.957 -0.605,-3.21 l 2.664,-14.508 -6.152,-1.129 -0.5,2.715 2.836,0.523"
         style="fill:#000000;fill-opacity:1;fill-rule:nonzero;stroke:none"
         id="path3008" /><path
         d="m 116.125,224.177 4.355,-23.699 2.84,0.52 0.5,-2.719 -9.035,-1.66 -0.496,2.718 2.836,0.524 -4.855,26.414 6.191,1.141 0.5,-2.719 -2.836,-0.52"
         style="fill:#000000;fill-opacity:1;fill-rule:nonzero;stroke:none"
         id="path3010" /><path
         d="m 89.797,201.693 15.426,2.836 c 0.328,-1.922 0.226,-3.484 -0.297,-4.68 -0.813,-2.023 -2.324,-3.238 -4.535,-3.644 -2.719,-0.5 -4.801,0.562 -6.246,3.187 l -3.356,-0.617 c 0.848,-2.211 2.172,-3.813 3.981,-4.801 1.808,-0.992 3.91,-1.265 6.308,-0.824 2.93,0.539 5.067,1.949 6.41,4.234 1.336,2.313 1.692,5.188 1.059,8.625 -0.633,3.438 -2.004,6.02 -4.113,7.754 -2.141,1.754 -4.664,2.364 -7.567,1.832 -1.972,-0.363 -3.613,-1.175 -4.922,-2.433 -1.34,-1.266 -2.183,-2.813 -2.535,-4.641 -0.293,-1.566 -0.16,-3.844 0.387,-6.828 m 14.848,5.539 -11.75,-2.16 c -0.036,0.047 -0.067,0.125 -0.086,0.234 -0.317,1.731 -0.024,3.285 0.879,4.664 0.898,1.403 2.16,2.254 3.785,2.555 1.679,0.309 3.172,-0.023 4.48,-0.996 1.301,-0.945 2.199,-2.375 2.692,-4.297"
         style="fill:#000000;fill-opacity:1;fill-rule:nonzero;stroke:none"
         id="path3012" /><path
         d="m 66.691,190.587 0.5,-2.718 5.754,1.058 -0.504,2.758 c 1.145,-1.14 2.301,-1.89 3.469,-2.254 1.149,-0.394 2.442,-0.461 3.879,-0.195 2.824,0.519 4.863,1.941 6.117,4.262 1.246,2.351 1.547,5.3 0.895,8.843 -0.613,3.329 -1.914,5.844 -3.906,7.543 -2.028,1.723 -4.399,2.332 -7.114,1.832 -2.879,-0.527 -4.824,-2 -5.84,-4.418 l -0.492,2.676 -3.316,-0.609 3.355,-18.266 -2.797,-0.512 m 9.102,17.911 c 1.812,0.332 3.414,-0.145 4.809,-1.43 1.394,-1.285 2.312,-3.141 2.757,-5.566 0.453,-2.454 0.254,-4.528 -0.589,-6.223 -0.852,-1.672 -2.196,-2.676 -4.032,-3.016 -1.758,-0.324 -3.304,0.153 -4.64,1.422 -1.336,1.266 -2.227,3.113 -2.672,5.539 -0.461,2.504 -0.293,4.586 0.504,6.25 0.789,1.688 2.078,2.696 3.863,3.024"
         style="fill:#000000;fill-opacity:1;fill-rule:nonzero;stroke:none"
         id="path3014" /><path
         d="m 55.77,204.607 2.851,-15.504 2.836,0.52 0.5,-2.715 -9.031,-1.66 -0.5,2.714 2.879,0.532 -1.539,8.144 c -0.532,2.739 -1.434,4.5 -2.707,5.285 -1.301,0.782 -3.075,0.993 -5.325,0.633 l -0.625,3.399 c 0.547,0.183 0.965,0.3 1.258,0.355 1.067,0.195 2.117,0.031 3.149,-0.496 1.004,-0.504 2.129,-1.453 3.375,-2.852 l -0.7,3.797 5.918,1.09 0.5,-2.719 -2.839,-0.523"
         style="fill:#000000;fill-opacity:1;fill-rule:nonzero;stroke:none"
         id="path3016" /><path
         d="m 25.758,183.06 -2.41,13.11 c -0.317,1.73 0.027,3.226 1.035,4.484 1.008,1.262 2.523,2.078 4.547,2.449 1.547,0.285 2.925,0.207 4.132,-0.23 1.184,-0.446 2.379,-1.313 3.579,-2.606 l -0.645,3.516 5.914,1.086 0.5,-2.715 -2.836,-0.524 2.848,-15.507 2.84,0.523 0.5,-2.719 -9.032,-1.66 -0.5,2.719 2.836,0.519 -1.625,8.832 c -0.39,2.133 -1.222,3.743 -2.5,4.833 -1.277,1.113 -2.769,1.515 -4.472,1.199 -1.336,-0.242 -2.317,-0.809 -2.953,-1.699 -0.637,-0.887 -0.84,-1.958 -0.61,-3.211 l 2.668,-14.508 -6.152,-1.129 -0.5,2.715 2.836,0.523"
         style="fill:#000000;fill-opacity:1;fill-rule:nonzero;stroke:none"
         id="path3018" /><path
         d="m 35.996,87.853 -0.012,14.734 2.106,0 0.012,-12.628 4.21,0.003 0,-2.105 -6.316,-0.004"
         style="fill:#ffcc00;fill-opacity:1;fill-rule:nonzero;stroke:none"
         id="path3020" /><path
         d="m 45.855,87.861 -2.105,0 -0.016,14.734 2.106,0 0.015,-14.734"
         style="fill:#ffcc00;fill-opacity:1;fill-rule:nonzero;stroke:none"
         id="path3022" /><path
         d="m 47.906,102.576 4.211,0.004 c 0.574,0 1.067,-0.203 1.473,-0.61 0.41,-0.406 0.613,-0.902 0.613,-1.492 l 0.004,-4.465 c 0,-0.211 -0.078,-0.39 -0.23,-0.547 -0.157,-0.152 -0.336,-0.23 -0.547,-0.23 l 0,-0.024 c 0.211,0 0.39,-0.074 0.547,-0.23 0.152,-0.152 0.23,-0.336 0.23,-0.547 l 0.004,-4.484 c 0,-0.574 -0.199,-1.067 -0.609,-1.473 -0.407,-0.406 -0.895,-0.609 -1.473,-0.613 l -4.207,-0.004 -0.016,14.715 m 2.086,-2.082 0.004,-4.231 1.328,0 c 0.223,0 0.414,0.078 0.567,0.235 0.156,0.152 0.23,0.343 0.23,0.566 l 0,2.633 c 0,0.223 -0.078,0.414 -0.234,0.566 -0.153,0.157 -0.344,0.235 -0.567,0.235 l -1.328,-0.004 M 50,94.181 l 0.004,-4.234 1.324,0.004 c 0.227,0 0.414,0.074 0.57,0.23 0.153,0.156 0.231,0.344 0.231,0.571 l -0.004,2.628 c 0,0.227 -0.078,0.415 -0.23,0.571 -0.157,0.152 -0.344,0.23 -0.571,0.23 l -1.324,0"
         style="fill:#ffcc00;fill-opacity:1;fill-rule:nonzero;stroke:none"
         id="path3024" /><path
         d="m 56.211,102.584 4.211,-0.016 c 0.574,0 1.066,-0.203 1.473,-0.609 0.41,-0.407 0.613,-0.899 0.613,-1.473 l 0.004,-4.211 c 0,-0.801 -0.344,-1.402 -1.032,-1.813 l 0,0 1.04,-6.585 -2.086,-0.004 -1.055,6.316 -1.074,0 0.004,-6.316 -2.082,0 -0.016,14.711 m 2.086,-2.082 0.004,-4.25 1.328,0 c 0.223,0 0.414,0.078 0.566,0.23 0.157,0.168 0.231,0.359 0.231,0.57 l 0,2.629 c 0,0.227 -0.078,0.414 -0.235,0.571 -0.152,0.168 -0.343,0.253 -0.566,0.25 l -1.328,0"
         style="fill:#ffcc00;fill-opacity:1;fill-rule:nonzero;stroke:none"
         id="path3026" /><path
         d="m 64.324,87.877 -0.012,14.734 6.313,0.008 0.004,-2.106 -4.211,-0.004 0.004,-4.211 3.156,0.004 0.004,-2.105 -3.16,-0.004 0.004,-4.211 4.211,0.008 0.004,-2.106 -6.317,-0.007"
         style="fill:#ffcc00;fill-opacity:1;fill-rule:nonzero;stroke:none"
         id="path3028" /><path
         d="m 76.707,101.697 c 0.617,0.617 1.359,0.93 2.231,0.93 0.867,0 1.613,-0.309 2.23,-0.926 0.617,-0.617 0.926,-1.36 0.93,-2.231 l -2.106,0 c 0,0.293 -0.105,0.539 -0.316,0.735 -0.199,0.211 -0.442,0.316 -0.738,0.316 -0.293,0 -0.547,-0.105 -0.758,-0.316 -0.196,-0.196 -0.293,-0.442 -0.293,-0.739 l 0.008,-8.418 c 0,-0.296 0.097,-0.546 0.296,-0.757 0.207,-0.196 0.461,-0.297 0.758,-0.293 0.293,0 0.539,0.097 0.735,0.293 0.211,0.211 0.316,0.464 0.316,0.757 l -0.004,3.161 -1.051,-0.004 -0.004,2.105 3.157,0.004 0.007,-5.262 c 0,-0.871 -0.308,-1.613 -0.925,-2.234 -0.618,-0.617 -1.36,-0.926 -2.231,-0.926 -0.871,0 -1.613,0.305 -2.23,0.922 -0.621,0.617 -0.93,1.363 -0.93,2.231 l -0.008,8.421 c 0,0.871 0.309,1.614 0.926,2.231"
         style="fill:#ffcc00;fill-opacity:1;fill-rule:nonzero;stroke:none"
         id="path3030" /><path
         d="m 84.004,102.611 4.211,-0.02 c 0.574,0 1.066,-0.203 1.473,-0.609 0.406,-0.406 0.613,-0.898 0.613,-1.473 l 0.004,-4.211 c 0,-0.796 -0.344,-1.402 -1.032,-1.808 l 0,0 1.039,-6.59 -2.085,0 -1.059,6.312 -1.07,0 0.004,-6.316 -2.082,0 -0.016,14.715 m 2.086,-2.082 0.004,-4.254 1.328,0 c 0.223,0 0.414,0.078 0.566,0.234 0.157,0.168 0.231,0.356 0.231,0.567 l 0,2.633 c 0,0.222 -0.078,0.414 -0.235,0.566 -0.152,0.168 -0.343,0.254 -0.566,0.254 l -1.328,-0.004"
         style="fill:#ffcc00;fill-opacity:1;fill-rule:nonzero;stroke:none"
         id="path3032" /><path
         d="m 94.293,102.638 2.082,0.004 3.172,-14.734 -2.082,0 -0.637,3.156 -2.969,0.02 -0.625,-3.18 -2.086,-0.004 3.145,14.738 m 1.035,-4.207 -1.047,-5.285 2.125,0 -1.058,5.285 -0.02,0"
         style="fill:#ffcc00;fill-opacity:1;fill-rule:nonzero;stroke:none"
         id="path3034" /><path
         d="m 100.574,102.623 4.207,0.004 c 0.578,0 1.067,-0.2 1.477,-0.61 0.406,-0.406 0.609,-0.902 0.609,-1.492 l 0.004,-4.211 c 0.004,-0.574 -0.199,-1.066 -0.609,-1.473 -0.407,-0.406 -0.895,-0.613 -1.473,-0.613 l -2.125,0 0.008,-6.316 -2.086,0 -0.012,14.715 m 2.086,-2.082 0.004,-4.235 1.324,0.004 c 0.227,0 0.414,0.074 0.571,0.231 0.152,0.156 0.23,0.343 0.23,0.57 l -0.004,2.629 c 0,0.226 -0.078,0.414 -0.23,0.57 -0.157,0.152 -0.344,0.231 -0.571,0.231 l -1.324,0"
         style="fill:#ffcc00;fill-opacity:1;fill-rule:nonzero;stroke:none"
         id="path3036" /><path
         d="m 108.465,102.654 2.105,0 0.008,-6.317 2.106,0.004 -0.008,6.313 2.105,0.004 0.012,-14.735 -2.102,-0.003 -0.007,6.316 -2.106,-0.004 0.008,-6.312 -2.106,-0.004 -0.015,14.738"
         style="fill:#ffcc00;fill-opacity:1;fill-rule:nonzero;stroke:none"
         id="path3038" /><path
         d="m 118.992,87.927 -2.101,-0.004 -0.016,14.739 2.105,0 0.012,-14.735"
         style="fill:#ffcc00;fill-opacity:1;fill-rule:nonzero;stroke:none"
         id="path3040" /><path
         d="m 121.848,101.74 c 0.617,0.617 1.359,0.926 2.23,0.926 0.871,0 1.613,-0.305 2.231,-0.922 0.621,-0.617 0.929,-1.364 0.929,-2.231 l 0,-1.054 -2.105,0 0,1.05 c 0,0.297 -0.106,0.539 -0.317,0.739 -0.195,0.211 -0.441,0.312 -0.734,0.312 -0.297,0 -0.551,-0.105 -0.758,-0.316 -0.199,-0.196 -0.297,-0.442 -0.297,-0.735 l 0.008,-8.422 c 0,-0.292 0.102,-0.546 0.297,-0.757 0.211,-0.196 0.465,-0.293 0.758,-0.293 0.293,0 0.539,0.097 0.738,0.297 0.207,0.211 0.313,0.461 0.313,0.757 l 0,1.051 2.105,0.004 0,-1.055 c 0,-0.871 -0.308,-1.613 -0.922,-2.23 -0.617,-0.621 -1.363,-0.93 -2.23,-0.93 -0.871,0 -1.617,0.309 -2.235,0.926 -0.617,0.617 -0.925,1.359 -0.929,2.23 l -0.008,8.418 c 0,0.872 0.308,1.614 0.926,2.235"
         style="fill:#ffcc00;fill-opacity:1;fill-rule:nonzero;stroke:none"
         id="path3042" /><path
         d="m 128.445,92.146 0.004,-1.055 c 0,-0.867 0.309,-1.613 0.926,-2.23 0.617,-0.617 1.363,-0.922 2.234,-0.922 0.868,0 1.614,0.309 2.231,0.926 0.617,0.621 0.922,1.363 0.922,2.234 l 0,2.106 c 0,0.797 -0.27,1.5 -0.801,2.101 -0.633,0.703 -1.418,1.055 -2.359,1.051 -0.297,0 -0.547,0.098 -0.758,0.297 -0.199,0.207 -0.297,0.461 -0.297,0.754 l 0,2.105 c 0,0.297 0.098,0.543 0.293,0.739 0.211,0.21 0.461,0.316 0.758,0.316 0.293,0 0.539,-0.106 0.738,-0.316 0.211,-0.196 0.316,-0.442 0.316,-0.735 l 0,-1.055 1.914,0.004 0.192,0 -0.004,1.051 c 0,0.871 -0.309,1.613 -0.926,2.231 -0.617,0.617 -1.363,0.925 -2.234,0.925 -0.867,0 -1.614,-0.312 -2.231,-0.929 -0.613,-0.617 -0.922,-1.36 -0.922,-2.231 l 0,-2.105 c 0,-0.801 0.27,-1.5 0.805,-2.106 0.629,-0.699 1.418,-1.05 2.356,-1.05 0.296,0 0.543,-0.102 0.738,-0.313 0.211,-0.199 0.316,-0.441 0.316,-0.738 l 0,-2.106 c 0,-0.293 -0.101,-0.547 -0.312,-0.758 -0.199,-0.195 -0.442,-0.292 -0.739,-0.292 -0.293,0 -0.546,0.097 -0.757,0.292 -0.196,0.211 -0.293,0.461 -0.293,0.758 l -0.004,1.051 -2.106,0"
         style="fill:#ffcc00;fill-opacity:1;fill-rule:nonzero;stroke:none"
         id="path3044" /><path
         d="m 39.699,69.962 -1.586,4.735 0.008,-7.895 -2.105,0 -0.012,14.735 2.105,0 2.637,-7.891 2.625,7.899 2.106,0 0.011,-14.735 -2.105,0 -0.008,7.891 -1.574,-4.735 -2.102,-0.004"
         style="fill:#000000;fill-opacity:1;fill-rule:nonzero;stroke:none"
         id="path3046" /><path
         d="m 47.527,66.814 -0.011,14.734 6.312,0.004 0.004,-2.105 -4.211,-0.004 0.004,-4.211 3.156,0.004 0.004,-2.106 -3.156,0 0.004,-4.21 4.207,0.003 0.004,-2.105 -6.317,-0.004"
         style="fill:#000000;fill-opacity:1;fill-rule:nonzero;stroke:none"
         id="path3048" /><path
         d="m 55.215,66.818 -0.012,14.734 6.317,0.008 0,-2.105 -4.211,-0.004 0.003,-4.211 3.161,0.004 0,-2.106 -3.157,-0.004 0.004,-4.207 4.211,0.004 0,-2.105 -6.316,-0.008"
         style="fill:#000000;fill-opacity:1;fill-rule:nonzero;stroke:none"
         id="path3050" /><path
         d="m 61.816,81.56 6.317,0.004 0,-2.102 -2.102,-0.003 0.008,-12.629 -2.101,-0.004 -0.012,12.633 -2.106,-0.004 -0.004,2.105"
         style="fill:#000000;fill-opacity:1;fill-rule:nonzero;stroke:none"
         id="path3052" /><path
         d="m 71.281,66.834 -2.105,0 -0.012,14.734 2.102,0 0.015,-14.734"
         style="fill:#000000;fill-opacity:1;fill-rule:nonzero;stroke:none"
         id="path3054" /><path
         d="m 73.25,81.572 2.105,0 2.11,-7.367 -0.004,7.371 2.105,0 0.012,-14.735 -2.105,-0.004 -2.11,7.368 0.004,-7.368 -2.105,0 -0.012,14.735"
         style="fill:#000000;fill-opacity:1;fill-rule:nonzero;stroke:none"
         id="path3056" /><path
         d="m 82.316,80.654 c 0.618,0.617 1.36,0.926 2.231,0.926 0.871,0 1.613,-0.305 2.23,-0.922 0.621,-0.617 0.93,-1.363 0.93,-2.231 l -2.105,-0.004 c 0,0.297 -0.106,0.543 -0.317,0.739 -0.195,0.211 -0.441,0.316 -0.738,0.312 -0.293,0 -0.547,-0.105 -0.758,-0.316 -0.195,-0.196 -0.293,-0.442 -0.293,-0.735 l 0.008,-8.421 c 0,-0.293 0.101,-0.547 0.297,-0.758 0.211,-0.196 0.465,-0.293 0.758,-0.293 0.293,0 0.539,0.097 0.734,0.297 0.211,0.211 0.316,0.461 0.316,0.757 l -0.004,3.157 -1.05,0 -0.004,2.105 3.16,0.004 0.004,-5.266 c 0,-0.867 -0.309,-1.613 -0.926,-2.23 -0.617,-0.617 -1.359,-0.926 -2.23,-0.93 -0.868,0 -1.614,0.309 -2.231,0.926 -0.617,0.617 -0.926,1.359 -0.93,2.231 l -0.007,8.418 c 0,0.871 0.308,1.617 0.925,2.234"
         style="fill:#000000;fill-opacity:1;fill-rule:nonzero;stroke:none"
         id="path3058" /><path
         d="m 94.152,80.662 c 0.618,0.621 1.36,0.929 2.231,0.929 0.871,0 1.613,-0.308 2.234,-0.925 0.617,-0.618 0.926,-1.36 0.926,-2.231 0,-0.461 -0.09,-0.898 -0.273,-1.305 l -3.676,-8.168 3.957,0 0.004,-2.105 -6.317,-0.004 0,2.106 3.95,8.656 c 0.167,0.406 0.25,0.68 0.25,0.82 0,0.293 -0.106,0.539 -0.317,0.735 -0.195,0.21 -0.441,0.316 -0.734,0.316 -0.297,0 -0.551,-0.106 -0.758,-0.316 -0.199,-0.196 -0.297,-0.442 -0.297,-0.739 l -2.102,0 c -0.003,0.871 0.305,1.614 0.922,2.231"
         style="fill:#ffcc00;fill-opacity:1;fill-rule:nonzero;stroke:none"
         id="path3060" /><path
         d="m 101.883,80.67 c 0.617,0.617 1.359,0.929 2.23,0.929 0.871,0 1.614,-0.308 2.231,-0.926 0.617,-0.617 0.929,-1.359 0.929,-2.23 l 0.008,-8.418 c 0,-0.871 -0.308,-1.617 -0.926,-2.234 -0.617,-0.618 -1.359,-0.926 -2.23,-0.926 -0.867,-0.004 -1.613,0.305 -2.23,0.922 -0.618,0.617 -0.93,1.363 -0.93,2.23 l -0.008,8.422 c 0,0.867 0.309,1.613 0.926,2.231 m 2.969,-1.493 c -0.196,0.211 -0.442,0.317 -0.739,0.317 -0.293,0 -0.547,-0.106 -0.758,-0.317 -0.195,-0.195 -0.293,-0.441 -0.293,-0.738 l 0.008,-8.418 c 0,-0.297 0.098,-0.547 0.297,-0.758 0.211,-0.195 0.461,-0.297 0.758,-0.293 0.293,0 0.539,0.098 0.734,0.293 0.211,0.211 0.317,0.465 0.317,0.758 l -0.008,8.422 c 0,0.293 -0.106,0.539 -0.316,0.734"
         style="fill:#ffcc00;fill-opacity:1;fill-rule:nonzero;stroke:none"
         id="path3062" /><path
         d="m 111.188,81.603 2.105,0.004 0.016,-14.734 -2.106,-0.004 -0.012,12.633 -2.101,-2.11 -0.004,2.106 2.102,2.105"
         style="fill:#ffcc00;fill-opacity:1;fill-rule:nonzero;stroke:none"
         id="path3064" /><path
         d="m 117.34,80.685 c 0.617,0.617 1.359,0.926 2.23,0.926 0.871,0.004 1.614,-0.305 2.235,-0.922 0.617,-0.617 0.925,-1.359 0.925,-2.23 l 0.008,-8.422 c 0,-0.867 -0.304,-1.614 -0.922,-2.231 -0.617,-0.617 -1.363,-0.929 -2.23,-0.929 -0.871,0 -1.617,0.308 -2.234,0.925 -0.618,0.618 -0.926,1.36 -0.926,2.231 l -0.008,8.418 c -0.004,0.871 0.305,1.617 0.922,2.234 m 2.969,-1.492 c -0.196,0.211 -0.442,0.316 -0.735,0.312 -0.297,0 -0.547,-0.105 -0.758,-0.316 -0.199,-0.195 -0.296,-0.441 -0.296,-0.734 l 0.007,-8.422 c 0.004,-0.293 0.102,-0.547 0.297,-0.758 0.211,-0.195 0.465,-0.293 0.758,-0.293 0.297,0 0.539,0.098 0.738,0.297 0.211,0.211 0.313,0.461 0.313,0.758 l -0.008,8.418 c 0,0.297 -0.105,0.543 -0.316,0.738"
         style="fill:#ffcc00;fill-opacity:1;fill-rule:nonzero;stroke:none"
         id="path3066" /><path
         d="m 36.023,60.466 4.207,0.004 c 0.579,0 1.071,-0.203 1.477,-0.609 0.406,-0.406 0.609,-0.906 0.609,-1.496 l 0.004,-4.461 c 0.004,-0.211 -0.074,-0.395 -0.23,-0.547 -0.152,-0.156 -0.336,-0.23 -0.547,-0.23 l 0,-0.024 c 0.211,0 0.395,-0.078 0.547,-0.23 0.156,-0.157 0.234,-0.336 0.234,-0.547 l 0.004,-4.485 c 0,-0.574 -0.203,-1.066 -0.609,-1.472 -0.407,-0.41 -0.899,-0.614 -1.473,-0.614 l -4.211,-0.003 -0.012,14.714 m 2.086,-2.082 0.004,-4.23 1.325,0 c 0.226,0 0.414,0.078 0.57,0.234 0.152,0.153 0.23,0.344 0.23,0.567 l -0.004,2.632 c 0,0.223 -0.078,0.415 -0.23,0.567 -0.156,0.156 -0.344,0.23 -0.57,0.23 l -1.325,0 m 0.004,-6.316 0.004,-4.231 1.328,0 c 0.223,0.004 0.414,0.079 0.567,0.235 0.156,0.152 0.23,0.344 0.23,0.566 l 0,2.633 c 0,0.227 -0.078,0.414 -0.234,0.566 -0.153,0.157 -0.344,0.235 -0.567,0.235 l -1.328,-0.004"
         style="fill:#000000;fill-opacity:1;fill-rule:nonzero;stroke:none"
         id="path3068" /><path
         d="m 44.328,60.474 4.211,-0.019 c 0.574,0.004 1.066,-0.2 1.473,-0.61 0.406,-0.406 0.609,-0.894 0.609,-1.472 l 0.004,-4.207 c 0.004,-0.801 -0.34,-1.407 -1.027,-1.813 l 0,0 1.035,-6.586 -2.082,-0.004 -1.059,6.313 -1.074,0 0.008,-6.313 -2.086,-0.004 -0.012,14.715 m 2.086,-2.082 0.004,-4.254 1.324,0.004 c 0.227,0 0.414,0.078 0.57,0.231 0.153,0.168 0.231,0.359 0.231,0.57 l -0.004,2.629 c 0,0.226 -0.078,0.414 -0.23,0.57 -0.157,0.168 -0.344,0.25 -0.571,0.25 l -1.324,0"
         style="fill:#000000;fill-opacity:1;fill-rule:nonzero;stroke:none"
         id="path3070" /><path
         d="m 52.426,60.502 2.105,0 0.012,-11.575 c 0,-0.297 0.098,-0.547 0.293,-0.757 0.211,-0.2 0.465,-0.297 0.758,-0.297 0.297,0.004 0.543,0.101 0.738,0.297 0.211,0.21 0.316,0.464 0.316,0.757 l -0.011,11.578 2.105,0 0.008,-11.574 c 0.004,-0.871 -0.305,-1.617 -0.922,-2.234 -0.617,-0.617 -1.359,-0.926 -2.23,-0.93 -0.871,0 -1.614,0.309 -2.235,0.926 -0.617,0.617 -0.925,1.359 -0.925,2.23 l -0.012,11.579"
         style="fill:#000000;fill-opacity:1;fill-rule:nonzero;stroke:none"
         id="path3072" /><path
         d="m 60.359,49.986 0.004,-1.055 c 0,-0.871 0.309,-1.613 0.926,-2.23 0.617,-0.617 1.363,-0.926 2.234,-0.926 0.868,0.004 1.614,0.312 2.231,0.93 0.617,0.617 0.922,1.363 0.922,2.234 l 0,2.102 c 0,0.8 -0.27,1.504 -0.801,2.105 -0.633,0.703 -1.422,1.051 -2.359,1.051 -0.297,0 -0.547,0.098 -0.758,0.293 -0.199,0.211 -0.297,0.465 -0.297,0.758 l 0,2.105 c -0.004,0.293 0.098,0.539 0.293,0.738 0.211,0.211 0.461,0.317 0.758,0.317 0.293,0 0.539,-0.106 0.734,-0.317 0.211,-0.195 0.316,-0.441 0.316,-0.734 l 0.004,-1.055 1.914,0.004 0.192,0 -0.004,1.051 c 0,0.871 -0.309,1.613 -0.926,2.23 -0.621,0.618 -1.363,0.926 -2.234,0.926 -0.867,-0.004 -1.613,-0.312 -2.231,-0.929 -0.617,-0.618 -0.925,-1.364 -0.922,-2.231 l 0,-2.105 c 0,-0.801 0.27,-1.504 0.801,-2.106 0.633,-0.703 1.422,-1.051 2.36,-1.051 0.296,0 0.543,-0.105 0.738,-0.316 0.211,-0.195 0.316,-0.441 0.316,-0.734 l 0,-2.106 c 0,-0.293 -0.101,-0.547 -0.312,-0.758 -0.199,-0.195 -0.442,-0.297 -0.738,-0.297 -0.293,0 -0.547,0.098 -0.758,0.297 -0.196,0.207 -0.293,0.461 -0.293,0.758 l -0.004,1.051 -2.106,0"
         style="fill:#000000;fill-opacity:1;fill-rule:nonzero;stroke:none"
         id="path3074" /><path
         d="m 67.844,49.99 0,-1.051 c 0,-0.871 0.312,-1.613 0.929,-2.23 0.618,-0.618 1.36,-0.926 2.231,-0.926 0.871,0 1.613,0.312 2.23,0.929 0.618,0.618 0.926,1.364 0.926,2.231 l -0.004,2.105 c 0,0.801 -0.265,1.5 -0.801,2.106 -0.632,0.699 -1.417,1.051 -2.359,1.051 -0.293,0 -0.547,0.097 -0.758,0.293 -0.195,0.211 -0.293,0.461 -0.293,0.757 l -0.004,2.106 c 0,0.293 0.098,0.539 0.293,0.734 0.211,0.211 0.465,0.317 0.758,0.317 0.297,0.004 0.543,-0.102 0.738,-0.313 0.211,-0.195 0.317,-0.441 0.317,-0.738 l 0,-1.051 1.918,0 0.187,0 0,1.055 c 0,0.867 -0.312,1.613 -0.929,2.23 -0.618,0.617 -1.36,0.926 -2.231,0.922 -0.871,0 -1.613,-0.308 -2.23,-0.926 -0.617,-0.621 -0.926,-1.363 -0.926,-2.234 l 0.004,-2.105 c 0,-0.797 0.265,-1.5 0.801,-2.102 0.632,-0.703 1.418,-1.051 2.359,-1.051 0.293,0 0.539,-0.105 0.734,-0.316 0.211,-0.196 0.317,-0.442 0.317,-0.735 l 0.004,-2.105 c 0,-0.297 -0.106,-0.547 -0.317,-0.758 -0.195,-0.199 -0.441,-0.297 -0.734,-0.297 -0.297,0 -0.547,0.098 -0.758,0.293 -0.199,0.211 -0.297,0.465 -0.297,0.758 l 0,1.055 -2.105,-0.004"
         style="fill:#000000;fill-opacity:1;fill-rule:nonzero;stroke:none"
         id="path3076" /><path
         d="m 75.75,45.787 -0.012,14.734 6.313,0.008 0.004,-2.106 -4.211,-0.003 0.004,-4.211 3.156,0.003 0.004,-2.105 -3.16,-0.004 0.004,-4.207 4.21,0.004 0.004,-2.105 -6.316,-0.008"
         style="fill:#000000;fill-opacity:1;fill-rule:nonzero;stroke:none"
         id="path3078" /><path
         d="m 83.438,45.795 -0.012,14.734 2.105,0.004 0.012,-12.633 4.211,0.004 0,-2.102 -6.316,-0.007"
         style="fill:#000000;fill-opacity:1;fill-rule:nonzero;stroke:none"
         id="path3080" /><path
         d="m 90.703,50.013 0,-1.054 c 0,-0.872 0.309,-1.614 0.93,-2.231 0.617,-0.617 1.359,-0.926 2.23,-0.922 0.871,0 1.614,0.309 2.231,0.926 0.617,0.617 0.926,1.363 0.926,2.234 l -0.004,2.102 c 0,0.801 -0.266,1.504 -0.801,2.105 -0.633,0.704 -1.418,1.051 -2.36,1.051 -0.293,0 -0.546,0.098 -0.757,0.293 -0.196,0.211 -0.293,0.465 -0.297,0.758 l 0,2.105 c 0,0.297 0.097,0.54 0.293,0.739 0.211,0.211 0.465,0.316 0.758,0.316 0.296,0 0.543,-0.105 0.738,-0.316 0.211,-0.196 0.316,-0.442 0.316,-0.735 l 0,-1.054 1.918,0.004 0.188,0 0,1.05 c 0,0.871 -0.313,1.614 -0.93,2.231 -0.617,0.617 -1.359,0.926 -2.23,0.926 -0.872,-0.004 -1.614,-0.313 -2.231,-0.93 -0.617,-0.617 -0.926,-1.363 -0.926,-2.231 l 0.004,-2.105 c 0,-0.801 0.266,-1.504 0.801,-2.105 0.633,-0.7 1.418,-1.051 2.359,-1.051 0.293,0 0.539,-0.106 0.735,-0.317 0.211,-0.195 0.316,-0.441 0.316,-0.734 l 0.004,-2.106 c 0,-0.292 -0.105,-0.546 -0.316,-0.757 -0.196,-0.196 -0.442,-0.297 -0.735,-0.297 -0.297,0 -0.551,0.097 -0.761,0.297 -0.196,0.207 -0.293,0.461 -0.293,0.757 l 0,1.051 -2.106,0"
         style="fill:#000000;fill-opacity:1;fill-rule:nonzero;stroke:none"
         id="path3082" /><path
         d="m 103.133,59.623 c 0.617,0.617 1.363,0.925 2.23,0.925 0.871,0.004 1.617,-0.304 2.235,-0.921 0.617,-0.618 0.925,-1.364 0.925,-2.231 0.004,-0.465 -0.089,-0.898 -0.269,-1.305 l -3.676,-8.171 3.957,0.003 0,-2.105 -6.316,-0.008 0,2.106 3.949,8.656 c 0.168,0.406 0.254,0.68 0.254,0.82 0,0.297 -0.11,0.539 -0.317,0.738 -0.199,0.211 -0.445,0.313 -0.738,0.313 -0.297,0 -0.547,-0.106 -0.758,-0.316 -0.195,-0.196 -0.293,-0.442 -0.293,-0.735 l -2.105,-0.004 c 0,0.871 0.305,1.614 0.922,2.235"
         style="fill:#ffcc00;fill-opacity:1;fill-rule:nonzero;stroke:none"
         id="path3084" /><path
         d="m 109.938,57.416 0,3.136 6.292,0.008 0,-2.086 -4.195,-12.633 -2.086,0 4.199,12.633 -2.125,-0.004 0,-1.05 -2.085,0"
         style="fill:#ffcc00;fill-opacity:1;fill-rule:nonzero;stroke:none"
         id="path3086" /><path
         d="m 117.883,53.318 5.051,0.008 0.004,-1.684 -5.055,-0.008 0,1.684"
         style="fill:#ffcc00;fill-opacity:1;fill-rule:nonzero;stroke:none"
         id="path3088" /><path
         d="m 125.5,59.642 c 0.617,0.617 1.359,0.926 2.23,0.926 0.872,0.004 1.614,-0.305 2.231,-0.922 0.621,-0.617 0.93,-1.359 0.93,-2.23 l 0,-2.106 c 0.004,-0.801 -0.262,-1.5 -0.797,-2.105 0.535,-0.602 0.801,-1.305 0.801,-2.106 l 0.003,-2.105 c 0,-0.867 -0.308,-1.614 -0.925,-2.231 -0.618,-0.617 -1.36,-0.926 -2.231,-0.929 -0.871,0 -1.613,0.308 -2.23,0.925 -0.617,0.618 -0.93,1.36 -0.93,2.231 l 0,1.051 2.106,0.004 0,-1.055 c 0,-0.293 0.097,-0.547 0.296,-0.758 0.211,-0.195 0.461,-0.293 0.758,-0.293 0.293,0 0.539,0.098 0.735,0.297 0.211,0.211 0.316,0.461 0.316,0.758 l 0,2.105 c -0.004,0.293 -0.109,0.539 -0.316,0.735 -0.2,0.211 -0.446,0.316 -0.739,0.316 l -0.004,2.105 c 0.297,0 0.543,0.098 0.739,0.293 0.211,0.211 0.316,0.465 0.316,0.758 l -0.004,2.106 c 0,0.297 -0.105,0.543 -0.316,0.738 -0.196,0.211 -0.442,0.316 -0.735,0.316 -0.296,-0.004 -0.55,-0.109 -0.757,-0.316 -0.2,-0.199 -0.297,-0.445 -0.297,-0.738 l 0.004,-1.055 -2.106,0 -0.004,1.051 c 0,0.871 0.309,1.617 0.926,2.234"
         style="fill:#ffcc00;fill-opacity:1;fill-rule:nonzero;stroke:none"
         id="path3090" /><path
         d="m 133.23,59.65 c 0.618,0.617 1.36,0.926 2.231,0.926 0.867,0 1.613,-0.305 2.23,-0.922 0.618,-0.617 0.926,-1.363 0.93,-2.231 l 0.008,-8.421 c 0,-0.872 -0.309,-1.614 -0.926,-2.231 -0.617,-0.617 -1.359,-0.93 -2.23,-0.93 -0.871,0 -1.614,0.309 -2.231,0.926 -0.617,0.617 -0.93,1.36 -0.93,2.231 l -0.007,8.418 c 0,0.871 0.308,1.613 0.925,2.234 m 2.969,-1.492 c -0.199,0.211 -0.441,0.312 -0.738,0.312 -0.293,0 -0.547,-0.105 -0.758,-0.316 -0.195,-0.195 -0.293,-0.442 -0.293,-0.734 l 0.008,-8.422 c 0,-0.293 0.098,-0.547 0.297,-0.758 0.211,-0.195 0.461,-0.293 0.758,-0.293 0.293,0 0.539,0.098 0.734,0.297 0.211,0.211 0.316,0.461 0.316,0.758 l -0.007,8.418 c 0,0.296 -0.106,0.539 -0.317,0.738"
         style="fill:#ffcc00;fill-opacity:1;fill-rule:nonzero;stroke:none"
         id="path3092" /><path
         d="m 147.926,49.009 -1.582,4.735 0.008,-7.891 -2.106,-0.004 -0.016,14.735 2.106,0.003 2.641,-7.89 2.621,7.894 2.105,0 0.016,-14.734 -2.106,0 -0.008,7.895 -1.574,-4.739 -2.105,-0.004"
         style="fill:#ffcc00;fill-opacity:1;fill-rule:nonzero;stroke:none"
         id="path3094" /><path
         d="m 157.934,60.595 2.082,0.004 3.172,-14.734 -2.086,0 -0.633,3.156 -2.969,0.02 -0.629,-3.18 -2.082,0 3.145,14.738 m 1.035,-4.211 -1.047,-5.285 2.125,0.004 -1.059,5.281 c 0,0 -0.008,0 -0.019,0"
         style="fill:#ffcc00;fill-opacity:1;fill-rule:nonzero;stroke:none"
         id="path3096" /><path
         d="m 165.906,50.06 0.004,-4.211 2.125,0 -0.004,4.211 2.621,10.547 -2.125,0 -1.55,-6.297 -1.586,6.293 -2.125,0 2.64,-10.543"
         style="fill:#ffcc00;fill-opacity:1;fill-rule:nonzero;stroke:none"
         id="path3098" /><path
         d="m 35.238,40.388 1.633,-9.117 1.317,0 0.968,5.438 0.969,-5.438 1.316,0 1.618,9.109 -1.317,0 -0.957,-5.32 -0.98,5.332 -1.313,0 -0.972,-5.336 -0.969,5.332 -1.313,0"
         style="fill:#ffcc00;fill-opacity:1;fill-rule:nonzero;stroke:none"
         id="path3100" /><path
         d="m 43.473,40.396 1.632,-9.117 1.317,0 0.969,5.437 0.968,-5.437 1.313,0 1.617,9.109 -1.312,0 -0.957,-5.324 -0.981,5.336 -1.316,0 -0.969,-5.336 -0.969,5.332 -1.312,0"
         style="fill:#ffcc00;fill-opacity:1;fill-rule:nonzero;stroke:none"
         id="path3102" /><path
         d="m 51.703,40.404 1.637,-9.117 1.312,0 0.973,5.437 0.969,-5.437 1.312,0 1.617,9.109 -1.312,0 -0.957,-5.324 -0.981,5.336 -1.316,0 -0.969,-5.336 -0.968,5.332 -1.317,0"
         style="fill:#ffcc00;fill-opacity:1;fill-rule:nonzero;stroke:none"
         id="path3104" /><path
         d="m 60.285,32.591 1.301,0 0,-1.301 -1.301,0 0,1.301 z"
         style="fill:#ffcc00;fill-opacity:1;fill-rule:nonzero;stroke:none"
         id="path3106" /><path
         d="m 62.75,31.295 -0.008,9.105 1.301,0 0.008,-7.805 2.601,0 0.004,-1.3 -3.906,0"
         style="fill:#ffcc00;fill-opacity:1;fill-rule:nonzero;stroke:none"
         id="path3108" /><path
         d="m 68.844,31.298 -1.301,0 -0.008,9.11 1.301,0 0.008,-9.11"
         style="fill:#ffcc00;fill-opacity:1;fill-rule:nonzero;stroke:none"
         id="path3110" /><path
         d="m 70.113,40.396 2.602,0 c 0.355,0 0.66,-0.125 0.91,-0.379 0.254,-0.25 0.379,-0.558 0.379,-0.922 l 0.004,-2.758 c 0,-0.132 -0.051,-0.242 -0.145,-0.339 -0.093,-0.094 -0.207,-0.145 -0.336,-0.145 l 0,-0.012 c 0.129,0 0.243,-0.046 0.336,-0.14 0.098,-0.098 0.145,-0.211 0.145,-0.34 l 0,-2.774 c 0.004,-0.355 -0.125,-0.656 -0.375,-0.91 -0.25,-0.25 -0.555,-0.375 -0.91,-0.379 l -2.602,0 -0.008,9.098 m 1.289,-1.289 0,-2.613 0.821,0 c 0.14,0 0.257,0.047 0.351,0.144 0.098,0.094 0.145,0.211 0.145,0.352 l -0.004,1.625 c 0,0.137 -0.047,0.254 -0.141,0.351 -0.097,0.094 -0.215,0.141 -0.351,0.141 l -0.821,0 m 0.004,-3.902 0,-2.618 0.821,0.004 c 0.14,0 0.257,0.047 0.351,0.141 0.094,0.098 0.145,0.215 0.145,0.352 l -0.004,1.628 c 0,0.137 -0.047,0.254 -0.141,0.352 -0.098,0.094 -0.215,0.141 -0.351,0.141 l -0.821,0"
         style="fill:#ffcc00;fill-opacity:1;fill-rule:nonzero;stroke:none"
         id="path3112" /><path
         d="m 75.246,40.4 2.602,-0.012 c 0.355,0 0.66,-0.125 0.91,-0.375 0.254,-0.254 0.379,-0.554 0.379,-0.91 l 0.004,-2.601 c 0,-0.497 -0.215,-0.872 -0.637,-1.122 l 0,0 0.641,-4.07 -1.29,0 -0.652,3.902 -0.664,-0.003 0.004,-3.903 -1.289,0 -0.008,9.094 m 1.289,-1.285 0.004,-2.629 0.816,0 c 0.141,0 0.258,0.051 0.352,0.144 0.098,0.106 0.145,0.223 0.145,0.352 l -0.004,1.625 c 0,0.141 -0.047,0.258 -0.141,0.352 -0.098,0.105 -0.215,0.156 -0.352,0.156 l -0.82,0"
         style="fill:#ffcc00;fill-opacity:1;fill-rule:nonzero;stroke:none"
         id="path3114" /><path
         d="m 80.262,31.31 -0.012,9.106 3.906,0 0,-1.301 -2.601,0 0,-2.602 1.953,0 0,-1.301 -1.949,0 0,-2.601 2.601,0 0,-1.301 -3.902,0"
         style="fill:#ffcc00;fill-opacity:1;fill-rule:nonzero;stroke:none"
         id="path3116" /><path
         d="m 85.5,39.849 c 0.379,0.383 0.84,0.574 1.379,0.574 0.535,0 0.996,-0.191 1.379,-0.57 0.383,-0.383 0.57,-0.844 0.574,-1.379 l -1.301,0 c -0.004,0.18 -0.066,0.332 -0.199,0.453 -0.121,0.129 -0.273,0.196 -0.453,0.196 -0.184,0 -0.34,-0.067 -0.469,-0.196 -0.121,-0.121 -0.183,-0.273 -0.183,-0.457 l 0.007,-5.203 c 0,-0.183 0.059,-0.34 0.18,-0.469 0.133,-0.121 0.289,-0.179 0.469,-0.179 0.183,0 0.336,0.058 0.457,0.179 0.129,0.133 0.195,0.289 0.195,0.469 l -0.004,1.953 -0.648,0 0,1.301 1.949,0 0.004,-3.254 c 0,-0.535 -0.191,-0.996 -0.57,-1.379 -0.383,-0.383 -0.84,-0.574 -1.379,-0.574 -0.539,0 -1,0.191 -1.379,0.57 -0.383,0.383 -0.574,0.844 -0.574,1.379 L 84.93,38.47 c -0.004,0.535 0.187,0.996 0.57,1.379"
         style="fill:#ffcc00;fill-opacity:1;fill-rule:nonzero;stroke:none"
         id="path3118" /><path
         d="m 90.008,40.412 2.605,-0.008 c 0.356,0 0.657,-0.129 0.91,-0.379 0.25,-0.25 0.379,-0.555 0.379,-0.91 l 0,-2.602 c 0,-0.496 -0.211,-0.867 -0.636,-1.121 l 0,0 0.64,-4.07 -1.285,0 -0.656,3.902 -0.664,0 0.004,-3.902 -1.289,0 -0.008,9.094 m 1.289,-1.289 0.004,-2.625 0.82,0 c 0.137,0 0.254,0.046 0.352,0.144 0.093,0.102 0.14,0.219 0.14,0.348 l 0,1.629 c 0,0.136 -0.047,0.254 -0.144,0.351 -0.094,0.102 -0.211,0.156 -0.352,0.156 l -0.82,-0.003"
         style="fill:#ffcc00;fill-opacity:1;fill-rule:nonzero;stroke:none"
         id="path3120" /><path
         d="m 96.367,40.431 1.289,0 1.961,-9.105 -1.289,0 -0.39,1.949 -1.836,0.012 -0.387,-1.965 -1.289,0 1.941,9.109 m 0.641,-2.601 -0.649,-3.266 1.317,0 -0.653,3.266 -0.015,0"
         style="fill:#ffcc00;fill-opacity:1;fill-rule:nonzero;stroke:none"
         id="path3122" /><path
         d="m 100.25,40.423 2.602,0 c 0.355,0 0.66,-0.125 0.91,-0.378 0.254,-0.25 0.379,-0.559 0.379,-0.922 l 0.004,-2.602 c 0,-0.355 -0.125,-0.66 -0.375,-0.914 -0.254,-0.25 -0.555,-0.375 -0.915,-0.375 l -1.312,0 0.004,-3.906 -1.289,0 -0.008,9.097 m 1.289,-1.289 0.004,-2.613 0.82,0 c 0.137,0 0.254,0.047 0.348,0.145 0.098,0.093 0.144,0.211 0.144,0.351 l 0,1.625 c 0,0.137 -0.05,0.254 -0.144,0.352 -0.098,0.093 -0.215,0.14 -0.352,0.14 l -0.82,0"
         style="fill:#ffcc00;fill-opacity:1;fill-rule:nonzero;stroke:none"
         id="path3124" /><path
         d="m 105.129,40.439 1.301,0 0.004,-3.902 1.3,0 -0.004,3.902 1.301,0 0.008,-9.105 -1.301,0 0,3.902 -1.304,0 0.004,-3.902 -1.301,0 -0.008,9.105"
         style="fill:#ffcc00;fill-opacity:1;fill-rule:nonzero;stroke:none"
         id="path3126" /><path
         d="m 111.637,31.337 -1.301,0 -0.008,9.11 1.301,0 0.008,-9.11"
         style="fill:#ffcc00;fill-opacity:1;fill-rule:nonzero;stroke:none"
         id="path3128" /><path
         d="m 113.398,39.873 c 0.383,0.382 0.844,0.574 1.379,0.574 0.539,0 1,-0.188 1.383,-0.57 0.379,-0.383 0.57,-0.84 0.57,-1.379 l 0.004,-0.649 -1.3,0 -0.004,0.649 c 0,0.183 -0.063,0.336 -0.196,0.457 -0.121,0.129 -0.273,0.191 -0.453,0.191 -0.183,0 -0.34,-0.062 -0.469,-0.195 -0.121,-0.121 -0.183,-0.274 -0.183,-0.453 l 0.008,-5.203 c 0,-0.184 0.058,-0.34 0.179,-0.469 0.133,-0.121 0.289,-0.184 0.469,-0.184 0.184,0 0.336,0.063 0.457,0.184 0.129,0.129 0.196,0.285 0.196,0.469 l -0.004,0.648 1.304,0 0,-0.648 c 0,-0.54 -0.191,-1 -0.574,-1.379 -0.379,-0.383 -0.84,-0.575 -1.375,-0.575 -0.539,0 -1,0.188 -1.383,0.571 -0.379,0.383 -0.57,0.84 -0.574,1.379 l -0.004,5.203 c 0,0.539 0.192,1 0.57,1.379"
         style="fill:#ffcc00;fill-opacity:1;fill-rule:nonzero;stroke:none"
         id="path3130" /><path
         d="m 117.48,33.947 0,-0.652 c 0,-0.54 0.192,-0.997 0.575,-1.379 0.379,-0.383 0.84,-0.571 1.379,-0.571 0.539,0 0.996,0.192 1.378,0.575 0.379,0.378 0.571,0.839 0.571,1.378 l 0,1.301 c 0,0.496 -0.168,0.93 -0.496,1.301 -0.391,0.434 -0.875,0.648 -1.457,0.648 -0.184,0 -0.34,0.063 -0.469,0.184 -0.121,0.129 -0.184,0.285 -0.184,0.469 l 0,1.301 c 0,0.179 0.059,0.332 0.18,0.453 0.133,0.132 0.289,0.195 0.469,0.195 0.183,0 0.336,-0.063 0.457,-0.195 0.129,-0.121 0.195,-0.27 0.195,-0.453 l 0,-0.653 1.184,0 0.117,0 0,0.653 c 0,0.539 -0.191,0.996 -0.574,1.378 -0.383,0.379 -0.84,0.571 -1.379,0.571 -0.539,0 -0.996,-0.192 -1.379,-0.574 -0.383,-0.383 -0.57,-0.84 -0.57,-1.379 l 0,-1.301 c 0,-0.496 0.164,-0.93 0.496,-1.301 0.39,-0.434 0.875,-0.648 1.457,-0.648 0.183,0 0.336,-0.067 0.457,-0.196 0.129,-0.121 0.195,-0.273 0.195,-0.457 l 0,-1.3 c 0,-0.18 -0.066,-0.336 -0.195,-0.469 -0.121,-0.121 -0.274,-0.18 -0.453,-0.18 -0.184,0 -0.34,0.059 -0.469,0.18 -0.125,0.129 -0.184,0.285 -0.184,0.469 l 0,0.652 -1.301,0"
         style="fill:#ffcc00;fill-opacity:1;fill-rule:nonzero;stroke:none"
         id="path3132" /><path
         d="m 124.641,33.302 -0.977,2.926 0.004,-4.879 -1.301,0 -0.008,9.106 1.301,0 1.629,-4.875 1.625,4.879 1.301,0 0.008,-9.106 -1.301,0 -0.008,4.879 -0.973,-2.93 -1.3,0"
         style="fill:#ffcc00;fill-opacity:1;fill-rule:nonzero;stroke:none"
         id="path3134" /><path
         d="m 129.48,31.353 -0.007,9.109 3.902,0 0.004,-1.3 -2.606,0 0.004,-2.606 1.953,0 0,-1.301 -1.953,0 0.004,-2.601 2.602,0 0,-1.301 -3.903,0"
         style="fill:#ffcc00;fill-opacity:1;fill-rule:nonzero;stroke:none"
         id="path3136" /><path
         d="m 134.234,31.357 -0.007,9.109 3.902,0 0,-1.3 -2.602,0 0.004,-2.602 1.949,0 0,-1.305 -1.949,0 0,-2.601 2.606,0 0,-1.301 -3.903,0"
         style="fill:#ffcc00;fill-opacity:1;fill-rule:nonzero;stroke:none"
         id="path3138" /><path
         d="m 138.312,40.47 3.907,0 0,-1.3 -1.301,0 0.008,-7.809 -1.305,0 -0.004,7.809 -1.301,0 -0.004,1.3"
         style="fill:#ffcc00;fill-opacity:1;fill-rule:nonzero;stroke:none"
         id="path3140" /><path
         d="m 144.164,31.369 -1.301,0 -0.011,9.105 1.304,0 0.008,-9.105"
         style="fill:#ffcc00;fill-opacity:1;fill-rule:nonzero;stroke:none"
         id="path3142" /><path
         d="m 145.379,40.474 1.301,0 1.304,-4.551 -0.004,4.555 1.301,0 0.012,-9.109 -1.301,0 -1.308,4.554 0.004,-4.554 -1.301,0 -0.008,9.105"
         style="fill:#ffcc00;fill-opacity:1;fill-rule:nonzero;stroke:none"
         id="path3144" /><path
         d="m 150.984,39.908 c 0.379,0.383 0.84,0.574 1.379,0.574 0.535,0 0.996,-0.191 1.379,-0.57 0.383,-0.383 0.574,-0.844 0.574,-1.379 l -1.3,0 c 0,0.179 -0.067,0.332 -0.196,0.453 -0.121,0.133 -0.273,0.195 -0.457,0.195 -0.183,0 -0.34,-0.062 -0.468,-0.195 -0.122,-0.121 -0.18,-0.274 -0.18,-0.457 l 0.004,-5.203 c 0,-0.18 0.062,-0.336 0.183,-0.469 0.129,-0.121 0.286,-0.18 0.469,-0.18 0.18,0 0.332,0.059 0.453,0.184 0.129,0.129 0.196,0.285 0.196,0.469 l 0,1.949 -0.653,0 0,1.301 1.949,0 0.004,-3.254 c 0,-0.535 -0.187,-0.996 -0.57,-1.379 -0.383,-0.383 -0.84,-0.574 -1.379,-0.574 -0.539,0 -0.996,0.191 -1.379,0.574 -0.383,0.379 -0.574,0.84 -0.574,1.375 l -0.004,5.207 c 0,0.535 0.188,0.996 0.57,1.379"
         style="fill:#ffcc00;fill-opacity:1;fill-rule:nonzero;stroke:none"
         id="path3146" /><path
         d="m 155.422,32.677 1.305,0 0,-1.3 -1.301,0 -0.004,1.3"
         style="fill:#ffcc00;fill-opacity:1;fill-rule:nonzero;stroke:none"
         id="path3148" /><path
         d="m 158.379,39.916 c 0.379,0.382 0.84,0.574 1.379,0.574 0.535,0 0.996,-0.192 1.379,-0.574 0.383,-0.379 0.574,-0.84 0.574,-1.375 l 0.004,-5.207 c 0,-0.536 -0.192,-0.997 -0.57,-1.379 -0.383,-0.383 -0.84,-0.575 -1.379,-0.575 -0.539,0 -0.996,0.192 -1.379,0.571 -0.383,0.383 -0.575,0.844 -0.575,1.379 l -0.003,5.207 c -0.004,0.535 0.187,0.996 0.57,1.379 m 1.836,-0.922 c -0.121,0.129 -0.274,0.195 -0.457,0.195 -0.184,0 -0.34,-0.066 -0.469,-0.195 -0.121,-0.125 -0.18,-0.274 -0.18,-0.457 l 0,-1.848 0.004,-1.523 0,-1.832 c 0,-0.184 0.063,-0.34 0.184,-0.469 0.129,-0.121 0.285,-0.184 0.469,-0.184 0.179,0 0.332,0.063 0.453,0.184 0.129,0.129 0.195,0.285 0.195,0.469 l 0,1.836 -0.004,1.519 0,1.848 c 0,0.183 -0.066,0.336 -0.195,0.457"
         style="fill:#ffcc00;fill-opacity:1;fill-rule:nonzero;stroke:none"
         id="path3150" /><path
         d="m 162.891,40.478 2.601,-0.012 c 0.356,0 0.66,-0.125 0.91,-0.375 0.254,-0.25 0.379,-0.554 0.379,-0.91 l 0.004,-2.601 c 0,-0.496 -0.215,-0.868 -0.637,-1.121 l 0,0 0.641,-4.071 -1.289,0 -0.652,3.903 -0.664,0 0,-3.903 -1.286,0 -0.007,9.094 m 1.289,-1.289 0,-2.629 0.82,0.004 c 0.141,0 0.258,0.047 0.352,0.141 0.093,0.105 0.144,0.222 0.144,0.351 l -0.004,1.629 c 0,0.137 -0.047,0.254 -0.144,0.352 -0.094,0.101 -0.211,0.152 -0.352,0.152 l -0.816,0"
         style="fill:#ffcc00;fill-opacity:1;fill-rule:nonzero;stroke:none"
         id="path3152" /><path
         d="m 168.391,39.923 c 0.382,0.383 0.839,0.575 1.379,0.575 0.539,0 0.996,-0.192 1.378,-0.571 0.383,-0.382 0.575,-0.84 0.575,-1.379 l -1.301,0 c 0,0.18 -0.067,0.332 -0.195,0.454 -0.122,0.132 -0.274,0.195 -0.457,0.195 -0.18,0 -0.336,-0.063 -0.469,-0.195 -0.121,-0.122 -0.18,-0.274 -0.18,-0.454 l 0.004,-5.207 c 0,-0.179 0.063,-0.336 0.184,-0.468 0.129,-0.121 0.285,-0.18 0.468,-0.18 0.18,0 0.332,0.059 0.453,0.184 0.133,0.128 0.196,0.285 0.196,0.468 l 0,1.95 -0.653,0 0,1.3 1.954,0 0,-3.254 c 0,-0.535 -0.188,-0.996 -0.571,-1.379 -0.379,-0.382 -0.84,-0.574 -1.379,-0.574 -0.535,0 -0.996,0.192 -1.379,0.574 -0.382,0.379 -0.574,0.84 -0.574,1.375 l -0.004,5.208 c 0,0.535 0.192,0.996 0.571,1.378"
         style="fill:#ffcc00;fill-opacity:1;fill-rule:nonzero;stroke:none"
         id="path3154" /></g></g></svg>