<?xml version="1.0" encoding="UTF-8" standalone="no"?>
<!-- Created with Inkscape (http://www.inkscape.org/) -->

<svg
   xmlns:dc="http://purl.org/dc/elements/1.1/"
   xmlns:cc="http://creativecommons.org/ns#"
   xmlns:rdf="http://www.w3.org/1999/02/22-rdf-syntax-ns#"
   xmlns:svg="http://www.w3.org/2000/svg"
   xmlns="http://www.w3.org/2000/svg"
   xmlns:sodipodi="http://sodipodi.sourceforge.net/DTD/sodipodi-0.dtd"
   xmlns:inkscape="http://www.inkscape.org/namespaces/inkscape"
   width="148.39523mm"
   height="25.299622mm"
   viewBox="0 0 525.80988 89.644328"
   id="svg14828"
   version="1.1"
   inkscape:version="0.91 r13725"
   sodipodi:docname="save-the-date--web.svg">
  <defs
     id="defs14830" />
  <sodipodi:namedview
     id="base"
     pagecolor="#ffffff"
     bordercolor="#666666"
     borderopacity="1.0"
     inkscape:pageopacity="0.0"
     inkscape:pageshadow="2"
     inkscape:zoom="1.4"
     inkscape:cx="318.65445"
     inkscape:cy="9.503259"
     inkscape:document-units="px"
     inkscape:current-layer="flowRoot13345"
     showgrid="false"
     inkscape:window-width="1920"
     inkscape:window-height="1056"
     inkscape:window-x="0"
     inkscape:window-y="0"
     inkscape:window-maximized="1"
     fit-margin-top="0"
     fit-margin-left="0"
     fit-margin-right="0"
     fit-margin-bottom="0" />
  <metadata
     id="metadata14833">
    <rdf:RDF>
      <cc:Work
         rdf:about="">
        <dc:format>image/svg+xml</dc:format>
        <dc:type
           rdf:resource="http://purl.org/dc/dcmitype/StillImage" />
        <dc:title />
      </cc:Work>
    </rdf:RDF>
  </metadata>
  <g
     inkscape:label="Capa 1"
     inkscape:groupmode="layer"
     id="layer1">
    <g
       transform="translate(1.2297183e-5,-1.2958802e-4)"
       style="font-style:normal;font-weight:normal;font-size:57.82411957px;line-height:651.00002289%;font-family:sans-serif;letter-spacing:0px;word-spacing:0px;fill:#000000;fill-opacity:1;stroke:none;stroke-width:1px;stroke-linecap:butt;stroke-linejoin:miter;stroke-opacity:1;enable-background:new"
       id="flowRoot13345">
      <path
         d="m 1.1575995,40.488307 0,-40.48817741198 5.7880588,0 0,34.70011841198 11.5761177,0 0,5.788059 -17.3641765,0 z"
         style="font-style:normal;font-variant:normal;font-weight:500;font-stretch:condensed;line-height:75%;font-family:OSP-DIN;-inkscape-font-specification:'OSP-DIN Medium Condensed';fill:#02002f;fill-opacity:0.94117647"
         id="path15428"
         inkscape:connector-curvature="0" />
      <path
         d="m 28.234421,40.488307 -5.788059,0 0,-40.48817741198 5.788059,0 0,40.48817741198 z"
         style="font-style:normal;font-variant:normal;font-weight:500;font-stretch:condensed;line-height:75%;font-family:OSP-DIN;-inkscape-font-specification:'OSP-DIN Medium Condensed';fill:#02002f;fill-opacity:0.94117647"
         id="path15430"
         inkscape:connector-curvature="0" />
      <path
         d="m 33.909541,0.05659845 11.576118,0 q 2.371692,0 4.037524,1.69406605 1.694066,1.6658315 1.694066,4.0939928 l 0,12.2537437 q 0,0.875268 -0.649392,1.52466 -0.621158,0.621157 -1.496425,0.621157 l 0,0.05647 q 0.875267,0 1.496425,0.649392 0.649392,0.621158 0.649392,1.496425 l 0,12.310213 q 0,2.371692 -1.694066,4.065758 -1.665832,1.665832 -4.037524,1.665832 l -11.576118,0 0,-40.43170855 z m 5.73159,5.73158995 0,11.6325866 3.642242,0 q 0.931736,0 1.552894,-0.621158 0.649392,-0.649392 0.649392,-1.581128 l 0,-7.2280148 q 0,-0.9317363 -0.649392,-1.5528938 -0.621158,-0.649392 -1.552894,-0.649392 l -3.642242,0 z m 0,17.3641766 0,11.604352 3.642242,0 q 0.931736,0 1.552894,-0.621157 0.649392,-0.649392 0.649392,-1.581129 l 0,-7.228015 q 0,-0.931736 -0.649392,-1.552894 -0.621158,-0.621157 -1.552894,-0.621157 l -3.642242,0 z"
         style="font-style:normal;font-variant:normal;font-weight:500;font-stretch:condensed;line-height:75%;font-family:OSP-DIN;-inkscape-font-specification:'OSP-DIN Medium Condensed';fill:#02002f;fill-opacity:0.94117647"
         id="path15432"
         inkscape:connector-curvature="0" />
      <path
         d="m 56.722964,0.05659845 11.576118,0.05646887 q 2.371692,0 4.037524,1.69406598 1.694066,1.6658316 1.694066,4.037524 l 0,11.5761177 q 0,3.303429 -2.851678,4.96926 l 0,0 2.851678,18.098272 -5.73159,0 -2.879912,-17.335942 -2.964616,0 0,17.335942 -5.73159,0 0,-40.43170855 z m 5.73159,5.73158995 0,11.6890556 3.642242,0 q 0.931736,0 1.552894,-0.649392 0.649392,-0.677627 0.649392,-1.552894 l 0,-7.2280149 q 0,-0.9317363 -0.649392,-1.5811283 -0.621158,-0.6776264 -1.552894,-0.6776264 l -3.642242,0 z"
         style="font-style:normal;font-variant:normal;font-weight:500;font-stretch:condensed;line-height:75%;font-family:OSP-DIN;-inkscape-font-specification:'OSP-DIN Medium Condensed';fill:#02002f;fill-opacity:0.94117647"
         id="path15434"
         inkscape:connector-curvature="0" />
      <path
         d="m 78.971694,40.488307 0,-40.48817741198 17.364177,0 0,5.78805881198 -11.576118,0 0,11.5761176 8.667971,0 0,5.788059 -8.667971,0 0,11.547883 11.576118,0 0,5.788059 -17.364177,0 z"
         style="font-style:normal;font-variant:normal;font-weight:500;font-stretch:condensed;line-height:75%;font-family:OSP-DIN;-inkscape-font-specification:'OSP-DIN Medium Condensed';fill:#02002f;fill-opacity:0.94117647"
         id="path15436"
         inkscape:connector-curvature="0" />
      <path
         d="m 113.02242,2.569463 q 2.5411,-2.56933341198 6.12687,-2.56933341198 3.58578,0 6.12688,2.56933341198 2.54109,2.541099 2.54109,6.1268721 l -5.75982,0 q 0,-1.2140807 -0.84703,-2.0611137 -0.84704,-0.847033 -2.06112,-0.847033 -1.21408,0 -2.06111,0.847033 -0.8188,0.847033 -0.8188,2.0611137 l 0,23.1240009 q 0,1.214081 0.8188,2.061114 0.84703,0.818798 2.06111,0.818798 1.21408,0 2.06112,-0.818798 0.84703,-0.847033 0.84703,-2.061114 l 0,-8.667971 -2.90815,0 0,-5.788059 8.66797,0 0,14.45603 q 0,3.585773 -2.54109,6.126872 -2.5411,2.541099 -6.12688,2.541099 -3.58577,0 -6.12687,-2.541099 -2.5411,-2.541099 -2.5411,-6.126872 l 0,-23.1240009 q 0,-3.5857731 2.5411,-6.1268721 z"
         style="font-style:normal;font-variant:normal;font-weight:500;font-stretch:condensed;line-height:75%;font-family:OSP-DIN;-inkscape-font-specification:'OSP-DIN Medium Condensed';fill:#02002f;fill-opacity:0.94117647"
         id="path15438"
         inkscape:connector-curvature="0" />
      <path
         d="m 133.06887,0.05659845 11.57612,0.05646887 q 2.37169,0 4.03752,1.69406598 1.69407,1.6658316 1.69407,4.037524 l 0,11.5761177 q 0,3.303429 -2.85168,4.96926 l 0,0 2.85168,18.098272 -5.73159,0 -2.87991,-17.335942 -2.96462,0 0,17.335942 -5.73159,0 0,-40.43170855 z m 5.73159,5.73158995 0,11.6890556 3.64224,0 q 0.93174,0 1.5529,-0.649392 0.64939,-0.677627 0.64939,-1.552894 l 0,-7.2280149 q 0,-0.9317363 -0.64939,-1.5811283 -0.62116,-0.6776264 -1.5529,-0.6776264 l -3.64224,0 z"
         style="font-style:normal;font-variant:normal;font-weight:500;font-stretch:condensed;line-height:75%;font-family:OSP-DIN;-inkscape-font-specification:'OSP-DIN Medium Condensed';fill:#02002f;fill-opacity:0.94117647"
         id="path15440"
         inkscape:connector-curvature="0" />
      <path
         d="m 161.33154,1.2958802e-4 5.73159,0 8.66797,40.48817741198 -5.73159,0 -1.7223,-8.667971 -8.15975,-0.05647 -1.7223,8.72444 -5.73159,0 8.66797,-40.48817741198 z M 164.18322,11.576247 l -2.90815,14.512499 5.84453,0 -2.87992,-14.512499 q 0,0 -0.0565,0 z"
         style="font-style:normal;font-variant:normal;font-weight:500;font-stretch:condensed;line-height:75%;font-family:OSP-DIN;-inkscape-font-specification:'OSP-DIN Medium Condensed';fill:#02002f;fill-opacity:0.94117647"
         id="path15442"
         inkscape:connector-curvature="0" />
      <path
         d="m 178.58277,0.05659845 11.57612,0 q 2.37169,0 4.03752,1.69406605 1.69407,1.6658315 1.69407,4.0939928 l 0,11.5761177 q 0,2.371692 -1.69407,4.065758 -1.66583,1.665832 -4.03752,1.665832 l -5.84453,0 0,17.335942 -5.73159,0 0,-40.43170855 z m 5.73159,5.73158995 0,11.6325866 3.64224,0 q 0.93174,0 1.5529,-0.621158 0.64939,-0.649392 0.64939,-1.581128 l 0,-7.2280148 q 0,-0.9317363 -0.64939,-1.5528938 -0.62116,-0.649392 -1.5529,-0.649392 l -3.64224,0 z"
         style="font-style:normal;font-variant:normal;font-weight:500;font-stretch:condensed;line-height:75%;font-family:OSP-DIN;-inkscape-font-specification:'OSP-DIN Medium Condensed';fill:#02002f;fill-opacity:0.94117647"
         id="path15444"
         inkscape:connector-curvature="0" />
      <path
         d="m 200.26682,1.2958802e-4 5.78806,0 0,17.36417641198 5.78806,0 0,-17.36417641198 5.78806,0 0,40.48817741198 -5.78806,0 0,-17.335942 -5.78806,0 0,17.335942 -5.78806,0 0,-40.48817741198 z"
         style="font-style:normal;font-variant:normal;font-weight:500;font-stretch:condensed;line-height:75%;font-family:OSP-DIN;-inkscape-font-specification:'OSP-DIN Medium Condensed';fill:#02002f;fill-opacity:0.94117647"
         id="path15446"
         inkscape:connector-curvature="0" />
      <path
         d="m 229.15065,40.488307 -5.78806,0 0,-40.48817741198 5.78806,0 0,40.48817741198 z"
         style="font-style:normal;font-variant:normal;font-weight:500;font-stretch:condensed;line-height:75%;font-family:OSP-DIN;-inkscape-font-specification:'OSP-DIN Medium Condensed';fill:#02002f;fill-opacity:0.94117647"
         id="path15448"
         inkscape:connector-curvature="0" />
      <path
         d="m 237.02805,2.569463 q 2.5411,-2.56933341198 6.12687,-2.56933341198 3.58578,0 6.12688,2.56933341198 2.5411,2.541099 2.5411,6.1268721 l 0,2.8799119 -5.75983,0 0,-2.8799119 q 0,-1.2140807 -0.84703,-2.0611137 -0.84703,-0.847033 -2.06112,-0.847033 -1.21408,0 -2.06111,0.847033 -0.8188,0.847033 -0.8188,2.0611137 l 0,23.1240009 q 0,1.214081 0.8188,2.061114 0.84703,0.818798 2.06111,0.818798 1.21409,0 2.06112,-0.818798 0.84703,-0.847033 0.84703,-2.061114 l 0,-2.908147 5.75983,0 0,2.908147 q 0,3.585773 -2.5411,6.126872 -2.5411,2.541099 -6.12688,2.541099 -3.58577,0 -6.12687,-2.541099 -2.5411,-2.541099 -2.5411,-6.126872 l 0,-23.1240009 q 0,-3.5857731 2.5411,-6.1268721 z"
         style="font-style:normal;font-variant:normal;font-weight:500;font-stretch:condensed;line-height:75%;font-family:OSP-DIN;-inkscape-font-specification:'OSP-DIN Medium Condensed';fill:#02002f;fill-opacity:0.94117647"
         id="path15450"
         inkscape:connector-curvature="0" />
      <path
         d="m 255.12633,28.912189 0,2.908147 q 0,3.585773 2.5411,6.126872 2.56933,2.541099 6.15511,2.541099 3.58577,0 6.12687,-2.541099 2.5411,-2.541099 2.5411,-6.126872 l 0,-5.788059 q 0,-3.303429 -2.20229,-5.788059 -2.59757,-2.879912 -6.46568,-2.879912 -1.21408,0 -2.06112,-0.847033 -0.84703,-0.847033 -0.84703,-2.061114 l 0,-5.7598239 q 0,-1.2140807 0.84703,-2.0611137 0.84704,-0.847033 2.06112,-0.847033 1.21408,0 2.03288,0.847033 0.84703,0.847033 0.84703,2.0611137 l 0,2.8799119 5.2516,0 0.53646,0 0,-2.8799119 q 0,-3.5857731 -2.5411,-6.1268721 -2.5411,-2.56933341198 -6.12687,-2.56933341198 -3.58578,0 -6.15511,2.56933341198 -2.5411,2.541099 -2.5411,6.1268721 l 0,5.7598239 q 0,3.303429 2.20229,5.788059 2.59756,2.879913 6.49392,2.908147 1.21408,0 2.03288,0.847033 0.84703,0.818799 0.84703,2.032879 l 0,5.788059 q 0,1.214081 -0.84703,2.061114 -0.8188,0.818798 -2.03288,0.818798 -1.21408,0 -2.06112,-0.818798 -0.84703,-0.847033 -0.84703,-2.061114 l 0,-2.908147 -5.78806,0 z"
         style="font-style:normal;font-variant:normal;font-weight:500;font-stretch:condensed;line-height:75%;font-family:OSP-DIN;-inkscape-font-specification:'OSP-DIN Medium Condensed';fill:#02002f;fill-opacity:0.94117647"
         id="path15452"
         inkscape:connector-curvature="0" />
      <path
         d="m 297.70386,31.820336 -4.34811,-13.016074 0,21.684045 -5.78806,0 0,-40.48817741198 5.78806,0 7.22802,21.68404441198 7.22801,-21.68404441198 5.78806,0 0,40.48817741198 -5.78806,0 0,-21.684045 -4.31986,13.016074 -5.78806,0 z"
         style="font-style:normal;font-variant:normal;font-weight:500;font-stretch:condensed;line-height:75%;font-family:OSP-DIN;-inkscape-font-specification:'OSP-DIN Medium Condensed';fill:#02002f;fill-opacity:0.94117647"
         id="path15454"
         inkscape:connector-curvature="0" />
      <path
         d="m 319.19025,40.488307 0,-40.48817741198 17.36418,0 0,5.78805881198 -11.57612,0 0,11.5761176 8.66797,0 0,5.788059 -8.66797,0 0,11.547883 11.57612,0 0,5.788059 -17.36418,0 z"
         style="font-style:normal;font-variant:normal;font-weight:500;font-stretch:condensed;line-height:75%;font-family:OSP-DIN;-inkscape-font-specification:'OSP-DIN Medium Condensed';fill:#02002f;fill-opacity:0.94117647"
         id="path15456"
         inkscape:connector-curvature="0" />
      <path
         d="m 340.30961,40.488307 0,-40.48817741198 17.36417,0 0,5.78805881198 -11.57611,0 0,11.5761176 8.66797,0 0,5.788059 -8.66797,0 0,11.547883 11.57611,0 0,5.788059 -17.36417,0 z"
         style="font-style:normal;font-variant:normal;font-weight:500;font-stretch:condensed;line-height:75%;font-family:OSP-DIN;-inkscape-font-specification:'OSP-DIN Medium Condensed';fill:#02002f;fill-opacity:0.94117647"
         id="path15458"
         inkscape:connector-curvature="0" />
      <path
         d="m 358.49258,1.2958802e-4 17.33594,0 0,5.78805881198 -5.78806,0 0,34.7001186 -5.75982,0 0,-34.7001186 -5.78806,0 0,-5.78805881198 z"
         style="font-style:normal;font-variant:normal;font-weight:500;font-stretch:condensed;line-height:75%;font-family:OSP-DIN;-inkscape-font-specification:'OSP-DIN Medium Condensed';fill:#02002f;fill-opacity:0.94117647"
         id="path15460"
         inkscape:connector-curvature="0" />
      <path
         d="m 384.44005,40.488307 -5.78806,0 0,-40.48817741198 5.78806,0 0,40.48817741198 z"
         style="font-style:normal;font-variant:normal;font-weight:500;font-stretch:condensed;line-height:75%;font-family:OSP-DIN;-inkscape-font-specification:'OSP-DIN Medium Condensed';fill:#02002f;fill-opacity:0.94117647"
         id="path15462"
         inkscape:connector-curvature="0" />
      <path
         d="m 389.88927,1.2958802e-4 5.78806,0 5.78806,20.24408841198 0,-20.24408841198 5.78806,0 0,40.48817741198 -5.78806,0 -5.78806,-20.244089 0,20.244089 -5.78806,0 0,-40.48817741198 z"
         style="font-style:normal;font-variant:normal;font-weight:500;font-stretch:condensed;line-height:75%;font-family:OSP-DIN;-inkscape-font-specification:'OSP-DIN Medium Condensed';fill:#02002f;fill-opacity:0.94117647"
         id="path15464"
         inkscape:connector-curvature="0" />
      <path
         d="m 414.79204,2.569463 q 2.5411,-2.56933341198 6.12688,-2.56933341198 3.58577,0 6.12687,2.56933341198 2.5411,2.541099 2.5411,6.1268721 l -5.75983,0 q 0,-1.2140807 -0.84703,-2.0611137 -0.84703,-0.847033 -2.06111,-0.847033 -1.21408,0 -2.06112,0.847033 -0.8188,0.847033 -0.8188,2.0611137 l 0,23.1240009 q 0,1.214081 0.8188,2.061114 0.84704,0.818798 2.06112,0.818798 1.21408,0 2.06111,-0.818798 0.84703,-0.847033 0.84703,-2.061114 l 0,-8.667971 -2.90814,0 0,-5.788059 8.66797,0 0,14.45603 q 0,3.585773 -2.5411,6.126872 -2.5411,2.541099 -6.12687,2.541099 -3.58578,0 -6.12688,-2.541099 -2.54109,-2.541099 -2.54109,-6.126872 l 0,-23.1240009 q 0,-3.5857731 2.54109,-6.1268721 z"
         style="font-style:normal;font-variant:normal;font-weight:500;font-stretch:condensed;line-height:75%;font-family:OSP-DIN;-inkscape-font-specification:'OSP-DIN Medium Condensed';fill:#02002f;fill-opacity:0.94117647"
         id="path15466"
         inkscape:connector-curvature="0" />
      <path
         d="m 447.31811,2.569463 q 2.5411,-2.56933341198 6.12687,-2.56933341198 3.58577,0 6.12687,2.56933341198 2.5411,2.541099 2.5411,6.1268721 0,1.9199419 -0.76233,3.5857729 l -10.10793,22.41814 10.87026,0 0,5.788059 -17.33594,0 0,-5.788059 10.87026,-23.773393 q 0.70586,-1.6658313 0.67762,-2.2305199 0,-1.2140807 -0.84703,-2.0611137 -0.8188,-0.847033 -2.03288,-0.847033 -1.21408,0 -2.06111,0.847033 -0.84704,0.847033 -0.84704,2.0611137 l -5.75982,0 q 0,-3.5857731 2.5411,-6.1268721 z"
         style="font-style:normal;font-variant:normal;font-weight:500;font-stretch:condensed;line-height:75%;font-family:OSP-DIN;-inkscape-font-specification:'OSP-DIN Medium Condensed';fill:#02002f;fill-opacity:0.94117647"
         id="path15468"
         inkscape:connector-curvature="0" />
      <path
         d="m 468.55041,2.569463 q 2.5411,-2.56933341198 6.12687,-2.56933341198 3.58577,0 6.12687,2.56933341198 2.5411,2.541099 2.5411,6.1268721 l 0,23.1240009 q 0,3.585773 -2.5411,6.126872 -2.5411,2.541099 -6.12687,2.541099 -3.58577,0 -6.12687,-2.541099 -2.5411,-2.541099 -2.5411,-6.126872 l 0,-23.1240009 q 0,-3.5857731 2.5411,-6.1268721 z m 8.15975,4.0657584 q -0.8188,-0.847033 -2.03288,-0.847033 -1.21408,0 -2.06111,0.847033 -0.84704,0.847033 -0.84704,2.0611137 l 0,23.1240009 q 0,1.214081 0.84704,2.061114 0.84703,0.818798 2.06111,0.818798 1.21408,0 2.03288,-0.818798 0.84703,-0.847033 0.84703,-2.061114 l 0,-23.1240009 q 0,-1.2140807 -0.84703,-2.0611137 z"
         style="font-style:normal;font-variant:normal;font-weight:500;font-stretch:condensed;line-height:75%;font-family:OSP-DIN;-inkscape-font-specification:'OSP-DIN Medium Condensed';fill:#02002f;fill-opacity:0.94117647"
         id="path15470"
         inkscape:connector-curvature="0" />
      <path
         d="m 494.10258,1.2958802e-4 5.78805,0 0,40.48817741198 -5.78805,0 0,-34.7001186 -5.75983,5.7880586 0,-5.7880586 5.75983,-5.78805881198 z"
         style="font-style:normal;font-variant:normal;font-weight:500;font-stretch:condensed;line-height:75%;font-family:OSP-DIN;-inkscape-font-specification:'OSP-DIN Medium Condensed';fill:#02002f;fill-opacity:0.94117647"
         id="path15472"
         inkscape:connector-curvature="0" />
      <path
         d="m 511.01501,2.569463 q 2.5411,-2.56933341198 6.12687,-2.56933341198 3.58577,0 6.12687,2.56933341198 2.5411,2.541099 2.5411,6.1268721 l 0,3.5857729 q 0,3.359898 -2.20229,5.759825 2.20229,2.48463 2.20229,5.788058 l 0,7.990345 q 0,3.585773 -2.5411,6.126872 -2.5411,2.541099 -6.12687,2.541099 -3.58577,0 -6.12687,-2.541099 -2.5411,-2.541099 -2.5411,-6.126872 l 0,-7.990345 q 0,-3.303428 2.17405,-5.788058 -2.20229,-2.428162 -2.17405,-5.759825 l 0,-3.5857729 q 0,-3.5857731 2.5411,-6.1268721 z m 8.15975,4.0657584 q -0.8188,-0.847033 -2.03288,-0.847033 -1.21408,0 -2.06111,0.847033 -0.84704,0.847033 -0.84704,2.0611137 l 0,3.5857729 q 0,1.27055 0.84704,2.089348 0.84703,0.790564 2.06111,0.790564 1.21408,0 2.03288,-0.790564 0.84703,-0.818798 0.84703,-2.089348 l 0,-3.5857729 q 0,-1.2140807 -0.84703,-2.0611137 z m 0,15.1618906 q -0.8188,-0.847033 -2.03288,-0.847033 -1.21408,0 -2.06111,0.847033 -0.84704,0.818799 -0.84704,2.032879 l 0,7.990345 q 0,1.214081 0.84704,2.061114 0.84703,0.818798 2.06111,0.818798 1.21408,0 2.03288,-0.818798 0.84703,-0.847033 0.84703,-2.061114 l 0,-7.990345 q 0,-1.21408 -0.84703,-2.032879 z"
         style="font-style:normal;font-variant:normal;font-weight:500;font-stretch:condensed;line-height:75%;font-family:OSP-DIN;-inkscape-font-specification:'OSP-DIN Medium Condensed';fill:#02002f;fill-opacity:0.94117647"
         id="path15474"
         inkscape:connector-curvature="0" />
      <path
         d="m -1.2297183e-5,72.280281 0,2.908147 q 0,3.585773 2.541098997183,6.126872 2.5693334,2.541099 6.1551065,2.541099 3.5857728,0 6.1268718,-2.541099 2.541099,-2.541099 2.541099,-6.126872 l 0,-5.788059 q 0,-3.303429 -2.202286,-5.788059 -2.597567,-2.879912 -6.4656848,-2.879912 -1.2140807,0 -2.0611137,-0.847033 -0.847033,-0.847033 -0.847033,-2.061114 l 0,-5.759824 q 0,-1.214081 0.847033,-2.061114 0.847033,-0.847033 2.0611137,-0.847033 1.2140806,0 2.0328788,0.847033 0.847033,0.847033 0.847033,2.061114 l 0,2.879912 5.251605,0 0.536454,0 0,-2.879912 q 0,-3.585773 -2.541099,-6.126872 -2.541099,-2.569334 -6.1268718,-2.569334 -3.5857731,0 -6.1551065,2.569334 -2.541098997183,2.541099 -2.541098997183,6.126872 l 0,5.759824 q 0,3.303429 2.202285797183,5.788059 2.5975679,2.879912 6.4939197,2.908147 1.2140806,0 2.0328788,0.847033 0.847033,0.818798 0.847033,2.032879 l 0,5.788059 q 0,1.21408 -0.847033,2.061113 -0.8187982,0.818799 -2.0328788,0.818799 -1.2140807,0 -2.0611137,-0.818799 -0.847033,-0.847033 -0.847033,-2.061113 l 0,-2.908147 -5.788058797183,0 z"
         style="fill:#02002f;fill-opacity:0.94117647"
         id="path15476"
         inkscape:connector-curvature="0" />
      <path
         d="m 21.712268,83.856399 0,-40.488178 17.364176,0 0,5.788059 -11.576117,0 0,11.576118 8.667971,0 0,5.788059 -8.667971,0 0,11.547883 11.576117,0 0,5.788059 -17.364176,0 z"
         style="fill:#02002f;fill-opacity:0.94117647"
         id="path15478"
         inkscape:connector-curvature="0" />
      <path
         d="m 40.826981,43.368221 7.228015,40.544647 5.816293,0 7.228015,-40.544647 -5.816293,0 0,0.05647 -4.348103,23.660455 -4.291634,-23.660455 0,-0.05647 -5.816293,0 z"
         style="fill:#02002f;fill-opacity:0.94117647"
         id="path15480"
         inkscape:connector-curvature="0" />
      <path
         d="m 70.586073,83.856399 -5.788059,0 0,-40.488178 5.788059,0 0,40.488178 z"
         style="fill:#02002f;fill-opacity:0.94117647"
         id="path15482"
         inkscape:connector-curvature="0" />
      <path
         d="m 76.261191,83.856399 0,-40.488178 5.788059,0 0,34.700119 11.576118,0 0,5.788059 -17.364177,0 z"
         style="fill:#02002f;fill-opacity:0.94117647"
         id="path15484"
         inkscape:connector-curvature="0" />
      <path
         d="m 97.380546,83.856399 0,-40.488178 5.788054,0 0,34.700119 11.57612,0 0,5.788059 -17.364174,0 z"
         style="fill:#02002f;fill-opacity:0.94117647"
         id="path15486"
         inkscape:connector-curvature="0" />
      <path
         d="m 118.49991,83.856399 0,-40.488178 17.36417,0 0,5.788059 -11.57611,0 0,11.576118 8.66797,0 0,5.788059 -8.66797,0 0,11.547883 11.57611,0 0,5.788059 -17.36417,0 z"
         style="fill:#02002f;fill-opacity:0.94117647"
         id="path15488"
         inkscape:connector-curvature="0" />
      <path
         d="m 139.28044,78.06834 5.78806,0 0,5.788059 -5.78806,5.788058 0,-11.576117 z"
         style="font-style:normal;font-variant:normal;font-weight:500;font-stretch:condensed;line-height:75%;font-family:OSP-DIN;-inkscape-font-specification:'OSP-DIN Medium Condensed';fill:#02002f;fill-opacity:0.94117647"
         id="path15490"
         inkscape:connector-curvature="0" />
      <path
         d="m 162.71503,45.937555 q 2.5411,-2.569334 6.12688,-2.569334 3.58577,0 6.12687,2.569334 2.5411,2.541099 2.5411,6.126872 0,1.919941 -0.76233,3.585773 l -10.10793,22.41814 10.87026,0 0,5.788059 -17.33594,0 0,-5.788059 10.87025,-23.773393 q 0.70586,-1.665832 0.67763,-2.23052 0,-1.214081 -0.84703,-2.061114 -0.8188,-0.847033 -2.03288,-0.847033 -1.21408,0 -2.06112,0.847033 -0.84703,0.847033 -0.84703,2.061114 l -5.75982,0 q 0,-3.585773 2.54109,-6.126872 z"
         style="font-style:normal;font-variant:normal;font-weight:500;font-stretch:condensed;line-height:75%;font-family:OSP-DIN;-inkscape-font-specification:'OSP-DIN Medium Condensed';fill:#02002f;fill-opacity:0.94117647"
         id="path15492"
         inkscape:connector-curvature="0" />
      <path
         d="m 183.94732,45.937555 q 2.5411,-2.569334 6.12687,-2.569334 3.58577,0 6.12687,2.569334 2.5411,2.541099 2.5411,6.126872 l 0,2.879912 -5.78806,0 0,-2.879912 q 0,-1.214081 -0.84703,-2.061114 -0.8188,-0.847033 -2.03288,-0.847033 -1.21408,0 -2.06111,0.847033 -0.84704,0.847033 -0.84704,2.061114 l 0,6.296278 q 1.38349,-0.50822 2.90815,-0.536454 3.58577,0 6.12687,2.569334 2.5411,2.541099 2.5411,6.126872 l 0,8.667971 q 0,3.585773 -2.5411,6.126872 -2.5411,2.541099 -6.12687,2.541099 -3.58577,0 -6.12687,-2.541099 -2.5411,-2.541099 -2.5411,-6.126872 l 0,-8.667971 0,-14.45603 q 0,-3.585773 2.5411,-6.126872 z m 8.15975,18.521788 q -0.8188,-0.847033 -2.03288,-0.847033 -1.21408,0 -2.06111,0.847033 -0.84704,0.847033 -0.84704,2.061114 l 0,8.667971 q 0,1.21408 0.84704,2.061113 0.84703,0.818799 2.06111,0.818799 1.21408,0 2.03288,-0.818799 0.84703,-0.847033 0.84703,-2.061113 l 0,-8.667971 q 0,-1.214081 -0.84703,-2.061114 z"
         style="font-style:normal;font-variant:normal;font-weight:500;font-stretch:condensed;line-height:75%;font-family:OSP-DIN;-inkscape-font-specification:'OSP-DIN Medium Condensed';fill:#02002f;fill-opacity:0.94117647"
         id="path15494"
         inkscape:connector-curvature="0" />
      <path
         d="m 203.20321,63.273497 13.89134,0 0,4.630447 -13.89134,0 0,-4.630447 z"
         style="font-style:normal;font-variant:normal;font-weight:500;font-stretch:condensed;line-height:75%;font-family:OSP-DIN;-inkscape-font-specification:'OSP-DIN Medium Condensed';fill:#02002f;fill-opacity:0.94117647"
         id="path15496"
         inkscape:connector-curvature="0" />
      <path
         d="m 224.15316,45.937555 q 2.5411,-2.569334 6.12687,-2.569334 3.58578,0 6.12687,2.569334 2.5411,2.541099 2.5411,6.126872 l 0,5.759824 q 0,3.303429 -2.20228,5.788059 2.20228,2.48463 2.20228,5.788059 l 0,5.788059 q 0,3.585773 -2.5411,6.126872 -2.54109,2.541099 -6.12687,2.541099 -3.58577,0 -6.12687,-2.541099 -2.5411,-2.541099 -2.5411,-6.126872 l 0,-2.908147 5.75983,0 0,2.908147 q 0,1.21408 0.84703,2.061113 0.84703,0.818799 2.06111,0.818799 1.21408,0 2.03288,-0.818799 0.84703,-0.847033 0.84703,-2.061113 l 0,-5.788059 q 0,-1.214081 -0.84703,-2.032879 -0.8188,-0.847033 -2.03288,-0.847033 l 0,-5.788059 q 1.21408,0 2.03288,-0.847033 0.84703,-0.847033 0.84703,-2.061114 l 0,-5.759824 q 0,-1.214081 -0.84703,-2.061114 -0.8188,-0.847033 -2.03288,-0.847033 -1.21408,0 -2.06111,0.847033 -0.84703,0.847033 -0.84703,2.061114 l 0,2.879912 -5.75983,0 0,-2.879912 q 0,-3.585773 2.5411,-6.126872 z"
         style="font-style:normal;font-variant:normal;font-weight:500;font-stretch:condensed;line-height:75%;font-family:OSP-DIN;-inkscape-font-specification:'OSP-DIN Medium Condensed';fill:#02002f;fill-opacity:0.94117647"
         id="path15498"
         inkscape:connector-curvature="0" />
      <path
         d="m 245.38544,45.937555 q 2.5411,-2.569334 6.12688,-2.569334 3.58577,0 6.12687,2.569334 2.5411,2.541099 2.5411,6.126872 l 0,23.124001 q 0,3.585773 -2.5411,6.126872 -2.5411,2.541099 -6.12687,2.541099 -3.58578,0 -6.12688,-2.541099 -2.54109,-2.541099 -2.54109,-6.126872 l 0,-23.124001 q 0,-3.585773 2.54109,-6.126872 z m 8.15976,4.065758 q -0.8188,-0.847033 -2.03288,-0.847033 -1.21408,0 -2.06112,0.847033 -0.84703,0.847033 -0.84703,2.061114 l 0,23.124001 q 0,1.21408 0.84703,2.061113 0.84704,0.818799 2.06112,0.818799 1.21408,0 2.03288,-0.818799 0.84703,-0.847033 0.84703,-2.061113 l 0,-23.124001 q 0,-1.214081 -0.84703,-2.061114 z"
         style="font-style:normal;font-variant:normal;font-weight:500;font-stretch:condensed;line-height:75%;font-family:OSP-DIN;-inkscape-font-specification:'OSP-DIN Medium Condensed';fill:#02002f;fill-opacity:0.94117647"
         id="path15500"
         inkscape:connector-curvature="0" />
      <path
         d="m 281.61022,43.368221 5.73159,0 8.66797,40.488178 -5.73158,0 -1.72231,-8.667971 -8.15975,-0.05647 -1.7223,8.72444 -5.73159,0 8.66797,-40.488178 z m 2.85168,11.576118 -2.90814,14.512499 5.84452,0 -2.87991,-14.512499 q 0,0 -0.0565,0 z"
         style="font-style:normal;font-variant:normal;font-weight:500;font-stretch:condensed;line-height:75%;font-family:OSP-DIN;-inkscape-font-specification:'OSP-DIN Medium Condensed';fill:#02002f;fill-opacity:0.94117647"
         id="path15502"
         inkscape:connector-curvature="0" />
      <path
         d="m 298.86146,43.42469 11.57611,0 q 2.3717,0 4.03753,1.694066 1.69406,1.665832 1.69406,4.093993 l 0,11.576118 q 0,2.371692 -1.69406,4.065758 -1.66583,1.665832 -4.03753,1.665832 l -5.84452,0 0,17.335942 -5.73159,0 0,-40.431709 z m 5.73159,5.73159 0,11.632587 3.64224,0 q 0.93174,0 1.55289,-0.621158 0.64939,-0.649392 0.64939,-1.581128 l 0,-7.228015 q 0,-0.931736 -0.64939,-1.552894 -0.62115,-0.649392 -1.55289,-0.649392 l -3.64224,0 z"
         style="font-style:normal;font-variant:normal;font-weight:500;font-stretch:condensed;line-height:75%;font-family:OSP-DIN;-inkscape-font-specification:'OSP-DIN Medium Condensed';fill:#02002f;fill-opacity:0.94117647"
         id="path15504"
         inkscape:connector-curvature="0" />
      <path
         d="m 320.54551,43.42469 11.57612,0.05647 q 2.37169,0 4.03752,1.694066 1.69407,1.665831 1.69407,4.037524 l 0,11.576118 q 0,3.303428 -2.85168,4.96926 l 0,0 2.85168,18.098272 -5.73159,0 -2.87992,-17.335942 -2.96461,0 0,17.335942 -5.73159,0 0,-40.431709 z m 5.73159,5.73159 0,11.689055 3.64224,0 q 0.93174,0 1.55289,-0.649392 0.6494,-0.677626 0.6494,-1.552893 l 0,-7.228015 q 0,-0.931737 -0.6494,-1.581129 -0.62115,-0.677626 -1.55289,-0.677626 l -3.64224,0 z"
         style="font-style:normal;font-variant:normal;font-weight:500;font-stretch:condensed;line-height:75%;font-family:OSP-DIN;-inkscape-font-specification:'OSP-DIN Medium Condensed';fill:#02002f;fill-opacity:0.94117647"
         id="path15506"
         inkscape:connector-curvature="0" />
      <path
         d="m 348.75172,83.856399 -5.78806,0 0,-40.488178 5.78806,0 0,40.488178 z"
         style="font-style:normal;font-variant:normal;font-weight:500;font-stretch:condensed;line-height:75%;font-family:OSP-DIN;-inkscape-font-specification:'OSP-DIN Medium Condensed';fill:#02002f;fill-opacity:0.94117647"
         id="path15508"
         inkscape:connector-curvature="0" />
      <path
         d="m 354.42683,83.856399 0,-40.488178 5.78805,0 0,34.700119 11.57612,0 0,5.788059 -17.36417,0 z"
         style="font-style:normal;font-variant:normal;font-weight:500;font-stretch:condensed;line-height:75%;font-family:OSP-DIN;-inkscape-font-specification:'OSP-DIN Medium Condensed';fill:#02002f;fill-opacity:0.94117647"
         id="path15510"
         inkscape:connector-curvature="0" />
    </g>
  </g>
</svg>
