<?xml version="1.0" encoding="UTF-8" standalone="no"?>
<!-- Created with Inkscape (http://www.inkscape.org/) -->

<svg
   xmlns:dc="http://purl.org/dc/elements/1.1/"
   xmlns:cc="http://creativecommons.org/ns#"
   xmlns:rdf="http://www.w3.org/1999/02/22-rdf-syntax-ns#"
   xmlns:svg="http://www.w3.org/2000/svg"
   xmlns="http://www.w3.org/2000/svg"
   xmlns:sodipodi="http://sodipodi.sourceforge.net/DTD/sodipodi-0.dtd"
   xmlns:inkscape="http://www.inkscape.org/namespaces/inkscape"
   id="svg2"
   version="1.1"
   inkscape:version="0.47pre4 r22446"
   width="262.99999"
   height="372.99999"
   xml:space="preserve"
   sodipodi:docname="LGM_flyer01.svg"><metadata
     id="metadata8"><rdf:RDF><cc:Work
         rdf:about=""><dc:format>image/svg+xml</dc:format><dc:type
           rdf:resource="http://purl.org/dc/dcmitype/StillImage" /><dc:title /></cc:Work></rdf:RDF></metadata><defs
     id="defs6"><inkscape:perspective
       sodipodi:type="inkscape:persp3d"
       inkscape:vp_x="0 : 0.5 : 1"
       inkscape:vp_y="0 : 1000 : 0"
       inkscape:vp_z="1 : 0.5 : 1"
       inkscape:persp3d-origin="0.5 : 0.33333333 : 1"
       id="perspective10" /></defs><sodipodi:namedview
     pagecolor="#ffffff"
     bordercolor="#666666"
     borderopacity="1"
     objecttolerance="10"
     gridtolerance="10"
     guidetolerance="10"
     inkscape:pageopacity="0"
     inkscape:pageshadow="2"
     inkscape:window-width="1280"
     inkscape:window-height="727"
     id="namedview4"
     showgrid="false"
     inkscape:zoom="1.3672922"
     inkscape:cx="232.42941"
     inkscape:cy="231.8451"
     inkscape:window-x="0"
     inkscape:window-y="25"
     inkscape:window-maximized="1"
     inkscape:current-layer="g12" /><g
     id="g12"
     inkscape:groupmode="layer"
     inkscape:label="LGM_flyer01"
     transform="matrix(1.25,0,0,-1.25,0,372.99999)"><g
       id="g14"><path
         d="M 82.035,250.459 24.664,234.111 37.641,188.587 c 0.035,-0.152 0.07,-0.3 0.105,-0.449 0.223,-0.922 0.418,-1.847 0.621,-2.773 0.809,-3.692 1.477,-7.41 1.899,-11.164 0.41,-3.668 0.586,-7.391 0.172,-11.055 -0.098,-0.875 -0.219,-1.781 0.019,-2.625 0.121,-0.426 0.34,-0.812 0.664,-1.109 0.32,-0.301 0.754,-0.504 1.195,-0.492 0.446,0.011 0.868,0.246 1.172,0.574 0.305,0.332 0.496,0.758 0.578,1.195 0.164,0.883 -0.07,1.777 -0.277,2.648 -0.453,1.899 -0.812,3.833 -0.832,5.786 -0.012,0.988 0.082,1.992 0.359,2.945 0.282,0.949 0.766,1.844 1.496,2.516 0.551,0.507 1.258,0.89 2.008,0.898 0.7,0.008 1.379,-0.32 1.875,-0.812 0.5,-0.489 0.813,-1.137 0.985,-1.813 0.336,-1.359 0.086,-2.777 -0.11,-4.164 -0.093,-0.695 -0.172,-1.43 0.067,-2.09 0.117,-0.332 0.32,-0.641 0.597,-0.855 0.278,-0.215 0.633,-0.321 0.981,-0.278 0.336,0.043 0.637,0.231 0.855,0.492 0.215,0.262 0.352,0.583 0.407,0.918 0.101,0.668 -0.079,1.352 -0.258,2.008 -0.387,1.399 -0.766,2.817 -0.746,4.266 0.015,1.355 0.375,2.711 1.086,3.863 1.113,1.801 2.996,3.008 4.972,3.758 1.981,0.746 4.09,1.086 6.168,1.473 8.602,1.601 16.981,4.308 24.887,8.047 l 3.629,-12.743 47.508,13.551 3.629,-12.742 40.148,11.441 -11.441,40.125 -38.993,-11.121 -6.062,21.281 -38.867,-11.078 -6.102,21.45 z"
         style="fill:#1a4dff;fill-opacity:1;fill-rule:nonzero;stroke:none"
         id="path16" /><path
         d="m 34.445,228.084 2.731,-14.575 -2.664,-0.5 0.476,-2.554 8.492,1.59 -0.48,2.554 -2.703,-0.508 -1.402,7.672 c -0.457,2.582 -0.262,4.434 0.593,5.555 0.875,1.125 2.364,1.906 4.457,2.352 l -0.597,3.195 c -0.543,-0.024 -0.95,-0.063 -1.227,-0.113 -1,-0.188 -1.867,-0.688 -2.594,-1.5 -0.711,-0.782 -1.375,-1.997 -2,-3.641 l -0.672,3.57 -5.558,-1.043 0.48,-2.554 2.668,0.5"
         style="fill:#000000;fill-opacity:1;fill-rule:nonzero;stroke:none"
         id="path18" /><path
         d="m 64.766,225.138 -14.5,-2.718 c 0.363,-1.801 0.976,-3.137 1.839,-4.012 1.399,-1.5 3.133,-2.055 5.215,-1.668 2.551,0.48 4.02,2.117 4.407,4.91 l 3.152,0.594 c 0.004,-2.231 -0.621,-4.082 -1.871,-5.563 -1.254,-1.48 -3.004,-2.429 -5.258,-2.851 -2.758,-0.52 -5.109,0 -7.059,1.55 -1.957,1.579 -3.234,3.985 -3.839,7.215 -0.61,3.231 -0.278,5.961 0.988,8.196 1.285,2.261 3.293,3.648 6.023,4.16 1.856,0.347 3.571,0.191 5.145,-0.473 1.601,-0.66 2.863,-1.73 3.793,-3.215 0.781,-1.281 1.437,-3.32 1.965,-6.125 m -14.903,-0.152 11.043,2.07 c 0.016,0.055 0.012,0.133 -0.004,0.235 -0.308,1.629 -1.09,2.894 -2.347,3.796 -1.262,0.93 -2.66,1.254 -4.188,0.965 -1.574,-0.297 -2.773,-1.09 -3.594,-2.382 -0.824,-1.27 -1.128,-2.833 -0.91,-4.684"
         style="fill:#000000;fill-opacity:1;fill-rule:nonzero;stroke:none"
         id="path20" /><path
         d="m 79.59,238.068 c -1.68,0.797 -3.485,1.031 -5.418,0.695 -2.656,-0.5 -4.602,-1.875 -5.836,-4.129 -1.211,-2.25 -1.512,-5 -0.902,-8.257 0.597,-3.18 1.847,-5.563 3.754,-7.149 1.925,-1.558 4.226,-2.086 6.906,-1.582 2.355,0.441 4.109,1.457 5.261,3.047 1.149,1.613 1.598,3.644 1.348,6.086 l -3.156,-0.594 c 0.066,-3.254 -1.242,-5.133 -3.922,-5.633 -1.727,-0.324 -3.203,0.086 -4.43,1.227 -1.226,1.144 -2.054,2.883 -2.492,5.211 -0.461,2.453 -0.344,4.461 0.348,6.015 0.715,1.586 1.922,2.54 3.625,2.856 1.304,0.246 2.426,0.066 3.367,-0.535 0.937,-0.574 1.637,-1.531 2.094,-2.871 l 3.156,0.59 -1.367,7.289 -2.668,-0.5 0.332,-1.766"
         style="fill:#000000;fill-opacity:1;fill-rule:nonzero;stroke:none"
         id="path22" /><path
         d="m 87.398,245.986 4.176,-22.274 -2.664,-0.5 0.477,-2.554 8.492,1.59 -0.481,2.554 -2.668,-0.5 -4.656,24.828 -5.82,-1.089 0.476,-2.555 2.668,0.5"
         style="fill:#000000;fill-opacity:1;fill-rule:nonzero;stroke:none"
         id="path24" /><path
         d="m 121.223,229.271 0.48,-2.555 -5.41,-1.011 -0.484,2.59 c -0.621,-1.387 -1.383,-2.438 -2.289,-3.149 -0.872,-0.734 -1.985,-1.23 -3.336,-1.484 -2.657,-0.496 -4.926,0.062 -6.809,1.679 -1.891,1.641 -3.148,4.129 -3.773,7.457 -0.586,3.133 -0.293,5.778 0.882,7.946 1.196,2.191 3.071,3.527 5.625,4.008 2.707,0.507 4.911,-0.129 6.621,-1.907 l -0.472,2.516 3.117,0.586 3.219,-17.168 2.629,0.492 m -14.035,12.649 c -1.704,-0.317 -2.95,-1.278 -3.739,-2.879 -0.789,-1.598 -0.969,-3.536 -0.543,-5.817 0.434,-2.304 1.305,-4.058 2.621,-5.262 1.309,-1.179 2.828,-1.609 4.555,-1.285 1.656,0.309 2.852,1.246 3.598,2.813 0.742,1.566 0.898,3.488 0.472,5.765 -0.441,2.356 -1.293,4.125 -2.554,5.317 -1.262,1.215 -2.735,1.664 -4.41,1.348"
         style="fill:#000000;fill-opacity:1;fill-rule:nonzero;stroke:none"
         id="path26" /><path
         d="m 127.156,256.087 0.742,-3.945 -3.156,-0.59 -0.738,3.946 3.152,0.589 m -1.152,-11.066 2.734,-14.574 -2.668,-0.5 0.481,-2.551 8.453,1.582 -0.481,2.555 -2.668,-0.5 -3.21,17.129 -5.786,-1.086 0.481,-2.555 2.664,0.5"
         style="fill:#000000;fill-opacity:1;fill-rule:nonzero;stroke:none"
         id="path28" /><path
         d="m 157.066,235.994 -1.839,9.804 c -0.266,1.43 -0.043,2.727 0.671,3.899 0.711,1.172 1.707,1.875 2.985,2.113 1.152,0.219 2.105,0.035 2.863,-0.551 0.777,-0.554 1.285,-1.457 1.52,-2.707 l 2.543,-13.562 5.824,1.094 -0.481,2.554 -2.668,-0.5 -2.289,12.207 c -0.332,1.778 -1.086,3.035 -2.261,3.774 -1.157,0.769 -2.649,0.98 -4.477,0.64 -1.301,-0.246 -2.359,-0.675 -3.18,-1.297 -0.816,-0.621 -1.582,-1.566 -2.304,-2.843 -1.477,1.797 -3.43,2.468 -5.86,2.011 -1.301,-0.246 -2.379,-0.718 -3.23,-1.421 -0.828,-0.7 -1.559,-1.719 -2.188,-3.055 l -0.523,2.777 -5.559,-1.043 0.481,-2.551 2.664,0.5 2.734,-14.574 -2.668,-0.5 0.481,-2.554 8.488,1.589 -0.477,2.555 -2.668,-0.5 -1.839,9.805 c -0.266,1.426 -0.043,2.726 0.668,3.898 0.714,1.168 1.711,1.875 2.988,2.114 1.152,0.214 2.105,0.031 2.863,-0.551 0.777,-0.555 1.285,-1.457 1.52,-2.711 l 2.543,-13.559 5.82,1.094 -0.477,2.551 -2.668,-0.5"
         style="fill:#000000;fill-opacity:1;fill-rule:nonzero;stroke:none"
         id="path30" /><path
         d="m 54.707,196.888 -0.477,2.555 5.747,1.078 7.906,-14.383 2.152,13.625 -1.765,-0.332 -0.481,2.555 6.047,1.133 -4.285,-25.453 c -0.52,-2.899 -1.953,-4.567 -4.309,-5.008 -0.777,-0.149 -1.508,-0.117 -2.195,0.094 l -0.527,2.816 c 0.703,-0.023 1.269,0.004 1.695,0.082 0.648,0.125 1.133,0.371 1.453,0.742 0.324,0.344 0.559,0.895 0.703,1.649 l 0.617,3.339 -9.011,16.122 -3.27,-0.614"
         style="fill:#000000;fill-opacity:1;fill-rule:nonzero;stroke:none"
         id="path32" /><path
         d="m 84.043,205.619 c 2.828,0.527 5.195,0 7.102,-1.586 1.921,-1.559 3.207,-4.039 3.843,-7.446 0.606,-3.23 0.282,-5.921 -0.972,-8.074 -1.231,-2.148 -3.223,-3.484 -5.977,-4 -2.805,-0.523 -5.172,-0.008 -7.094,1.547 -1.906,1.586 -3.168,4.035 -3.789,7.34 -0.621,3.305 -0.316,6.031 0.914,8.18 1.227,2.175 3.215,3.519 5.973,4.039 m 0.578,-2.887 c -1.754,-0.328 -3,-1.277 -3.746,-2.84 -0.746,-1.543 -0.898,-3.5 -0.449,-5.879 0.445,-2.379 1.297,-4.164 2.558,-5.351 1.254,-1.168 2.758,-1.586 4.512,-1.254 1.727,0.324 2.965,1.254 3.715,2.793 0.766,1.57 0.934,3.508 0.504,5.812 -0.457,2.43 -1.313,4.239 -2.574,5.426 -1.235,1.195 -2.743,1.625 -4.52,1.293"
         style="fill:#000000;fill-opacity:1;fill-rule:nonzero;stroke:none"
         id="path34" /><path
         d="m 100.426,205.462 2.367,-12.621 c 0.305,-1.629 1.113,-2.824 2.422,-3.589 1.336,-0.758 2.957,-0.961 4.859,-0.606 1.453,0.274 2.629,0.777 3.528,1.52 0.898,0.738 1.687,1.843 2.371,3.32 l 0.511,-2.742 5.485,1.027 -0.477,2.555 -2.668,-0.5 -3.215,17.129 -5.785,-1.086 0.481,-2.555 2.668,0.504 1.613,-8.606 c 0.375,-2 0.191,-3.707 -0.555,-5.117 -0.754,-1.386 -1.941,-2.23 -3.57,-2.535 -1.254,-0.238 -2.309,-0.07 -3.164,0.492 -0.859,0.567 -1.399,1.438 -1.617,2.614 l -2.614,13.937 -5.785,-1.086 0.477,-2.555 2.668,0.5"
         style="fill:#000000;fill-opacity:1;fill-rule:nonzero;stroke:none"
         id="path36" /><path
         d="m 126.766,210.404 2.734,-14.574 -2.664,-0.5 0.476,-2.555 8.489,1.594 -0.477,2.554 -2.707,-0.507 -1.398,7.668 c -0.457,2.586 -0.262,4.437 0.59,5.554 0.879,1.125 2.367,1.91 4.461,2.352 l -0.602,3.195 c -0.539,-0.023 -0.945,-0.062 -1.223,-0.113 -1,-0.188 -1.867,-0.688 -2.593,-1.5 -0.711,-0.781 -1.379,-1.992 -2,-3.641 l -0.672,3.571 -5.559,-1.043 0.481,-2.555 2.664,0.5"
         style="fill:#000000;fill-opacity:1;fill-rule:nonzero;stroke:none"
         id="path38" /><path
         d="m 92.598,171.642 0.48,-2.555 -3.23,-0.605 2.531,-13.484 c 0.129,-0.7 0.332,-1.157 0.605,-1.364 0.293,-0.179 0.778,-0.203 1.454,-0.078 0.624,0.117 1.117,0.262 1.472,0.434 l 0.492,-2.629 c -0.941,-0.359 -1.777,-0.606 -2.504,-0.742 -1.226,-0.231 -2.218,-0.133 -2.972,0.297 -0.75,0.402 -1.219,1.105 -1.406,2.109 l -2.79,14.875 -2.668,-0.5 -0.476,2.551 2.664,0.504 -1.012,5.406 3.117,0.586 1.012,-5.41 3.231,0.605"
         style="fill:#000000;fill-opacity:1;fill-rule:nonzero;stroke:none"
         id="path40" /><path
         d="m 103.148,174.205 c 2.829,0.531 5.196,0.004 7.102,-1.582 1.926,-1.559 3.207,-4.039 3.844,-7.446 0.605,-3.23 0.281,-5.922 -0.973,-8.078 -1.23,-2.148 -3.223,-3.48 -5.976,-3.996 -2.805,-0.527 -5.168,-0.012 -7.094,1.547 -1.906,1.586 -3.168,4.031 -3.789,7.336 -0.621,3.309 -0.313,6.035 0.914,8.184 1.226,2.171 3.219,3.519 5.972,4.035 m 0.579,-2.883 c -1.754,-0.332 -3,-1.277 -3.743,-2.844 -0.75,-1.539 -0.898,-3.5 -0.453,-5.879 0.446,-2.379 1.297,-4.16 2.559,-5.351 1.254,-1.164 2.758,-1.582 4.512,-1.254 1.726,0.324 2.964,1.258 3.714,2.797 0.77,1.57 0.938,3.507 0.504,5.812 -0.457,2.426 -1.312,4.238 -2.574,5.426 -1.234,1.195 -2.742,1.625 -4.519,1.293"
         style="fill:#000000;fill-opacity:1;fill-rule:nonzero;stroke:none"
         id="path42" /><path
         d="m 124.055,178.127 c 2.832,0.531 5.199,0.003 7.101,-1.582 1.926,-1.559 3.207,-4.04 3.848,-7.446 0.605,-3.23 0.281,-5.922 -0.973,-8.078 -1.23,-2.148 -3.222,-3.48 -5.976,-3.996 -2.805,-0.527 -5.172,-0.012 -7.098,1.547 -1.902,1.586 -3.164,4.031 -3.785,7.336 -0.621,3.308 -0.317,6.035 0.914,8.183 1.226,2.172 3.215,3.52 5.969,4.036 m 0.582,-2.887 c -1.754,-0.328 -3,-1.274 -3.746,-2.84 -0.746,-1.539 -0.899,-3.5 -0.453,-5.879 0.449,-2.379 1.3,-4.16 2.562,-5.351 1.254,-1.165 2.758,-1.583 4.512,-1.254 1.726,0.324 2.965,1.257 3.711,2.796 0.769,1.571 0.937,3.508 0.507,5.813 -0.457,2.426 -1.316,4.238 -2.574,5.426 -1.234,1.195 -2.742,1.625 -4.519,1.289"
         style="fill:#000000;fill-opacity:1;fill-rule:nonzero;stroke:none"
         id="path44" /><path
         d="m 139.109,185.693 4.18,-22.273 -2.668,-0.5 0.481,-2.555 8.488,1.594 -0.481,2.554 -2.668,-0.5 -4.656,24.828 -5.82,-1.093 0.476,-2.555 2.668,0.5"
         style="fill:#000000;fill-opacity:1;fill-rule:nonzero;stroke:none"
         id="path46" /><path
         d="m 155.676,169.166 c 0.371,-1.149 0.945,-2.012 1.73,-2.594 0.801,-0.547 2.067,-0.66 3.797,-0.336 1.375,0.258 2.426,0.738 3.149,1.445 0.742,0.735 1.027,1.567 0.855,2.492 -0.137,0.727 -0.484,1.258 -1.039,1.598 -0.555,0.336 -1.395,0.527 -2.52,0.574 l -3.062,0.164 c -2.434,0.118 -4.191,0.5 -5.27,1.153 -1.062,0.679 -1.738,1.797 -2.031,3.351 -0.34,1.828 0.074,3.41 1.25,4.746 1.172,1.36 2.895,2.254 5.176,2.68 2.277,0.426 4.129,0.231 5.555,-0.59 1.422,-0.824 2.328,-2.195 2.714,-4.117 l -3.304,-0.621 c -0.469,2.09 -1.985,2.894 -4.535,2.414 -1.278,-0.238 -2.243,-0.703 -2.891,-1.395 -0.652,-0.668 -0.895,-1.453 -0.723,-2.355 0.129,-0.699 0.528,-1.223 1.188,-1.566 0.656,-0.317 1.648,-0.504 2.984,-0.567 l 3.137,-0.148 c 2.043,-0.11 3.586,-0.524 4.625,-1.235 1.035,-0.687 1.691,-1.757 1.965,-3.207 0.355,-1.906 -0.098,-3.558 -1.364,-4.961 -1.242,-1.402 -3.101,-2.332 -5.582,-2.796 -5.082,-0.954 -8.121,0.796 -9.109,5.25 l 3.305,0.621"
         style="fill:#000000;fill-opacity:1;fill-rule:nonzero;stroke:none"
         id="path48" /><path
         d="m 34.609,87.853 -0.011,14.734 2.105,0 0.012,-12.628 4.207,0.003 0.004,-2.105 -6.317,-0.004"
         style="fill:#1a4dff;fill-opacity:1;fill-rule:nonzero;stroke:none"
         id="path50" /><path
         d="m 44.465,87.861 -2.106,0 -0.011,14.734 2.105,0 0.012,-14.734"
         style="fill:#1a4dff;fill-opacity:1;fill-rule:nonzero;stroke:none"
         id="path52" /><path
         d="m 46.52,102.576 4.21,0.004 c 0.575,0 1.067,-0.203 1.473,-0.61 0.406,-0.406 0.613,-0.902 0.613,-1.492 l 0.004,-4.465 c 0,-0.211 -0.078,-0.39 -0.23,-0.547 -0.156,-0.152 -0.34,-0.23 -0.547,-0.23 l 0,-0.024 c 0.207,0 0.391,-0.074 0.547,-0.23 0.152,-0.152 0.23,-0.336 0.23,-0.547 l 0.004,-4.484 c 0,-0.574 -0.203,-1.067 -0.609,-1.473 -0.406,-0.406 -0.899,-0.609 -1.473,-0.613 l -4.211,-0.004 -0.011,14.715 m 2.085,-2.082 0.004,-4.231 1.325,0 c 0.226,0 0.414,0.078 0.57,0.235 0.152,0.152 0.23,0.343 0.23,0.566 l -0.004,2.633 c 0,0.223 -0.074,0.414 -0.23,0.566 -0.156,0.157 -0.344,0.231 -0.57,0.231 l -1.325,0 m 0.004,-6.313 0.004,-4.234 1.328,0.004 c 0.223,0 0.414,0.074 0.567,0.23 0.156,0.156 0.23,0.344 0.23,0.571 l 0,2.628 c 0,0.227 -0.078,0.415 -0.234,0.571 -0.152,0.152 -0.344,0.23 -0.566,0.23 l -1.329,0"
         style="fill:#1a4dff;fill-opacity:1;fill-rule:nonzero;stroke:none"
         id="path54" /><path
         d="m 54.824,102.584 4.211,-0.016 c 0.574,0 1.067,-0.203 1.473,-0.609 0.406,-0.407 0.613,-0.899 0.613,-1.473 l 0.004,-4.211 c 0,-0.801 -0.344,-1.402 -1.031,-1.813 l 0,0 1.039,-6.585 -2.086,-0.004 -1.059,6.316 -1.074,0 0.008,-6.316 -2.086,0 -0.012,14.711 m 2.086,-2.082 0.004,-4.25 1.324,0 c 0.227,0 0.414,0.078 0.571,0.234 0.152,0.168 0.23,0.355 0.23,0.566 l -0.004,2.633 c 0,0.223 -0.074,0.414 -0.23,0.567 -0.157,0.168 -0.344,0.253 -0.571,0.253 l -1.324,-0.003"
         style="fill:#1a4dff;fill-opacity:1;fill-rule:nonzero;stroke:none"
         id="path56" /><path
         d="m 62.938,87.877 -0.016,14.734 6.316,0.008 0.004,-2.106 -4.211,-0.004 0.004,-4.211 3.156,0.004 0.004,-2.105 -3.16,-0.004 0.004,-4.207 4.211,0.004 0,-2.106 -6.312,-0.007"
         style="fill:#1a4dff;fill-opacity:1;fill-rule:nonzero;stroke:none"
         id="path58" /><path
         d="m 75.316,101.697 c 0.618,0.617 1.364,0.93 2.231,0.93 0.871,0 1.617,-0.309 2.234,-0.926 0.617,-0.617 0.926,-1.36 0.926,-2.231 l -2.102,0 c 0,0.293 -0.105,0.539 -0.316,0.735 -0.199,0.211 -0.445,0.316 -0.738,0.316 -0.297,0 -0.547,-0.105 -0.758,-0.316 C 76.598,100.009 76.5,99.763 76.5,99.466 l 0.008,-8.418 c 0,-0.296 0.097,-0.546 0.293,-0.757 0.211,-0.196 0.465,-0.297 0.758,-0.293 0.296,0 0.543,0.097 0.738,0.293 0.211,0.211 0.316,0.464 0.316,0.757 l -0.004,3.161 -1.054,-0.004 0,2.105 3.156,0.004 0.004,-5.262 c 0.004,-0.871 -0.305,-1.613 -0.922,-2.234 -0.617,-0.617 -1.359,-0.926 -2.231,-0.926 -0.871,0 -1.613,0.305 -2.234,0.922 -0.617,0.617 -0.926,1.363 -0.926,2.231 l -0.007,8.421 c 0,0.871 0.304,1.614 0.921,2.231"
         style="fill:#1a4dff;fill-opacity:1;fill-rule:nonzero;stroke:none"
         id="path60" /><path
         d="m 82.617,102.611 4.211,-0.02 c 0.574,0 1.067,-0.203 1.473,-0.609 0.406,-0.406 0.609,-0.898 0.613,-1.473 l 0.004,-4.211 c 0,-0.796 -0.344,-1.402 -1.031,-1.808 l 0,0 1.039,-6.59 -2.086,0 -1.059,6.312 -1.074,0 0.008,-6.316 -2.086,0 -0.012,14.715 m 2.086,-2.082 0.004,-4.254 1.324,0.004 c 0.227,0 0.414,0.074 0.571,0.23 0.152,0.168 0.23,0.36 0.23,0.571 l -0.004,2.629 c 0,0.226 -0.078,0.414 -0.23,0.57 -0.157,0.168 -0.344,0.25 -0.571,0.25 l -1.324,0"
         style="fill:#1a4dff;fill-opacity:1;fill-rule:nonzero;stroke:none"
         id="path62" /><path
         d="m 92.906,102.638 2.082,0.004 3.172,-14.734 -2.086,0 -0.633,3.156 -2.968,0.02 -0.629,-3.18 -2.082,-0.004 3.144,14.738 m 1.035,-4.207 -1.05,-5.285 2.129,0 -1.059,5.285 -0.02,0"
         style="fill:#1a4dff;fill-opacity:1;fill-rule:nonzero;stroke:none"
         id="path64" /><path
         d="m 99.184,102.623 4.211,0.004 c 0.574,0.003 1.066,-0.2 1.476,-0.61 0.406,-0.406 0.609,-0.902 0.609,-1.492 l 0.004,-4.211 c 0,-0.574 -0.203,-1.066 -0.609,-1.473 -0.406,-0.406 -0.898,-0.613 -1.473,-0.613 l -2.125,0 0.004,-6.316 -2.082,0 -0.015,14.715 m 2.086,-2.082 0.003,-4.235 1.329,0.004 c 0.222,0 0.414,0.074 0.566,0.231 0.156,0.156 0.234,0.343 0.23,0.57 l 0,2.629 c 0,0.226 -0.078,0.414 -0.234,0.57 -0.152,0.152 -0.344,0.231 -0.566,0.231 l -1.328,0"
         style="fill:#1a4dff;fill-opacity:1;fill-rule:nonzero;stroke:none"
         id="path66" /><path
         d="m 107.078,102.654 2.106,0 0.004,-6.317 2.105,0.004 -0.004,6.313 2.106,0.004 0.011,-14.735 -2.105,-0.003 -0.004,6.316 -2.106,-0.004 0.004,-6.312 -2.101,-0.004 -0.016,14.738"
         style="fill:#1a4dff;fill-opacity:1;fill-rule:nonzero;stroke:none"
         id="path68" /><path
         d="m 117.605,87.927 -2.105,-0.004 -0.012,14.739 2.106,0 0.011,-14.735"
         style="fill:#1a4dff;fill-opacity:1;fill-rule:nonzero;stroke:none"
         id="path70" /><path
         d="m 120.461,101.74 c 0.617,0.617 1.359,0.926 2.23,0.926 0.871,0 1.614,-0.305 2.231,-0.922 0.617,-0.617 0.93,-1.364 0.93,-2.231 l 0,-1.054 -2.106,0 0,1.05 c 0,0.297 -0.105,0.539 -0.316,0.739 -0.196,0.211 -0.442,0.312 -0.739,0.312 -0.293,0 -0.546,-0.105 -0.757,-0.316 -0.196,-0.196 -0.293,-0.442 -0.293,-0.735 l 0.007,-8.422 c 0,-0.292 0.098,-0.546 0.297,-0.757 0.211,-0.196 0.461,-0.293 0.758,-0.293 0.293,0 0.539,0.097 0.735,0.297 0.21,0.211 0.316,0.461 0.316,0.757 l 0,1.051 2.105,0.004 0,-1.055 c 0,-0.871 -0.308,-1.613 -0.925,-2.23 -0.618,-0.621 -1.36,-0.93 -2.231,-0.93 -0.867,0 -1.613,0.309 -2.23,0.926 -0.618,0.617 -0.93,1.359 -0.93,2.23 l -0.008,8.418 c 0,0.872 0.309,1.614 0.926,2.235"
         style="fill:#1a4dff;fill-opacity:1;fill-rule:nonzero;stroke:none"
         id="path72" /><path
         d="m 127.059,92.146 0,-1.055 c 0.003,-0.867 0.312,-1.613 0.929,-2.23 0.617,-0.617 1.364,-0.922 2.231,-0.922 0.871,0 1.617,0.309 2.23,0.926 0.617,0.621 0.926,1.363 0.926,2.234 l 0,2.106 c -0.004,0.797 -0.27,1.5 -0.805,2.101 -0.629,0.703 -1.418,1.055 -2.355,1.051 -0.297,0 -0.551,0.098 -0.758,0.297 -0.199,0.207 -0.297,0.461 -0.297,0.758 l -0.004,2.101 c 0,0.297 0.102,0.543 0.297,0.739 0.211,0.21 0.461,0.316 0.758,0.316 0.293,0 0.539,-0.106 0.734,-0.316 0.211,-0.196 0.317,-0.442 0.317,-0.735 l 0.004,-1.055 1.914,0.004 0.187,0 0,1.051 c 0,0.871 -0.308,1.613 -0.926,2.231 -0.621,0.617 -1.363,0.925 -2.234,0.925 -0.871,0 -1.613,-0.312 -2.23,-0.929 -0.618,-0.617 -0.926,-1.36 -0.922,-2.231 l 0,-2.105 c 0,-0.801 0.269,-1.5 0.8,-2.106 0.633,-0.699 1.418,-1.05 2.36,-1.05 0.297,0 0.539,-0.102 0.738,-0.313 0.211,-0.199 0.317,-0.441 0.317,-0.738 l 0,-2.106 c 0,-0.293 -0.106,-0.547 -0.313,-0.758 -0.199,-0.195 -0.445,-0.292 -0.738,-0.292 -0.293,0 -0.547,0.097 -0.758,0.292 -0.195,0.211 -0.297,0.461 -0.297,0.758 l 0,1.051 -2.105,0"
         style="fill:#1a4dff;fill-opacity:1;fill-rule:nonzero;stroke:none"
         id="path74" /><path
         d="m 38.309,69.962 -1.582,4.735 0.007,-7.895 -2.105,0 -0.012,14.735 2.102,0.004 2.64,-7.895 2.625,7.899 2.106,0 0.012,-14.735 -2.106,0 -0.008,7.891 -1.574,-4.735 -2.105,-0.004"
         style="fill:#000000;fill-opacity:1;fill-rule:nonzero;stroke:none"
         id="path76" /><path
         d="m 46.141,66.814 -0.012,14.734 6.312,0.004 0.004,-2.105 -4.211,-0.004 0.004,-4.211 3.157,0.004 0.003,-2.106 -3.16,0 0.004,-4.21 4.211,0.003 0.004,-2.105 -6.316,-0.004"
         style="fill:#000000;fill-opacity:1;fill-rule:nonzero;stroke:none"
         id="path78" /><path
         d="m 53.828,66.818 -0.012,14.734 6.313,0.008 0.004,-2.105 -4.211,-0.004 0.004,-4.211 3.156,0.004 0.004,-2.106 -3.156,-0.004 0.004,-4.207 4.207,0.004 0.004,-2.105 -6.317,-0.008"
         style="fill:#000000;fill-opacity:1;fill-rule:nonzero;stroke:none"
         id="path80" /><path
         d="m 60.43,81.56 6.316,0.004 0,-2.102 -2.105,-0.003 0.011,-12.629 -2.105,-0.004 -0.012,12.633 -2.101,-0.004 -0.004,2.105"
         style="fill:#000000;fill-opacity:1;fill-rule:nonzero;stroke:none"
         id="path82" /><path
         d="m 69.895,66.834 -2.106,0 -0.016,14.734 2.106,0 0.016,-14.734"
         style="fill:#000000;fill-opacity:1;fill-rule:nonzero;stroke:none"
         id="path84" /><path
         d="m 71.863,81.572 2.106,0 2.109,-7.367 -0.008,7.371 2.106,0 0.015,-14.735 -2.105,-0.004 -2.113,7.368 0.007,-7.368 -2.105,0 -0.012,14.735"
         style="fill:#000000;fill-opacity:1;fill-rule:nonzero;stroke:none"
         id="path86" /><path
         d="m 80.93,80.654 c 0.617,0.617 1.359,0.926 2.23,0.926 0.867,0 1.613,-0.305 2.231,-0.922 0.617,-0.617 0.929,-1.363 0.929,-2.231 l -2.105,-0.004 c 0,0.297 -0.106,0.543 -0.317,0.739 -0.195,0.211 -0.441,0.316 -0.738,0.312 -0.293,0 -0.547,-0.105 -0.758,-0.316 -0.195,-0.196 -0.293,-0.442 -0.293,-0.735 l 0.008,-8.421 c 0,-0.293 0.098,-0.547 0.297,-0.758 0.211,-0.196 0.461,-0.293 0.758,-0.293 0.293,0 0.539,0.097 0.734,0.297 0.211,0.211 0.317,0.461 0.317,0.757 l -0.004,3.157 -1.051,0 -0.004,2.105 3.16,0.004 0.004,-5.266 c 0,-0.867 -0.308,-1.613 -0.926,-2.23 -0.617,-0.617 -1.359,-0.926 -2.23,-0.93 -0.871,0 -1.613,0.309 -2.231,0.926 -0.617,0.617 -0.929,1.359 -0.929,2.231 l -0.008,8.418 c 0,0.871 0.308,1.617 0.926,2.234"
         style="fill:#000000;fill-opacity:1;fill-rule:nonzero;stroke:none"
         id="path88" /><path
         d="m 92.766,80.662 c 0.617,0.621 1.359,0.929 2.23,0.929 0.871,0 1.613,-0.308 2.231,-0.925 0.617,-0.618 0.929,-1.36 0.929,-2.231 0,-0.461 -0.09,-0.898 -0.273,-1.305 l -3.676,-8.168 3.957,0 0,-2.101 -6.312,-0.008 -0.004,2.106 3.953,8.656 c 0.168,0.406 0.25,0.68 0.25,0.82 0,0.293 -0.106,0.539 -0.317,0.735 -0.195,0.21 -0.441,0.316 -0.738,0.316 -0.293,0 -0.547,-0.106 -0.758,-0.316 -0.195,-0.196 -0.293,-0.442 -0.293,-0.739 l -2.105,0 c 0,0.871 0.308,1.614 0.926,2.231"
         style="fill:#1a4dff;fill-opacity:1;fill-rule:nonzero;stroke:none"
         id="path90" /><path
         d="m 100.496,80.67 c 0.613,0.617 1.359,0.929 2.231,0.929 0.867,0 1.613,-0.308 2.23,-0.926 0.617,-0.617 0.926,-1.359 0.93,-2.23 l 0.008,-8.418 c 0,-0.871 -0.309,-1.613 -0.926,-2.234 -0.617,-0.618 -1.36,-0.926 -2.231,-0.926 -0.871,-0.004 -1.613,0.305 -2.23,0.922 -0.621,0.617 -0.93,1.363 -0.93,2.23 l -0.008,8.422 c 0,0.867 0.309,1.613 0.926,2.231 m 2.969,-1.493 c -0.199,0.211 -0.445,0.317 -0.738,0.317 -0.293,0 -0.547,-0.106 -0.758,-0.317 -0.196,-0.195 -0.293,-0.441 -0.293,-0.738 l 0.008,-8.418 c 0,-0.297 0.097,-0.547 0.293,-0.758 0.211,-0.195 0.464,-0.297 0.761,-0.293 0.293,0 0.539,0.098 0.735,0.293 0.211,0.211 0.316,0.465 0.316,0.758 l -0.008,8.422 c 0,0.293 -0.105,0.539 -0.316,0.734"
         style="fill:#1a4dff;fill-opacity:1;fill-rule:nonzero;stroke:none"
         id="path92" /><path
         d="m 109.801,81.603 2.105,0.004 0.012,-14.734 -2.102,-0.004 -0.011,12.633 -2.106,-2.11 0,2.106 2.102,2.105"
         style="fill:#1a4dff;fill-opacity:1;fill-rule:nonzero;stroke:none"
         id="path94" /><path
         d="m 115.953,80.685 c 0.617,0.617 1.359,0.926 2.231,0.926 0.871,0.004 1.613,-0.305 2.23,-0.922 0.621,-0.617 0.93,-1.359 0.93,-2.23 l 0.008,-8.422 c 0,-0.867 -0.309,-1.614 -0.926,-2.231 -0.617,-0.617 -1.36,-0.929 -2.231,-0.929 -0.867,0 -1.613,0.308 -2.23,0.925 -0.617,0.618 -0.926,1.36 -0.93,2.231 l -0.008,8.418 c 0,0.871 0.309,1.617 0.926,2.234 m 2.969,-1.492 c -0.195,0.211 -0.442,0.316 -0.738,0.316 -0.293,-0.004 -0.547,-0.109 -0.758,-0.316 -0.196,-0.199 -0.293,-0.445 -0.293,-0.738 l 0.008,-8.422 c 0,-0.293 0.101,-0.547 0.297,-0.758 0.21,-0.195 0.46,-0.293 0.757,-0.293 0.293,0 0.539,0.098 0.735,0.297 0.211,0.211 0.316,0.461 0.316,0.758 l -0.008,8.418 c 0,0.297 -0.105,0.543 -0.316,0.738"
         style="fill:#1a4dff;fill-opacity:1;fill-rule:nonzero;stroke:none"
         id="path96" /><path
         d="m 34.633,60.466 4.211,0.004 c 0.578,0 1.066,-0.203 1.476,-0.609 0.407,-0.406 0.61,-0.906 0.61,-1.492 l 0.004,-4.465 c 0,-0.211 -0.075,-0.395 -0.231,-0.547 -0.152,-0.156 -0.336,-0.23 -0.547,-0.23 l 0,-0.024 c 0.211,0 0.395,-0.078 0.547,-0.23 0.156,-0.153 0.235,-0.336 0.235,-0.547 l 0.003,-4.485 c 0,-0.574 -0.203,-1.066 -0.609,-1.472 -0.406,-0.41 -0.898,-0.614 -1.473,-0.614 l -4.211,-0.003 -0.015,14.714 m 2.086,-2.082 0.004,-4.23 1.328,0 c 0.222,0 0.414,0.078 0.566,0.23 0.156,0.157 0.235,0.344 0.235,0.571 l -0.004,2.629 c 0,0.226 -0.078,0.414 -0.235,0.57 -0.152,0.152 -0.343,0.23 -0.566,0.23 l -1.328,0 m 0.008,-6.316 0.003,-4.231 1.325,0 c 0.226,0 0.414,0.079 0.57,0.235 0.152,0.152 0.23,0.344 0.23,0.566 l -0.003,2.633 c 0,0.223 -0.079,0.414 -0.231,0.566 -0.156,0.157 -0.344,0.231 -0.57,0.231 l -1.324,0"
         style="fill:#000000;fill-opacity:1;fill-rule:nonzero;stroke:none"
         id="path98" /><path
         d="m 42.941,60.474 4.207,-0.019 c 0.579,0.004 1.067,-0.2 1.477,-0.61 0.406,-0.406 0.609,-0.894 0.609,-1.472 l 0.004,-4.207 c 0,-0.801 -0.34,-1.407 -1.027,-1.813 l 0,0 1.035,-6.586 -2.082,-0.004 -1.059,6.313 -1.074,0 0.004,-6.313 -2.082,-0.004 -0.012,14.715 m 2.082,-2.082 0.004,-4.254 1.328,0.004 c 0.223,0 0.415,0.078 0.567,0.231 0.156,0.168 0.234,0.359 0.234,0.57 l -0.004,2.629 c 0,0.226 -0.078,0.414 -0.23,0.57 -0.156,0.168 -0.348,0.25 -0.57,0.25 l -1.329,0"
         style="fill:#000000;fill-opacity:1;fill-rule:nonzero;stroke:none"
         id="path100" /><path
         d="m 51.039,60.502 2.106,0 0.007,-11.575 c 0.004,-0.297 0.102,-0.547 0.297,-0.757 0.211,-0.2 0.465,-0.297 0.758,-0.297 0.297,0.004 0.539,0.101 0.738,0.297 0.211,0.21 0.313,0.464 0.313,0.757 l -0.008,11.578 2.105,0 0.008,-11.574 c 0,-0.871 -0.304,-1.617 -0.922,-2.234 -0.617,-0.617 -1.363,-0.926 -2.23,-0.926 -0.871,-0.004 -1.617,0.305 -2.234,0.922 -0.618,0.617 -0.926,1.359 -0.926,2.23 l -0.012,11.579"
         style="fill:#000000;fill-opacity:1;fill-rule:nonzero;stroke:none"
         id="path102" /><path
         d="m 58.973,49.986 0,-1.055 c 0.004,-0.871 0.312,-1.613 0.929,-2.23 0.618,-0.617 1.364,-0.926 2.231,-0.926 0.871,0.004 1.617,0.312 2.23,0.93 0.617,0.617 0.926,1.363 0.926,2.234 l 0,2.102 c -0.004,0.8 -0.269,1.504 -0.805,2.105 -0.632,0.703 -1.418,1.051 -2.359,1.051 -0.293,0 -0.547,0.098 -0.758,0.293 -0.195,0.211 -0.293,0.465 -0.293,0.758 l -0.004,2.105 c 0,0.297 0.098,0.539 0.297,0.738 0.207,0.211 0.461,0.317 0.758,0.317 0.293,0 0.539,-0.106 0.734,-0.317 0.211,-0.195 0.317,-0.441 0.317,-0.734 l 0,-1.055 1.918,0.004 0.187,0 0,1.051 c 0,0.871 -0.308,1.613 -0.929,2.23 -0.618,0.618 -1.36,0.926 -2.231,0.926 -0.871,-0.004 -1.613,-0.312 -2.23,-0.929 -0.618,-0.618 -0.926,-1.364 -0.926,-2.231 l 0.004,-2.105 c 0,-0.801 0.269,-1.504 0.801,-2.106 0.632,-0.699 1.418,-1.051 2.359,-1.051 0.293,0 0.539,-0.105 0.738,-0.316 0.211,-0.195 0.317,-0.441 0.317,-0.734 l 0,-2.106 c 0,-0.293 -0.106,-0.547 -0.317,-0.758 -0.195,-0.195 -0.441,-0.297 -0.734,-0.297 -0.293,0 -0.547,0.098 -0.758,0.297 -0.195,0.207 -0.297,0.461 -0.297,0.758 l 0,1.051 -2.105,0"
         style="fill:#000000;fill-opacity:1;fill-rule:nonzero;stroke:none"
         id="path104" /><path
         d="m 66.457,49.99 0,-1.051 c 0,-0.871 0.309,-1.613 0.93,-2.23 0.617,-0.618 1.359,-0.926 2.23,-0.926 0.871,0 1.613,0.312 2.231,0.929 0.617,0.618 0.925,1.364 0.925,2.231 l -0.003,2.105 c 0,0.801 -0.27,1.5 -0.801,2.106 -0.633,0.699 -1.418,1.051 -2.36,1.051 -0.293,0 -0.547,0.097 -0.757,0.293 -0.196,0.211 -0.297,0.461 -0.297,0.757 l 0,2.106 c 0,0.293 0.097,0.539 0.293,0.734 0.211,0.211 0.464,0.317 0.757,0.317 0.293,0.004 0.54,-0.102 0.739,-0.313 0.211,-0.195 0.316,-0.441 0.316,-0.738 l 0,-1.051 1.914,0 0.192,0 0,1.055 c -0.004,0.867 -0.313,1.613 -0.93,2.23 -0.617,0.617 -1.363,0.926 -2.231,0.922 -0.871,0 -1.617,-0.308 -2.23,-0.926 -0.617,-0.621 -0.926,-1.363 -0.926,-2.234 l 0,-2.105 c 0.004,-0.797 0.27,-1.5 0.805,-2.102 0.633,-0.703 1.418,-1.051 2.359,-1.051 0.293,0 0.539,-0.105 0.735,-0.316 0.211,-0.196 0.316,-0.442 0.316,-0.735 l 0.004,-2.105 c 0,-0.297 -0.106,-0.547 -0.316,-0.758 -0.196,-0.199 -0.442,-0.297 -0.739,-0.297 -0.293,0 -0.547,0.098 -0.758,0.293 -0.195,0.211 -0.293,0.465 -0.293,0.758 l 0,1.055 -2.105,-0.004"
         style="fill:#000000;fill-opacity:1;fill-rule:nonzero;stroke:none"
         id="path106" /><path
         d="m 74.363,45.787 -0.011,14.734 6.312,0.008 0.004,-2.106 -4.211,-0.003 0.004,-4.211 3.156,0.003 0.004,-2.105 -3.16,-0.004 0.004,-4.207 4.211,0.004 0,-2.105 -6.313,-0.008"
         style="fill:#000000;fill-opacity:1;fill-rule:nonzero;stroke:none"
         id="path108" /><path
         d="m 82.051,45.795 -0.012,14.734 2.106,0.004 0.011,-12.633 4.207,0.004 0.004,-2.102 -6.316,-0.007"
         style="fill:#000000;fill-opacity:1;fill-rule:nonzero;stroke:none"
         id="path110" /><path
         d="m 89.316,50.013 0,-1.054 c 0,-0.872 0.309,-1.614 0.926,-2.231 0.621,-0.617 1.363,-0.926 2.235,-0.922 0.871,0 1.613,0.309 2.23,0.926 0.617,0.617 0.926,1.363 0.922,2.234 l 0,2.102 c 0,0.801 -0.27,1.504 -0.801,2.105 -0.633,0.704 -1.418,1.051 -2.359,1.051 -0.297,0 -0.547,0.098 -0.758,0.293 -0.195,0.211 -0.297,0.465 -0.297,0.758 l 0,2.105 c 0,0.297 0.098,0.54 0.293,0.739 0.211,0.211 0.465,0.316 0.758,0.316 0.293,0 0.539,-0.105 0.738,-0.316 0.211,-0.196 0.317,-0.442 0.317,-0.735 l 0,-1.054 1.914,0.004 0.191,0 0,1.05 c -0.004,0.871 -0.313,1.614 -0.93,2.231 -0.617,0.617 -1.363,0.926 -2.23,0.926 -0.871,-0.004 -1.617,-0.313 -2.231,-0.93 -0.617,-0.617 -0.925,-1.363 -0.925,-2.231 l 0,-2.105 c 0.003,-0.801 0.269,-1.504 0.804,-2.105 0.629,-0.7 1.418,-1.051 2.356,-1.051 0.297,0 0.543,-0.106 0.738,-0.317 0.211,-0.195 0.316,-0.441 0.316,-0.734 l 0.004,-2.106 c 0,-0.292 -0.105,-0.546 -0.316,-0.757 -0.195,-0.196 -0.441,-0.297 -0.738,-0.297 -0.293,0 -0.547,0.097 -0.758,0.297 -0.195,0.207 -0.293,0.461 -0.293,0.757 l -0.004,1.051 -2.102,0"
         style="fill:#000000;fill-opacity:1;fill-rule:nonzero;stroke:none"
         id="path112" /><path
         d="m 101.746,59.623 c 0.617,0.617 1.359,0.925 2.231,0.925 0.871,0.004 1.613,-0.304 2.234,-0.921 0.617,-0.618 0.926,-1.364 0.926,-2.231 0,-0.465 -0.09,-0.898 -0.274,-1.305 l -3.675,-8.171 3.957,0.003 0.003,-2.105 -6.316,-0.008 0,2.106 3.949,8.656 c 0.168,0.406 0.25,0.68 0.25,0.82 0,0.297 -0.105,0.539 -0.316,0.738 -0.195,0.211 -0.442,0.313 -0.735,0.313 -0.296,0 -0.546,-0.106 -0.757,-0.316 -0.2,-0.196 -0.297,-0.442 -0.297,-0.735 l -2.102,-0.004 c -0.004,0.871 0.305,1.614 0.922,2.235"
         style="fill:#1a4dff;fill-opacity:1;fill-rule:nonzero;stroke:none"
         id="path114" /><path
         d="m 108.551,57.416 -0.004,3.136 6.297,0.008 0,-2.086 -4.199,-12.633 -2.083,0 4.2,12.633 -2.129,0 0.004,-1.054 -2.086,0"
         style="fill:#1a4dff;fill-opacity:1;fill-rule:nonzero;stroke:none"
         id="path116" /><path
         d="m 116.496,53.318 5.051,0.008 0,-1.684 -5.051,-0.008 0,1.684"
         style="fill:#1a4dff;fill-opacity:1;fill-rule:nonzero;stroke:none"
         id="path118" /><path
         d="m 124.113,59.642 c 0.617,0.617 1.36,0.926 2.231,0.93 0.867,0 1.613,-0.309 2.23,-0.926 0.617,-0.617 0.93,-1.359 0.93,-2.23 l 0,-2.106 c 0,-0.801 -0.266,-1.5 -0.797,-2.105 0.535,-0.602 0.801,-1.305 0.801,-2.106 l 0.004,-2.105 c 0,-0.867 -0.309,-1.614 -0.926,-2.231 -0.617,-0.617 -1.359,-0.926 -2.231,-0.929 -0.871,0 -1.613,0.308 -2.23,0.925 -0.621,0.618 -0.93,1.36 -0.93,2.231 l 0,1.051 2.106,0.004 0,-1.055 c 0,-0.293 0.097,-0.547 0.293,-0.758 0.211,-0.195 0.465,-0.293 0.758,-0.293 0.296,0 0.543,0.098 0.738,0.297 0.211,0.211 0.316,0.461 0.316,0.758 l -0.004,2.105 c 0,0.293 -0.105,0.539 -0.316,0.735 -0.195,0.211 -0.441,0.316 -0.734,0.316 l -0.004,2.105 c 0.297,0 0.539,0.098 0.738,0.293 0.211,0.211 0.312,0.465 0.312,0.758 l 0,2.106 c 0,0.297 -0.105,0.543 -0.316,0.738 -0.195,0.211 -0.441,0.316 -0.738,0.316 -0.293,-0.004 -0.547,-0.109 -0.758,-0.316 -0.195,-0.199 -0.293,-0.445 -0.293,-0.738 l 0,-1.055 -2.105,0 0,1.051 c 0,0.871 0.308,1.617 0.925,2.234"
         style="fill:#1a4dff;fill-opacity:1;fill-rule:nonzero;stroke:none"
         id="path120" /><path
         d="m 131.84,59.65 c 0.617,0.617 1.363,0.926 2.23,0.926 0.871,0 1.618,-0.305 2.235,-0.922 0.617,-0.617 0.925,-1.363 0.925,-2.231 l 0.008,-8.421 c 0.004,-0.872 -0.304,-1.614 -0.922,-2.231 -0.617,-0.617 -1.359,-0.93 -2.23,-0.93 -0.871,0 -1.613,0.309 -2.234,0.926 -0.618,0.617 -0.926,1.36 -0.926,2.231 l -0.008,8.418 c 0,0.871 0.305,1.613 0.922,2.234 m 2.972,-1.492 c -0.199,0.211 -0.445,0.312 -0.738,0.312 -0.297,0 -0.547,-0.105 -0.758,-0.316 -0.195,-0.195 -0.293,-0.442 -0.293,-0.734 l 0.008,-8.422 c 0,-0.293 0.098,-0.547 0.293,-0.758 0.211,-0.195 0.465,-0.293 0.758,-0.293 0.297,0 0.543,0.098 0.738,0.297 0.211,0.211 0.317,0.461 0.317,0.758 l -0.008,8.418 c 0,0.296 -0.106,0.542 -0.317,0.738"
         style="fill:#1a4dff;fill-opacity:1;fill-rule:nonzero;stroke:none"
         id="path122" /><path
         d="m 146.539,49.009 -1.582,4.735 0.004,-7.891 -2.102,-0.004 -0.015,14.735 2.105,0.003 2.637,-7.89 2.625,7.894 2.105,0 0.012,-14.734 -2.101,0 -0.008,7.895 -1.574,-4.739 -2.106,-0.004"
         style="fill:#1a4dff;fill-opacity:1;fill-rule:nonzero;stroke:none"
         id="path124" /><path
         d="m 156.543,60.599 2.086,0 3.172,-14.73 -2.086,-0.004 -0.633,3.156 -2.969,0.02 -0.629,-3.18 -2.082,0 3.141,14.738 m 1.039,-4.211 -1.051,-5.285 2.129,0.004 -1.058,5.281 c 0,0 -0.008,0 -0.02,0"
         style="fill:#1a4dff;fill-opacity:1;fill-rule:nonzero;stroke:none"
         id="path126" /><path
         d="m 164.52,50.06 0.003,-4.211 2.125,0 -0.003,4.211 2.621,10.547 -2.125,0 -1.551,-6.297 -1.586,6.293 -2.125,0 2.641,-10.543"
         style="fill:#1a4dff;fill-opacity:1;fill-rule:nonzero;stroke:none"
         id="path128" /><path
         d="m 33.852,40.388 1.632,-9.117 1.317,0 0.969,5.438 0.968,-5.438 1.313,0 1.621,9.109 -1.317,0 -0.957,-5.32 -0.98,5.332 -1.316,0 -0.969,-5.336 -0.969,5.332 -1.312,0"
         style="fill:#1a4dff;fill-opacity:1;fill-rule:nonzero;stroke:none"
         id="path130" /><path
         d="m 42.082,40.396 1.637,-9.117 1.312,0 0.973,5.437 0.969,-5.437 1.312,0 1.617,9.109 -1.312,0 -0.957,-5.324 -0.981,5.336 -1.316,0 -0.969,-5.336 -0.969,5.332 -1.316,0"
         style="fill:#1a4dff;fill-opacity:1;fill-rule:nonzero;stroke:none"
         id="path132" /><path
         d="m 50.316,40.404 1.637,-9.117 1.313,0 0.972,5.437 0.965,-5.437 1.317,0 1.617,9.109 -1.313,0 -0.961,-5.324 -0.98,5.336 -1.313,0 -0.972,-5.336 -0.965,5.332 -1.317,0"
         style="fill:#1a4dff;fill-opacity:1;fill-rule:nonzero;stroke:none"
         id="path134" /><path
         d="m 58.895,32.591 1.3,0 0.004,-1.3 -1.301,0 -0.003,1.3"
         style="fill:#1a4dff;fill-opacity:1;fill-rule:nonzero;stroke:none"
         id="path136" /><path
         d="m 61.363,31.295 -0.008,9.105 1.301,0 0.008,-7.805 2.602,0 0,-1.3 -3.903,0"
         style="fill:#1a4dff;fill-opacity:1;fill-rule:nonzero;stroke:none"
         id="path138" /><path
         d="m 67.457,31.298 -1.301,0 -0.008,9.11 1.301,0 0.008,-9.11"
         style="fill:#1a4dff;fill-opacity:1;fill-rule:nonzero;stroke:none"
         id="path140" /><path
         d="m 68.727,40.396 2.601,0 c 0.356,0 0.656,-0.125 0.91,-0.379 0.25,-0.25 0.379,-0.558 0.379,-0.922 l 0,-2.758 c 0,-0.132 -0.047,-0.242 -0.14,-0.339 -0.098,-0.094 -0.207,-0.145 -0.34,-0.145 l 0,-0.012 c 0.133,0 0.242,-0.046 0.34,-0.14 0.093,-0.098 0.144,-0.211 0.144,-0.34 l 0,-2.77 c 0,-0.359 -0.125,-0.66 -0.375,-0.914 -0.25,-0.25 -0.555,-0.375 -0.91,-0.379 l -2.602,0 -0.007,9.098 m 1.289,-1.289 0,-2.613 0.82,0 c 0.141,0 0.258,0.047 0.352,0.144 0.093,0.094 0.144,0.211 0.14,0.352 l 0,1.625 c 0,0.137 -0.047,0.254 -0.144,0.351 -0.094,0.094 -0.211,0.141 -0.352,0.141 l -0.816,0 m 0.004,-3.902 0,-2.614 0.82,0 c 0.137,0 0.254,0.047 0.351,0.141 0.094,0.098 0.141,0.215 0.141,0.352 l 0,1.628 c 0,0.137 -0.047,0.254 -0.144,0.352 -0.094,0.094 -0.211,0.141 -0.352,0.141 l -0.816,0"
         style="fill:#1a4dff;fill-opacity:1;fill-rule:nonzero;stroke:none"
         id="path142" /><path
         d="m 73.859,40.4 2.602,-0.012 c 0.355,0 0.66,-0.125 0.91,-0.375 0.25,-0.254 0.379,-0.554 0.379,-0.91 l 0,-2.601 C 77.754,36.005 77.539,35.63 77.113,35.38 l 0,0 0.645,-4.07 -1.289,0 -0.657,3.902 -0.66,-0.003 0,-3.903 -1.285,0 -0.008,9.094 m 1.289,-1.285 0,-2.629 0.821,0 c 0.14,0 0.258,0.051 0.351,0.144 0.094,0.106 0.145,0.223 0.145,0.352 l -0.004,1.625 c 0,0.141 -0.047,0.258 -0.145,0.352 -0.093,0.105 -0.211,0.156 -0.347,0.156 l -0.821,0"
         style="fill:#1a4dff;fill-opacity:1;fill-rule:nonzero;stroke:none"
         id="path144" /><path
         d="m 78.871,31.31 -0.008,9.106 3.903,0 0.004,-1.301 -2.606,0 0.004,-2.602 1.953,0 0,-1.301 -1.953,0 0.004,-2.601 2.601,0 0,-1.301 -3.902,0"
         style="fill:#1a4dff;fill-opacity:1;fill-rule:nonzero;stroke:none"
         id="path146" /><path
         d="m 84.109,39.849 c 0.383,0.383 0.844,0.574 1.379,0.574 0.539,0 1,-0.191 1.379,-0.57 0.383,-0.383 0.574,-0.844 0.574,-1.379 l -1.3,0 c 0,0.18 -0.063,0.332 -0.196,0.453 -0.121,0.129 -0.273,0.196 -0.453,0.196 -0.183,0 -0.34,-0.067 -0.469,-0.196 C 84.902,38.806 84.84,38.654 84.84,38.47 l 0.004,-5.203 c 0,-0.183 0.062,-0.34 0.183,-0.469 0.133,-0.121 0.285,-0.179 0.469,-0.179 0.184,0 0.336,0.058 0.457,0.179 0.129,0.133 0.195,0.289 0.195,0.469 l -0.003,1.953 -0.649,0 -0.004,1.301 1.953,0 0.004,-3.254 c 0,-0.535 -0.191,-0.996 -0.57,-1.379 -0.383,-0.383 -0.844,-0.574 -1.379,-0.574 -0.539,0 -1,0.191 -1.383,0.57 -0.379,0.383 -0.57,0.844 -0.57,1.379 l -0.008,5.207 c 0,0.535 0.191,0.996 0.574,1.379"
         style="fill:#1a4dff;fill-opacity:1;fill-rule:nonzero;stroke:none"
         id="path148" /><path
         d="m 88.621,40.412 2.602,-0.008 c 0.355,0 0.66,-0.129 0.914,-0.379 0.25,-0.25 0.375,-0.555 0.375,-0.91 l 0.004,-2.602 c 0,-0.496 -0.211,-0.867 -0.637,-1.121 l 0,0 0.641,-4.07 -1.29,0 -0.652,3.902 -0.664,0 0.004,-3.902 -1.289,0 -0.008,9.094 m 1.289,-1.289 0.004,-2.625 0.82,0 c 0.137,0 0.254,0.046 0.352,0.144 0.094,0.102 0.141,0.219 0.141,0.348 l 0,1.629 c 0,0.136 -0.051,0.254 -0.145,0.351 -0.094,0.102 -0.211,0.156 -0.352,0.156 l -0.82,-0.003"
         style="fill:#1a4dff;fill-opacity:1;fill-rule:nonzero;stroke:none"
         id="path150" /><path
         d="m 94.98,40.431 1.29,0 1.96,-9.105 -1.289,0 -0.39,1.949 -1.836,0.012 -0.391,-1.965 -1.285,0 1.941,9.109 m 0.641,-2.601 -0.648,-3.266 1.316,0 -0.656,3.266 -0.012,0"
         style="fill:#1a4dff;fill-opacity:1;fill-rule:nonzero;stroke:none"
         id="path152" /><path
         d="m 98.863,40.423 2.602,0 c 0.355,0 0.66,-0.125 0.91,-0.378 0.254,-0.25 0.379,-0.559 0.379,-0.922 l 0.004,-2.602 c 0,-0.355 -0.125,-0.66 -0.379,-0.914 -0.25,-0.25 -0.555,-0.375 -0.91,-0.375 l -1.313,0 0.004,-3.906 -1.289,0 -0.008,9.097 m 1.289,-1.289 0,-2.613 0.821,0 c 0.14,0 0.257,0.047 0.351,0.145 0.098,0.093 0.145,0.211 0.145,0.351 l -0.004,1.625 c 0,0.137 -0.047,0.254 -0.141,0.352 -0.097,0.093 -0.215,0.14 -0.351,0.14 l -0.821,0"
         style="fill:#1a4dff;fill-opacity:1;fill-rule:nonzero;stroke:none"
         id="path154" /><path
         d="m 103.742,40.439 1.301,0 0.004,-3.902 1.301,0 -0.004,3.902 1.301,0 0.007,-9.105 -1.3,0 -0.004,3.902 -1.301,0 0.004,-3.902 -1.301,0 -0.008,9.105"
         style="fill:#1a4dff;fill-opacity:1;fill-rule:nonzero;stroke:none"
         id="path156" /><path
         d="m 110.25,31.337 -1.301,0 -0.011,9.11 1.304,0 0.008,-9.11"
         style="fill:#1a4dff;fill-opacity:1;fill-rule:nonzero;stroke:none"
         id="path158" /><path
         d="m 112.012,39.873 c 0.383,0.382 0.84,0.574 1.379,0.574 0.539,0 1,-0.188 1.379,-0.57 0.382,-0.383 0.574,-0.84 0.574,-1.379 l 0,-0.649 -1.301,0 0,0.649 c 0,0.183 -0.066,0.336 -0.195,0.457 -0.121,0.129 -0.274,0.195 -0.457,0.195 -0.18,-0.004 -0.336,-0.066 -0.465,-0.199 -0.121,-0.121 -0.184,-0.274 -0.184,-0.453 l 0.004,-5.203 c 0,-0.184 0.063,-0.34 0.184,-0.469 0.129,-0.121 0.285,-0.184 0.468,-0.184 0.184,0 0.332,0.063 0.454,0.184 0.132,0.129 0.195,0.285 0.195,0.469 l 0,0.648 1.301,0 0,-0.648 c 0.004,-0.54 -0.188,-1 -0.571,-1.379 -0.379,-0.383 -0.839,-0.575 -1.379,-0.575 -0.535,0 -0.996,0.188 -1.378,0.571 -0.383,0.383 -0.575,0.84 -0.575,1.379 l -0.004,5.203 c 0,0.539 0.192,1 0.571,1.379"
         style="fill:#1a4dff;fill-opacity:1;fill-rule:nonzero;stroke:none"
         id="path160" /><path
         d="m 116.09,33.947 0.004,-0.652 c 0,-0.54 0.191,-0.997 0.57,-1.379 0.383,-0.383 0.844,-0.571 1.383,-0.571 0.535,0 0.996,0.192 1.379,0.575 0.379,0.382 0.57,0.839 0.57,1.378 l 0,1.301 c -0.004,0.496 -0.168,0.93 -0.496,1.301 -0.391,0.434 -0.879,0.648 -1.457,0.648 -0.184,0 -0.34,0.063 -0.469,0.184 -0.125,0.129 -0.183,0.285 -0.183,0.469 l 0,1.301 c 0,0.179 0.058,0.332 0.179,0.453 0.129,0.132 0.285,0.195 0.469,0.195 0.184,0 0.336,-0.063 0.457,-0.195 0.129,-0.121 0.195,-0.27 0.195,-0.453 l 0,-0.653 1.184,0 0.117,0 0,0.653 c 0,0.539 -0.191,0.996 -0.574,1.378 -0.383,0.379 -0.844,0.571 -1.379,0.571 -0.539,0 -1,-0.192 -1.379,-0.574 -0.383,-0.383 -0.574,-0.84 -0.57,-1.379 l 0,-1.301 c 0,-0.496 0.164,-0.93 0.496,-1.301 0.391,-0.434 0.875,-0.648 1.457,-0.648 0.18,0 0.332,-0.067 0.453,-0.196 0.133,-0.121 0.195,-0.273 0.195,-0.457 l 0.004,-1.3 c 0,-0.18 -0.066,-0.336 -0.195,-0.469 -0.121,-0.121 -0.273,-0.18 -0.457,-0.18 -0.18,0 -0.336,0.059 -0.469,0.18 -0.121,0.129 -0.179,0.285 -0.179,0.469 l -0.004,0.652 -1.301,0"
         style="fill:#1a4dff;fill-opacity:1;fill-rule:nonzero;stroke:none"
         id="path162" /><path
         d="m 123.254,33.302 -0.977,2.926 0.004,-4.879 -1.301,0 -0.007,9.106 1.3,0 1.629,-4.875 1.621,4.879 1.301,0 0.012,-9.106 -1.305,0 -0.004,4.879 -0.972,-2.93 -1.301,0"
         style="fill:#1a4dff;fill-opacity:1;fill-rule:nonzero;stroke:none"
         id="path164" /><path
         d="m 128.094,31.353 -0.008,9.109 3.902,0 0,-1.3 -2.601,0 0.004,-2.606 1.949,0 0.004,-1.301 -1.953,0 0.004,-2.601 2.601,0 0,-1.301 -3.902,0"
         style="fill:#1a4dff;fill-opacity:1;fill-rule:nonzero;stroke:none"
         id="path166" /><path
         d="m 132.848,31.357 -0.012,9.109 3.906,0 0,-1.3 -2.601,0 0,-2.602 1.953,0 0,-1.305 -1.949,0 0,-2.601 2.601,0 0.004,-1.301 -3.906,0"
         style="fill:#1a4dff;fill-opacity:1;fill-rule:nonzero;stroke:none"
         id="path168" /><path
         d="m 136.926,40.47 3.902,0 0.004,-1.3 -1.305,0 0.008,-7.809 -1.301,0 -0.007,7.809 -1.301,0 0,1.3"
         style="fill:#1a4dff;fill-opacity:1;fill-rule:nonzero;stroke:none"
         id="path170" /><path
         d="m 142.773,31.369 -1.3,0 -0.008,9.105 1.301,0 0.007,-9.105"
         style="fill:#1a4dff;fill-opacity:1;fill-rule:nonzero;stroke:none"
         id="path172" /><path
         d="m 143.992,40.474 1.301,0 1.305,-4.551 -0.004,4.555 1.301,0 0.007,-9.109 -1.3,0 -1.305,4.554 0.004,-4.554 -1.301,0 -0.008,9.105"
         style="fill:#1a4dff;fill-opacity:1;fill-rule:nonzero;stroke:none"
         id="path174" /><path
         d="m 149.598,39.908 c 0.379,0.383 0.84,0.574 1.375,0.574 0.539,0 1,-0.191 1.382,-0.57 0.379,-0.383 0.571,-0.844 0.575,-1.379 l -1.305,0 c 0,0.179 -0.063,0.332 -0.195,0.453 -0.121,0.133 -0.274,0.195 -0.453,0.195 -0.184,0 -0.34,-0.062 -0.469,-0.195 -0.121,-0.121 -0.184,-0.274 -0.184,-0.453 l 0.008,-5.207 c 0,-0.18 0.059,-0.336 0.18,-0.469 0.133,-0.121 0.289,-0.18 0.468,-0.18 0.184,0 0.336,0.059 0.458,0.184 0.128,0.129 0.195,0.285 0.195,0.469 l -0.004,1.949 -0.649,0 0,1.301 1.95,0 0.004,-3.254 c 0,-0.535 -0.192,-0.996 -0.571,-1.379 -0.383,-0.383 -0.843,-0.574 -1.379,-0.574 -0.539,0 -1,0.191 -1.379,0.574 -0.382,0.379 -0.574,0.84 -0.574,1.375 l -0.004,5.207 c -0.004,0.535 0.188,0.996 0.571,1.379"
         style="fill:#1a4dff;fill-opacity:1;fill-rule:nonzero;stroke:none"
         id="path176" /><path
         d="m 154.035,32.677 1.301,0 0.004,-1.3 -1.305,0 0,1.3"
         style="fill:#1a4dff;fill-opacity:1;fill-rule:nonzero;stroke:none"
         id="path178" /><path
         d="m 156.992,39.916 c 0.379,0.382 0.84,0.574 1.379,0.574 0.535,0 0.996,-0.192 1.379,-0.574 0.383,-0.379 0.57,-0.84 0.574,-1.375 l 0.004,-5.207 c 0,-0.536 -0.191,-0.997 -0.57,-1.379 -0.383,-0.383 -0.844,-0.575 -1.379,-0.575 -0.539,0 -1,0.192 -1.383,0.571 -0.379,0.383 -0.57,0.844 -0.57,1.379 l -0.008,5.207 c 0,0.535 0.191,0.996 0.574,1.379 m 1.832,-0.922 c -0.121,0.129 -0.273,0.195 -0.453,0.195 -0.183,0 -0.34,-0.066 -0.469,-0.195 -0.121,-0.125 -0.183,-0.274 -0.183,-0.457 l 0.004,-1.848 0,-1.523 0.004,-1.832 c 0,-0.184 0.058,-0.34 0.179,-0.469 0.133,-0.121 0.289,-0.184 0.469,-0.184 0.184,0 0.336,0.063 0.457,0.184 0.129,0.129 0.195,0.285 0.195,0.469 l -0.004,1.836 0,1.519 0,1.848 c -0.003,0.183 -0.066,0.336 -0.199,0.457"
         style="fill:#1a4dff;fill-opacity:1;fill-rule:nonzero;stroke:none"
         id="path180" /><path
         d="m 161.5,40.478 2.605,-0.012 c 0.356,0.004 0.657,-0.125 0.911,-0.375 0.25,-0.25 0.379,-0.554 0.379,-0.91 l 0,-2.601 c 0,-0.496 -0.211,-0.868 -0.637,-1.121 l 0,0 0.64,-4.071 -1.285,0 -0.656,3.903 -0.664,0 0.004,-3.903 -1.289,0 -0.008,9.094 m 1.289,-1.289 0.004,-2.625 0.82,0 c 0.137,0 0.254,0.047 0.352,0.141 0.094,0.105 0.14,0.222 0.14,0.351 l 0,1.629 c 0,0.137 -0.046,0.254 -0.144,0.352 -0.094,0.101 -0.211,0.156 -0.352,0.156 l -0.82,-0.004"
         style="fill:#1a4dff;fill-opacity:1;fill-rule:nonzero;stroke:none"
         id="path182" /><path
         d="m 167.004,39.923 c 0.379,0.383 0.84,0.575 1.379,0.575 0.535,0 0.996,-0.192 1.379,-0.571 0.383,-0.382 0.574,-0.84 0.574,-1.379 l -1.301,0 c 0,0.18 -0.066,0.332 -0.195,0.454 -0.125,0.132 -0.274,0.195 -0.457,0.195 -0.184,0 -0.34,-0.063 -0.469,-0.195 -0.121,-0.122 -0.18,-0.274 -0.18,-0.454 l 0.004,-5.207 c 0,-0.179 0.059,-0.336 0.184,-0.468 0.129,-0.121 0.285,-0.18 0.465,-0.18 0.183,0 0.336,0.059 0.457,0.184 0.129,0.128 0.195,0.285 0.195,0.468 l -0.004,1.95 -0.648,0 0,1.3 1.949,0 0.004,-3.254 c 0,-0.535 -0.188,-0.996 -0.57,-1.379 -0.383,-0.382 -0.84,-0.574 -1.379,-0.574 -0.539,0 -0.996,0.192 -1.379,0.574 -0.383,0.379 -0.574,0.84 -0.574,1.379 l -0.004,5.204 c 0,0.535 0.187,0.996 0.57,1.378"
         style="fill:#1a4dff;fill-opacity:1;fill-rule:nonzero;stroke:none"
         id="path184" /></g></g></svg>