<?xml version="1.0" encoding="UTF-8" standalone="no"?>
<!-- Created with Inkscape (http://www.inkscape.org/) -->

<svg
   xmlns:dc="http://purl.org/dc/elements/1.1/"
   xmlns:cc="http://creativecommons.org/ns#"
   xmlns:rdf="http://www.w3.org/1999/02/22-rdf-syntax-ns#"
   xmlns:svg="http://www.w3.org/2000/svg"
   xmlns="http://www.w3.org/2000/svg"
   xmlns:sodipodi="http://sodipodi.sourceforge.net/DTD/sodipodi-0.dtd"
   xmlns:inkscape="http://www.inkscape.org/namespaces/inkscape"
   id="svg2"
   version="1.1"
   inkscape:version="0.47pre4 r22446"
   width="142"
   height="142"
   xml:space="preserve"
   sodipodi:docname="LGM_stickers01.pdf"><metadata
     id="metadata8"><rdf:RDF><cc:Work
         rdf:about=""><dc:format>image/svg+xml</dc:format><dc:type
           rdf:resource="http://purl.org/dc/dcmitype/StillImage" /><dc:title></dc:title></cc:Work></rdf:RDF></metadata><defs
     id="defs6"><inkscape:perspective
       sodipodi:type="inkscape:persp3d"
       inkscape:vp_x="0 : 0.5 : 1"
       inkscape:vp_y="0 : 1000 : 0"
       inkscape:vp_z="1 : 0.5 : 1"
       inkscape:persp3d-origin="0.5 : 0.33333333 : 1"
       id="perspective10" /></defs><sodipodi:namedview
     pagecolor="#ffffff"
     bordercolor="#666666"
     borderopacity="1"
     objecttolerance="10"
     gridtolerance="10"
     guidetolerance="10"
     inkscape:pageopacity="0"
     inkscape:pageshadow="2"
     inkscape:window-width="640"
     inkscape:window-height="480"
     id="namedview4"
     showgrid="false"
     inkscape:zoom="1.7957746"
     inkscape:cx="71"
     inkscape:cy="71"
     inkscape:window-x="0"
     inkscape:window-y="25"
     inkscape:window-maximized="0"
     inkscape:current-layer="g12" /><g
     id="g12"
     inkscape:groupmode="layer"
     inkscape:label="LGM_stickers01"
     transform="matrix(1.25,0,0,-1.25,0,142)"><g
       id="g14"><path
         d="M 43.691,78.932 10.328,69.424 17.875,42.948 c 0.02,-0.086 0.039,-0.172 0.063,-0.262 0.124,-0.535 0.238,-1.074 0.359,-1.613 0.469,-2.145 0.859,-4.309 1.105,-6.493 0.239,-2.128 0.336,-4.296 0.098,-6.429 -0.059,-0.508 -0.129,-1.031 0.012,-1.528 0.07,-0.246 0.199,-0.468 0.386,-0.644 0.188,-0.172 0.438,-0.293 0.696,-0.285 0.258,0.008 0.504,0.144 0.679,0.336 0.18,0.191 0.289,0.437 0.336,0.695 0.098,0.512 -0.039,1.031 -0.16,1.539 -0.265,1.102 -0.472,2.231 -0.484,3.363 -0.008,0.578 0.047,1.16 0.211,1.715 0.164,0.551 0.445,1.074 0.867,1.465 0.32,0.293 0.734,0.516 1.168,0.52 0.406,0.003 0.801,-0.188 1.094,-0.473 0.289,-0.285 0.472,-0.66 0.57,-1.055 0.195,-0.789 0.051,-1.613 -0.063,-2.418 -0.054,-0.406 -0.101,-0.836 0.04,-1.219 0.066,-0.191 0.183,-0.371 0.347,-0.496 0.16,-0.125 0.367,-0.187 0.571,-0.16 0.195,0.024 0.371,0.133 0.496,0.285 0.125,0.153 0.203,0.34 0.234,0.532 0.062,0.39 -0.043,0.789 -0.148,1.168 -0.223,0.812 -0.446,1.64 -0.434,2.484 0.008,0.785 0.219,1.574 0.633,2.246 0.644,1.047 1.742,1.75 2.89,2.184 1.153,0.437 2.379,0.632 3.59,0.855 5,0.934 9.871,2.508 14.473,4.68 l 2.109,-7.41 27.633,7.882 2.109,-7.41 23.348,6.653 -6.652,23.336 -22.68,-6.465 -3.523,12.375 -22.606,-6.442 -3.551,12.473 z"
         style="fill:#1a4dff;fill-opacity:1;fill-rule:nonzero;stroke:none"
         id="path16" /><path
         d="m 16.016,68.58 1.589,-8.476 -1.554,-0.293 0.281,-1.484 4.938,0.925 -0.282,1.485 -1.57,-0.293 -0.816,4.461 c -0.266,1.504 -0.153,2.578 0.343,3.23 0.512,0.652 1.375,1.11 2.594,1.367 l -0.348,1.86 c -0.312,-0.016 -0.55,-0.039 -0.711,-0.067 -0.582,-0.109 -1.085,-0.402 -1.511,-0.871 -0.41,-0.457 -0.801,-1.16 -1.16,-2.117 l -0.391,2.074 -3.234,-0.605 0.277,-1.489 1.555,0.293"
         style="fill:#000000;fill-opacity:1;fill-rule:nonzero;stroke:none"
         id="path18" /><path
         d="m 33.648,66.866 -8.433,-1.582 c 0.211,-1.043 0.57,-1.821 1.07,-2.332 0.813,-0.872 1.824,-1.196 3.031,-0.969 1.489,0.281 2.34,1.23 2.563,2.855 l 1.836,0.344 c 0.004,-1.297 -0.36,-2.375 -1.09,-3.234 -0.727,-0.86 -1.746,-1.414 -3.059,-1.661 -1.601,-0.296 -2.968,0.004 -4.101,0.907 -1.137,0.918 -1.883,2.316 -2.235,4.195 -0.355,1.879 -0.16,3.465 0.575,4.766 0.75,1.316 1.918,2.121 3.504,2.422 1.078,0.199 2.074,0.109 2.992,-0.278 0.929,-0.383 1.664,-1.008 2.203,-1.871 0.457,-0.742 0.84,-1.93 1.144,-3.562 m -8.668,-0.086 6.422,1.203 c 0.012,0.031 0.008,0.078 0,0.137 -0.179,0.945 -0.632,1.683 -1.367,2.207 -0.734,0.543 -1.543,0.73 -2.433,0.562 -0.918,-0.172 -1.614,-0.633 -2.09,-1.387 -0.481,-0.738 -0.657,-1.648 -0.532,-2.722"
         style="fill:#000000;fill-opacity:1;fill-rule:nonzero;stroke:none"
         id="path20" /><path
         d="m 42.27,74.385 c -0.977,0.465 -2.028,0.602 -3.149,0.406 -1.547,-0.289 -2.676,-1.089 -3.394,-2.402 -0.707,-1.309 -0.879,-2.906 -0.524,-4.801 0.344,-1.851 1.074,-3.238 2.18,-4.16 1.121,-0.906 2.461,-1.211 4.019,-0.918 1.368,0.254 2.387,0.848 3.059,1.77 0.668,0.941 0.93,2.121 0.781,3.539 L 43.41,67.475 c 0.039,-1.891 -0.722,-2.984 -2.281,-3.277 -1.004,-0.188 -1.863,0.05 -2.578,0.714 -0.711,0.668 -1.196,1.676 -1.449,3.032 -0.266,1.429 -0.2,2.593 0.203,3.5 0.414,0.922 1.117,1.476 2.109,1.66 0.758,0.141 1.41,0.039 1.957,-0.313 0.547,-0.332 0.953,-0.89 1.219,-1.668 l 1.836,0.344 -0.797,4.238 -1.551,-0.293 0.192,-1.027"
         style="fill:#000000;fill-opacity:1;fill-rule:nonzero;stroke:none"
         id="path22" /><path
         d="m 46.812,78.991 2.43,-12.954 -1.551,-0.289 0.278,-1.488 4.937,0.926 -0.277,1.488 -1.551,-0.293 -2.711,14.442 -3.383,-0.637 0.278,-1.484 1.55,0.289"
         style="fill:#000000;fill-opacity:1;fill-rule:nonzero;stroke:none"
         id="path24" /><path
         d="m 66.484,69.272 0.282,-1.485 -3.149,-0.589 -0.281,1.504 c -0.363,-0.805 -0.805,-1.415 -1.332,-1.832 -0.508,-0.426 -1.152,-0.711 -1.942,-0.86 -1.542,-0.289 -2.863,0.035 -3.957,0.977 -1.101,0.953 -1.832,2.398 -2.195,4.336 -0.34,1.82 -0.168,3.359 0.516,4.621 0.695,1.273 1.785,2.051 3.269,2.332 1.575,0.293 2.856,-0.074 3.848,-1.11 l -0.273,1.461 1.812,0.34 1.875,-9.98 1.527,0.285 m -8.164,7.355 c -0.988,-0.183 -1.715,-0.742 -2.172,-1.672 -0.46,-0.933 -0.566,-2.058 -0.316,-3.386 0.25,-1.34 0.758,-2.36 1.523,-3.059 0.762,-0.687 1.645,-0.937 2.653,-0.746 0.961,0.18 1.656,0.723 2.09,1.633 0.429,0.91 0.523,2.031 0.273,3.355 -0.254,1.368 -0.75,2.399 -1.484,3.09 -0.735,0.707 -1.59,0.969 -2.567,0.785"
         style="fill:#000000;fill-opacity:1;fill-rule:nonzero;stroke:none"
         id="path26" /><path
         d="m 69.938,84.866 0.429,-2.293 -1.836,-0.344 -0.429,2.293 1.836,0.344 m -0.672,-6.434 1.589,-8.477 -1.55,-0.289 0.277,-1.488 4.918,0.922 -0.281,1.488 -1.551,-0.293 -1.867,9.961 -3.363,-0.629 0.277,-1.484 1.551,0.289"
         style="fill:#000000;fill-opacity:1;fill-rule:nonzero;stroke:none"
         id="path28" /><path
         d="m 87.332,73.182 -1.07,5.703 c -0.157,0.828 -0.028,1.586 0.39,2.266 0.414,0.679 0.993,1.09 1.735,1.23 0.672,0.125 1.226,0.02 1.668,-0.32 0.453,-0.324 0.746,-0.848 0.883,-1.578 l 1.48,-7.887 3.383,0.637 -0.278,1.484 -1.55,-0.289 -1.332,7.098 c -0.196,1.035 -0.633,1.769 -1.317,2.195 -0.672,0.449 -1.539,0.574 -2.601,0.375 -0.758,-0.144 -1.375,-0.394 -1.848,-0.754 -0.477,-0.363 -0.922,-0.914 -1.344,-1.656 -0.859,1.047 -1.992,1.437 -3.406,1.172 -0.758,-0.145 -1.383,-0.418 -1.879,-0.828 -0.484,-0.407 -0.906,-1 -1.273,-1.778 l -0.305,1.618 -3.23,-0.606 0.277,-1.488 1.551,0.293 1.589,-8.477 -1.55,-0.293 0.277,-1.484 4.938,0.926 -0.278,1.488 -1.551,-0.293 -1.07,5.703 c -0.156,0.828 -0.027,1.586 0.391,2.266 0.414,0.679 0.992,1.09 1.734,1.23 0.672,0.125 1.227,0.02 1.668,-0.32 0.449,-0.324 0.746,-0.848 0.883,-1.578 l 1.476,-7.883 3.387,0.633 -0.277,1.484 -1.551,-0.289"
         style="fill:#000000;fill-opacity:1;fill-rule:nonzero;stroke:none"
         id="path30" /><path
         d="m 27.801,50.436 -0.281,1.488 3.343,0.625 4.602,-8.363 1.25,7.922 -1.027,-0.192 -0.282,1.485 3.52,0.66 -2.492,-14.805 C 36.129,37.573 35.297,36.6 33.926,36.342 33.473,36.26 33.051,36.276 32.648,36.397 l -0.304,1.64 c 0.406,-0.015 0.738,0 0.984,0.047 0.379,0.075 0.66,0.215 0.848,0.43 0.187,0.203 0.324,0.523 0.406,0.961 l 0.359,1.945 -5.242,9.371 -1.898,-0.355"
         style="fill:#000000;fill-opacity:1;fill-rule:nonzero;stroke:none"
         id="path32" /><path
         d="m 44.859,55.514 c 1.645,0.309 3.024,0 4.129,-0.922 1.121,-0.906 1.867,-2.347 2.239,-4.328 0.351,-1.879 0.164,-3.445 -0.567,-4.699 -0.715,-1.25 -1.875,-2.024 -3.476,-2.324 -1.629,-0.305 -3.004,-0.008 -4.125,0.898 -1.11,0.922 -1.844,2.348 -2.204,4.27 -0.359,1.921 -0.183,3.507 0.532,4.757 0.715,1.266 1.871,2.047 3.472,2.348 m 0.336,-1.68 c -1.019,-0.191 -1.742,-0.742 -2.175,-1.652 -0.434,-0.895 -0.524,-2.035 -0.262,-3.418 0.258,-1.383 0.754,-2.422 1.488,-3.113 0.731,-0.676 1.602,-0.918 2.621,-0.727 1.008,0.188 1.727,0.731 2.16,1.625 0.45,0.914 0.547,2.039 0.297,3.379 -0.265,1.414 -0.765,2.465 -1.5,3.156 -0.719,0.696 -1.594,0.946 -2.629,0.75"
         style="fill:#000000;fill-opacity:1;fill-rule:nonzero;stroke:none"
         id="path34" /><path
         d="m 54.391,55.424 1.375,-7.34 c 0.179,-0.949 0.648,-1.644 1.41,-2.089 0.777,-0.442 1.719,-0.559 2.824,-0.352 0.844,0.16 1.527,0.453 2.051,0.883 0.523,0.429 0.984,1.074 1.379,1.933 l 0.3,-1.597 3.188,0.601 -0.277,1.485 -1.551,-0.293 -1.871,9.965 -3.364,-0.633 0.282,-1.485 1.551,0.289 0.937,-5 c 0.219,-1.168 0.109,-2.16 -0.324,-2.98 -0.438,-0.805 -1.129,-1.297 -2.074,-1.473 -0.731,-0.136 -1.344,-0.043 -1.84,0.285 -0.5,0.332 -0.813,0.836 -0.942,1.52 l -1.519,8.105 -3.367,-0.628 0.281,-1.489 1.551,0.293"
         style="fill:#000000;fill-opacity:1;fill-rule:nonzero;stroke:none"
         id="path36" /><path
         d="m 69.711,58.299 1.59,-8.476 -1.551,-0.293 0.277,-1.485 4.938,0.926 -0.281,1.484 -1.571,-0.293 -0.816,4.461 c -0.266,1.5 -0.152,2.579 0.344,3.231 0.511,0.652 1.375,1.109 2.593,1.367 l -0.347,1.856 c -0.313,-0.012 -0.551,-0.036 -0.711,-0.063 -0.582,-0.109 -1.086,-0.402 -1.512,-0.871 -0.41,-0.457 -0.797,-1.16 -1.16,-2.121 l -0.391,2.078 -3.234,-0.609 0.281,-1.485 1.551,0.293"
         style="fill:#000000;fill-opacity:1;fill-rule:nonzero;stroke:none"
         id="path38" /><path
         d="m 49.836,35.756 0.281,-1.488 -1.879,-0.352 1.469,-7.843 c 0.078,-0.407 0.195,-0.672 0.352,-0.793 0.171,-0.102 0.453,-0.118 0.847,-0.043 0.364,0.066 0.649,0.152 0.856,0.25 l 0.289,-1.528 c -0.551,-0.211 -1.035,-0.355 -1.457,-0.433 -0.715,-0.133 -1.289,-0.074 -1.731,0.172 -0.433,0.238 -0.707,0.644 -0.816,1.226 l -1.621,8.653 -1.555,-0.29 -0.277,1.485 1.551,0.289 -0.59,3.148 1.812,0.34 0.59,-3.148 1.879,0.355"
         style="fill:#000000;fill-opacity:1;fill-rule:nonzero;stroke:none"
         id="path40" /><path
         d="m 55.973,37.245 c 1.644,0.308 3.023,0 4.129,-0.922 1.121,-0.907 1.867,-2.348 2.238,-4.328 0.351,-1.879 0.164,-3.446 -0.567,-4.7 -0.714,-1.25 -1.875,-2.023 -3.476,-2.324 -1.633,-0.305 -3.008,-0.008 -4.125,0.899 -1.11,0.925 -1.844,2.347 -2.203,4.269 -0.364,1.922 -0.184,3.508 0.531,4.758 0.711,1.265 1.871,2.047 3.473,2.348 m 0.336,-1.68 c -1.02,-0.192 -1.747,-0.742 -2.176,-1.653 -0.438,-0.894 -0.524,-2.035 -0.266,-3.417 0.262,-1.383 0.758,-2.422 1.488,-3.114 0.731,-0.676 1.606,-0.918 2.625,-0.726 1.004,0.187 1.727,0.73 2.161,1.625 0.449,0.914 0.547,2.039 0.293,3.379 -0.266,1.414 -0.762,2.464 -1.496,3.156 -0.719,0.695 -1.594,0.945 -2.629,0.75"
         style="fill:#000000;fill-opacity:1;fill-rule:nonzero;stroke:none"
         id="path42" /><path
         d="m 68.133,39.526 c 1.644,0.308 3.023,0 4.129,-0.922 1.121,-0.906 1.867,-2.348 2.238,-4.328 0.352,-1.879 0.164,-3.446 -0.566,-4.699 -0.715,-1.25 -1.875,-2.024 -3.477,-2.325 -1.633,-0.304 -3.008,-0.007 -4.125,0.899 -1.109,0.922 -1.844,2.347 -2.203,4.269 -0.359,1.922 -0.184,3.508 0.531,4.758 0.715,1.266 1.871,2.047 3.473,2.348 m 0.336,-1.68 c -1.02,-0.191 -1.746,-0.742 -2.176,-1.652 -0.438,-0.895 -0.523,-2.035 -0.266,-3.418 0.262,-1.383 0.758,-2.422 1.489,-3.114 0.73,-0.675 1.605,-0.917 2.625,-0.726 1.007,0.187 1.726,0.73 2.16,1.625 0.449,0.914 0.547,2.039 0.293,3.379 -0.262,1.414 -0.762,2.465 -1.496,3.156 -0.719,0.695 -1.594,0.945 -2.629,0.75"
         style="fill:#000000;fill-opacity:1;fill-rule:nonzero;stroke:none"
         id="path44" /><path
         d="m 76.887,43.928 2.429,-12.957 -1.55,-0.289 0.281,-1.488 4.933,0.926 -0.277,1.488 -1.551,-0.293 -2.707,14.441 -3.386,-0.636 0.277,-1.485 1.551,0.293"
         style="fill:#000000;fill-opacity:1;fill-rule:nonzero;stroke:none"
         id="path46" /><path
         d="m 86.523,34.315 c 0.215,-0.668 0.551,-1.172 1.004,-1.508 0.469,-0.32 1.203,-0.387 2.207,-0.199 0.805,0.152 1.414,0.433 1.836,0.844 0.43,0.425 0.598,0.91 0.496,1.449 -0.082,0.422 -0.281,0.73 -0.605,0.926 -0.32,0.195 -0.813,0.308 -1.465,0.335 l -1.781,0.098 c -1.414,0.067 -2.438,0.289 -3.067,0.668 -0.617,0.399 -1.007,1.047 -1.179,1.949 -0.199,1.063 0.043,1.985 0.726,2.758 0.68,0.793 1.684,1.313 3.012,1.563 1.324,0.246 2.398,0.132 3.231,-0.344 0.828,-0.481 1.351,-1.277 1.578,-2.395 l -1.922,-0.363 c -0.274,1.215 -1.153,1.684 -2.637,1.406 -0.746,-0.14 -1.305,-0.41 -1.68,-0.812 -0.382,-0.387 -0.523,-0.844 -0.422,-1.367 0.075,-0.411 0.305,-0.711 0.688,-0.911 0.383,-0.187 0.961,-0.296 1.738,-0.332 l 1.824,-0.085 c 1.188,-0.067 2.086,-0.305 2.692,-0.719 0.601,-0.399 0.98,-1.02 1.141,-1.867 0.207,-1.106 -0.059,-2.067 -0.793,-2.883 -0.723,-0.817 -1.805,-1.356 -3.247,-1.629 -2.957,-0.555 -4.722,0.465 -5.3,3.055 l 1.925,0.363"
         style="fill:#000000;fill-opacity:1;fill-rule:nonzero;stroke:none"
         id="path48" /></g></g></svg>