<?xml version="1.0" encoding="UTF-8" standalone="no"?>
<!-- Created with Inkscape (http://www.inkscape.org/) -->

<svg
   xmlns:dc="http://purl.org/dc/elements/1.1/"
   xmlns:cc="http://creativecommons.org/ns#"
   xmlns:rdf="http://www.w3.org/1999/02/22-rdf-syntax-ns#"
   xmlns:svg="http://www.w3.org/2000/svg"
   xmlns="http://www.w3.org/2000/svg"
   xmlns:sodipodi="http://sodipodi.sourceforge.net/DTD/sodipodi-0.dtd"
   xmlns:inkscape="http://www.inkscape.org/namespaces/inkscape"
   id="svg2884"
   version="1.1"
   inkscape:version="0.47pre4 r22446"
   width="142"
   height="142"
   xml:space="preserve"
   sodipodi:docname="LGM_stickers03.pdf"><metadata
     id="metadata2890"><rdf:RDF><cc:Work
         rdf:about=""><dc:format>image/svg+xml</dc:format><dc:type
           rdf:resource="http://purl.org/dc/dcmitype/StillImage" /><dc:title></dc:title></cc:Work></rdf:RDF></metadata><defs
     id="defs2888"><inkscape:perspective
       sodipodi:type="inkscape:persp3d"
       inkscape:vp_x="0 : 0.5 : 1"
       inkscape:vp_y="0 : 1000 : 0"
       inkscape:vp_z="1 : 0.5 : 1"
       inkscape:persp3d-origin="0.5 : 0.33333333 : 1"
       id="perspective2892" /></defs><sodipodi:namedview
     pagecolor="#ffffff"
     bordercolor="#666666"
     borderopacity="1"
     objecttolerance="10"
     gridtolerance="10"
     guidetolerance="10"
     inkscape:pageopacity="0"
     inkscape:pageshadow="2"
     inkscape:window-width="640"
     inkscape:window-height="480"
     id="namedview2886"
     showgrid="false"
     inkscape:zoom="1.7957746"
     inkscape:cx="71"
     inkscape:cy="71"
     inkscape:window-x="0"
     inkscape:window-y="25"
     inkscape:window-maximized="0"
     inkscape:current-layer="g2894" /><g
     id="g2894"
     inkscape:groupmode="layer"
     inkscape:label="LGM_stickers03"
     transform="matrix(1.25,0,0,-1.25,0,142)"><g
       id="g2896"><path
         d="M 42.859,79.221 9.492,69.709 17.039,43.233 c 0.023,-0.086 0.043,-0.172 0.063,-0.258 0.128,-0.539 0.242,-1.078 0.359,-1.617 0.469,-2.145 0.859,-4.305 1.105,-6.488 0.239,-2.133 0.34,-4.301 0.098,-6.434 -0.055,-0.508 -0.125,-1.031 0.016,-1.524 0.07,-0.246 0.195,-0.472 0.382,-0.648 0.188,-0.172 0.442,-0.293 0.696,-0.285 0.262,0.008 0.508,0.144 0.683,0.336 0.176,0.191 0.286,0.437 0.336,0.695 0.094,0.512 -0.043,1.031 -0.164,1.539 -0.261,1.106 -0.472,2.231 -0.484,3.363 -0.004,0.579 0.051,1.161 0.211,1.715 0.164,0.551 0.445,1.075 0.871,1.465 0.32,0.293 0.73,0.516 1.168,0.52 0.406,0.008 0.801,-0.188 1.09,-0.473 0.289,-0.285 0.472,-0.66 0.57,-1.055 0.199,-0.789 0.051,-1.613 -0.062,-2.418 -0.055,-0.406 -0.098,-0.832 0.039,-1.218 0.07,-0.192 0.187,-0.371 0.347,-0.496 0.16,-0.125 0.367,-0.188 0.571,-0.161 0.195,0.024 0.371,0.133 0.496,0.286 0.125,0.152 0.207,0.339 0.238,0.535 0.059,0.386 -0.047,0.785 -0.148,1.164 -0.227,0.816 -0.446,1.64 -0.438,2.484 0.012,0.785 0.223,1.574 0.633,2.246 0.648,1.047 1.742,1.75 2.894,2.184 1.149,0.437 2.379,0.633 3.586,0.859 5,0.93 9.875,2.504 14.473,4.68 l 2.113,-7.414 27.629,7.883 2.11,-7.411 23.351,6.653 -6.652,23.34 -22.68,-6.469 -3.527,12.375 -22.602,-6.441 -3.551,12.476 z"
         style="fill:#82d900;fill-opacity:1;fill-rule:nonzero;stroke:none"
         id="path2898" /><path
         d="m 27.496,56.866 c -0.976,0.468 -2.027,0.601 -3.152,0.406 -1.543,-0.289 -2.676,-1.09 -3.395,-2.402 -0.703,-1.309 -0.879,-2.907 -0.523,-4.801 0.347,-1.852 1.074,-3.235 2.183,-4.16 1.118,-0.907 2.457,-1.211 4.016,-0.918 1.371,0.254 2.391,0.847 3.059,1.773 0.668,0.938 0.929,2.117 0.785,3.539 l -1.836,-0.348 c 0.039,-1.89 -0.723,-2.984 -2.281,-3.277 -1.004,-0.187 -1.864,0.051 -2.575,0.719 -0.715,0.664 -1.195,1.672 -1.449,3.027 -0.269,1.43 -0.203,2.594 0.203,3.5 0.414,0.922 1.117,1.477 2.106,1.66 0.758,0.145 1.41,0.039 1.961,-0.308 0.543,-0.336 0.949,-0.895 1.214,-1.672 l 1.836,0.344 -0.793,4.238 -1.55,-0.293 0.191,-1.027"
         style="fill:#000000;fill-opacity:1;fill-rule:nonzero;stroke:none"
         id="path2900" /><path
         d="m 32.812,56.983 1.376,-7.34 c 0.179,-0.949 0.648,-1.645 1.41,-2.09 0.777,-0.441 1.718,-0.558 2.824,-0.351 0.844,0.16 1.527,0.453 2.051,0.882 0.523,0.43 0.984,1.075 1.379,1.934 l 0.3,-1.598 3.188,0.602 -0.278,1.484 -1.55,-0.293 -1.871,9.965 -3.364,-0.633 0.282,-1.484 1.55,0.289 0.938,-5 c 0.219,-1.168 0.109,-2.16 -0.324,-2.98 -0.438,-0.805 -1.129,-1.297 -2.075,-1.473 -0.73,-0.137 -1.343,-0.043 -1.839,0.285 -0.5,0.328 -0.813,0.836 -0.942,1.52 l -1.519,8.105 -3.368,-0.629 0.282,-1.488 1.55,0.293"
         style="fill:#000000;fill-opacity:1;fill-rule:nonzero;stroke:none"
         id="path2902" /><path
         d="m 50.344,61.807 0.277,-1.484 -1.879,-0.352 1.473,-7.844 c 0.074,-0.406 0.191,-0.672 0.351,-0.793 0.172,-0.105 0.454,-0.117 0.844,-0.043 0.367,0.067 0.652,0.149 0.86,0.25 l 0.285,-1.531 c -0.547,-0.207 -1.035,-0.351 -1.457,-0.43 -0.711,-0.132 -1.289,-0.078 -1.727,0.172 -0.437,0.235 -0.711,0.645 -0.82,1.227 l -1.621,8.652 -1.551,-0.293 -0.277,1.489 1.55,0.289 -0.59,3.144 1.813,0.344 0.59,-3.149 1.879,0.352"
         style="fill:#000000;fill-opacity:1;fill-rule:nonzero;stroke:none"
         id="path2904" /><path
         d="m 56.402,62.944 0.278,-1.485 -1.879,-0.351 1.472,-7.844 c 0.075,-0.406 0.196,-0.672 0.352,-0.793 0.172,-0.105 0.453,-0.117 0.844,-0.047 0.367,0.071 0.652,0.153 0.859,0.254 l 0.285,-1.531 c -0.547,-0.207 -1.031,-0.352 -1.457,-0.43 -0.711,-0.133 -1.289,-0.078 -1.726,0.172 -0.438,0.234 -0.711,0.645 -0.817,1.227 l -1.625,8.652 -1.55,-0.293 -0.278,1.488 1.551,0.289 -0.59,3.145 1.813,0.34 0.589,-3.145 1.879,0.352"
         style="fill:#000000;fill-opacity:1;fill-rule:nonzero;stroke:none"
         id="path2906" /><path
         d="m 60.879,68.42 0.43,-2.293 -1.836,-0.343 -0.43,2.293 1.836,0.343 m -0.672,-6.433 1.59,-8.477 -1.551,-0.293 0.281,-1.484 4.914,0.922 -0.277,1.484 -1.551,-0.289 -1.871,9.961 -3.363,-0.629 0.277,-1.488 1.551,0.293"
         style="fill:#000000;fill-opacity:1;fill-rule:nonzero;stroke:none"
         id="path2908" /><path
         d="m 78.906,56.854 -1.344,7.164 c -0.175,0.949 -0.648,1.644 -1.41,2.09 -0.761,0.445 -1.695,0.562 -2.8,0.355 -0.844,-0.16 -1.536,-0.468 -2.067,-0.929 -0.515,-0.461 -0.953,-1.137 -1.312,-2.036 l -0.364,1.926 -3.23,-0.609 0.277,-1.485 1.551,0.293 1.59,-8.476 -1.551,-0.293 0.277,-1.484 4.938,0.925 -0.277,1.485 -1.551,-0.289 -0.906,4.828 c -0.219,1.164 -0.11,2.148 0.328,2.953 0.433,0.82 1.117,1.32 2.05,1.496 0.727,0.133 1.34,0.039 1.84,-0.289 0.496,-0.328 0.813,-0.836 0.942,-1.52 l 1.484,-7.929 3.367,0.629 -0.281,1.484 -1.551,-0.289"
         style="fill:#000000;fill-opacity:1;fill-rule:nonzero;stroke:none"
         id="path2910" /><path
         d="m 86.039,67.1 c -0.977,-0.18 -1.676,-0.727 -2.094,-1.633 -0.418,-0.91 -0.496,-2.047 -0.238,-3.418 0.258,-1.383 0.746,-2.422 1.465,-3.117 0.715,-0.68 1.57,-0.926 2.558,-0.738 0.961,0.179 1.649,0.707 2.055,1.582 0.406,0.89 0.481,2.019 0.223,3.39 -0.266,1.426 -0.75,2.481 -1.453,3.164 -0.688,0.7 -1.528,0.957 -2.516,0.77 m 5.004,0.805 1.516,-8.082 c 0.207,-1.094 0.308,-2.016 0.316,-2.77 0.008,-0.766 -0.105,-1.496 -0.336,-2.187 -0.234,-0.692 -0.668,-1.258 -1.312,-1.696 -0.625,-0.433 -1.473,-0.75 -2.536,-0.949 -1.339,-0.25 -2.464,-0.144 -3.382,0.316 -0.914,0.461 -1.524,1.219 -1.829,2.278 l 1.856,0.351 c 0.445,-1.246 1.488,-1.711 3.137,-1.402 1.222,0.227 1.992,0.734 2.312,1.52 0.324,0.769 0.356,1.859 0.09,3.273 l -0.113,0.59 c -0.371,-0.824 -0.805,-1.449 -1.297,-1.875 -0.481,-0.422 -1.078,-0.699 -1.789,-0.832 -1.34,-0.25 -2.567,0.086 -3.672,1.008 -1.109,0.937 -1.836,2.316 -2.18,4.136 -0.347,1.864 -0.187,3.457 0.485,4.774 0.687,1.32 1.761,2.117 3.214,2.39 1.43,0.266 2.719,-0.179 3.872,-1.336 l -0.313,1.665 3.234,0.605 0.278,-1.488 -1.551,-0.289"
         style="fill:#000000;fill-opacity:1;fill-rule:nonzero;stroke:none"
         id="path2912" /><path
         d="m 46.84,34.241 -8.434,-1.582 c 0.211,-1.047 0.571,-1.825 1.071,-2.332 0.812,-0.875 1.824,-1.196 3.031,-0.969 1.488,0.277 2.34,1.23 2.562,2.855 l 1.836,0.344 c 0.004,-1.297 -0.359,-2.375 -1.09,-3.234 -0.726,-0.864 -1.746,-1.414 -3.058,-1.661 -1.602,-0.3 -2.969,0 -4.106,0.903 -1.136,0.918 -1.879,2.316 -2.23,4.195 -0.356,1.879 -0.164,3.469 0.574,4.766 0.75,1.316 1.914,2.125 3.504,2.422 1.078,0.203 2.074,0.109 2.992,-0.274 0.93,-0.387 1.664,-1.008 2.203,-1.871 0.457,-0.746 0.84,-1.933 1.145,-3.562 m -8.668,-0.09 6.422,1.207 c 0.011,0.031 0.008,0.074 0,0.133 -0.18,0.949 -0.633,1.683 -1.367,2.211 -0.735,0.539 -1.543,0.726 -2.434,0.558 -0.918,-0.172 -1.613,-0.633 -2.09,-1.387 -0.48,-0.738 -0.656,-1.644 -0.531,-2.722"
         style="fill:#000000;fill-opacity:1;fill-rule:nonzero;stroke:none"
         id="path2914" /><path
         d="m 52.652,40.463 c 0.977,0.184 1.832,-0.078 2.567,-0.785 0.734,-0.691 1.226,-1.723 1.484,-3.09 0.25,-1.328 0.156,-2.445 -0.273,-3.355 -0.434,-0.91 -1.133,-1.453 -2.094,-1.637 -1.004,-0.187 -1.887,0.063 -2.648,0.75 -0.766,0.699 -1.274,1.719 -1.524,3.059 -0.25,1.328 -0.144,2.453 0.313,3.382 0.461,0.934 1.183,1.493 2.175,1.676 m 6.633,-7.644 -2.707,14.441 -3.363,-0.629 0.277,-1.488 1.574,0.297 0.809,-4.442 c -0.992,1.036 -2.277,1.407 -3.848,1.114 -1.484,-0.282 -2.578,-1.059 -3.273,-2.332 -0.684,-1.262 -0.852,-2.801 -0.512,-4.621 0.363,-1.938 1.094,-3.383 2.192,-4.336 1.097,-0.942 2.418,-1.266 3.961,-0.977 0.785,0.145 1.433,0.434 1.941,0.859 0.527,0.418 0.969,1.028 1.332,1.832 l 0.281,-1.507 3.168,0.597 -0.277,1.485 -1.555,-0.293"
         style="fill:#000000;fill-opacity:1;fill-rule:nonzero;stroke:none"
         id="path2916" /><path
         d="m 66.258,43.037 c -0.977,-0.183 -1.672,-0.726 -2.09,-1.636 -0.418,-0.906 -0.5,-2.043 -0.242,-3.414 0.258,-1.383 0.746,-2.422 1.465,-3.117 0.718,-0.68 1.57,-0.926 2.558,-0.743 0.965,0.184 1.649,0.711 2.055,1.586 0.406,0.891 0.48,2.02 0.226,3.387 -0.269,1.43 -0.753,2.484 -1.453,3.168 -0.691,0.699 -1.531,0.957 -2.519,0.769 m 5.004,0.805 1.515,-8.086 c 0.207,-1.09 0.313,-2.011 0.317,-2.765 0.008,-0.77 -0.102,-1.496 -0.336,-2.188 -0.231,-0.695 -0.668,-1.258 -1.309,-1.695 -0.629,-0.434 -1.472,-0.75 -2.535,-0.949 -1.34,-0.254 -2.469,-0.149 -3.387,0.316 -0.914,0.461 -1.523,1.219 -1.828,2.277 l 1.856,0.348 c 0.445,-1.242 1.492,-1.711 3.136,-1.402 1.223,0.23 1.997,0.738 2.317,1.523 0.32,0.766 0.351,1.859 0.086,3.27 l -0.11,0.589 c -0.375,-0.824 -0.808,-1.445 -1.3,-1.871 -0.481,-0.422 -1.075,-0.699 -1.789,-0.832 -1.34,-0.25 -2.563,0.086 -3.672,1.008 -1.11,0.938 -1.836,2.317 -2.176,4.137 -0.352,1.863 -0.192,3.453 0.484,4.773 0.688,1.317 1.758,2.114 3.215,2.387 1.426,0.27 2.715,-0.176 3.867,-1.332 l -0.312,1.66 3.234,0.61 0.277,-1.489 -1.55,-0.289"
         style="fill:#000000;fill-opacity:1;fill-rule:nonzero;stroke:none"
         id="path2918" /><path
         d="m 86.395,41.659 -8.434,-1.582 c 0.211,-1.047 0.566,-1.825 1.07,-2.332 0.813,-0.872 1.824,-1.196 3.031,-0.969 1.485,0.277 2.34,1.23 2.563,2.855 l 1.836,0.344 c 0,-1.297 -0.363,-2.375 -1.09,-3.234 -0.726,-0.86 -1.746,-1.414 -3.059,-1.661 -1.601,-0.3 -2.968,0 -4.105,0.907 -1.137,0.914 -1.879,2.312 -2.234,4.191 -0.352,1.879 -0.161,3.469 0.578,4.77 0.746,1.316 1.914,2.121 3.504,2.418 1.078,0.203 2.074,0.113 2.992,-0.274 0.93,-0.383 1.664,-1.008 2.203,-1.871 0.457,-0.742 0.836,-1.93 1.145,-3.562 m -8.668,-0.09 6.421,1.207 c 0.008,0.031 0.008,0.078 -0.003,0.136 -0.176,0.946 -0.633,1.68 -1.364,2.208 -0.734,0.539 -1.547,0.726 -2.433,0.562 C 79.43,45.51 78.73,45.045 78.254,44.295 77.777,43.557 77.598,42.647 77.727,41.569"
         style="fill:#000000;fill-opacity:1;fill-rule:nonzero;stroke:none"
         id="path2920" /></g></g></svg>