<?xml version="1.0" encoding="UTF-8" standalone="no"?>
<svg
   xmlns:dc="http://purl.org/dc/elements/1.1/"
   xmlns:cc="http://creativecommons.org/ns#"
   xmlns:rdf="http://www.w3.org/1999/02/22-rdf-syntax-ns#"
   xmlns:svg="http://www.w3.org/2000/svg"
   xmlns="http://www.w3.org/2000/svg"
   xmlns:sodipodi="http://sodipodi.sourceforge.net/DTD/sodipodi-0.dtd"
   xmlns:inkscape="http://www.inkscape.org/namespaces/inkscape"
   version="1.1"
   x="0px"
   y="0px"
   viewBox="0 0 841.89 786.77"
   style="enable-background:new 0 0 841.89 786.77;"
   xml:space="preserve"
   id="svg4171"
   sodipodi:docname="LGM_ow.svg"
   inkscape:version="0.92.4 (5da689c313, 2019-01-14)"><metadata
   id="metadata4177"><rdf:RDF><cc:Work
       rdf:about=""><dc:format>image/svg+xml</dc:format><dc:type
         rdf:resource="http://purl.org/dc/dcmitype/StillImage" /><dc:title></dc:title></cc:Work></rdf:RDF></metadata><defs
   id="defs4175" /><sodipodi:namedview
   pagecolor="#ffffff"
   bordercolor="#666666"
   borderopacity="1"
   objecttolerance="10"
   gridtolerance="10"
   guidetolerance="10"
   inkscape:pageopacity="0"
   inkscape:pageshadow="2"
   inkscape:window-width="4480"
   inkscape:window-height="2410"
   id="namedview4173"
   showgrid="false"
   inkscape:lockguides="true"
   inkscape:zoom="1.4142136"
   inkscape:cx="364.73486"
   inkscape:cy="456.72666"
   inkscape:window-x="-12"
   inkscape:window-y="-12"
   inkscape:window-maximized="1"
   inkscape:current-layer="layer4" />
<style
   type="text/css"
   id="style3962">
	.st0{display:none;}
	.st1{display:inline;fill:#858685;}
	.st2{fill:none;}
	.st3{fill:#F29000;}
	.st4{fill:#F8B131;}
	.st5{fill:#FFFFFF;}
</style>
<g
   inkscape:groupmode="layer"
   id="layer4"
   inkscape:label="Layer 1"
   style="display:inline" /><g
   inkscape:groupmode="layer"
   id="layer5"
   inkscape:label="Layer 2"
   style="display:inline" /><g
   id="Ebene_3"
   class="st0">
	<rect
   x="-20.38"
   y="-26.28"
   class="st1"
   width="886.9"
   height="835.86"
   id="rect3964" />
</g>
<g
   id="blühte_x5F_0w">
	<g
   id="g4095">
		<path
   class="st2"
   d="M277.09,310.42c-0.52-2.12-0.18-4.26-0.47-6.34c-0.12-0.83-0.09-1.65-0.06-2.47l-2.36,0.63    c-0.23,0.52-0.51,0.97-0.85,1.3c-0.1,0.09-0.43-0.33-0.33,0.25c0.37,2.18-0.59,3.79-2.54,4.58c0.89,2.49-1.25,4.16-2.23,5.64    c-2.11,3.16-5.37,5.51-7.87,8.47c-0.14,0.16-0.48,0.24-0.71,0.21c-0.89-0.11-1.55,0.39-2.08,0.93c-2.52,2.56-5.6,1.45-8.35,1.01    c-2.35-0.38-2.56-0.41-2.58,2.18c-0.01,1.52,0.96,2.52,1.36,3.78c0.89,2.86,1.29,6.4,5.13,7.22c0.89-1.05,0.61-2.52,1.84-3.64    c1.58-1.44,2.83-3.27,4.54-4.69c2.09-1.74,4.45-3.09,6.71-4.46c1.6-0.96,3.26-2.03,5.05-2.76c0.72-0.29,1.65-0.25,1.96-1.2    c0.48-1.48,0.73-3.03,2.02-4.16c1.51-1.32,0.98-3.8,2.85-5.1C277.56,311.42,277.26,311.09,277.09,310.42z"
   id="path3967" />
		<path
   class="st2"
   d="M238.88,314.65c-0.28-0.92-0.63-1.8-1-2.67l-1.87,0.5c0.09,0.08,0.2,0.15,0.29,0.23    C237.08,313.43,237.95,313.89,238.88,314.65z"
   id="path3969" />
		<path
   class="st2"
   d="M280.7,303.24c-0.1,0.81-0.92,2.34,0.5,3.27c1.04-0.79,1.32-2.01,1.17-3.04c-0.16-1.19,0.42-1.63,1.21-1.55    c0.87,0.09,1.24,0.88,0.96,1.82c-0.26,0.88-0.51,1.76-0.85,2.95c2.15-1.07,3.26-2.71,4.61-4.17c1.56-1.69,3.02-3.44,4.44-5.23    l-12.15,3.26C280.72,301.42,280.81,302.32,280.7,303.24z"
   id="path3971" />
		<path
   class="st2"
   d="M242.73,315.44c1.15,2.09,2.43,4.17,2.69,7.11c0.33-0.88,0.75-1.42,0.63-1.75    c-1.65-4.27,0.23-8.05,2.63-10.96c0.26-0.31,0.52-0.64,0.77-0.97l-8.65,2.32C241.38,312.64,241.98,314.07,242.73,315.44z"
   id="path3973" />
		<g
   id="g3979">
			<g
   id="g3977">
				<path
   class="st3"
   d="M297.85,245.17c-0.81-0.36-0.09-1.29-0.21-1.93c-1.42,0.17-2.09,1.18-2.54,2.11      c-0.53,1.09-0.72,2.23-2.19,2.53c-0.48,0.1-0.78,1.12-0.39,1.31c1.36,0.65,1.31,2.3,2.6,3.2      C294.77,249.41,295.96,247.24,297.85,245.17z"
   id="path3975" />
			</g>
		</g>
		<g
   id="g3985">
			<g
   id="g3983">
				<path
   class="st3"
   d="M402.21,215.8c-1.76-1.81-2.9-3.86-3.49-6.4c-0.54-2.31-1.53-4.54-1.63-6.94c-0.04-0.9,0.82-1.95,0.58-2.71      c-0.63-1.96,0.14-3.23,1.38-4.58c1.01-1.11,0.69-1.91-0.9-1.99c-0.71,0.66-0.23,2.05-1.66,2.46c-0.13-1.34-0.78-2.49-0.12-4.13      c-7.21,4.95-13.44,10.45-20.69,15.33c1.58,0.32,2.57,0.98,3.98,0.42c1.09-0.43,2.53-0.63,3.62-0.3      c3.73,1.12,7.78,1.45,10.98,3.96c1.87,1.47,4.39,2.04,5.66,4.38c0.29,0.52,1.16,1.53,2.33,1.07      C402.23,216.18,402.3,215.9,402.21,215.8z"
   id="path3981" />
			</g>
		</g>
		<g
   id="g3991">
			<g
   id="g3989">
				<path
   class="st3"
   d="M304.38,280.06c1.52,0.96,3.58-1.27,3.7-3.94C306.9,277.49,306.33,279.35,304.38,280.06z"
   id="path3987" />
			</g>
		</g>
		<g
   id="g3997">
			<g
   id="g3995">
				<path
   class="st3"
   d="M200.83,247.99c-0.96-1.41-2.03-2.18-3.62-1.27c-0.95,0.55-1.17,0-1.43-0.49c-2.07,0.93-3.8,2.54-6.19,2.95      c4.99,1.71,10.44,1.52,15.13,4.36C203.53,251.48,202.07,249.81,200.83,247.99z"
   id="path3993" />
			</g>
		</g>
		<g
   id="g4003">
			<g
   id="g4001">
				<path
   class="st3"
   d="M220.01,225.18c-0.37-0.36-0.53-0.57-0.74-0.7c-3.18-2.05-5.99-4.49-8-7.76c-0.16-0.27-0.42-0.24-0.68-0.19      c-0.08,0.32-0.28,0.67-0.2,0.94c0.87,3.12,1.15,6.3,1.2,9.52c0.02,1.67-0.85,3.19-0.63,4.99c0.08,0.63-1.27,2-1.53,3.23      c-0.64,2.97-1.95,5.27-4.92,6.63c-2.49,1.14-2.55,3.13-0.89,5.33c0.42,0.55,1.05,0.66,1.37,1.28c1.38,2.76,3.54,4.95,5.43,7.41      c-0.8-1.55-0.66-3.05-0.19-4.62c0.2-0.69,0.34-1.37,0.03-2.26c-0.81-2.29-0.12-4.77,0.53-6.91c0.7-2.28,1.31-4.64,2.27-6.9      c1.15-2.7,2.31-5.07,4.84-6.64c0.43-0.26,0.6-0.87,0.38-1.26C217.26,225.48,218.6,225.36,220.01,225.18z"
   id="path3999" />
			</g>
		</g>
		<g
   id="g4009">
			<g
   id="g4007">
				<path
   class="st4"
   d="M210.54,216.49c0,0.02,0.01,0.03,0.01,0.05c0.01,0,0.03,0,0.04-0.01c0-0.01,0.01-0.02,0.01-0.02      C210.58,216.5,210.57,216.49,210.54,216.49z"
   id="path4005" />
			</g>
		</g>
		<g
   id="g4015">
			<g
   id="g4013">
				<path
   class="st3"
   d="M291.17,255.49c-0.71-1.61-0.46-3.3-0.92-5.33c-1.01,2.02-2.94,2.33-4.22,3.42      c0.82,2.35-0.85,4.25-0.93,6.45c0.99,0.51,1.67,2.57,3.22,0.88c0.45-0.49,0.91-0.9,1.44-1.28      C291.23,258.58,291.88,257.09,291.17,255.49z"
   id="path4011" />
			</g>
		</g>
		<g
   id="g4021">
			<g
   id="g4019">
				<path
   class="st3"
   d="M276.56,299.5c-0.18-1.97-0.2-3.97-0.08-5.95c0.1-1.8-0.12-3.61-0.05-5.35c0.09-2.29,0.35-4.57,0.02-6.99      c-1.2,0.76-2.2,0.55-2.99-0.2c-0.07-1.47,1.21-0.25,1.5-1.28c-1.21-0.56-2.18-1.25-3.11,0.65c-0.7,1.43-2.23,2.84-3.38,3.26      c-2,0.73-4.08,2.14-6.48,1.46c-0.84-0.24-1.53,0.18-1.77,0.93c-0.74,2.36-3.05,3.71-3.78,6.15c-0.23,0.77-0.44,1.81-1.28,2.57      c-1.78,1.64-3.17,3.71-5,5.29c-1.9,1.64-3.61,3.66-6.29,4.21c-1.57,0.33-3.03,0.06-4.49-0.44c-1.08-0.37-1.83,0.19-1.31,1.11      c1.12,2,1.9,4.13,2.74,6.25l8.65-2.32c1.44-1.87,2.8-3.89,4.77-5.47c1.57-1.26,3.31-2.47,4.91-3.66      c3.31-2.44,7.06-4.28,11.15-5.21c1.24-0.28,2.53,0.14,3.4,0.88c1.41,1.21,1.47,4.65,0.52,6.83l2.36-0.63      C276.6,300.91,276.63,300.21,276.56,299.5z"
   id="path4017" />
			</g>
		</g>
		<g
   id="g4027">
			<g
   id="g4025">
				<path
   class="st3"
   d="M297.22,285.89c-2.36,0.45-4.76,0.69-7.09,1.25c-2.68,0.64-5.08-0.68-7.65-0.84      c-1.48-0.09-1.91,0.86-1.95,1.68c-0.12,2.82,0.74,5.67,0.02,8.47c-0.35,1.38-0.13,2.73,0.05,4.09l12.15-3.26      c0.81-1.02,1.61-2.05,2.41-3.09c0.58-0.75,0.29-1.89,1.26-2.42c2.95-1.61,2.13-4.72,3-7.19      C298.66,285.1,298.04,285.73,297.22,285.89z"
   id="path4023" />
			</g>
		</g>
		<g
   id="g4033">
			<g
   id="g4031">
				<path
   class="st3"
   d="M241.88,281.03c-1.21-1.74-3.68-1.86-5.87-2.53c-0.58-0.18-0.55,0.43-0.81,0.68      c-1.49,1.4-4.64,1.56-6.24,0.23c-0.55,1.36-2.16,2.32-1.59,3.99c0.68,1.96,1.62,3.82,2.47,5.72c0.97,2.16,2.32,4.11,3.08,6.4      c0.35,1.07,0.64,2.98,2.83,2.91C234.96,291.68,237.81,286.35,241.88,281.03z"
   id="path4029" />
			</g>
		</g>
		<g
   id="g4039">
			<g
   id="g4037">
				<path
   class="st3"
   d="M284.7,263.5c-3.01-1-5.09-3.4-8.33-5.31c1.83,7.45,1.95,14.72,3.52,21.86c0.63-1.16,0.23-2.4,0.44-3.43      c0.73-3.64,1.65-7.31,4.28-10.2C285.72,265.2,285.77,263.85,284.7,263.5z"
   id="path4035" />
			</g>
		</g>
		<g
   id="g4045">
			<g
   id="g4043">
				<path
   class="st3"
   d="M705.18,117.37l-172,46.09l-25.29-94.4l-173,46.35l-25.43-94.9L55.43,88.58l68.07,254.04l81.83-21.93      c-0.29-0.27-0.58-0.55-0.85-0.85c-0.6-0.67-0.82-1.2-0.18-2.07c2.74-3.72,5.82-6.76,10.31-8.6c3.14-1.29,6.05-1.02,9.16-1.04      c2.29-0.02,4.33,0.68,6.44,1.24c2.18,0.58,4.13,1.65,5.8,3.11l1.87-0.5c-1.42-3.34-3.31-6.39-4.42-9.91      c-1.16,0.81-2.51,0.85-3.87,0.99c-2,0.2-3.49,1.53-5.08,2.59c-0.21,0.14-0.34,0.45-0.63,0.39c-2.76-0.59-5.31,0.79-8.02,0.95      c-2.92,0.16-5.94,0.65-8.88,1.21c-0.49,0.09-1.06-0.11-1.56-0.25c-1.95-0.54-3.86-1.21-5.83-1.64      c-1.87-0.41-3.12-1.71-4.61-2.67c-1.64-1.05-1.77-2.31-0.93-3.92c-0.6-0.23-1.15-0.45-1.43-0.57c-2.37-4.6-0.67-8.85,0.97-12.79      c1.81-4.35,4.26-8.37,8.92-10.74c2.7-1.37,5.36-2.29,8.24-2.19c2.02,0.07,4.34-0.71,6.12,1.16c0.36,0.38,1.13,0.37,1.8,0.56      c0.12-0.76,0.32-1.34-0.37-2.04c-1.66-1.68-2.51-3.91-3.66-5.93c-1.14-2.01-1.86-2.26-4.07-1.2c-0.42,0.2-0.85,0.43-1.3,0      c-0.07-1.18,1.23-0.99,1.71-1.65c-1.12-1.02-2.36-0.57-3,0.25c-1.74,2.24-4,3.1-6.67,3.75c-4.32,1.06-8.62,1.41-12.58-0.63      c-2.16-1.11-4.44-1.97-6.58-3.18c-2.75-1.54-4.83-3.73-7.19-5.64c-1.78-1.44-1.51-4.84-0.04-6.54c1.79-2.07,4.3-1.45,6.21-2.54      c-0.88-1.16-2.19,0.15-3.38-0.24c-3.07-1.01-6.32-1.56-9.28-2.8c-3.09-1.3-5.94-3.18-6.62-6.94c-0.01-0.06-0.1-0.1-0.11-0.16      c-0.1-1.26,0.88-2.62-0.63-3.84c1.69,0.45,2.52-0.37,3.7-1.14c2.18-1.41,4.35-2.92,7.43-2.88c3.84,0.05,7.51,0.46,11.26,1.18      c2.41,0.46,4.39,1.3,6.24,2.74c0.28,0.22,0.76,0.18,1.2,0.26c-2.34-2.36-4.56-4.75-6.95-6.95c-1.86-1.71-3.31-4.35-6.57-3.58      c-0.2,0.05-0.47-0.19-0.6-0.24c-0.48-1.03,1.11-1.59,0.35-2.53c-2.54,0.21-4.94,0.49-7.54-0.43c-1.42-0.5-2.92-1-4.32-1.59      c-3.59-1.5-6.56-3.84-9.32-6.62c-2.08-2.1-3.4-4.54-4.83-7c-1.45-2.49-2.09-5.17-2.29-7.98c-0.06-0.76,0.41-1.24,1.07-1.76      c2.21-1.73,4.75-1.89,7.38-2.01c3.17-0.14,5.68,0.72,8.22,2.9c1.95,1.67,4.11,3.2,6.02,4.97c3.48,3.23,6.05,7.09,7.49,11.59      c0.49,1.55,0.33,3.33,0.33,5.01c0,0.65-0.4,1.29,0.25,1.94c0.19-0.51,0.37-0.97,0.56-1.46c0.73-0.14,1.73-0.05,1.65,0.6      c-0.14,1.11,0.86,1.8,0.66,2.82c-0.07,0.37,0.03,0.68,0.33,0.88c2.96,1.95,4.63,5.21,7.57,7.27c1.75,1.23,2.87,3.37,4.25,5.12      c0.23,0.3,0.5,0.41,0.98,0.44c0.27-1.58-0.76-2.99-0.52-4.62c0.36-2.46-0.45-5.02,0.15-7.46c0.91-3.72,1.86-7.47,3.23-11.04      c0.8-2.09,1.93-4.37,4.57-4.94c0.72-0.16,0.45-1.4,1.59-1.06c0.01,0.96,0.5,1.53,1.5,2.13c1.52,0.92,2.39,2.65,2.87,4.42      c0.24,0.9,0.6,1.57,1.57,1.72c-0.21-0.7-0.08-1.42-0.46-2.18c-1.29-2.59,0.85-3.93,2.31-5.45c2.3-2.41,5.3-3.92,8.23-5.17      c2.99-1.28,6.32-2.04,9.72-1.71c0.23,0.02,0.49-0.14,0.85-0.26c-0.28-0.47-0.6-0.48-0.99-0.47c-3.41,0.08-6.79,0.15-10.14-0.9      c-5.53-1.73-11.08-3.42-16.71-4.76c-2.38-0.56-3.46-2.44-5.09-3.72c-0.5-0.39-1.13-1-1.55-1.68c-1.52-2.42-1.13-5.08,0.58-7.32      c2.12-2.76,4.69-4.92,7.9-5.96c2.79-0.91,5.43-2.35,8.43-2.6c0.28-0.02,0.7-0.04,0.82-0.67c-1.6-1.22-3.72-0.81-5.37-0.77      c-5.92,0.13-11.34-1.86-16.59-3.87c-2.43-0.93-5.24-2.45-7.01-5c-0.75-1.09-2.22-1.51-2.48-3.24c-0.18-1.15-0.32-3.85,0.64-4.53      c1.46-1.03,2.83-2.17,4.42-3.05c3.44-1.9,6.94-3.66,10.54-5.25c2.25-0.99,4.82-1.83,7.01-1.88c2.43-0.05,4.86-0.51,7.32-0.49      c4.29,0.03,8.03,1.84,12,2.84c1.81,0.45,2.92,2.21,4.08,3.65c0.28,0.36,0.54,0.55,1.13,0.65c-0.38-1.59-1.21-2.91-2.12-3.97      c-2.01-2.35-3.44-5.06-5.21-7.55c-1.84-2.59-3.63-5.23-5.75-7.63c-0.66-0.74-0.83-0.8-1.67-0.38c-0.89,0.45-2,0.47-2.92,0.66      c-0.38-1.23,0.85-0.96,0.87-1.62c-1.34-0.62-1.44-0.65-1.71,0.5c-0.45,1.87-1.91,2.94-2.95,4.36c-1.67,2.28-4.09,3.5-6.06,5.27      c-1.44,1.29-3.96,1.29-5.92,2.07c-2.3,0.92-4.73,0.99-7.1,1.44c-0.26,0.05-0.6,0.13-0.78,0.01c-1.71-1.15-3.48-0.13-5.12,0.03      c-3.07,0.29-6.03-0.09-8.95-0.71c-3.35-0.71-6.63-1.8-9.91-2.82c-1.06-0.33-2.28-0.7-3-1.46c-0.87-0.92-1.91-2.03-1.18-3.65      c0.41-0.91,0.68-1.91,0.85-2.9c0.63-3.72,3.32-5.92,5.82-8.36c1.56-1.53,3.84-2.04,5.1-3.91c0.06-0.09,0.24-0.1,0.37-0.13      c2.54-0.56,4.84-1.8,7.32-2.56c2.95-0.9,6-0.47,8.98-1.27c2.31-0.62,5.09-0.14,7.54,1.05c1.55,0.76,3.3,1.1,5,1.51      c2.06,0.49,4,1.24,6.09,2.97c-0.83-3.54-3.57-4.91-4.95-7.27c-1.4-2.39-4.86-2.25-6.75-4.28c0.71-0.94,1.27-0.18,1.92-0.29      c-0.82-0.88-1.38-1.87-1.88-2.89c-6,1.51-11.83,1.17-17.59-0.84c-1.74-0.61-2.91-2.07-4.58-2.89c-3.43-1.69-5.94-4.68-8.79-7.21      c-0.94-0.83-0.43-1.5-0.62-2.21c-2.06-0.87-1.8-3.07-2.67-4.59c-0.89-1.57-0.02-3.85-1.92-5.12c-0.17-0.11-0.02-0.63-0.1-0.94      c-0.34-1.22,0.21-2.58-0.82-3.74c-0.5-0.57,0.13-1.23,0.88-1.59c-0.34-0.45-1.29-0.44-0.96-1.38c0.44-1.26,0.19-2.49-0.2-3.78      c-0.52-1.73,1.19-3.37,2.96-2.89c2.96,0.81,5.94,0.67,8.98,0.71c4.54,0.06,9.26,0.31,13.48,2.36c1.76,0.86,3.25,2.36,4.74,3.69      c1.58,1.42,3.49,2.58,4.5,4.53c1.62,3.11,3.83,5.84,4.76,9.42c0.62,2.4,0.01,4.9,1.17,7.23c0.57,1.15-0.58,2.61-0.37,4.05      c0.14,0.95-0.89,1.84-0.11,2.98c0.38,0.56-0.72,0.57-0.97,0.99c0.23,1.25,1.26,1.75,2.03,2.33c0.85,0.16,0.55-0.96,1.23-0.88      c0.12,0.05,0.34,0.09,0.35,0.16c0.51,3.72,3.17,6.1,5.55,8.55c2.21,2.28,3.82,5.01,5.95,7.34c1.34,1.47,2.63,3.01,4.04,4.41      c0.8,0.79,1.65,1.51,2.28,2.51c-0.84-1.26-0.26-3.14-1.83-4.04c-0.76-0.44-0.31-1.08-0.49-1.61c-2.05-5.82,0.37-11.15,2.23-16.4      c0.69-1.96,2.56-3.63,3.95-5.38c1.99-2.52,4.14-4.92,6.37-7.23c0.8-0.84,2-1.3,3.03-1.91c1.94-1.16,3.98-2.12,5.77-3.58      c0.85-0.7,2.22,0.12,3.42,0.04c4.58-0.3,7.49,3.8,6.69,8.3c-0.37,2.09-0.99,4.38-0.05,6.57c0.18,0.42,0.11,0.79-0.14,1.14      c-1.08,1.56-1.62,3.36-1.93,5.17c-0.32,1.86-1.31,3.38-2.39,4.69c-1.07,1.31-1.43,2.92-2.4,4.17c-1.34,1.72-2.76,3.47-4.48,4.77      c-2.12,1.6-4.32,3.15-6.76,4.34c-1.77,0.87-3.69,1.32-5.37,2.14c-1.34,0.66-2.76,0.24-3.98,1.18      c5.22,6.35,9.21,13.72,14.66,19.98c0.73-0.37,0.89-1.08,0.65-1.26c-2.04-1.61-0.81-3.8-1.06-5.7c-0.53-4.04,1.2-7.73,2.54-11.33      c0.8-2.15,2.21-4.26,3.46-6.32c0.94-1.55,1.95-3.05,3.22-4.25c2.75-2.61,5.3-5.46,8.46-7.61c1.86-1.27,3.99-2,6.05-2.85      c1.25-0.52,2.84,0.56,3.57,1.93c0.49,0.92,1.06,1.83,1.58,2.71c1.78,3.03,2.28,6.08,1.19,9.34c-0.36,1.09,0.15,1.99,0.08,3.02      c-0.36,4.97-1.26,9.67-4.66,13.59c-0.37,0.42-0.5,1.1-0.6,1.69c-0.62,3.54-3.36,5.57-5.63,7.91c-0.85,0.87-1.92,1.51-2.83,2.33      c-2.03,1.83-4.48,2.78-7.08,3.42c-0.28,0.07-0.61-0.09-0.95-0.15c0.26,1.43-0.76,1.49-1.58,1.51c-0.58,0.01-0.95,0.2-1.09,0.66      c-0.11,0.38,0.45,0.69,0.52,0.94c0.43,1.46,2.11,2.17,2.15,3.85c0.03,1.23,1.16,2.03,1.72,2.99c1.92,3.3,3.72,6.57,5.06,10.18      c0.38,1.03,0.67,2.7,2.13,3.53c0.76,0.43,0.69,1.86,0.96,2.82c0.44,1.55,1.16,2.89,1.96,4.24c1.22-1.01,1.43-3.63,0.59-5.75      c-1.27-3.19-1.87-6.43-1-9.9c0.38-1.51,0.33-3.21,0.12-4.77c-0.13-0.95,0.72-0.87,0.83-1.34c0.44-1.85,1.6-3.4,2.21-5.1      c1.37-3.81,4.1-6.38,6.67-9.24c1.68-1.87,3.3-3.85,4.98-5.75c1.95-2.21,3.7-4.72,6.92-5.29c0.19-0.03,0.36-0.16,0.52-0.27      c2.64-1.82,3.88-1.64,5.68,1.02c1.41,2.07,2.23,4.4,2.69,6.86c0.11,0.58,0.29,1.15,0.48,1.71c1.03,3.05,0.97,6.08,0.61,9.28      c-0.25,2.25-0.41,4.49-1.23,6.55c-1.28,3.21-2.95,6.21-5.14,8.98c-1.31,1.64-2.76,3.19-3.96,4.95c-1.05,1.54-2.67,2.7-4.09,3.97      c-1.62,1.45-3.65,2.25-5.61,2.98c-2.25,0.84-4.71,1.06-7.29,0.08c-0.06,1.09-1.44,1.1-1.49,2.22c0.13,0.67,1.37,0.41,1.16,1.49      c-0.54,0.79-1.27-0.1-2.08,0.08c0.86,3.65,2.63,6.96,4.05,10.39c1.39,3.35,3.09,6.58,3.99,10.21c0.48-1.9,0.75-3.79,0.92-5.62      c0.31-3.21,1.84-5.83,3.28-8.53c0.22-0.41,0.45-0.83,0.54-1.28c0.25-1.26,0.75-2.39,1.79-3.17c0.67-0.5,0.98-1.08,1.15-1.89      c0.21-0.99,1.12-1.52,1.82-2.18c2.33-2.17,5.26-3.45,7.82-5.27c0.69-0.49,1.74-0.78,2.64-1.09c2.81-0.96,5.64-2.02,8.55-2.47      c1.52-0.23,3.34,0.49,4.82,1.21c1.52,0.74,1.48,2.72,1.72,4.07c0.58,3.22,1.01,6.72-0.65,9.69c-1.35,2.41-2.53,4.93-3.8,7.35      c-1.15,2.18-2.72,3.98-4.23,5.7c-1.9,2.18-3.36,5-6.34,6.11c-0.31,0.12-0.39,0.33-0.48,0.58c-0.61,1.81-2.33,2.64-3.76,3.1      c-1.47,0.48-2.36,1.78-4.16,1.91c-2.45,0.18-2.42,0.62-5.22,0.19c-0.2,0.47-0.39,0.95-0.64,1.54c-1.22-0.45-2.32-0.14-3.24,0.16      c0.81,2.73,1.63,5.33,2.35,7.96c0.7,2.61,1.72,5.15,2.28,8.01c0.22-0.77,0.54-1.52,0.65-2.31c0.42-3.04,1.71-5.97,3.4-8.21      c1.52-2.01,1.95-5.23,5.04-5.95c0.28-1.99,2.43-2.15,3.52-3.47c1.3-1.57,3.62-2.32,5.53-3.36c1.92-1.05,3.96-1.82,6.1-2.31      c1.39-0.32,1.57-1.24,1.36-2.45c-0.67-3.85,1.91-6.36,5.77-6.82c5.17-0.62,9.49,1.91,14.17,3.03c1.52,0.36,2.77,1.84,4.29,2.65      c1.98,1.07,3.72,2.67,5.36,4.26c1.89,1.84,3.4,4.02,4.61,6.41c0.87,1.7,1.63,3.42,2.33,5.2c0.47,1.18,0.7,2.34,0.44,3.44      c-0.78,3.25,0.09,6.68-1.2,9.86c-0.3,0.74,0.09,1.29,0.89,1.6c1.4-1.18,1.38-2.61,0.96-4.26c-0.67-2.6-0.4-5.21,0.43-7.75      c0.28-0.85,1.02-1.41,1.79-1.37c0.84,0.05,0.86,0.92,0.97,1.7c0.24,1.8,0.68,3.57,0.73,5.4c3.44-4.55,8.4-7.95,10.54-14.01      c-2.51,0.51-4.57-0.38-6.71-0.95c-1.62-0.44-2.8-1.49-4.02-2.59c-1.9-1.71-3.83-3.42-5.92-4.88c-1.03-0.72-1.28-1.79-1.97-2.64      c-2.71-3.32-5.24-6.95-6.45-10.93c-1.02-3.34-2.91-6.87-2.04-10.46c0.43-1.79-0.4-3.97,1.39-5.35      c-2.45-2.41,0.22-4.32,0.17-6.38c2.33-0.4,4.1,1.75,6.27,0.77c1.39,1.11,2.63,2.57,4.45,3.25c2.06,0.77,4.11,1.55,5.42,3.51      c0.6,0.9,1.85,0.89,2.53,1.42c3,2.37,5.51,5.42,7.43,8.59c1.51,2.49,2.96,5.3,3.24,8.67c0.18,2.08,1.02,4.62,1.23,6.74      c0.28,2.79-0.16,6.01-1.59,8.74c-0.41,0.77-0.46,1.47-0.27,2.39c0.31-0.31,0.54-0.54,0.76-0.77c3.99-4.05,8.31-7.73,12.81-11.21      c1.49-1.15,3.77-2.15,1.81-4.77c0.44-0.17,0.67-0.32,0.92-0.34c0.43-0.03,0.94,0.21,0.84-0.62c-0.06-0.48-0.2-0.84-0.66-0.82      c-2.75,0.16-4.6-1.92-6.9-2.88c-1.19-0.49-2.18-1.95-2.81-3.2c-1.71-3.42-4.23-6.35-5.12-10.32c-0.73-3.25-1.64-6.48-2.34-9.76      c-0.21-1.02-0.08-1.46,0.85-1.84c0.29-0.12,1.07-0.11,0.8-0.91c-0.53-0.74-1.01,0.61-1.69-0.11c0.44-1.17-0.86-2.72,0.63-4.05      c-1.9-0.95-0.38-1.7,0.37-2.33c1.13-0.96,1.39-2.65,0.35-3.9c1.62-0.95,1.15-2.39,0.89-3.81c-0.34-1.81,0.81-2.86,2.58-2.37      c1.89,0.53,3.94,0.75,5.04,2.76c0.11,0.21,0.44,0.48,0.61,0.44c3.87-0.75,5.17,2.75,7.34,4.6c2.2,1.87,3.51,4.64,4.94,7.1      c2.22,3.83,3.4,8.1,3.98,12.63c0.54,4.21-0.3,8-1.33,11.93c-0.5,1.87-1.47,3.32-2.67,4.81c1.31-0.56,2.58-1.13,3.48-2.25      c0.2-0.25,0.31-0.55,0.63-0.74c2.24-1.3,4.15-3.09,6.26-4.51c1.59-1.07,3.33-2.05,5.05-2.97c1.74-0.93,2.43-1.94,0.89-3.46      c0.55-1.2,1.08,0.09,1.68-0.1c-0.11-0.26-0.15-0.55-0.26-0.59c-3.33-0.93-5.87-3.08-8.36-5.33c-0.36-0.33-0.61-0.68-0.86-1.08      c-1.93-3.15-3.31-6.61-4.31-10.08c-1.23-4.25-2.21-8.59-2.25-13.18c-0.03-3.83,0.68-7.36,1.6-10.97      c0.41-1.59,1.85-2.48,2.33-4.08c0.23-0.77,1.56-1.23,2.94-0.92c7.07,1.59,10.63,6.58,13.59,12.68      c1.83,3.78,2.76,7.71,3.79,11.67c0.26,1.03,0.44,2.17,0.28,3.21c-0.39,2.57,0.15,5.12-0.23,7.72c-0.41,2.87-1.81,5.27-2.72,7.89      c-0.3,0.88-2.2,0.55-1.91,2.47c7.67-3.04,14.43-7.83,22.18-10.61c-0.69-1.11-1.36-2.45-0.28-4.21c0.62,1.03,1.14,1.88,1.73,2.86      c0.5-1.21,0.49-2.43-0.86-2.65c-1.31-0.22-0.65-1.24-1.17-1.75c-3.21-3.16-4.06-7.17-4.29-11.51c-0.08-1.56-0.65-3.33-0.39-4.74      c0.38-2-0.41-4.05,0.6-5.98c1.01-1.93,0.95-4.31,2.47-6.07c0.24-0.28,0.42-0.7,0.23-1.13c-0.58-1.26,0.06-2.17,0.84-3.08      c0.51-0.59,0.99-1.22,0.91-2.1c-0.12-1.4,1.4-1.36,2.02-2.19c2.51-3.34,7.87-2.71,9.97,0.88c2.67,4.55,4.62,9.38,5.27,14.58      c0.4,3.2,0.64,6.51-0.33,9.72c-0.17,0.55-0.47,1.1-0.01,1.71c0.37,0.49,0.06,1.07-0.17,1.53c-1.92,3.81-4.61,7.09-7.98,9.6      c-1.04,0.78-2.45,1.31-3.59,2.16c-0.45,0.34-0.88,0.59-0.81,1.47c1.9-0.96,4.04-0.93,5.87-2.13c1.11-0.73,2.61-0.54,3.94-1.02      c1.87-0.67,3.68-1.55,5.6-2.05c1.2-0.32,2.48-0.51,3.81,0.18c0.5-1.1,0.97-2.21,2.33-2.31c0.84,0.6-0.08,1.28,0.17,1.84      c1.31,0.08,1.75-0.62,2.14-1.85c1.25-3.91,3.66-7.06,7.42-8.78c1.63-0.74,3.42-1.81,5.42-1.16c0.75,0.24,1.1-0.36,1.61-0.58      c2.29-0.97,4.9-0.89,7.01-0.45c0.97,0.2,28.8,7.42,25.36,12.26c-1.55,2.9-21.06,9.89-23.23,10.41      c-6.24,1.47-12.1-0.21-17.8-2.35c-1.82-0.68-3.56-2.25-4.67-4.14c-0.37-0.63-0.77-1.49-1.6-1.2c-0.94,0.32-0.77,1.05-0.17,1.74      c0.21,0.25,0.09,0.68-0.28,0.82c-0.34,0.13-0.64-0.03-0.84-0.35c-1.2-1.89-2.73-1.62-4.73-1.26      c-5.13,0.93-10.12,2.26-15.02,4.01c-1.13,0.41-2.07,1.33-3.43,1.62c0.76,0.32,1.49,0.72,2.28,0.94      c2.26,0.65,4.54,1.26,6.82,1.83c4.13,1.03,7.47,3.4,10.89,5.84c2.56,1.83,4.52,4.24,6.16,6.58c2.1,3.01,4.2,6.19,5.61,9.7      c0.76,1.9,1.19,3.87,1.68,5.81c0.56,2.18-0.89,3.96-0.08,5.89c0.12,0.29-0.13,0.62-0.43,0.84c-2.7,2.03-5.21,2.07-8.31,0.21      c-0.02-0.01-0.05-0.04-0.09-0.07l0.01,0.3c-3.65-0.5-16.24-8.01-17.97-9.98c-2.09-2.38-3.81-5.25-4.68-8.38      c-0.36-1.32-1.5-2.2-1.62-3.51c-0.33-3.77-1.95-7.55,0-11.33c0.11-0.22,0.08-0.51,0.13-0.88c-1.15-0.28-2.1-0.85-2.98-1.48      c-0.82,0.34-0.11,2.01-1.68,1.6c-0.32-0.62,0.22-1.24,0.17-1.92c-2.28-1.16-4.11,0.51-5.44,1.47c-1.27,0.92-2.66,1.27-3.92,1.98      c-2.88,1.62-5.86,3.04-8.78,4.57c-0.13,0.07-0.15,0.36-0.27,0.68c1.02,0.68,2.14,1.3,2.76,2.48c0.23,0.44,0.86,0.65,1.24,0.45      c2.15-1.14,4.03-0.02,5.6,1c3.06,1.98,6.51,3.48,8.97,6.27c2,2.27,3.92,4.59,5.55,7.19c2.14,3.41,2.71,7.24,3.85,10.95      c0.95,3.1,0.32,6.22,0.91,9.2c0.44,2.23-1.14,3.22-1.62,4.82c-0.65,0.5-0.96-0.68-1.53-0.36c-0.19,0.16-0.41,0.25-0.18,0.48      c0.47,0.46-0.07,1.13-0.14,1.03c-1.14-1.52-2.74,0.52-4.13-0.66c-0.78-0.66-2.31-0.97-3.48-1.23c-2.29-0.5-3.28-2.34-4.88-3.53      c-1.36-1.01-2.29-2.49-3.97-3.48c0.44,1.62,1.24,2.82,1.78,4.09c1.11,2.59,0.63,5.26,1.06,7.86c0.09,0.57-0.21,1.25-0.89,1.69      c-1.89,1.21-3.78,2.05-6.14,1.64c-1.32-0.23-2.6-1.04-4.08-0.35c-0.41,0.19-1.36-0.1-1.68-0.49c-1.34-1.62-3.33-1.55-5.05-2.17      c-3.58-1.29-6.58-3.32-9.32-6.02c-1.71-1.68-3.39-3.43-4.73-5.33c-2.63-3.71-5.34-7.51-4.62-12.58      c0.16-1.15-0.29-2.38,0.54-3.42c-0.41-0.36-0.84-0.51-1.36-0.43c-0.5,0.48,0.42,1.16-0.34,1.7c-0.92,0.09-1.62-0.11-1.08-1.81      c-5.97,4.39-10.96,9.32-15.92,14.48c2.03-0.32,4.09-0.49,6.07-1c1.33-0.34,2.46-0.02,3.68,0.27c0.99,0.23,1.89,0.83,3.08,0.29      c0.68-0.3,1.01,1.03,1.95,1.22c4.63,0.93,8.17,3.75,11.46,6.96c2.84,2.77,4.73,6.23,6.85,9.49c2.24,3.44,1.48,9.07-1.09,12      c-0.28,0.32-0.51,0.58-0.91,0.69c-4.19,1.15-8.2,1.56-12.08-1.26c-1.53-1.12-3.34-1.99-5.01-2.98c-2.45-1.46-4.5-3.45-6.33-5.63      c-0.51-0.61-1.01-1.22-1.65-1.67c-1.54-1.08-2.37-2.68-3.26-4.23c-0.46-0.79-0.74-1.68-1.53-2.23c-0.21-0.15-0.58-0.38-0.55-0.5      c0.52-2.33-1.39-4.21-1.18-6.46c0.06-0.65,0.35-1.28,0.57-2.06c-1.47-0.57-2.55-0.43-3.28,0.92c-0.2,0.37-0.54,0.93-0.82,0.63      c-1.52-1.62-2.01,0.35-2.24,0.87c-0.85,1.91-3.33,2.37-3.8,4.51c-1.26,1.16-3.43,1.68-2.89,4.1c-0.01,0.01-0.01,0.02-0.02,0.03      c0,0,0,0,0,0c-0.89-0.25-1.51,0.27-2.11,0.77c-1.55,1.27-2.2,2.91-2.45,4.63c-0.02,0.08-0.02,0.16-0.03,0.24      c-0.06,0.48-0.1,0.96-0.11,1.44c0.08-0.11,0.16-0.24,0.23-0.35c0.46,1.33,1.97,2.21,3.56,1.76c0.89-0.25,1.69-0.76,2.48-1.25      c0.13,0.05,0.26,0.1,0.41,0.13c0.48,0.1,0.9,0.07,1.28-0.05c0.45,0.13,0.94,0.14,1.39-0.04c0.16,0.01,0.31,0.01,0.46,0      c4.63,0.29,9.01,0.38,13.18,1.97c1.52,0.58,2.16,2.23,3.91,2.58c3.18,0.64,4.55,3.59,6.67,5.61c1.51,1.44,2.81,2.98,3.93,4.7      c1.43,2.21,2.97,4.39,2.36,7.3c-0.2,0.96-0.63,1.67-1.54,1.89c-3.49,0.84-6.84,1.55-10.64,0.96c-0.96-0.15-1.94-0.26-2.91-0.36      c-2.76-0.72-5.47-1.6-8.08-2.74c-5.75-2.5-9.45-6.24-13.43-10.18c-0.2-0.33-0.41-0.66-0.63-0.99c-0.57-0.85-0.78-1.8-1-2.77      c0.17-0.85-0.01-1.76-0.68-2.36c0.12-2.65-3.18-3.79-4.5-1.9c-0.59,0.23-1.08,0.66-1.39,1.27c-0.08,0.02-0.15,0.05-0.23,0.07      c-0.88,0.21-1.46,1.01-1.65,1.87c-0.23-0.06-0.46-0.12-0.71-0.16c-0.18,0.92-1.44,1.07-1.49,2.34c0.08,0.04,0.15,0.08,0.23,0.12      c-0.12,0.21-0.23,0.42-0.32,0.64c-0.97,0.76-1.67,1.84-1.77,3.17c-0.34,0.1-0.66,0.23-0.97,0.4c-0.16-0.05-0.32-0.09-0.49-0.14      c-0.08,0.18-0.16,0.36-0.24,0.55c0.02,0.02,0.04,0.03,0.05,0.04c-0.78,0.62-1.4,1.52-1.7,2.74c-0.09,0.38-0.61,0.78-1.05,1.11      c-0.13-0.1-0.27-0.19-0.4-0.28c-1.15,0.32-1.3,1.31-1.6,2.36c0.51,0.15,1.07,0.17,1.65,0c0.89-0.25,1.69-0.76,2.48-1.25      c0.13,0.05,0.26,0.1,0.41,0.13c0.48,0.1,0.9,0.07,1.28-0.05c0.45,0.13,0.94,0.14,1.39-0.04c0.16,0.01,0.31,0.01,0.46,0      c4.63,0.29,9.01,0.38,13.18,1.97c1.52,0.58,2.16,2.23,3.91,2.58c3.18,0.64,4.55,3.59,6.67,5.61c1.51,1.44,2.81,2.98,3.93,4.7      c0.98,1.52,2,3.02,2.35,4.76c0.01,0.02,0.02,0.02,0.03,0.04c0.5,0.81,1.38,1.36,1.69,2.34c1.67,5.24,4.77,10.02,5.27,15.62      c0.21,2.38,0.32,4.7,1.84,6.76c2.75-0.79,4.1-3.1,6.14-4c-1.35-2.54-4.23-3.82-5.06-6.7c-1.05-3.69-2.59-7.26-4.17-10.78      c-1.14-2.55-0.29-4.84,1.36-7.18c0.95-1.35,1.99-1.74,2.99-0.33c3.34,4.72,5.16,9.91,5.65,15.68c0.23,2.74-0.34,5.87,1.82,8.37      c0.94-1.37,2.42-1.65,3.75-2.18c2.96-1.16,3.66-3.41,1.53-5.16c-0.44-0.36-1-0.59-1.28-1.12c-3.58-6.66-7.37-13.28-6.99-21.18      c0.07-1.44-0.3-3.93,3.28-3.72c4.28,8.67,6.12,18.05,7.54,27.94c3.67-2.21,7.11-3.55,8.43-6.72c-0.73-0.99-2.17-1.3-2.79-2.4      c-2.63-4.61-4.75-9.43-6.54-14.38c-1.19-3.3,0.13-6.48,1.47-9.71c0.43-1.04,1.31-1.15,2.39-1.27c0.23,0.4,0.48,0.81,0.71,1.22      c2.62,4.71,2.96,10.13,4.64,15.14c0.09,0.29-0.07,0.65,0,0.96c0.66,2.96,0.08,6.26,2.35,8.92c2.92-1.21,4.43-3.49,6.43-5.35      c-4.43-3.17-6.65-7.12-8.02-11.79c-1.06-3.63-1.97-7.22-2.23-11.01c-0.12-1.62,1.12-3,1.45-4.55c0.13-0.63,1.91-1.11,2.22-0.65      c0.91,1.33,3.28,1.91,3.06,3.67c-0.27,2.15,0.52,3.92,1.19,5.78c0.51,1.43,1.68,2.9,1.41,4.29c-0.94,4.89,2.23,8.74,1.9,13.53      c3.37-1.44,4.62-4.12,7.36-5.45c0.77-0.37,2.55-0.35,2.37-1.83c0.97-1.5,2.65-2.6,4.21-3.27c2.16-0.93,1.8-1.68,0.85-2.69      c-2.96-3.13-3.74-7.19-5.36-10.89c-0.83-1.91-0.83-3.96-0.76-6.02c0.13-0.13,0.24-0.28,0.3-0.48c0.31-1.02,0.78-2.01,1.35-2.96      c0.07-0.04,0.14-0.06,0.21-0.12c0.92-0.74,1.35-0.75,1.97,0.07c0.61,0.82,0.93,1.81,1.37,2.71c0,0.01,0.01,0.01,0.01,0.02      c-0.13,0.23-0.19,0.48-0.05,0.77l1.14,2.32c0.07,0.15,0.17,0.26,0.28,0.34c0.25,4.57,1.86,8.89,2.45,13.43      c1.15-0.28,1.57-1.12,2.03-1.58c1.52-1.5,2.8-3.55,1.5-5.18c-0.88-1.11-1.49-2.25-2-3.48c-0.43-1.05-0.83-2.11-1.25-3.17      c0.04-0.12,0.07-0.25,0.05-0.39c-0.16-1.54,0.16-3.21-0.41-4.66c0-0.01,0-0.02,0-0.03c-0.31-1.57-0.2-3.13,0.27-4.67      c0.24-0.07,0.46-0.19,0.64-0.35c0.1-0.02,0.21-0.03,0.32-0.08l0.91-0.39c0.61,0.51,1.17,1.06,1.56,1.77      c0.89,1.63,1.57,3.39,2.39,5.05c0.07,0.14,0.17,0.25,0.28,0.34c0.46,3.47,0.76,6.95,0.37,11.01c0.83-1.12,1.75-1.97,2.69-2.72      c0.36-0.03,0.71-0.18,0.97-0.42c0.44,0.14,0.98,0.06,1.36-0.42c0.88-1.12,1.78-2.19,3-3.07c0.06-0.04,0.09-0.1,0.14-0.14      c2.36-1.25,4.61-2.57,7.17-3.57c0.87-0.34,1.73-0.56,2.59-0.75c0.29-0.03,0.59-0.06,0.89-0.09c0.01,0.03,0,0.05,0.02,0.08      c0.05,0.1,0.12,0.16,0.19,0.23c-0.15,0.31-0.31,0.62-0.47,0.93c-2.11,1.66-4.23,3.29-6.37,4.93c-0.57,0.15-1.14,0.32-1.7,0.52      c-0.02,0.01-0.04,0.01-0.07,0.02c-0.23,0.08-0.45,0.19-0.68,0.29c-0.09,0.01-0.18,0-0.28,0.03c-1.65,0.44-3.35,1.04-4.59,2.16      c-0.32,0.29-0.45,0.7-0.39,1.06c-0.41,0.28-0.67,0.72-0.43,1.2c0.13,0.26,0.34,0.4,0.59,0.47c0.54-0.17,1.07-0.34,1.58-0.55      c2.37-0.95,4.69-1.85,7.22-2.25c0,0,0,0,0-0.01c0.5-0.07,0.99-0.09,1.47-0.08c0.06,0.07,0.13,0.13,0.23,0.16      c0.02,0.08,0.06,0.14,0.11,0.19c-0.03,0.04-0.05,0.09-0.09,0.13c-0.26,0.23-0.42,0.46-0.53,0.69c-0.01-0.03-0.02-0.06-0.03-0.1      c-2.06,2.19-4.59,3.19-7.42,3.74c-0.87,0.17-1.75,0.31-2.59,0.47c-1.33,0.25-2.63,0.22-3.94,0.26c-1.3,0.87-2.79,1.67-3.98,3.21      c1.87-0.65,5.56-1.06,7.13-0.8c0.19,0.19,0.43,0.27,0.69,0.28c0.14,0.09,0.32,0.15,0.54,0.16c1.35,0.09,2.77,0.31,4.15,0.61      c0.1,0.27,0.35,0.47,0.78,0.5c-0.01,0.1-0.03,0.21,0,0.3c-1.77,1.03-3.7,1.93-5.27,1.63c-0.49-0.1-0.91,0.08-1.21,0.34      c-0.29-0.2-0.7-0.28-1.18-0.05c-0.03,0.02-0.07,0.03-0.1,0.04c-3.89-0.31-7.92-2.37-11.43,2.31c-0.41,0.55-1.65,0.84-1.15,1.66      c0.48,0.81,1.45,0.35,2.26,0.04c0.73-0.28,1.47-0.5,2.21-0.71c0.17,0.09,0.37,0.13,0.58,0.12c0.28,0.33,0.76,0.51,1.37,0.25      c1.74-0.75,3.62-0.85,5.43-1.31c2.24-0.05,4.55-0.09,6.69-0.9c0.05,0.03,0.11,0.07,0.16,0.1c-0.08,0.25-0.07,0.48,0.04,0.65      c-0.41,0.32-0.81,0.66-1.22,1.01c-1.08,0.91-2.24,1.68-3.42,2.48c-0.04,0.03-0.06,0.06-0.09,0.09c-0.52,0.21-1.06,0.4-1.6,0.56      c-0.25,0.07-0.43,0.19-0.58,0.33c-0.58,0.07-1.14,0.25-1.41,0.37c-3.36,1.48-6.49,0.54-9.4,0.21c-5.29-0.61-5.18-1-8.68,2.68      c1.7,0.07,3.38,0.07,5.07,0.01c0.16,0.15,0.39,0.25,0.73,0.24c5.39-0.18,10.78-0.31,16.15-0.43c0.55,0.04,1.05,0.17,1.52,0.35      c-0.03,0.19-0.05,0.38-0.07,0.57c-0.81,0.68-1.56,1.4-2.26,2.19c-8.65,2.18-16.83,3.02-24.05-1.03      c-2.14,1.99-4.7,3.55-6.61,5.87c5.36-0.62,10.45-0.88,15.54-1.68c3.2-0.5,6.22,0.58,9.48,0.17c0.66-0.08,1.37,0.11,2.15-0.11      c1.33-0.38,2.52,0.03,2.95,0.99c0.51,1.16-0.62,2.09-1.77,2.59c-3.31,1.42-6.78,1.94-10.33,2.46      c-6.06,0.89-11.9,0.07-16.92-1.52c-4.74-1.5-6.25,1.52-9.04,2.95c-0.33,0.17-0.42,0.75-0.67,1.23      c3.55,0.94,7.33,0.77,10.99,0.28c5.64-0.76,10.95-0.01,16.35,0.37c0.48,0.03,0.47,0.12,0.94,1.79      c-7.29,5.14-25.8,3.37-29.98-0.87c-3.55,0.51-6.06,2.56-8.21,4.87c9.63,0.01,19.76-0.58,29.19,2.58      c0.12,1.48-1.64,2.27-3.1,2.52c-6.05,1.02-11.98,1.89-18.04,0.62c-3.71-0.78-6.7-2.38-10.08-3.49      c-1.67-0.55-3.47-0.11-4.26,0.77c-1.47,1.65-3.99,1.85-5.05,3.38c2.34,1.98,5.84,1.45,8.81,2.16c3.46,0.83,7.14,0.82,10.69,1.26      c1.31,0.16,2.1,0.89,3.17,1.18c2.48,0.66,5.17,0.2,7.54,0.91c0.98,0.29,1.92,0.63,1.76,1.93c-4.53,3.34-9.61,2.83-14.56,2.36      c-2.74-0.26-5.45-0.7-8.09-1.47c-2.49-0.74-4.46-2.07-6.77-2.94c-2.06-0.78-3.88-1.58-4.61-3.7c-4.17,1.21-6.13,5.49-10.58,5.52      c-0.18,1.12,0.46,1.27,1.15,1.26c5.16-0.02,9.69,1.4,14.23,3c3.23,1.14,6.82,1.61,10.53,1.66c2.01,0.03,2.96,1.51,2.67,3.11      c-0.29,1.62-2.37,2.08-3.65,1.86c-1.01-0.17-1.79,0.08-2.67,0.18c-4.09,0.49-7.91-0.09-11.71-0.89      c-2.84-0.6-5.54-1.24-8.05-2.56c-2.59-1.37-3.32-3.93-5.91-5.68c-2.81,1.78-5.72,3.42-8.7,4.97l4.6,17.17l210.55-56.42      l15.36,57.34l177.44-47.54L705.18,117.37z M412.17,275.86c-0.88,0.23-1.11,1.56-2.3,1.18c-1.49-2.53-3.52-4.69-4.62-7.44      c-0.53-1.34-1.14-2.69-1.67-4.07c-1.73-4.48-2.18-9.01,0.39-14.11c-0.08,0.02-0.16,0.03-0.24,0.05c0.38-0.4,0.71-0.86,0.94-1.45      c0.03-0.09,0.12-0.17,0.18-0.25c0.15,0.04,0.33,0.02,0.52-0.03c0.17,0.12,0.37,0.16,0.58,0.16c0.54,0.65,0.98,1.35,1.35,2.11      c0,0-0.01,0-0.01,0c1.73,3.91,2.21,8.04,2.6,12.3C410.27,268.18,411.92,271.88,412.17,275.86z"
   id="path4041" />
			</g>
		</g>
		<g
   id="g4051">
			<g
   id="g4049">
				<path
   class="st3"
   d="M222.35,279.79c-0.99,0.13-0.82,1.57-2.12,1.27c-0.14-0.71-0.01-1.31,0.44-1.73      c0.75-0.69,0.53-0.96-0.28-1.08c-0.67,2.32-1.33,4.6-1.98,6.89c-0.75,2.6-0.72,2.65,1.78,3.4c2.81,0.85,5.82,1.28,7.96,3.63      c0.02,0.02,0.18-0.08,0.44-0.19C225.96,288.14,224.69,283.62,222.35,279.79z"
   id="path4047" />
			</g>
		</g>
		<g
   id="g4057">
			<g
   id="g4055">
				<path
   class="st3"
   d="M364.51,307.57c-3.32-4.03-5.61-8.52-7.19-13.33c-0.66-2.01-1.79-3.95-1.95-6.05      c-2.67,0.56-5.35,0.88-8.28,0.42c-0.96-0.15-1.94-0.26-2.91-0.36c-2.76-0.72-5.47-1.6-8.08-2.74      c-5.75-2.5-9.45-6.24-13.43-10.18c-0.2-0.33-0.41-0.66-0.63-0.99c-0.57-0.85-0.78-1.8-1-2.77c0.17-0.85-0.01-1.76-0.68-2.36      c0.04-0.98-0.39-1.74-1.01-2.23c-1.44,3.01-4.41,5.09-5.15,8.56c-0.06,0.29-0.44,0.51-0.55,0.81c-0.62,1.63-2.28,2.44-3.07,3.92      c-0.88,1.67-1.6,3.48-3.39,4.42c-1.64,0.85-2.71,2.45-3.22,3.86c-0.94,2.56-2.54,4.67-4.09,6.82l34.67-9.29l9.44,35.22      c2.59-1.49,5.22-2.94,8.1-3.97c1.51-0.54,2.5-2.01,0.99-3.07c-2.09-1.46-3.64-3.13-4.29-5.44c-0.73-2.62-1.81-5.08-2.16-7.9      c-0.37-2.96-0.88-5.78,0.01-8.8c0.32-1.09,0.51-2.39,2.17-2.61c1.56-0.2,2.27,0.71,2.7,1.85c1.19,3.15,2.54,6.25,3.63,9.44      c0.66,1.94,1.49,4.12,1.22,5.98c-0.39,2.78-0.26,5.28,0.73,7.94c2.22-3.09,6.13-3.77,9.19-5.26      C366.36,308.09,365.04,308.2,364.51,307.57z"
   id="path4053" />
			</g>
		</g>
		<g
   id="g4063">
			<g
   id="g4061">
				<path
   class="st3"
   d="M329.87,244.1c-0.43-0.17-0.71-0.44-1.05-0.78c-0.87-0.88-1.79-2.14-3.32-0.84      c-0.52,0.44-1.16-0.03-1.74-0.14c-2.82-0.58-5.29-1.84-7.7-3.45c-2.13-1.41-3.87-3.2-5.76-4.83c-1.6-1.38-2.71-3.32-4.07-5.07      c-2.96,4.31-5.84,8.63-8.05,13.41c0.7-0.48,1.83,0.08,2.06-0.58c0.78-2.21,3.73-2.05,4.47-4.25c0.06-0.19,0.65-0.39,0.89-0.3      c1.08,0.43,1.88-0.25,2.68-0.69c1.25,1.43,1.71,2.81,0.98,4.6c-0.65,1.58-0.68,3.77-2.28,4.46c-1.72,0.74-2.27,2.02-2.97,3.39      c-0.09,0.16-0.26,0.33-0.43,0.39c-2.14,0.72-2.04,2.65-2.66,4.93c1.43-1.54,2.92-1.92,4.22-2.49c2.85-1.25,5.68-2.66,8.77-3.34      c1.5-0.33,2.43,0.71,2.65,2.24c0.24,1.68-1.05,3.28-0.08,4.96c0.57,1,0.29,2.03-0.05,3.06c-0.81,2.43-1.16,5-2.85,7.11      c-1.71,2.13-2.12,4.91-3.32,7.33c0.57,0.44,1.05,0.22,1.29-0.34c1.17-2.81,3.48-4.86,4.93-7.45c1.02-1.81,3.14-2.63,3.74-4.79      c0.45-1.59,1.1-3.29,3.22-3.45c0.01,0,0-0.22,0.01-0.59c-0.19-0.02-0.35-0.07-0.51-0.12c0.09-0.22,0.15-0.45,0.19-0.69      c0.15-0.15,0.3-0.3,0.43-0.5c0.63-1.02,1.36-1.99,2.14-2.91c0.42-0.05,0.79-0.2,1.1-0.44c0.55-0.01,1-0.28,1.39-1      c-0.19-0.06-0.37-0.14-0.54-0.23c0.01-0.03,0.02-0.06,0.03-0.09c0.73-0.58,1.37-1.25,1.83-2.05c0.02-0.01,0.03-0.03,0.05-0.05      c0.54-0.44,0.92-1.01,1.07-1.63C331.94,245.15,331.87,244.89,329.87,244.1z"
   id="path4059" />
			</g>
		</g>
		<g
   id="g4069">
			<g
   id="g4067">
				<path
   class="st3"
   d="M227.66,243.49c0.52,1.6-0.42,2.88-0.55,4.24c-0.27,2.9-0.14,5.89-2.33,8.24      c-0.08,0.09-0.16,0.31-0.11,0.37c1.08,1.33-0.1,1.97-0.86,2.67c-1.01,0.94-1.63,2.12-2.23,3.32c-0.28,0.55-0.65,0.96-1.25,0.67      c-1.2-0.58-2.31-0.02-3.5,0.1c-0.22,0.76-0.44,1.52-0.55,1.89c3.26,5.14,6.46,9.95,9.34,15.38c0.4-1.3,1.07-2.18,0.42-3.09      c-1.58-2.21-1.8-4.83-2.33-7.36c-0.08-0.37,0.01-0.65-0.35-1.01c-1.11-1.11-1.15-4.26,0.15-5.13c1.64-1.1,2.21-2.61,2.7-4.32      c0.16-0.54,0.47-1.11,0.65-1.62c0.77-2.19,2.53-3.91,2.87-6.26c0.27-1.82,1.5-2.97,2.8-4.12      C230.9,246.13,229.28,244.81,227.66,243.49z"
   id="path4065" />
			</g>
		</g>
		<g
   id="g4075">
			<g
   id="g4073">
				<path
   class="st3"
   d="M266.72,233.21c-0.88-2.13-1.3-4.35-1.66-6.6c-0.12-0.79-0.65-1.85-1.51-1.53      c-2.9,1.11-1.16-0.78-1.24-1.84c-1.51,1-2.06,3.09-4.09,3.46c2.49,3.19,5.74,5.12,8.36,8.48      C266.67,234.08,266.87,233.57,266.72,233.21z"
   id="path4071" />
			</g>
		</g>
		<g
   id="g4081">
			<g
   id="g4079">
				<path
   class="st3"
   d="M274.74,271.09c-0.43-4.23-0.68-8.47-1.54-12.65c-0.51-2.49-4.26-5.15-6.49-4.26      c-1.33,0.53-2.65,1.08-3.99,1.56c-2.75,0.97-5.63,1.02-8.41,0.55c-2.67-0.45-5.24-1.55-8.18-1.4c-0.2,0.56-0.63,1.15-0.38,1.97      c0.54,0.16,1.11,0.52,1.56,0.41c1.94-0.45,3.86-0.17,5.8-0.16c1.52,0.01,2.81,1.07,4.28,0.83c2.59-0.43,4.65,1.47,7.11,1.45      c0.05,0,0.11,0.07,0.16,0.11c2.62,2.07,5.25,4.13,7.06,7.02c1.18,1.88,1.69,4.03,2.5,6.05c0.55,1.35-0.62,3.06,1.18,4.38      C275.28,274.76,274.93,272.92,274.74,271.09z"
   id="path4077" />
			</g>
		</g>
		<g
   id="g4087">
			<g
   id="g4085">
				<path
   class="st3"
   d="M253.6,194.88c-1.16,0.19-2.39,0.4-3.91,0.65c0.57-0.89,0.93-1.44,1.36-2.12c-0.68-0.79-1.1-1.09-1.87,0.03      c-2.38,3.47-5.62,5.8-9.85,6.48c-0.91,0.15-0.79,0.85-1.62,1.67c10.76-0.11,18.56,4.26,23.7,13.32      C259.56,207.95,256.33,201.52,253.6,194.88z"
   id="path4083" />
			</g>
		</g>
		<g
   id="g4093">
			<g
   id="g4091">
				<path
   class="st3"
   d="M247.28,180.91c-1.14-1.83-1.96-3.85-3.13-5.65c-1.63-2.5-2.87-5.23-4.15-7.88      c-0.57-1.18-1.83-2.16-1.83-3.81c0-0.95-1.24-1.14-2.29-0.67c-0.57,0.26-0.41,1.22-1.2,1.14c-1.21-0.35,0.79-2.85-1.62-2.32      c-0.45,2.6-2.04,4.31-3.8,6.28c-2.39,2.67-5.08,3.37-8.18,3.49c-1.04,0.04-1.14,0.62-1.77,1.42c1.91,0.06,3.48,0.31,4.99,0.11      c2.86-0.37,5.61,0.49,8.35,0.8c2.71,0.3,5.44,1.23,8.01,2.78c2.75,1.66,4.99,3.58,6.82,6.26      C247.64,182.11,247.71,181.6,247.28,180.91z"
   id="path4089" />
			</g>
		</g>
	</g>
</g>
<g
   id="Ebene_19">
	<g
   id="g4168">
		<path
   class="st5"
   d="M125.82,490.39v-92.43h13.21v79.21h26.43v13.21H125.82z"
   id="path4098" />
		<path
   class="st5"
   d="M188.49,490.39h-13.21v-92.43h13.21V490.39z"
   id="path4100" />
		<path
   class="st5"
   d="M202.3,398.1h26.43c3.61,0,6.69,1.28,9.25,3.83c2.56,2.56,3.83,5.68,3.83,9.38v27.97    c0,1.33-0.48,2.48-1.45,3.45s-2.12,1.45-3.45,1.45v0.13c1.33,0,2.48,0.48,3.45,1.45s1.45,2.12,1.45,3.45v28.1    c0,3.61-1.28,6.69-3.83,9.25c-2.56,2.56-5.64,3.83-9.25,3.83H202.3V398.1z M215.38,411.18v26.55h8.31c1.42,0,2.61-0.48,3.58-1.45    s1.45-2.16,1.45-3.58v-16.5c0-1.42-0.48-2.61-1.45-3.58s-2.16-1.45-3.58-1.45H215.38z M215.38,450.82v26.49h8.31    c1.42,0,2.61-0.48,3.58-1.45s1.45-2.16,1.45-3.58v-16.5c0-1.42-0.48-2.6-1.45-3.54c-0.97-0.94-2.16-1.42-3.58-1.42H215.38z"
   id="path4102" />
		<path
   class="st5"
   d="M255.17,398.1l26.43,0.13c3.61,0,6.69,1.28,9.25,3.83c2.56,2.56,3.83,5.64,3.83,9.25v26.43    c0,5.03-2.17,8.81-6.51,11.34l6.51,41.31h-13.08l-6.57-39.57h-6.77v39.57h-13.08V398.1z M268.25,411.18v26.68h8.31    c1.42,0,2.61-0.5,3.58-1.51c0.97-1.01,1.45-2.18,1.45-3.51v-16.5c0-1.42-0.48-2.63-1.45-3.64c-0.97-1.01-2.16-1.51-3.58-1.51    H268.25z"
   id="path4104" />
		<path
   class="st5"
   d="M306.75,490.39v-92.43h39.64v13.21h-26.43v26.43h19.79v13.21h-19.79v26.36h26.43v13.21H306.75z"
   id="path4106" />
		<path
   class="st5"
   d="M386.13,403.8c3.87-3.89,8.53-5.83,13.99-5.83c5.46,0,10.12,1.94,13.99,5.83c3.87,3.89,5.8,8.56,5.8,14.02    h-13.15c0-1.85-0.64-3.42-1.93-4.71s-2.86-1.93-4.71-1.93c-1.85,0-3.41,0.64-4.67,1.93c-1.27,1.29-1.9,2.86-1.9,4.71v52.79    c0,1.85,0.63,3.41,1.9,4.67c1.27,1.27,2.82,1.9,4.67,1.9c1.85,0,3.42-0.63,4.71-1.9c1.29-1.27,1.93-2.83,1.93-4.67v-19.79h-6.64    v-13.21h19.79v33c0,5.46-1.93,10.12-5.8,13.99s-8.53,5.8-13.99,5.8c-5.46,0-10.12-1.93-13.99-5.8s-5.8-8.53-5.8-13.99v-52.79    C380.33,412.36,382.26,407.69,386.13,403.8z"
   id="path4108" />
		<path
   class="st5"
   d="M432.55,398.1l26.43,0.13c3.61,0,6.69,1.28,9.25,3.83c2.56,2.56,3.83,5.64,3.83,9.25v26.43    c0,5.03-2.17,8.81-6.51,11.34l6.51,41.31h-13.08l-6.57-39.57h-6.77v39.57h-13.08V398.1z M445.64,411.18v26.68h8.31    c1.42,0,2.61-0.5,3.58-1.51c0.97-1.01,1.45-2.18,1.45-3.51v-16.5c0-1.42-0.48-2.63-1.45-3.64c-0.97-1.01-2.16-1.51-3.58-1.51    H445.64z"
   id="path4110" />
		<path
   class="st5"
   d="M497.86,397.97h13.08l19.79,92.43h-13.08l-3.93-19.79l-18.63-0.13l-3.93,19.92h-13.08L497.86,397.97z     M504.37,424.39l-6.64,33.13h13.34l-6.57-33.13H504.37z"
   id="path4112" />
		<path
   class="st5"
   d="M538.1,398.1h26.43c3.61,0,6.69,1.28,9.25,3.83c2.56,2.56,3.83,5.68,3.83,9.38v26.43    c0,3.61-1.28,6.69-3.83,9.25c-2.56,2.56-5.64,3.83-9.25,3.83h-13.34v39.57H538.1V398.1z M551.18,411.18v26.55h8.31    c1.42,0,2.61-0.48,3.58-1.45s1.45-2.16,1.45-3.58v-16.5c0-1.42-0.48-2.61-1.45-3.58s-2.16-1.45-3.58-1.45H551.18z"
   id="path4114" />
		<path
   class="st5"
   d="M588.39,397.97h13.21v39.64h13.21v-39.64h13.21v92.43h-13.21v-39.57H601.6v39.57h-13.21V397.97z"
   id="path4116" />
		<path
   class="st5"
   d="M655.05,490.39h-13.21v-92.43h13.21V490.39z"
   id="path4118" />
		<path
   class="st5"
   d="M673.89,403.8c3.87-3.89,8.53-5.83,13.99-5.83c5.46,0,10.12,1.94,13.99,5.83c3.87,3.89,5.8,8.56,5.8,14.02    v6.57h-13.15v-6.57c0-1.85-0.64-3.42-1.93-4.71s-2.86-1.93-4.71-1.93c-1.85,0-3.41,0.64-4.67,1.93c-1.27,1.29-1.9,2.86-1.9,4.71    v52.79c0,1.85,0.63,3.41,1.9,4.67c1.27,1.27,2.83,1.9,4.67,1.9c1.85,0,3.42-0.63,4.71-1.9c1.29-1.27,1.93-2.83,1.93-4.67v-6.64    h13.15v6.64c0,5.46-1.93,10.12-5.8,13.99s-8.53,5.8-13.99,5.8c-5.46,0-10.12-1.93-13.99-5.8s-5.8-8.53-5.8-13.99v-52.79    C668.09,412.36,670.03,407.69,673.89,403.8z"
   id="path4120" />
		<path
   class="st5"
   d="M729.28,463.97v6.64c0,1.85,0.64,3.41,1.93,4.67c1.29,1.27,2.86,1.9,4.71,1.9c1.85,0,3.41-0.63,4.67-1.9    c1.27-1.27,1.9-2.83,1.9-4.67v-13.21c0-1.85-0.63-3.41-1.9-4.67c-1.27-1.27-2.83-1.9-4.67-1.9c-5.93-0.04-10.87-2.26-14.82-6.64    c-3.35-3.78-5.03-8.19-5.03-13.21v-13.15c0-5.46,1.94-10.13,5.83-14.02c3.89-3.89,8.56-5.83,14.02-5.83    c5.46,0,10.12,1.94,13.99,5.83c3.87,3.89,5.8,8.56,5.8,14.02v6.57h-1.22h-11.99v-6.57c0-1.85-0.63-3.42-1.9-4.71    c-1.27-1.29-2.83-1.93-4.67-1.93c-1.85,0-3.42,0.64-4.71,1.93s-1.93,2.86-1.93,4.71v13.15c0,1.85,0.64,3.42,1.93,4.71    s2.86,1.93,4.71,1.93c5.89,0,10.81,2.19,14.76,6.57c3.35,3.78,5.03,8.19,5.03,13.21v13.21c0,5.46-1.93,10.12-5.8,13.99    s-8.53,5.8-13.99,5.8c-5.46,0-10.13-1.93-14.02-5.8c-3.89-3.87-5.83-8.53-5.83-13.99v-6.64H729.28z"
   id="path4122" />
		<path
   class="st3"
   d="M148.96,596.61l-9.93-29.71v49.5h-13.21v-92.43h13.21l16.5,49.5l16.5-49.5h13.21v92.43h-13.21v-49.5    l-9.86,29.71H148.96z"
   id="path4124" />
		<path
   class="st3"
   d="M198.67,616.39v-92.43h39.64v13.21h-26.43v26.43h19.79v13.21h-19.79v26.36h26.43v13.21H198.67z"
   id="path4126" />
		<path
   class="st3"
   d="M247.74,616.39v-92.43h39.64v13.21h-26.43v26.43h19.79v13.21h-19.79v26.36h26.43v13.21H247.74z"
   id="path4128" />
		<path
   class="st3"
   d="M290.1,523.97h39.57v13.21h-13.21v79.21h-13.15v-79.21H290.1V523.97z"
   id="path4130" />
		<path
   class="st3"
   d="M350,616.39h-13.21v-92.43H350V616.39z"
   id="path4132" />
		<path
   class="st3"
   d="M363.29,523.97h13.21l13.21,46.21v-46.21h13.21v92.43h-13.21l-13.21-46.21v46.21h-13.21V523.97z"
   id="path4134" />
		<path
   class="st3"
   d="M420.8,529.8c3.87-3.89,8.53-5.83,13.99-5.83s10.12,1.94,13.99,5.83c3.87,3.89,5.8,8.56,5.8,14.02h-13.15    c0-1.85-0.64-3.42-1.93-4.71s-2.86-1.93-4.71-1.93s-3.41,0.64-4.67,1.93s-1.9,2.86-1.9,4.71v52.79c0,1.85,0.63,3.41,1.9,4.67    c1.27,1.27,2.83,1.9,4.67,1.9s3.42-0.63,4.71-1.9c1.29-1.27,1.93-2.83,1.93-4.67v-19.79h-6.64v-13.21h19.79v33    c0,5.46-1.93,10.12-5.8,13.99s-8.53,5.8-13.99,5.8s-10.12-1.93-13.99-5.8c-3.87-3.87-5.8-8.53-5.8-13.99v-52.79    C415,538.36,416.94,533.69,420.8,529.8z"
   id="path4136" />
		<path
   class="st5"
   d="M496.51,529.8c3.87-3.89,8.53-5.83,13.99-5.83c5.46,0,10.12,1.94,13.99,5.83c3.87,3.89,5.8,8.56,5.8,14.02    c0,2.92-0.58,5.65-1.74,8.19l-23.07,51.18h24.81v13.21h-39.57v-13.21l24.81-54.27c1.07-2.54,1.59-4.23,1.55-5.09    c0-1.85-0.63-3.42-1.9-4.71c-1.27-1.29-2.83-1.93-4.67-1.93c-1.85,0-3.42,0.64-4.71,1.93s-1.93,2.86-1.93,4.71h-13.15    C490.71,538.36,492.64,533.69,496.51,529.8z"
   id="path4138" />
		<path
   class="st5"
   d="M545.83,529.8c3.87-3.89,8.53-5.83,13.99-5.83c5.46,0,10.12,1.94,13.99,5.83c3.87,3.89,5.8,8.56,5.8,14.02    v52.79c0,5.46-1.93,10.12-5.8,13.99s-8.53,5.8-13.99,5.8c-5.46,0-10.12-1.93-13.99-5.8s-5.8-8.53-5.8-13.99v-52.79    C540.03,538.36,541.97,533.69,545.83,529.8z M564.49,539.12c-1.27-1.29-2.83-1.93-4.67-1.93c-1.85,0-3.42,0.64-4.71,1.93    s-1.93,2.86-1.93,4.71v52.79c0,1.85,0.64,3.41,1.93,4.67c1.29,1.27,2.86,1.9,4.71,1.9c1.85,0,3.41-0.63,4.67-1.9    c1.27-1.27,1.9-2.83,1.9-4.67v-52.79C566.39,541.97,565.76,540.4,564.49,539.12z"
   id="path4140" />
		<path
   class="st5"
   d="M605.02,523.97h13.21v92.43h-13.21v-79.21l-13.15,13.21v-13.21L605.02,523.97z"
   id="path4142" />
		<path
   class="st5"
   d="M672.46,610.59c-3.87,3.87-8.53,5.8-13.99,5.8c-5.46,0-10.12-1.93-13.99-5.8s-5.8-8.53-5.8-13.99v-6.64h13.15    v6.64c0,1.85,0.64,3.41,1.93,4.67c1.29,1.27,2.86,1.9,4.71,1.9c1.85,0,3.41-0.63,4.67-1.9c1.27-1.27,1.9-2.83,1.9-4.67v-14.37    c-2.11,0.77-4.3,1.16-6.57,1.16c-5.46,0-10.12-1.93-13.99-5.8s-5.8-8.53-5.8-13.99v-19.79c0-5.46,1.93-10.13,5.8-14.02    c3.87-3.89,8.53-5.83,13.99-5.83c5.46,0,10.12,1.94,13.99,5.83c3.87,3.89,5.8,8.56,5.8,14.02v19.79v33    C678.26,602.06,676.32,606.73,672.46,610.59z M653.76,568.28c1.29,1.27,2.86,1.9,4.71,1.9c1.85,0,3.41-0.63,4.67-1.9    c1.27-1.27,1.9-2.83,1.9-4.67v-19.79c0-1.85-0.63-3.42-1.9-4.71c-1.27-1.29-2.83-1.93-4.67-1.93c-1.85,0-3.42,0.64-4.71,1.93    s-1.93,2.86-1.93,4.71v19.79C651.83,565.46,652.48,567.01,653.76,568.28z"
   id="path4144" />
		<path
   class="st3"
   d="M136.39,715.97v6.64c0,1.85,0.64,3.41,1.93,4.67c1.29,1.27,2.86,1.9,4.71,1.9c1.85,0,3.4-0.63,4.67-1.9    c1.27-1.27,1.9-2.83,1.9-4.67v-13.21c0-1.85-0.63-3.41-1.9-4.67c-1.27-1.27-2.83-1.9-4.67-1.9c-5.93-0.04-10.87-2.26-14.82-6.64    c-3.35-3.78-5.03-8.19-5.03-13.21v-13.15c0-5.46,1.94-10.13,5.83-14.02c3.89-3.89,8.56-5.83,14.02-5.83    c5.46,0,10.12,1.94,13.99,5.83c3.87,3.89,5.8,8.56,5.8,14.02v6.57h-1.22H149.6v-6.57c0-1.85-0.63-3.42-1.9-4.71    c-1.27-1.29-2.83-1.93-4.67-1.93c-1.85,0-3.42,0.64-4.71,1.93s-1.93,2.86-1.93,4.71v13.15c0,1.85,0.64,3.42,1.93,4.71    s2.86,1.93,4.71,1.93c5.89,0,10.81,2.19,14.76,6.57c3.35,3.78,5.03,8.19,5.03,13.21v13.21c0,5.46-1.93,10.12-5.8,13.99    s-8.53,5.8-13.99,5.8c-5.46,0-10.13-1.93-14.02-5.8c-3.89-3.87-5.83-8.53-5.83-13.99v-6.64H136.39z"
   id="path4146" />
		<path
   class="st3"
   d="M187.33,649.97h13.08l19.79,92.43h-13.08l-3.93-19.79l-18.63-0.13l-3.93,19.92h-13.08L187.33,649.97z     M193.84,676.39l-6.64,33.13h13.34l-6.57-33.13H193.84z"
   id="path4148" />
		<path
   class="st3"
   d="M241.29,649.97h13.08l19.79,92.43h-13.08l-3.93-19.79l-18.63-0.13l-3.93,19.92H221.5L241.29,649.97z     M247.8,676.39l-6.64,33.13h13.34l-6.57-33.13H247.8z"
   id="path4150" />
		<path
   class="st3"
   d="M281.53,650.1l26.43,0.13c3.61,0,6.69,1.28,9.25,3.83c2.56,2.56,3.83,5.64,3.83,9.25v26.43    c0,5.03-2.17,8.81-6.51,11.34l6.51,41.31h-13.08l-6.57-39.57h-6.77v39.57h-13.08V650.1z M294.61,663.18v26.68h8.31    c1.42,0,2.61-0.5,3.58-1.51c0.97-1.01,1.45-2.18,1.45-3.51v-16.5c0-1.42-0.48-2.63-1.45-3.64c-0.97-1.01-2.16-1.51-3.58-1.51    H294.61z"
   id="path4152" />
		<path
   class="st3"
   d="M333.11,650.1h26.43c3.61,0,6.69,1.28,9.25,3.83c2.56,2.56,3.83,5.68,3.83,9.38v27.97    c0,1.33-0.48,2.48-1.45,3.45s-2.12,1.45-3.45,1.45v0.13c1.33,0,2.48,0.48,3.45,1.45s1.45,2.12,1.45,3.45v28.1    c0,3.61-1.28,6.69-3.83,9.25c-2.56,2.56-5.64,3.83-9.25,3.83h-26.43V650.1z M346.19,663.18v26.55h8.31c1.42,0,2.61-0.48,3.58-1.45    s1.45-2.16,1.45-3.58v-16.5c0-1.42-0.48-2.61-1.45-3.58s-2.16-1.45-3.58-1.45H346.19z M346.19,702.82v26.49h8.31    c1.42,0,2.61-0.48,3.58-1.45s1.45-2.16,1.45-3.58v-16.5c0-1.42-0.48-2.6-1.45-3.54c-0.97-0.94-2.16-1.42-3.58-1.42H346.19z"
   id="path4154" />
		<path
   class="st3"
   d="M385.98,650.1l26.43,0.13c3.61,0,6.69,1.28,9.25,3.83c2.56,2.56,3.83,5.64,3.83,9.25v26.43    c0,5.03-2.17,8.81-6.51,11.34l6.51,41.31h-13.08l-6.57-39.57h-6.77v39.57h-13.08V650.1z M399.06,663.18v26.68h8.31    c1.42,0,2.61-0.5,3.58-1.51c0.97-1.01,1.45-2.18,1.45-3.51v-16.5c0-1.42-0.48-2.63-1.45-3.64c-0.97-1.01-2.16-1.51-3.58-1.51    H399.06z"
   id="path4156" />
		<path
   class="st3"
   d="M437.56,649.97h13.21v72.64c0,1.85,0.63,3.41,1.9,4.67c1.27,1.27,2.84,1.9,4.71,1.9s3.44-0.63,4.71-1.9    c1.27-1.27,1.9-2.83,1.9-4.67v-72.64h13.21v72.64c0,5.46-1.94,10.12-5.83,13.99c-3.89,3.87-8.55,5.8-13.99,5.8    s-10.1-1.93-13.99-5.8s-5.83-8.53-5.83-13.99V649.97z M437.82,630.31h13.08v13.08h-13.08V630.31z M464.24,630.31h13.08v13.08    h-13.08V630.31z"
   id="path4158" />
		<path
   class="st3"
   d="M495.65,655.8c3.87-3.89,8.53-5.83,13.99-5.83c5.46,0,10.12,1.94,13.99,5.83c3.87,3.89,5.8,8.56,5.8,14.02    v6.57h-13.15v-6.57c0-1.85-0.64-3.42-1.93-4.71s-2.86-1.93-4.71-1.93c-1.85,0-3.41,0.64-4.67,1.93c-1.27,1.29-1.9,2.86-1.9,4.71    v52.79c0,1.85,0.63,3.41,1.9,4.67c1.27,1.27,2.83,1.9,4.67,1.9c1.85,0,3.42-0.63,4.71-1.9c1.29-1.27,1.93-2.83,1.93-4.67v-6.64    h13.15v6.64c0,5.46-1.93,10.12-5.8,13.99s-8.53,5.8-13.99,5.8c-5.46,0-10.12-1.93-13.99-5.8s-5.8-8.53-5.8-13.99v-52.79    C489.85,664.36,491.78,659.69,495.65,655.8z"
   id="path4160" />
		<path
   class="st3"
   d="M540.46,649.97h13.21v33l13.21-33h13.21L564.89,688l15.21,54.4h-13.21l-9.93-34.61l-3.29,8.19v26.43h-13.21    V649.97z"
   id="path4162" />
		<path
   class="st3"
   d="M586.76,742.39v-92.43h39.64v13.21h-26.43v26.43h19.79v13.21h-19.79v26.36h26.43v13.21H586.76z"
   id="path4164" />
		<path
   class="st3"
   d="M635.31,649.97h13.21l13.21,46.21v-46.21h13.21v92.43h-13.21l-13.21-46.21v46.21h-13.21V649.97z"
   id="path4166" />
	</g>
</g>
</svg>