<?xml version="1.0" encoding="UTF-8" standalone="no"?>
<!-- Created with Inkscape (http://www.inkscape.org/) -->

<svg
   xmlns:dc="http://purl.org/dc/elements/1.1/"
   xmlns:cc="http://creativecommons.org/ns#"
   xmlns:rdf="http://www.w3.org/1999/02/22-rdf-syntax-ns#"
   xmlns:svg="http://www.w3.org/2000/svg"
   xmlns="http://www.w3.org/2000/svg"
   xmlns:sodipodi="http://sodipodi.sourceforge.net/DTD/sodipodi-0.dtd"
   xmlns:inkscape="http://www.inkscape.org/namespaces/inkscape"
   width="1050.2083"
   height="1169.032"
   id="svg60966"
   version="1.1"
   inkscape:version="0.48.1 r9760"
   sodipodi:docname="lgm_2012_en.svg">
  <defs
     id="defs60968" />
  <sodipodi:namedview
     id="base"
     pagecolor="#ffffff"
     bordercolor="#666666"
     borderopacity="1.0"
     inkscape:pageopacity="0.0"
     inkscape:pageshadow="2"
     inkscape:zoom="0.0875"
     inkscape:cx="1931.2251"
     inkscape:cy="1204.0958"
     inkscape:document-units="px"
     inkscape:current-layer="layer1"
     showgrid="false"
     fit-margin-top="0"
     fit-margin-left="0"
     fit-margin-right="0"
     fit-margin-bottom="0"
     inkscape:window-width="483"
     inkscape:window-height="482"
     inkscape:window-x="837"
     inkscape:window-y="186"
     inkscape:window-maximized="0" />
  <metadata
     id="metadata60971">
    <rdf:RDF>
      <cc:Work
         rdf:about="">
        <dc:format>image/svg+xml</dc:format>
        <dc:type
           rdf:resource="http://purl.org/dc/dcmitype/StillImage" />
        <dc:title />
      </cc:Work>
    </rdf:RDF>
  </metadata>
  <g
     inkscape:label="Layer 1"
     inkscape:groupmode="layer"
     id="layer1"
     transform="translate(1510.2082,-635.12365)">
    <g
       style="font-size:190.48901367px;font-style:normal;font-variant:normal;font-weight:bold;font-stretch:normal;text-align:start;line-height:160px;writing-mode:lr-tb;text-anchor:start;fill:#000000;fill-opacity:1;stroke:none;display:inline;font-family:DIN_OSP;-inkscape-font-specification:DIN_OSP Bold"
       id="text4279-4-3-4-3-4-1-3-3-3-6-32-2-8-2-6-7-2-3-0-8">
      <path
         d="m -1396.9044,1323.9651 0,-133.3423 19.0489,0 0,114.2934 38.0978,0 0,19.0489 -57.1467,0"
         style=""
         id="path61339" />
      <path
         d="m -1307.7109,1323.9651 -19.0489,0 0,-133.3423 19.0489,0 0,133.3423"
         style=""
         id="path61341" />
      <path
         d="m -1289.0102,1190.8133 38.0978,0 c 5.2066,10e-5 9.6514,1.8415 13.3342,5.5241 3.6827,3.683 5.5241,8.1912 5.5242,13.5248 l 0,40.3836 c -10e-5,1.905 -0.6985,3.5559 -2.0954,4.9528 -1.397,1.3969 -3.0479,2.0954 -4.9527,2.0953 l 0,0.1905 c 1.9048,10e-5 3.5557,0.6985 4.9527,2.0954 1.3969,1.397 2.0953,3.0479 2.0954,4.9527 l 0,40.5742 c -10e-5,5.2067 -1.8415,9.6514 -5.5242,13.3342 -3.6828,3.6828 -8.1276,5.5242 -13.3342,5.5242 l -38.0978,0 0,-133.1518 m 18.8584,18.8584 0,38.2883 12.0008,0 c 2.0318,0 3.7462,-0.6984 5.1432,-2.0954 1.3969,-1.3968 2.0953,-3.1112 2.0954,-5.1432 l 0,-23.8111 c -10e-5,-2.0318 -0.6985,-3.7462 -2.0954,-5.1432 -1.397,-1.3968 -3.1114,-2.0953 -5.1432,-2.0954 l -12.0008,0 m 0,57.1467 0,38.2883 12.0008,0 c 2.0318,0 3.7462,-0.6985 5.1432,-2.0954 1.3969,-1.3969 2.0953,-3.1113 2.0954,-5.1432 l 0,-23.8111 c -10e-5,-2.0319 -0.6985,-3.7463 -2.0954,-5.1432 -1.397,-1.3969 -3.1114,-2.0954 -5.1432,-2.0954 l -12.0008,0"
         style=""
         id="path61343" />
      <path
         d="m -1213.8563,1190.8133 38.0978,0.1905 c 5.2066,10e-5 9.6513,1.8415 13.3342,5.5241 3.6827,3.6829 5.5241,8.1277 5.5242,13.3343 l 0,38.0978 c -10e-5,7.2386 -3.1114,12.6993 -9.334,16.382 l 0,0 9.334,59.6231 -18.8584,0 -9.5245,-57.1467 -9.7149,0 0,57.1467 -18.8584,0 0,-133.1518 m 18.8584,18.8584 0,38.4788 12.0008,0 c 2.0318,0 3.7462,-0.6984 5.1432,-2.0954 1.3969,-1.5239 2.0953,-3.2383 2.0954,-5.1432 l 0,-23.8111 c -10e-5,-2.0318 -0.6985,-3.7462 -2.0954,-5.1433 -1.397,-1.5238 -3.1114,-2.2857 -5.1432,-2.2858 l -12.0008,0"
         style=""
         id="path61345" />
      <path
         d="m -1140.5627,1323.9651 0,-133.3423 57.1467,0 0,19.0489 -38.0978,0 0,38.0978 28.5733,0 0,19.0489 -28.5733,0 0,38.0978 38.0978,0 0,19.0489 -57.1467,0"
         style=""
         id="path61347" />
      <path
         d="m -1028.4064,1199.0043 c 5.5877,-5.5876 12.3183,-8.3814 20.1919,-8.3815 7.8735,10e-5 14.60408,2.7939 20.1918,8.3815 5.58762,5.5878 8.38146,12.3184 8.38152,20.1918 l -19.0489,0 c -5e-5,-2.6667 -0.95249,-4.8891 -2.85732,-6.6671 -1.778,-1.9048 -4.0003,-2.8572 -6.6671,-2.8573 -2.6669,10e-5 -4.9528,0.9525 -6.8576,2.8573 -1.778,1.778 -2.6669,4.0004 -2.6669,6.6671 l 0,76.1956 c 0,2.6669 0.8889,4.9528 2.6669,6.8576 1.9048,1.778 4.1907,2.6669 6.8576,2.6669 2.6668,0 4.8891,-0.8889 6.6671,-2.6669 1.90483,-1.9048 2.85727,-4.1907 2.85732,-6.8576 l 0,-28.5733 -9.52442,0 0,-19.0489 28.57332,0 0,47.6222 c -6e-5,7.8736 -2.7939,14.6042 -8.38152,20.1919 -5.58772,5.5877 -12.3183,8.3815 -20.1918,8.3815 -7.8736,0 -14.6042,-2.7938 -20.1919,-8.3815 -5.5877,-5.5877 -8.3815,-12.3183 -8.3815,-20.1919 l 0,-76.1956 c 0,-7.8734 2.7938,-14.604 8.3815,-20.1918"
         style=""
         id="path61349" />
      <path
         d="m -962.35131,1190.8133 38.0978,0.1905 c 5.20665,10e-5 9.65139,1.8415 13.33423,5.5241 3.68273,3.6829 5.52412,8.1277 5.52419,13.3343 l 0,38.0978 c -7e-5,7.2386 -3.11139,12.6993 -9.33397,16.382 l 0,0 9.33397,59.6231 -18.85842,0 -9.52445,-57.1467 -9.71494,0 0,57.1467 -18.85841,0 0,-133.1518 m 18.85841,18.8584 0,38.4788 12.00081,0 c 2.03184,0 3.74624,-0.6984 5.1432,-2.0954 1.39688,-1.5239 2.09534,-3.2383 2.09538,-5.1432 l 0,-23.8111 c -4e-5,-2.0318 -0.6985,-3.7462 -2.09538,-5.1433 -1.39696,-1.5238 -3.11136,-2.2857 -5.1432,-2.2858 l -12.00081,0"
         style=""
         id="path61351" />
      <path
         d="m -869.24684,1190.6228 18.85841,0 28.57335,133.3423 -18.85841,0 -5.71467,-28.5734 -26.85895,-0.1905 -5.71467,28.7639 -18.85841,0 28.57335,-133.3423 m 9.33396,38.0978 -9.52445,47.8127 19.23939,0 -9.52445,-47.8127 c -4e-5,10e-5 -0.0635,10e-5 -0.19049,0"
         style=""
         id="path61353" />
      <path
         d="m -812.41561,1190.8133 38.0978,0 c 5.20665,10e-5 9.65139,1.8415 13.33423,5.5241 3.68273,3.683 5.52412,8.1912 5.52419,13.5248 l 0,38.0978 c -7e-5,5.2067 -1.84146,9.6515 -5.52419,13.3342 -3.68284,3.6828 -8.12758,5.5242 -13.33423,5.5242 l -19.23939,0 0,57.1467 -18.85841,0 0,-133.1518 m 18.85841,18.8584 0,38.2883 12.00081,0 c 2.03184,0 3.74624,-0.6984 5.1432,-2.0954 1.39688,-1.3968 2.09534,-3.1112 2.09538,-5.1432 l 0,-23.8111 c -4e-5,-2.0318 -0.6985,-3.7462 -2.09538,-5.1432 -1.39696,-1.3968 -3.11136,-2.0953 -5.1432,-2.0954 l -12.00081,0"
         style=""
         id="path61355" />
      <path
         d="m -740.98226,1190.6228 19.0489,0 0,57.1467 19.0489,0 0,-57.1467 19.0489,0 0,133.3423 -19.0489,0 0,-57.1467 -19.0489,0 0,57.1467 -19.0489,0 0,-133.3423"
         style=""
         id="path61357" />
      <path
         d="m -645.83595,1323.9651 -19.0489,0 0,-133.3423 19.0489,0 0,133.3423"
         style=""
         id="path61359" />
      <path
         d="m -619.89669,1199.0043 c 5.58765,-5.5876 12.31826,-8.3814 20.19183,-8.3815 7.8735,10e-5 14.60411,2.7939 20.19184,8.3815 5.58761,5.5878 8.38145,12.3184 8.38152,20.1918 l 0,9.5245 -19.04891,0 0,-9.5245 c -4e-5,-2.6667 -0.95249,-4.8891 -2.85733,-6.6671 -1.77794,-1.9048 -4.00031,-2.8572 -6.66712,-2.8573 -2.66688,10e-5 -4.95274,0.9525 -6.8576,2.8573 -1.77793,1.778 -2.66687,4.0004 -2.66685,6.6671 l 0,76.1956 c -2e-5,2.6669 0.88892,4.9528 2.66685,6.8576 1.90486,1.778 4.19072,2.6669 6.8576,2.6669 2.66681,0 4.88918,-0.8889 6.66712,-2.6669 1.90484,-1.9048 2.85729,-4.1907 2.85733,-6.8576 l 0,-9.5244 19.04891,0 0,9.5244 c -7e-5,7.8736 -2.79391,14.6042 -8.38152,20.1919 -5.58773,5.5877 -12.31834,8.3815 -20.19184,8.3815 -7.87357,0 -14.60418,-2.7938 -20.19183,-8.3815 -5.58769,-5.5877 -8.38153,-12.3183 -8.38152,-20.1919 l 0,-76.1956 c -1e-5,-7.8734 2.79383,-14.604 8.38152,-20.1918"
         style=""
         id="path61361" />
      <path
         d="m -560.25579,1285.8673 0,9.5244 c 0,7.8736 2.79384,14.6042 8.38152,20.1919 5.58766,5.5877 12.31826,8.3815 20.19184,8.3815 7.8735,0 14.60411,-2.7938 20.19183,-8.3815 5.58762,-5.5877 8.38146,-12.3183 8.38152,-20.1919 l 0,-19.0489 c -6e-5,-7.2385 -2.41292,-13.5881 -7.23858,-19.0489 -5.71472,-6.3495 -12.82631,-9.5243 -21.33477,-9.5244 -2.66688,10e-5 -4.95275,-0.8889 -6.85761,-2.6669 -1.77792,-1.9048 -2.66687,-4.1906 -2.66684,-6.8576 l 0,-19.0489 c -3e-5,-2.6667 0.88892,-4.8891 2.66684,-6.6671 1.90486,-1.9048 4.19073,-2.8572 6.85761,-2.8573 2.66681,10e-5 4.88918,0.9525 6.66711,2.8573 1.90485,1.778 2.85729,4.0004 2.85734,6.6671 l 0,9.5245 17.3345,0 1.7144,0 0,-9.5245 c -6e-5,-7.8734 -2.7939,-14.604 -8.38152,-20.1918 -5.58772,-5.5876 -12.31833,-8.3814 -20.19183,-8.3815 -7.87358,10e-5 -14.60418,2.7939 -20.19184,8.3815 -5.58768,5.5878 -8.38152,12.3184 -8.38152,20.1918 l 0,19.0489 c 0,7.2387 2.41286,13.5883 7.23859,19.0489 5.71465,6.3497 12.82623,9.5245 21.33477,9.5245 2.66681,0 4.88918,0.9525 6.66711,2.8573 1.90485,1.778 2.85729,4.0003 2.85734,6.6671 l 0,19.0489 c -5e-5,2.6669 -0.95249,4.9528 -2.85734,6.8576 -1.77793,1.778 -4.0003,2.6669 -6.66711,2.6669 -2.66688,0 -4.95275,-0.8889 -6.85761,-2.6669 -1.77792,-1.9048 -2.66687,-4.1907 -2.66684,-6.8576 l 0,-9.5244 -19.04891,0"
         style=""
         id="path61363" />
      <path
         d="m -1363.5688,1455.3917 -14.2867,-42.86 0,71.4334 -19.0489,0 0,-133.3423 19.0489,0 23.8111,71.4334 23.8112,-71.4334 19.0489,0 0,133.3423 -19.0489,0 0,-71.4334 -14.2867,42.86 -19.0489,0"
         style="font-size:190.48901367px;font-style:normal;font-variant:normal;font-weight:bold;font-stretch:normal;text-align:start;line-height:80.00000119%;writing-mode:lr-tb;text-anchor:start;fill:#00007f;fill-opacity:1;font-family:DIN_OSP;-inkscape-font-specification:DIN_OSP Bold"
         id="path61365" />
      <path
         d="m -1292.7307,1483.9651 0,-133.3423 57.1467,0 0,19.0489 -38.0978,0 0,38.0978 28.5734,0 0,19.0489 -28.5734,0 0,38.0978 38.0978,0 0,19.0489 -57.1467,0"
         style="font-size:190.48901367px;font-style:normal;font-variant:normal;font-weight:bold;font-stretch:normal;text-align:start;line-height:80.00000119%;writing-mode:lr-tb;text-anchor:start;fill:#00007f;fill-opacity:1;font-family:DIN_OSP;-inkscape-font-specification:DIN_OSP Bold"
         id="path61367" />
      <path
         d="m -1223.1576,1483.9651 0,-133.3423 57.1467,0 0,19.0489 -38.0978,0 0,38.0978 28.5734,0 0,19.0489 -28.5734,0 0,38.0978 38.0978,0 0,19.0489 -57.1467,0"
         style="font-size:190.48901367px;font-style:normal;font-variant:normal;font-weight:bold;font-stretch:normal;text-align:start;line-height:80.00000119%;writing-mode:lr-tb;text-anchor:start;fill:#00007f;fill-opacity:1;font-family:DIN_OSP;-inkscape-font-specification:DIN_OSP Bold"
         id="path61369" />
      <path
         d="m -1163.2994,1350.6228 57.1467,0 0,19.0489 -19.0489,0 0,114.2934 -19.0489,0 0,-114.2934 -19.0489,0 0,-19.0489"
         style="font-size:190.48901367px;font-style:normal;font-variant:normal;font-weight:bold;font-stretch:normal;text-align:start;line-height:80.00000119%;writing-mode:lr-tb;text-anchor:start;fill:#00007f;fill-opacity:1;font-family:DIN_OSP;-inkscape-font-specification:DIN_OSP Bold"
         id="path61371" />
      <path
         d="m -1077.7847,1483.9651 -19.0489,0 0,-133.3423 19.0489,0 0,133.3423"
         style="font-size:190.48901367px;font-style:normal;font-variant:normal;font-weight:bold;font-stretch:normal;text-align:start;line-height:80.00000119%;writing-mode:lr-tb;text-anchor:start;fill:#00007f;fill-opacity:1;font-family:DIN_OSP;-inkscape-font-specification:DIN_OSP Bold"
         id="path61373" />
      <path
         d="m -1059.846,1350.6228 19.0489,0 19.0489,66.6711 0,-66.6711 19.0489,0 0,133.3423 -19.0489,0 -19.0489,-66.6712 0,66.6712 -19.0489,0 0,-133.3423"
         style="font-size:190.48901367px;font-style:normal;font-variant:normal;font-weight:bold;font-stretch:normal;text-align:start;line-height:80.00000119%;writing-mode:lr-tb;text-anchor:start;fill:#00007f;fill-opacity:1;font-family:DIN_OSP;-inkscape-font-specification:DIN_OSP Bold"
         id="path61375" />
      <path
         d="m -977.8077,1359.0043 c 5.58765,-5.5876 12.31826,-8.3814 20.19183,-8.3815 7.8735,10e-5 14.60411,2.7939 20.19184,8.3815 5.58761,5.5878 8.38145,12.3184 8.38151,20.1918 l -19.0489,0 c -4e-5,-2.6667 -0.95249,-4.8891 -2.85733,-6.6671 -1.77794,-1.9048 -4.00031,-2.8572 -6.66712,-2.8573 -2.66688,10e-5 -4.95274,0.9525 -6.8576,2.8573 -1.77793,1.778 -2.66688,4.0004 -2.66685,6.6671 l 0,76.1956 c -3e-5,2.6669 0.88892,4.9528 2.66685,6.8576 1.90486,1.778 4.19072,2.6669 6.8576,2.6669 2.66681,0 4.88918,-0.8889 6.66712,-2.6669 1.90484,-1.9048 2.85729,-4.1907 2.85733,-6.8576 l 0,-28.5733 -9.52445,0 0,-19.0489 28.57335,0 0,47.6222 c -6e-5,7.8736 -2.7939,14.6042 -8.38151,20.1919 -5.58773,5.5877 -12.31834,8.3815 -20.19184,8.3815 -7.87357,0 -14.60418,-2.7938 -20.19183,-8.3815 -5.58769,-5.5877 -8.38153,-12.3183 -8.38152,-20.1919 l 0,-76.1956 c -10e-6,-7.8734 2.79383,-14.604 8.38152,-20.1918"
         style="font-size:190.48901367px;font-style:normal;font-variant:normal;font-weight:bold;font-stretch:normal;text-align:start;line-height:80.00000119%;writing-mode:lr-tb;text-anchor:start;fill:#00007f;fill-opacity:1;font-family:DIN_OSP;-inkscape-font-specification:DIN_OSP Bold"
         id="path61377" />
      <path
         d="m -870.69337,1359.0043 c 5.58766,-5.5876 12.31826,-8.3814 20.19183,-8.3815 7.87351,10e-5 14.60411,2.7939 20.19184,8.3815 5.58762,5.5878 8.38145,12.3184 8.38152,20.1918 -7e-5,4.1909 -0.82552,8.1277 -2.47636,11.8103 l -33.33558,73.9098 35.81194,0 0,19.0489 -57.14671,0 0,-19.0489 35.81194,-78.291 c 1.52387,-3.6827 2.28582,-6.159 2.28587,-7.4291 -5e-5,-2.6667 -0.95249,-4.8891 -2.85734,-6.6671 -1.77794,-1.9048 -4.00031,-2.8572 -6.66712,-2.8573 -2.66687,10e-5 -4.95274,0.9525 -6.8576,2.8573 -1.77792,1.778 -2.66687,4.0004 -2.66685,6.6671 l -19.0489,0 c 0,-7.8734 2.79383,-14.604 8.38152,-20.1918"
         style=""
         id="path61379" />
      <path
         d="m -800.74818,1359.0043 c 5.58766,-5.5876 12.31826,-8.3814 20.19184,-8.3815 7.8735,10e-5 14.6041,2.7939 20.19183,8.3815 5.58762,5.5878 8.38145,12.3184 8.38152,20.1918 l 0,76.1956 c -7e-5,7.8736 -2.7939,14.6042 -8.38152,20.1919 -5.58773,5.5877 -12.31833,8.3815 -20.19183,8.3815 -7.87358,0 -14.60418,-2.7938 -20.19184,-8.3815 -5.58769,-5.5877 -8.38152,-12.3183 -8.38152,-20.1919 l 0,-76.1956 c 0,-7.8734 2.79383,-14.604 8.38152,-20.1918 m 26.85895,13.5247 c -1.77794,-1.9048 -4.00031,-2.8572 -6.66711,-2.8573 -2.66688,10e-5 -4.95275,0.9525 -6.85761,2.8573 -1.77792,1.778 -2.66687,4.0004 -2.66685,6.6671 l 0,76.1956 c -2e-5,2.6669 0.88893,4.9528 2.66685,6.8576 1.90486,1.778 4.19073,2.6669 6.85761,2.6669 2.6668,0 4.88917,-0.8889 6.66711,-2.6669 1.90485,-1.9048 2.85729,-4.1907 2.85734,-6.8576 l 0,-76.1956 c -5e-5,-2.6667 -0.95249,-4.8891 -2.85734,-6.6671"
         style=""
         id="path61381" />
      <path
         d="m -716.51631,1350.6228 19.0489,0 0,133.3423 -19.0489,0 0,-114.2934 -19.04891,19.0489 0,-19.0489 19.04891,-19.0489"
         style=""
         id="path61383" />
      <path
         d="m -660.8578,1359.0043 c 5.58766,-5.5876 12.31826,-8.3814 20.19184,-8.3815 7.8735,10e-5 14.6041,2.7939 20.19183,8.3815 5.58762,5.5878 8.38145,12.3184 8.38152,20.1918 -7e-5,4.1909 -0.82552,8.1277 -2.47636,11.8103 l -33.33558,73.9098 35.81194,0 0,19.0489 -57.14671,0 0,-19.0489 35.81194,-78.291 c 1.52387,-3.6827 2.28582,-6.159 2.28587,-7.4291 -5e-5,-2.6667 -0.95249,-4.8891 -2.85734,-6.6671 -1.77794,-1.9048 -4.00031,-2.8572 -6.66711,-2.8573 -2.66688,10e-5 -4.95275,0.9525 -6.85761,2.8573 -1.77792,1.778 -2.66687,4.0004 -2.66684,6.6671 l -19.04891,0 c 0,-7.8734 2.79383,-14.604 8.38152,-20.1918"
         style=""
         id="path61385" />
      <path
         d="m -1403.5715,1510.6228 23.8111,133.5328 19.2394,0 23.8111,-133.5328 -19.2393,0 0,0.1905 -14.2867,77.91 -14.0962,-77.91 0,-0.1905 -19.2394,0"
         style="fill:#00007f"
         id="path61387" />
      <path
         d="m -1305.4786,1643.9651 -19.0489,0 0,-133.3423 19.0489,0 0,133.3423"
         style="fill:#00007f"
         id="path61389" />
      <path
         d="m -1286.7779,1643.9651 0,-133.3423 57.1467,0 0,19.0489 -38.0978,0 0,38.0978 28.5733,0 0,19.0489 -28.5733,0 0,38.0978 38.0978,0 0,19.0489 -57.1467,0"
         style="fill:#00007f"
         id="path61391" />
      <path
         d="m -1217.9667,1510.6228 19.0489,0 19.0489,66.6711 0,-66.6711 19.0489,0 0,133.3423 -19.0489,0 -19.0489,-66.6712 0,66.6712 -19.0489,0 0,-133.3423"
         style="fill:#00007f"
         id="path61393" />
      <path
         d="m -1143.929,1510.6228 19.0489,0 19.0489,66.6711 0,-66.6711 19.0489,0 0,133.3423 -19.0489,0 -19.0489,-66.6712 0,66.6712 -19.0489,0 0,-133.3423"
         style="fill:#00007f"
         id="path61395" />
      <path
         d="m -1049.3185,1510.6228 18.8584,0 28.5734,133.3423 -18.8584,0 -5.7147,-28.5734 -26.859,-0.1905 -5.7146,28.7639 -18.8584,0 28.5733,-133.3423 m 9.334,38.0978 -9.5245,47.8127 19.2394,0 -9.5244,-47.8127 c -10e-5,10e-5 -0.064,10e-5 -0.1905,0"
         style="fill:#00007f"
         id="path61397" />
      <path
         d="m -1391.1897,1679.0043 c 5.5876,-5.5876 12.3183,-8.3814 20.1918,-8.3815 7.8735,10e-5 14.6041,2.7939 20.1919,8.3815 5.5876,5.5878 8.3814,12.3184 8.3815,20.1918 -10e-5,4.1909 -0.8255,8.1277 -2.4764,11.8103 l -33.3356,73.9098 35.812,0 0,19.0489 -57.1467,0 0,-19.0489 35.8119,-78.291 c 1.5239,-3.6827 2.2858,-6.159 2.2859,-7.4291 -10e-5,-2.6667 -0.9525,-4.8891 -2.8574,-6.6671 -1.7779,-1.9048 -4.0003,-2.8572 -6.6671,-2.8573 -2.6669,10e-5 -4.9527,0.9525 -6.8576,2.8573 -1.7779,1.778 -2.6668,4.0004 -2.6668,6.6671 l -19.0489,0 c 0,-7.8734 2.7938,-14.604 8.3815,-20.1918"
         style=""
         id="path61399" />
      <path
         d="m -1327.7212,1736.151 45.7174,0 0,15.2391 -45.7174,0 0,-15.2391"
         style=""
         id="path61401" />
      <path
         d="m -1267.1218,1670.6228 47.6222,0 0,19.0489 -28.5733,0 0,30.2877 c 3.0478,-1.1428 6.2226,-1.7143 9.5244,-1.7144 7.8735,1e-4 14.6041,2.794 20.1918,8.3815 5.5877,5.5878 8.3815,12.3184 8.3816,20.1919 l 0,28.5733 c -10e-5,7.8736 -2.7939,14.6042 -8.3816,20.1919 -5.5877,5.5877 -12.3183,8.3815 -20.1918,8.3815 -7.8736,0 -14.6042,-2.7938 -20.1918,-8.3815 -5.5877,-5.5877 -8.3815,-12.3183 -8.3815,-20.1919 l 0,-9.5244 19.0489,0 0,9.5244 c -1e-4,2.6669 0.8889,4.9528 2.6668,6.8576 1.9049,1.778 4.1907,2.6669 6.8576,2.6669 2.6668,0 4.8892,-0.8889 6.6671,-2.6669 1.9049,-1.9048 2.8573,-4.1907 2.8574,-6.8576 l 0,-28.5733 c -1e-4,-2.6668 -0.9525,-4.8892 -2.8574,-6.6671 -1.7779,-1.9049 -4.0003,-2.8573 -6.6671,-2.8574 -2.6669,1e-4 -4.9527,0.9525 -6.8576,2.8574 -1.7779,1.7779 -2.6669,4.0003 -2.6668,6.6671 l -19.0489,0 0,-57.1467 0,-19.0489"
         style=""
         id="path61403" />
      <path
         d="m -1125.8296,1775.3917 -14.2867,-42.86 0,71.4334 -19.0489,0 0,-133.3423 19.0489,0 23.8112,71.4334 23.8111,-71.4334 19.0489,0 0,133.3423 -19.0489,0 0,-71.4334 -14.2867,42.86 -19.0489,0"
         style=""
         id="path61405" />
      <path
         d="m -1035.1806,1670.6228 18.8584,0 28.57335,133.3423 -18.85845,0 -5.7146,-28.5734 -26.859,-0.1905 -5.7147,28.7639 -18.8584,0 28.5734,-133.3423 m 9.3339,38.0978 -9.5244,47.8127 19.2394,0 -9.5245,-47.8127 c 0,10e-5 -0.064,10e-5 -0.1905,0"
         style=""
         id="path61407" />
      <path
         d="m -963.1103,1766.0578 0,38.0978 19.23939,0 0,-38.0978 23.81113,-95.435 -19.23939,0 -14.09619,56.9562 -14.28667,-56.9562 -19.23939,0 23.81112,95.435"
         style=""
         id="path61409" />
    </g>
    <g
       id="g5123-1-5"
       transform="matrix(22.596481,0,0,22.596481,-3216.5372,-11817.94)"
       style="fill:#00007e;fill-opacity:1;stroke:none;display:inline"
       inkscape:export-filename="/home/ale/docs/activite/libregraphics/lgm/lgm_2012/LGM_en.png"
       inkscape:export-xdpi="21.42"
       inkscape:export-ydpi="21.42">
      <rect
         style="fill:#00007e;fill-opacity:1;stroke:none"
         id="rect4311-6-5-3-8-4-2-65-2-7-18-0-5-8-2-2-2-0"
         width="12.267295"
         height="12.267295"
         x="-581.5799"
         y="29.54084"
         transform="matrix(-0.258819,-0.9659258,-0.9659258,0.258819,0,0)" />
      <rect
         style="fill:#00007e;fill-opacity:1;stroke:none"
         id="rect4311-2-77-5-9-6-2-6-0-5-7-9-6-9-3-2-9-8-9"
         width="14.874928"
         height="14.874928"
         x="-577.6886"
         y="41.455742"
         transform="matrix(-0.258819,-0.9659258,-0.9659258,0.258819,0,0)"
         inkscape:transform-center-x="-13.043453"
         inkscape:transform-center-y="13.043521" />
      <rect
         style="fill:#00007e;fill-opacity:1;stroke:none"
         id="rect4311-2-7-0-7-6-9-9-7-7-5-0-2-2-2-5-3-1-4-6"
         width="17.536182"
         height="17.536182"
         x="-573.7923"
         y="53.33532"
         transform="matrix(-0.258819,-0.9659258,-0.9659258,0.258819,0,0)"
         inkscape:transform-center-x="-15.377098"
         inkscape:transform-center-y="15.377069" />
    </g>
    <flowRoot
       xml:space="preserve"
       id="flowRoot61411"
       style="fill:black;stroke:none;stroke-opacity:1;stroke-width:1px;stroke-linejoin:miter;stroke-linecap:butt;fill-opacity:1;font-family:Sans;font-style:normal;font-weight:normal;font-size:40px;line-height:125%;letter-spacing:0px;word-spacing:0px"><flowRegion
         id="flowRegion61413"><rect
           id="rect61415"
           width="411.42856"
           height="228.57143"
           x="320"
           y="723.31769" /></flowRegion><flowPara
         id="flowPara61417"></flowPara></flowRoot>  </g>
</svg>
