<?xml version="1.0" encoding="UTF-8" standalone="no"?>
<!-- Created with Inkscape (http://www.inkscape.org/) -->

<svg
   xmlns:dc="http://purl.org/dc/elements/1.1/"
   xmlns:cc="http://creativecommons.org/ns#"
   xmlns:rdf="http://www.w3.org/1999/02/22-rdf-syntax-ns#"
   xmlns:svg="http://www.w3.org/2000/svg"
   xmlns="http://www.w3.org/2000/svg"
   xmlns:sodipodi="http://sodipodi.sourceforge.net/DTD/sodipodi-0.dtd"
   xmlns:inkscape="http://www.inkscape.org/namespaces/inkscape"
   id="svg2854"
   version="1.1"
   inkscape:version="0.47pre4 r22446"
   width="142"
   height="142"
   xml:space="preserve"
   sodipodi:docname="LGM_stickers02.pdf"><metadata
     id="metadata2860"><rdf:RDF><cc:Work
         rdf:about=""><dc:format>image/svg+xml</dc:format><dc:type
           rdf:resource="http://purl.org/dc/dcmitype/StillImage" /><dc:title></dc:title></cc:Work></rdf:RDF></metadata><defs
     id="defs2858"><inkscape:perspective
       sodipodi:type="inkscape:persp3d"
       inkscape:vp_x="0 : 0.5 : 1"
       inkscape:vp_y="0 : 1000 : 0"
       inkscape:vp_z="1 : 0.5 : 1"
       inkscape:persp3d-origin="0.5 : 0.33333333 : 1"
       id="perspective2862" /></defs><sodipodi:namedview
     pagecolor="#ffffff"
     bordercolor="#666666"
     borderopacity="1"
     objecttolerance="10"
     gridtolerance="10"
     guidetolerance="10"
     inkscape:pageopacity="0"
     inkscape:pageshadow="2"
     inkscape:window-width="640"
     inkscape:window-height="480"
     id="namedview2856"
     showgrid="false"
     inkscape:zoom="1.7957746"
     inkscape:cx="71"
     inkscape:cy="71"
     inkscape:window-x="0"
     inkscape:window-y="25"
     inkscape:window-maximized="0"
     inkscape:current-layer="g2864" /><g
     id="g2864"
     inkscape:groupmode="layer"
     inkscape:label="LGM_stickers02"
     transform="matrix(1.25,0,0,-1.25,0,142)"><g
       id="g2866"><path
         d="M 44.5,79.221 11.133,69.709 18.68,43.233 c 0.023,-0.086 0.043,-0.172 0.062,-0.258 0.129,-0.539 0.242,-1.078 0.36,-1.617 0.472,-2.145 0.859,-4.305 1.105,-6.488 0.238,-2.133 0.34,-4.301 0.102,-6.434 -0.059,-0.508 -0.129,-1.031 0.011,-1.524 0.071,-0.246 0.196,-0.472 0.383,-0.648 0.188,-0.172 0.442,-0.293 0.695,-0.285 0.262,0.008 0.508,0.144 0.684,0.336 0.176,0.191 0.285,0.437 0.336,0.695 0.094,0.512 -0.043,1.031 -0.164,1.539 -0.262,1.106 -0.469,2.231 -0.481,3.363 -0.007,0.579 0.047,1.161 0.211,1.715 0.161,0.551 0.442,1.075 0.868,1.465 0.32,0.293 0.734,0.516 1.168,0.52 0.406,0.004 0.8,-0.188 1.089,-0.473 0.293,-0.285 0.473,-0.66 0.571,-1.055 0.199,-0.789 0.05,-1.613 -0.059,-2.418 -0.059,-0.406 -0.101,-0.832 0.035,-1.218 0.071,-0.192 0.188,-0.371 0.348,-0.496 0.16,-0.125 0.367,-0.188 0.57,-0.161 0.196,0.024 0.371,0.133 0.496,0.286 0.129,0.152 0.207,0.339 0.239,0.535 0.058,0.386 -0.043,0.785 -0.149,1.164 -0.226,0.816 -0.445,1.64 -0.437,2.484 0.011,0.785 0.222,1.574 0.636,2.246 0.645,1.047 1.739,1.75 2.891,2.184 1.152,0.437 2.379,0.633 3.586,0.859 5.004,0.93 9.875,2.504 14.476,4.68 l 2.11,-7.414 27.629,7.883 2.113,-7.411 23.348,6.653 L 96.859,67.28 74.18,60.811 70.652,73.186 48.051,66.745 44.5,79.221 z"
         style="fill:#ffcc00;fill-opacity:1;fill-rule:nonzero;stroke:none"
         id="path2868" /><path
         d="M 93.477,68.534 94.828,61.19 C 95,60.241 94.812,59.424 94.262,58.737 93.695,58.041 92.859,57.596 91.75,57.393 c -0.844,-0.156 -1.59,-0.129 -2.23,0.086 -0.641,0.215 -1.301,0.648 -1.981,1.308 l 0.293,-1.597 -3.191,-0.586 -0.274,1.488 1.551,0.285 -1.832,9.969 3.367,0.617 0.274,-1.484 -1.551,-0.285 0.918,-5.008 c 0.215,-1.164 0.672,-2.055 1.371,-2.664 0.699,-0.594 1.519,-0.805 2.469,-0.629 0.726,0.133 1.265,0.441 1.613,0.93 0.348,0.484 0.457,1.07 0.332,1.754 l -1.492,8.109 3.367,0.621 0.273,-1.488 -1.55,-0.285"
         style="fill:#000000;fill-opacity:1;fill-rule:nonzero;stroke:none"
         id="path2870" /><path
         d="m 70.574,55.553 -1.32,7.172 c -0.172,0.949 0.016,1.766 0.566,2.453 0.551,0.692 1.383,1.137 2.489,1.34 0.843,0.156 1.597,0.113 2.261,-0.125 0.649,-0.242 1.301,-0.719 1.957,-1.426 l -0.355,1.922 3.238,0.598 0.274,-1.489 -1.555,-0.285 1.559,-8.48 1.554,0.285 0.274,-1.488 -4.942,-0.91 -0.273,1.488 1.551,0.285 -0.887,4.832 c -0.215,1.164 -0.672,2.047 -1.367,2.641 -0.7,0.609 -1.516,0.828 -2.45,0.656 -0.726,-0.133 -1.265,-0.442 -1.613,-0.93 -0.347,-0.484 -0.461,-1.07 -0.332,-1.754 l 1.457,-7.937 -3.367,-0.617 -0.273,1.484 1.554,0.285"
         style="fill:#000000;fill-opacity:1;fill-rule:nonzero;stroke:none"
         id="path2872" /><path
         d="m 62.09,67.397 2.383,-12.965 1.554,0.285 0.274,-1.484 -4.942,-0.91 -0.273,1.488 1.551,0.285 -2.657,14.449 3.391,0.625 0.27,-1.488 -1.551,-0.285"
         style="fill:#000000;fill-opacity:1;fill-rule:nonzero;stroke:none"
         id="path2874" /><path
         d="m 47.695,55.1 8.438,1.551 c 0.179,-1.051 0.125,-1.906 -0.16,-2.559 -0.446,-1.109 -1.274,-1.773 -2.481,-1.996 -1.488,-0.273 -2.629,0.309 -3.418,1.746 l -1.836,-0.336 c 0.461,-1.211 1.188,-2.09 2.176,-2.629 0.988,-0.543 2.141,-0.691 3.453,-0.449 1.602,0.293 2.77,1.067 3.504,2.317 0.734,1.261 0.926,2.835 0.578,4.714 -0.344,1.879 -1.094,3.293 -2.246,4.243 -1.172,0.96 -2.551,1.293 -4.141,1.003 -1.078,-0.199 -1.976,-0.644 -2.691,-1.332 -0.734,-0.691 -1.195,-1.539 -1.387,-2.539 -0.16,-0.855 -0.089,-2.101 0.211,-3.734 m 8.121,3.031 -6.425,-1.183 c -0.02,0.027 -0.036,0.07 -0.047,0.129 -0.176,0.945 -0.016,1.796 0.48,2.55 0.492,0.77 1.18,1.235 2.071,1.399 0.917,0.168 1.734,-0.012 2.449,-0.543 0.715,-0.52 1.203,-1.301 1.472,-2.352"
         style="fill:#000000;fill-opacity:1;fill-rule:nonzero;stroke:none"
         id="path2876" /><path
         d="m 35.051,49.022 0.273,-1.485 3.145,0.579 -0.278,1.507 c 0.629,-0.621 1.262,-1.035 1.903,-1.234 0.625,-0.215 1.332,-0.25 2.121,-0.105 1.543,0.285 2.66,1.062 3.344,2.332 0.683,1.285 0.847,2.898 0.488,4.836 -0.332,1.824 -1.047,3.199 -2.137,4.128 -1.105,0.942 -2.402,1.274 -3.89,1 -1.575,-0.289 -2.637,-1.093 -3.192,-2.418 l -0.269,1.465 -1.817,-0.332 1.836,-9.992 -1.527,-0.281 m 4.976,9.797 c 0.993,0.183 1.868,-0.078 2.629,-0.782 0.762,-0.703 1.266,-1.718 1.512,-3.042 0.246,-1.344 0.137,-2.477 -0.324,-3.407 -0.465,-0.914 -1.199,-1.461 -2.207,-1.648 -0.961,-0.176 -1.809,0.082 -2.539,0.777 -0.727,0.695 -1.215,1.703 -1.461,3.031 -0.25,1.372 -0.16,2.508 0.277,3.418 0.434,0.922 1.137,1.473 2.113,1.653"
         style="fill:#000000;fill-opacity:1;fill-rule:nonzero;stroke:none"
         id="path2878" /><path
         d="m 29.074,56.694 1.559,-8.485 1.551,0.289 0.273,-1.488 -4.937,-0.91 -0.274,1.488 1.574,0.289 -0.843,4.457 c -0.289,1.496 -0.786,2.461 -1.481,2.891 -0.711,0.426 -1.68,0.543 -2.91,0.348 l -0.344,1.855 c 0.301,0.102 0.528,0.164 0.688,0.195 0.586,0.106 1.156,0.016 1.722,-0.269 0.547,-0.277 1.164,-0.797 1.848,-1.559 l -0.383,2.075 3.235,0.593 0.273,-1.484 -1.551,-0.285"
         style="fill:#000000;fill-opacity:1;fill-rule:nonzero;stroke:none"
         id="path2880" /><path
         d="m 12.664,44.909 -1.32,7.168 c -0.172,0.949 0.015,1.765 0.566,2.457 0.551,0.687 1.383,1.132 2.488,1.336 0.848,0.156 1.602,0.113 2.262,-0.125 0.649,-0.243 1.301,-0.719 1.957,-1.426 l -0.355,1.922 3.238,0.597 0.273,-1.488 -1.554,-0.285 1.562,-8.481 1.551,0.286 0.273,-1.489 -4.941,-0.906 -0.273,1.484 1.55,0.286 -0.886,4.832 c -0.215,1.168 -0.668,2.046 -1.367,2.64 -0.7,0.61 -1.516,0.828 -2.45,0.66 -0.726,-0.136 -1.265,-0.445 -1.613,-0.929 -0.348,-0.489 -0.457,-1.075 -0.332,-1.758 l 1.457,-7.934 -3.363,-0.621 -0.274,1.488 1.551,0.286"
         style="fill:#000000;fill-opacity:1;fill-rule:nonzero;stroke:none"
         id="path2882" /></g></g></svg>